<?xml version="1.0" encoding="utf-8"?>
<!-- Generator: Adobe Illustrator 25.1.0, SVG Export Plug-In . SVG Version: 6.00 Build 0)  -->
<svg version="1.1" xmlns="http://www.w3.org/2000/svg" xmlns:xlink="http://www.w3.org/1999/xlink" x="0px" y="0px"
	 viewBox="0 0 4322 2221.1" style="enable-background:new 0 0 4322 2221.1;" xml:space="preserve">
<style type="text/css">
	.st0{fill:#EBF3FA;}
	.st1{fill:#B0D4FF;}
	.st2{fill:#95C0F4;}
	.st3{fill:#CAE5FF;}
	.st4{fill:#DFEDFB;}
	.st5{fill:#FFFFFF;}
	.st6{fill:#FFA412;}
	.st7{fill:#EEF6FF;}
	.st8{fill:#78ACEA;}
	.st9{fill:#BAE8E3;}
	.st10{fill:#A1D6CE;}
	.st11{fill:#F99746;}
	.st12{fill:#C0D8FB;}
	.st13{fill:#DFEBFD;}
	.st14{fill:#B7D3F3;}
	.st15{fill:#FFB27D;}
	.st16{fill:#233862;}
	.st17{fill:#A9453D;}
	.st18{fill:#ED975D;}
	.st19{fill:#2A4E96;}
	.st20{fill:#5F9AA8;}
	.st21{fill:#1E3D70;}
	.st22{fill:#ED7D2B;}
	.st23{fill:#163560;}
	.st24{fill:#B0D0FF;}
	.st25{fill:#98BAF4;}
	.st26{fill:#E8945B;}
	.st27{fill:#F2CCAA;}
	.st28{fill:#B5453C;}
	.st29{fill:#2B478B;}
	.st30{fill:#EBF3FF;}
	.st31{fill:#213F7A;}
	.st32{fill:#E2915A;}
	.st33{fill:#2E3552;}
	.st34{fill:#B4A3C6;}
	.st35{fill:#ADBCC9;}
	.st36{fill:#BAC6D3;}
	.st37{fill:#D0DAE2;}
	.st38{opacity:0.6;fill:#FFFFFF;}
	.st39{opacity:0.75;fill:#FFFFFF;}
	.st40{opacity:0.85;fill:#FFFFFF;}
	.st41{opacity:0.63;fill:#FFFFFF;}
	.st42{fill-rule:evenodd;clip-rule:evenodd;fill:#FFFFFF;}
	.st43{fill:#282626;}
	.st44{fill:#151823;}
	.st45{fill:#282A35;}
	.st46{fill:#102B8C;}
	.st47{fill:#2A4FC6;}
	.st48{fill:#DBB2A5;}
	.st49{fill:#BA784A;}
	.st50{fill:#A0593A;}
	.st51{fill:#CC9987;}
	.st52{opacity:0.8;fill:#FFFFFF;}
	.st53{opacity:0.8;}
	.st54{opacity:0.84;}
	.st55{opacity:0.55;}
	.st56{opacity:0.54;}
	.st57{opacity:0.64;fill:#FFFFFF;}
	.st58{fill:#C3CED8;}
	.st59{fill:#DDE8F2;}
	.st60{fill:#E64A00;}
	.st61{opacity:0.74;fill:#FF781D;}
	.st62{fill:#DBA697;}
	.st63{fill:#992C75;}
	.st64{fill:#E5BFB5;}
	.st65{fill:url(#SVGID_1_);}
	.st66{fill:#7F1C5C;}
	.st67{fill:url(#SVGID_2_);}
	.st68{fill:#3D0C04;}
	.st69{fill:#59140A;}
	.st70{opacity:0.38;fill:#FFFFFF;}
	.st71{opacity:0.5;}
	.st72{opacity:0.68;fill:#FFFFFF;}
	.st73{opacity:0.37;}
	.st74{opacity:0.94;fill:#FFFFFF;}
	.st75{opacity:0.25;fill:#FFFFFF;}
	.st76{opacity:0.88;}
	.st77{opacity:0.62;}
	.st78{opacity:0.59;fill:#FFFFFF;}
	.st79{fill:#CFD9E2;}
	.st80{fill:#C7D3E0;}
	.st81{fill:#96A6BC;}
	.st82{fill:url(#SVGID_3_);}
	.st83{fill:#66BCF7;}
	.st84{fill:url(#SVGID_4_);}
	.st85{opacity:0.7;fill:url(#SVGID_5_);}
	.st86{fill:#A3CCE2;}
	.st87{fill:#8ACDFF;}
	.st88{fill:#D1203D;}
	.st89{fill:#AA0031;}
	.st90{fill:url(#SVGID_6_);}
	.st91{fill:#DCE1E5;}
	.st92{fill:#D19D90;}
	.st93{fill:#FF781D;}
	.st94{opacity:0.42;fill:#C7D3E0;}
	.st95{fill:url(#SVGID_7_);}
	.st96{fill:#AF664B;}
	.st97{fill:#BF845C;}
	.st98{opacity:0.36;fill:#FFFFFF;}
	.st99{opacity:0.37;fill:#FFFFFF;}
	.st100{fill:url(#SVGID_8_);}
	.st101{fill:#97D3FF;}
	.st102{fill:#468BB7;}
	.st103{fill:#743064;}
	.st104{fill:#303030;}
	.st105{fill:#56585E;}
	.st106{fill:#0A2126;}
	.st107{fill:#004555;}
	.st108{fill:#1E0C00;}
	.st109{fill:#0089A9;}
	.st110{fill:#3C1047;}
	.st111{fill:#FD5E5A;}
	.st112{fill:#FC7575;}
	.st113{fill:#AF9BE2;}
	.st114{fill:#CFC3EE;}
	.st115{fill:#8475AA;}
	.st116{fill:url(#SVGID_9_);}
	.st117{fill:#F8F0A1;}
	.st118{fill:#6B9FC5;}
	.st119{fill:url(#SVGID_10_);}
	.st120{fill:#290096;}
	.st121{fill:#F1ECFF;}
	.st122{fill:#D7CEEE;}
	.st123{fill:#FFE5A0;}
	.st124{fill:#FFFCED;}
	.st125{fill:#ECB2CD;}
	.st126{fill:#002B32;}
	.st127{fill:#746C87;}
	.st128{fill:#2E0A29;}
	.st129{fill:#001542;}
	.st130{fill:#FF4747;}
	.st131{fill:#4D475B;}
	.st132{fill:#998DB6;}
	.st133{fill:#703C6A;}
	.st134{fill:#47003F;}
	.st135{fill:#060032;}
	.st136{fill:#482044;}
	.st137{fill:#FF7B7B;}
	.st138{fill:#4B2847;}
	.st139{fill:#99CEDC;}
	.st140{fill:#95508D;}
	.st141{fill:#CEF2FA;}
	.st142{fill:#5DB9F4;}
	.st143{fill:#00485C;}
	.st144{fill:#333A6A;}
	.st145{fill:#47405C;}
	.st146{fill:#5F557B;}
	.st147{fill:#C3EDF4;}
	.st148{fill:#363A68;}
	.st149{fill:#260E0D;}
	.st150{fill:#2F1954;}
	.st151{fill:#0E0E0E;}
	.st152{fill:#F1A97E;}
	.st153{fill:#121841;}
	.st154{fill:#555DA2;}
	.st155{fill:#777EB5;}
	.st156{fill:#1E3340;}
	.st157{fill:#EEF1F9;}
	.st158{fill:#403003;}
	.st159{fill:#4C3D65;}
	.st160{fill:#554004;}
	.st161{fill:#322844;}
	.st162{fill:#000945;}
	.st163{fill:#F66D75;}
	.st164{fill:#98B0BF;}
	.st165{fill:#2D1175;}
	.st166{fill:#CAEBFF;}
	.st167{fill:#C33EA4;}
	.st168{fill:#7F71A4;}
	.st169{fill:#B2AAC8;}
	.st170{fill:#0A6980;}
	.st171{fill:#084F60;}
	.st172{fill:#D4C5F6;}
	.st173{fill:#313B3D;}
	.st174{fill:url(#SVGID_11_);}
	.st175{fill:#339CB4;}
	.st176{fill:#666E9E;}
	.st177{fill:#371C45;}
	.st178{fill:#170053;}
	.st179{opacity:0.53;fill:#FD5E5A;}
	.st180{fill:#322554;}
	.st181{fill:#1B2B80;}
	.st182{fill:#2F499F;}
	.st183{fill:#023135;}
	.st184{fill:#560D68;}
	.st185{fill:#510B5E;}
	.st186{fill:#CEF794;}
	.st187{fill:#7BD3E0;}
	.st188{fill:#B3EEFF;}
	.st189{opacity:0.7;fill:#7BD3E0;}
	.st190{fill:#99DFED;}
	.st191{fill:#D5F8FF;}
	.st192{fill:#1A5C60;}
	.st193{fill:#F77967;}
	.st194{fill:#25767F;}
	.st195{fill:#1F4E54;}
	.st196{fill:#DD5444;}
	.st197{fill:#275962;}
	.st198{fill:#318796;}
	.st199{fill:#70BCE2;}
	.st200{fill:#FF9E85;}
	.st201{fill:#E87558;}
	.st202{fill:#D7F4FC;}
	.st203{fill:#92CEF4;}
	.st204{fill:#C4F5FF;}
	.st205{fill:#ECFAF9;}
	.st206{fill:#F97B51;}
	.st207{fill:#184449;}
	.st208{fill:#ED7D60;}
	.st209{fill:#77B4E5;}
	.st210{fill:#FC8F74;}
	.st211{fill:#317A8B;}
	.st212{fill:#EF6B45;}
	.st213{fill:#A5E0FF;}
	.st214{fill:#1B484C;}
	.st215{fill:#304752;}
	.st216{fill:#C6E4FF;}
	.st217{fill:#13B789;}
	.st218{opacity:0.6;}
	.st219{fill:#008E5D;}
	.st220{fill:#009B00;}
	.st221{opacity:0.4;fill:#FFFFFF;}
	.st222{fill:#B1EDB7;}
	.st223{fill:#EB4A78;}
	.st224{fill:#68396B;}
	.st225{fill:#F69EA7;}
	.st226{opacity:0.32;fill:#F69EA7;}
	.st227{fill:none;}
	.st228{fill:#3B89C4;}
	.st229{fill:url(#SVGID_12_);}
	.st230{fill:#DB857D;}
	.st231{fill:none;stroke:#FFFFFF;stroke-width:0.7412;stroke-miterlimit:10;}
	.st232{fill:url(#SVGID_13_);}
	.st233{fill:url(#SVGID_14_);}
	.st234{fill:url(#SVGID_15_);}
	.st235{fill:url(#SVGID_16_);}
	.st236{fill:url(#SVGID_17_);}
	.st237{fill:url(#SVGID_18_);}
	.st238{fill:url(#SVGID_19_);}
	.st239{fill:url(#SVGID_20_);}
	.st240{fill:url(#SVGID_21_);}
	.st241{fill:url(#SVGID_22_);}
	.st242{fill:url(#SVGID_23_);}
	.st243{fill:url(#SVGID_24_);}
	.st244{fill:url(#SVGID_25_);}
	.st245{fill:url(#SVGID_26_);}
	.st246{opacity:0.49;fill:#E6E6E6;}
</style>
<g id="Слой_1">
</g>
<g id="Layer_3">
	<path class="st34" d="M406.8,2114.7c0.2,0.1,3456.7-0.4,3456.7-0.4c113.8-254,113.6-378.1,126.6-523.6
		c13.2-148.1,15.1-510.5-169.4-689.7c-27.1-26.3-51.5-39-78.8-55.3c-342.5-203.9-599.9-24.4-946.9-162.1
		c-269.5-106.9-246.4-269.3-474.8-288.6c-166.1-14.1-373.4,55.2-481,111.7c-83.4,43.8-172.1,76.6-255.8,119.8
		c-7.2,3.7-33,17.1-69.9,26.8c-7.6,2-14.5,3.4-21.1,4.7c-152.3,28.9-187-50.8-365.4-18.6c-144.2,26-342,117.9-389.7,275.6
		c-31.7,104.7,43.8,148-4.4,241c-54.8,105.7-193.6,133.2-305,240.6C203.7,1612.3,227.1,1965.4,406.8,2114.7z"/>
	<g>
		<polygon class="st35" points="809.5,1781.7 801.6,1781.7 831.4,1523.6 854.2,1523.6 		"/>
		<g>
			<path class="st35" d="M859.5,1800.1c2.3-0.7,3.7-3.1,3-5.4l0,0c-11.6-40.7-29.3-123.1-46.8-164.3l0,0
				c-6.2-13.6-10.9-23.4-20-25.8l0,0c-19.1-3.6-39.6-6.2-55.8-6.2l0,0c-12,0.2-21.5,1-27.6,6l0,0c-2.9,3.1-3.5,6.4-5.2,12.3l0,0
				c-1.5,5.7-3,13.1-4.5,21.7l0,0c-3.1,17.3-6.3,39.5-9.2,61.5l0,0c-5.9,43.9-10.6,86.6-10.6,86.7l0,0c-0.3,2.4,1.5,4.6,3.9,4.8l0,0
				c2.4,0.2,4.6-1.5,4.8-3.9l0,0c0-0.1,4.4-40.1,10-82.4l0,0c5.4-41.9,12.8-87.5,16.7-94.1l0,0c0,0,0-0.1-0.1,0l0,0
				c1.9-2.1,10.6-4,21.8-3.9l0,0c15.2,0,35.5,2.5,54.2,6.1l0,0c1.7-0.4,8.3,7.4,13.6,20.7l0,0c5.6,13.2,11.4,31.2,17,50.8l0,0
				c11.2,39.3,21.7,85,29.4,112.4l0,0c0.5,1.9,2.3,3.2,4.2,3.2l0,0C858.7,1800.3,859.1,1800.2,859.5,1800.1L859.5,1800.1z"/>
			<g>
				<path class="st35" d="M582.1,1504.4c7.1,11.3,32.3,69.8,16.8,109.4c9.2-2.1,13.7-2.6,13.7-2.6s6.8-74.2-20.7-109.6
					C564.1,1466.2,582.1,1504.4,582.1,1504.4z"/>
				<path class="st35" d="M718.3,1488.4c-5.5,30.4-5.7,80.5,18.4,115.6c-9.5,0-17.4-3.9-17.4-3.9s-19.3-74.7-6.7-113.5
					C726.4,1444.1,718.3,1488.4,718.3,1488.4z"/>
				<g>
					<path class="st36" d="M562.9,1463.5c0,0-0.1-0.1-0.1-0.2c-0.2-6.1,37.9-14.1,87.6-16.2c49.7-2.2,75.7,4.9,75.9,11.1
						c0,0.2,8.3,48.1-4.8,50.8c-8.9,1.9-16.7,2.9-65.3,5c-48.6,2.1-80.2,7.2-87.3-0.4C569,1513.6,557.9,1474.3,562.9,1463.5z"/>
					<path class="st37" d="M564.8,1509.3c0.2,5,11.4,9.3,14.5,7.2c-5.2-11.3-10.4-34.8-6.5-48.6c0,0-4.7,0-4.7-0.1
						c3.5-7.2,39.9-12.9,89.6-15c36.4-1.6,62-2.3,68.3,4.5c1.5-2.6-19.7-8.8-19.7-8.8c-7.6-0.9-19.5-3.7-69.2-1.5
						c-49.7,2.2-73.8,9.3-75.5,15.7c0,0.1-0.3,0.5-0.3,0.5C556.2,1473.9,564.8,1509.3,564.8,1509.3z"/>
				</g>
			</g>
			<path class="st35" d="M706.1,1816.5c2.4-0.3,4.1-2.5,3.8-4.9l0,0c-8.5-64.6-17.4-162.4-28.3-189.4l0,0c-1.8-3.9-2.9-7.2-7.7-8.7
				l0,0c-26-5.1-42.6-16.4-56.2-16.8l0,0c-3.2,0-6.6,0.9-9.3,3.1l0,0c-3,2.9-4,6.2-6.3,12.1l0,0c-2.1,5.7-4.5,13.3-7,22.2l0,0
				c-5.1,17.8-11,40.6-16.6,63.2l0,0c-11.2,45.2-21.1,98.3-21.1,98.4l0,0c-0.5,2.4,1,4.7,3.3,5.3l0,0c2.4,0.5,4.7-1,5.3-3.3l0,0
				c0-0.1,9.3-50.3,20.1-94l0,0c10.5-43.3,23.2-90,27.9-96.9l0,0l0-0.1c1-0.8,2-1.1,3.8-1.2l0,0c8.3-0.4,27.1,10.9,53.9,16.5l0,0
				c0,0.1,0.1,0.1,0.1,0.2l0,0c0.4,0.6,1.1,1.7,1.7,3.3l0,0c1.3,3.2,2.7,8.2,4.1,14.3l0,0c2.8,12.3,5.6,29.6,8.3,49.1l0,0
				c5.4,39,10.5,86.9,15.3,123.9l0,0h0c0.3,2.2,2.2,3.8,4.4,3.8l0,0C705.7,1816.6,705.9,1816.5,706.1,1816.5L706.1,1816.5z"/>
			<path class="st35" d="M589.3,1601.6c3.4-5.5,142.8-13.1,153.7-11.8c10.8,1.3,82.1,8.1,86.2,17.2c4.1,9,7.4,24.8-4.9,30
				c-12.2,5.1-124.7,18-144.8,13.4c-12.9-3-86.9-10.7-89.3-19.1C585.8,1616.5,589.3,1601.6,589.3,1601.6z"/>
			<path class="st36" d="M812,1607.2c-10.6,0.8-112.1,10.7-126.9,7.3c-17.9-4.1-92.8-12.8-83.1-14.4c9.8-1.6,115.5-8.1,133.4-8.1
				C753.4,1592,817.9,1606.8,812,1607.2z"/>
		</g>
		<polygon class="st37" points="735.1,1856.1 744.5,1856.1 709,1547.5 681.8,1547.5 		"/>
		<polygon class="st36" points="1030.4,1813.7 1038.8,1813.7 988.5,1537.2 964.2,1537.2 		"/>
		<polygon class="st36" points="458.5,1823 449.9,1823 487.6,1549.7 512.5,1549.7 		"/>
		<polygon class="st37" points="419.3,1533.7 700.1,1546.9 1017.1,1523.9 837.2,1518.5 		"/>
		<g>
			<polygon class="st36" points="420.7,1554.3 690.3,1563.2 1017.1,1545.5 1017.1,1523.9 692.1,1540.9 420.7,1533.2 			"/>
		</g>
	</g>
	<g>
		<path class="st38" d="M3661.9,1946c0,72.9-681,132-1521.1,132c-840.1,0-1521.1-59.1-1521.1-132c0-72.9,681-132,1521.1-132
			C2980.9,1814,3661.9,1873.1,3661.9,1946z"/>
		<path class="st39" d="M3374.7,1932.3c0,47.8-546.7,86.5-1221.1,86.5c-674.4,0-1221-38.7-1221-86.5c0-47.8,546.7-86.5,1221-86.5
			C2828.1,1845.7,3374.7,1884.5,3374.7,1932.3z"/>
	</g>
	<g>
		<polygon class="st40" points="2447.3,868.7 2413.5,872.2 2422.2,881.6 2355.4,939 2320.3,922.4 2129.7,1074.4 2129.7,1096.1 
			2323.3,941.5 2358.7,958.3 2432.7,893.2 2441.9,903.3 		"/>
		<polygon class="st41" points="2286.9,882.1 2258.2,885 2265.5,893 2208.9,941.8 2179.1,927.6 2096.9,994 2096.9,1012.4 
			2181.6,943.9 2211.7,958.1 2274.5,902.8 2282.3,911.4 		"/>
	</g>
	<path class="st42" d="M3201.8,939.9v62l13.6,15.4l9.7,10.5h100.4v-88.3L3201.8,939.9z M3271.7,954.2h39.2v1.5h-39.2V954.2z
		 M3271.7,960.8h39.2v1.5h-39.2V960.8z M3271.7,967.3h39.2v1.5h-39.2V967.3z M3271.7,973.9h39.2v1.5h-39.2V973.9z M3218.2,954.2
		h39.8v1.5h-39.8V954.2z M3218.2,960.8h39.8v1.5h-39.8V960.8z M3218.2,967.3h39.8v1.5h-39.8V967.3z M3218.2,973.9h39.8v1.5h-39.8
		V973.9z M3312.8,994.4h-94.6v-1.5h94.6V994.4z M3312.8,985.7h-94.6v-1.5h94.6V985.7z"/>
	<g>
		<g>
			<g>
				<path class="st43" d="M2080.2,1827.9c2.8,3.6,1.6,9.5,0.5,15.7c-0.5,2.8-6.3,6.7-11.1,7.8c-14.2,3.3-30.4-3.2-37.7-9.8
					c-8.1-7.5-26.3-7.7-29.8-11.5c-6.3-6.8,1.2-22,1.2-22l45.7,23.1L2080.2,1827.9z"/>
				<path class="st44" d="M2002.7,1825.3c22,2.6,27.3,14.2,44,17.9c36.5,8.1,43.9-12.6,24.7-24.6c-6.2-3.8-11-4.6-15.8-20.1
					c0,0-4.3,2.9-4.7,5.2c0.1,1.7,2.4,0.3-10.3,1c-5.1,0.3-27.1-6.1-31.6-5.9C2000.8,1801.9,1995.3,1824.4,2002.7,1825.3z"/>
				<path class="st43" d="M2039.5,1826.9c5.4-1.8,13.9-6,18.2-6.2l0,0c1.5,0,2,0.2,2.3,0.8l0,0c0.3,0.5,1,0.8,1.6,0.6l0,0
					c0.6-0.2,0.9-0.9,0.6-1.5l0,0c-0.8-1.7-2.8-2.2-4.7-2.1l0,0c-4.5,0.3-11.1,3.4-16.1,5.3l0,0c2.9-4.2,9.4-6.1,16.5-7.8l0,0
					c0.4-0.1,0.7-0.3,0.9-0.6l0,0c0.1-0.3,0.1-0.7-0.1-1l0,0c-1.2-1.5-3.1-1.9-5.1-1.7l0,0c-6.3,0.4-16.2,5.3-21.9,6.1l0,0
					c2.2-7.8,11.9-8.3,19.5-9.3l0,0l0,0c0.7-0.1,1.2-0.7,1.1-1.3l0,0c-0.1-0.6-0.7-1-1.4-0.9l0,0c-7.5,1-20,1.5-21.9,12.5l0,0
					c-0.1,0.3,0.1,0.6,0.3,0.9l0,0c0.2,0.3,0.6,0.4,1,0.4l0,0c0.2,0,0.4,0,0.6,0l0,0c6.6-0.5,17.3-5.9,23-6.2l0,0c0,0,0.1,0,0.1,0
					l0,0c-7.1,1.9-13.8,4.5-16,10.8l0,0c-0.2,0.4,0,0.8,0.3,1.1l0,0c0.3,0.2,0.6,0.3,1,0.3l0,0
					C2039.3,1826.9,2039.4,1826.9,2039.5,1826.9L2039.5,1826.9z"/>
			</g>
			<g>
				<path class="st45" d="M1833.1,1830.5c-3.4,4.4-1.9,11.6-0.6,19.2c0.6,3.4,7.6,8.1,13.3,9.5c17,4,36.5-3.9,45.2-12
					c9.7-9.1,31.6-9.4,35.7-14c7.5-8.3-1.5-26.9-1.5-26.9l-54.8,28.3L1833.1,1830.5z"/>
				<path class="st44" d="M1918.7,1794.8c-5.5-0.3-31.8,7.6-37.9,7.2c-15.3-0.9-12.6,0.9-12.4-1.2c-0.5-2.8-0.9-7.5-0.9-7.5
					c-5.7,19.1-16.3,21-23.8,25.7c-23.1,14.7-14.2,40,29.6,30.1c20-4.5,26.4-18.7,52.8-21.8
					C1935,1826.2,1928.4,1798.7,1918.7,1794.8z"/>
				<path class="st45" d="M1882,1829.2c-6.4-2.1-16.6-7.4-21.8-7.6l0,0c-1.8-0.1-2.4,0.2-2.7,0.9l0,0c-0.3,0.7-1.2,1-2,0.7l0,0
					c-0.7-0.3-1.1-1.1-0.7-1.8l0,0c1-2.1,3.4-2.7,5.7-2.5l0,0c5.4,0.4,13.3,4.2,19.3,6.5l0,0c-3.5-5.1-11.2-7.5-19.8-9.6l0,0
					c-0.5-0.1-0.9-0.4-1-0.8l0,0c-0.2-0.4-0.1-0.9,0.2-1.2l0,0c1.4-1.9,3.7-2.3,6.1-2.1l0,0c7.6,0.5,19.5,6.4,26.4,7.4l0,0
					c-2.6-9.5-14.3-10.2-23.4-11.4l0,0l0,0c-0.8-0.1-1.4-0.8-1.3-1.5l0,0c0.1-0.7,0.9-1.2,1.7-1.1l0,0c9,1.2,24,1.9,26.2,15.3l0,0
					c0.1,0.4-0.1,0.8-0.4,1.1l0,0c-0.3,0.3-0.7,0.5-1.1,0.5l0,0c-0.2,0-0.5,0-0.7,0l0,0c-7.9-0.6-20.8-7.3-27.6-7.6l0,0
					c0,0-0.1,0-0.1,0l0,0c8.6,2.3,16.6,5.5,19.2,13.2l0,0c0.2,0.5,0,1-0.4,1.3l0,0c-0.3,0.3-0.8,0.4-1.2,0.4l0,0
					C1882.2,1829.3,1882.1,1829.3,1882,1829.2L1882,1829.2z"/>
			</g>
			<path class="st46" d="M2053.4,1782.4c-4.8-23.2-10.5-99.4-11.8-133.6c0-17,7-15.8,5.3-48.6c1.7-3.6,5.9-118.2-6.4-193
				c-3.9-23.7-5.4-50.8-13.2-63.2l-96-5.9l12.1,89.9l36.6,225.3c0,1.7,0,4.2,0,7.2c-4.5,45.1,4.8,119.3,10,140.1
				c3.2,10.9,5.2,19.9,5.2,19.9s2.2-12.5,44.9-20.6C2042.1,1802.3,2059.8,1813.2,2053.4,1782.4z"/>
			<g>
				<g>
					<path class="st47" d="M2054.2,1784.4c-4.8-23.3-10.5-99.4-11.8-133.6c0-17,7-15.8,5.3-48.6c1.7-3.6,5.9-118.2-6.4-193
						c-2.1-12.7-4.8-40.2-8-64.8l-26.5,5.1v4.7c21.3,51,24,239.1,23.6,258.4c-0.6,31.1-12.8,32.3-11.6,52.4
						c1.2,20.2-10.6,96.7-4.7,101.4c5.9,4.7,14.9-1.4,16.9-0.9c9.9,2.5-6.6,2.6-23,15.1c-9.7,7.4,18.1-6,22.9-6
						c4.7,0-6.9,1.6-20.8,18.7c-2.7,3.3,1.6-1.3,12.3,0.2c9.9-6.1,20.1,1.8,20.6,1.7C2044.9,1797.8,2060.5,1815.2,2054.2,1784.4z"/>
				</g>
			</g>
			<g>
				<path class="st46" d="M1946.9,1322.6l-79.3,23.4c-6.2,21.3-15.4,88.7-13.8,145.2c0.2,5.8,0.3,11.3,0.5,16.7
					c1.1,59.5,3.3,120.2,14.3,153.9c2.8,8.4-2.5,107-3.7,115.2c-2.9,19.9-3.5,29.8,4.9,25.5c10.4-5.3,4.1,1.3,12,1
					c0,0,30.3-12.3,48.4,22.1c5.7,4.5,4-24.5,1.5-45.6c-0.8-6.5,14.2-70.8,7.1-133.3c1.5-31.7,7.5-136.3,9.7-159.9
					C1954.5,1421.6,1946.9,1322.6,1946.9,1322.6z"/>
				<g>
					<g>
						<path class="st47" d="M1936.2,1787.7c-0.8-6.5,9.7-76.9,2.6-139.3c1.4-30.4,8.3-132.7,10.7-161.7c-0.7-20.7-2.8-22.1-2.8-22.1
							c-14.2,146.5-17.7,160.6-19.9,168.2c-5.8,20.7-12.3,25.9-12.3,25.9s0.2,25.5-2.2,62.3c-2.4,36.8-3,39.7-14.8,43.9
							c-11.9,4.1,27.3,16.6,26.1,19.6c-1.2,3-31.4-7.7-31.4-7.7l27.9,21.9l-30.2-8.3l11.3,11.9c0,0,23.2,15.4,30.3,25
							C1933.8,1820.7,1937.9,1802,1936.2,1787.7z"/>
					</g>
				</g>
			</g>
			<path class="st44" d="M2057,1804.6c-3.8-5.3,2.3-15.7-10.1-16.8c-20.2-1.8-32.2,7.1-28.9,15.5c3.3,8.4,8.2,8.3,8.2,8.3
				L2057,1804.6z"/>
			<path class="st44" d="M1864.5,1803.2c4.6-6.5-5.9-19.1,9-20.4c24.3-2.1,38.7,8.6,34.7,18.9c-4,10.3-11,4.9-11,4.9L1864.5,1803.2z
				"/>
		</g>
		<g>
			<path class="st44" d="M2027.3,1423.1c8.1-2.1,14.9-0.1,17.3-5.2c-3.9-21.4-3.2-33.6-3.2-33.6s-6.3-112.2-13.2-163.9
				c-3.3-23.7,9.5-74.6,12.8-100.7c-9.9-8.3-51.1-14.6-56.7-20.6l-16.9,20.6c0,0,0,0.3,0,0.7c-34.9,3.9-54.1-26-54.1-26
				c-18.7,12.6-39.3,16-55.2,25.3c-14.5,8.5-3.1,50.4,6.2,111.1c1.8,12-10.6,77.9-5.2,154.4c0.3,3.8-3.6,26.5-3.4,30.2
				C1856.4,1436.1,1970.3,1438.1,2027.3,1423.1z"/>
			<path class="st44" d="M1909.1,1077.9c-6.5-4.7,3.9,24.2-8.2,27.6c-3.9,1.1,24.6,30.2,46.6,32.8c22,2.6,66.1-29.4,57.8-30.2
				c-18.1-1.7-4.8-25.4-9.9-28c-5.2-2.6-28.5,10.4-46.6,10.4C1930.7,1090.4,1909.1,1077.9,1909.1,1077.9z"/>
			<path class="st45" d="M2026.5,1175.4c-3.4,19.9-17.3,91.5-10.4,122.5c6.9,31.1,12.9,63,8.6,77.7c-4.3,14.6-53.9,18.1-53.1,22
				c1.3,5.9,49.6-7.3,52.2-7.3c2.6,0-32.8,20.3-71.6,15.5c0,0,15.1,15.1,77.6-4.3c15.9-4.9,11.2-24.2,11.2-39.7
				c0-15.5-6-87.1-8.6-110.4C2029.9,1228.1,2026.5,1175.4,2026.5,1175.4z"/>
		</g>
		<g>
			<path class="st48" d="M1911.4,1017.1c-0.1-22.5,8-41.6,40.2-42.1c20.8-0.4,30.9,5.5,35.9,15c5.3,5.4,8,13.1,7.7,23.9
				c0.6-0.1-1.4,2-0.9,1.9c4.9-0.9,3.3,6.5,2,16.4c-1,7.8-0.6,13.2-5.9,14.6c-3.6,24.1-18,35.1-32,37.3c-1.5,0.4-2.9,0.7-4.5,0.7
				c-15.6,0.5-34.1-12.6-37.7-37.8c-4.3-2.2-8.2-8.1-8.6-15C1907,1023.1,1905.6,1018,1911.4,1017.1z"/>
			<path class="st49" d="M1949.6,964c3.6-4.4,22.3-3.3,34.3,9.7c5.5,6,12.9,16,13.6,27.9c0.8,11.9-6,36.3-6,36.3
				s-1.8-32.3-11.8-40.6c-9.9-8.4-33.5-10-33.5-10L1949.6,964z"/>
			<path class="st50" d="M1966.3,987.5c-3.7,4.6-15,7.8-25.6,7.4c-10.6-0.4-17.8,13.7-19.8,20.9c-1.3,5.1-2.1,12.2-2.1,12.2l-20-9.9
				c0,0-2.3-20.4,4.5-34.2c5.2-10.5,8.7-16.3,21.4-20.2c5.8-1.7,28.5-7.1,33.4,1.5C1960.5,969.3,1966.3,987.5,1966.3,987.5z"/>
			<path class="st49" d="M1985.9,999.1c2.3,8.7,3.8,26.1,4,30.8c1.7,41.9-19.2,44.6-14.5,47.5c4.8,2.8,40.8-3.8,39.7-25.7
				c-10.1,4.7-13.8,0-13.8,0s13.4,0.6,13.6-8.3c-3.5-1.9-4.4,1.3-7.2-5.1c-2.9-6.4,8-8.6,5.4-12.8c-2.7-4.2-9.3-14.1-9.3-14.1
				s0.5-1.8,4.5,2c1.5,1.5-1-11.4-4.7-13.6c-5.9-3.4-9.1-11.1-9.1-11.1L1985.9,999.1z"/>
			<path class="st50" d="M1895.6,1062.9c0.4-0.7,0.6-1.3,0.6-2c-7.3-0.3-7.4-1.3-9.1-2.9c1.7,0.1,3.1,0,4.5-0.1
				c-6.9-2-7.4-18.6-5.5-20.3c-0.7,0.2-1.9,0-4.1-1.8c-1.7-1.6-0.4-7,4.5-8c1.6-0.3,3.6-2.6,3.6-2.6s-7.9-1.3-5.5-7.9
				c0.5-1.5,1.6-1.4,7.1-4.1c2.9-1.5-2.9-1.7-2.9-1.7s0.2-16.3,13.3-22.1l2.4-2.6l7.6,8.2c0,0,7.8,26.6,7.6,29.9
				c-0.6,11.2,1.1,24.3,2.7,32.3c2.3,12.2,4.9,14.8,4.9,14.8s-6.5,9.4-9.3,9.1c-9.5,1.4-29.3-6.5-30.9-9.6
				C1890.3,1072.4,1892.1,1064,1895.6,1062.9z"/>
			<path class="st50" d="M1918.7,1041.4c-0.1,7-1.8,36.5,3.9,43.2c5.7,6.6,25,13.1,29.6,15.2c12.5,5.7,19.6,2.5,19.6,2.5
				s0.1-35.5-3.2-35.3c-4.1,0.2-13.1,0.3-17.8-1c-6.9-1.8-13.8-4.1-17.5-7.5C1928.5,1054.1,1918.7,1041.4,1918.7,1041.4z"/>
			<path class="st49" d="M1990.4,1043.6c1.6,5.9,1.4,32.8-1.7,41c-3,7.8-5.9,9.3-7.6,11.6c-4.8,6.4-11.4,6.1-11.4,6.1
				s2.8-12.7-2.5-34.6c-0.4-1.6,4.9-0.6,9.3-2.8c4.4-2.2,6.9-3.9,9.1-8.4C1987.8,1052,1990.4,1043.6,1990.4,1043.6z"/>
		</g>
		<g>
			<path class="st44" d="M1858,1120.2c-11.6,0.5-23.8,16.7-27.1,29.8c-3.3,13.1-36.1,109.6-1.1,150.1
				c14.1,16.3,125.6-49.6,130.7-52.4c5-2.8-15.3-19-20.7-22.7c-5.4-3.6-60-0.8-66.6-3.1c-6.6-2.3-9.2-3.5-6.4-25.6
				C1869.6,1174.1,1858,1120.2,1858,1120.2z"/>
			<path class="st45" d="M1865.1,1163.3c-6,5.5-33.5,78-23.7,77.2c5.6-0.5,15.5-7.9,19-6C1863.9,1236.3,1865.1,1163.3,1865.1,1163.3
				z"/>
			<g>
				<path class="st48" d="M1932.6,1252.2c4.4,0.8,29.3-6.2,32.4-14.2c0,0-74.5-21.4-75.5-23.8c-3.1-7.2-11.4-18.7-20.6-27.9
					c-2.9-2.9-5.6-3.7-13.3-7.8c-5.7-3-8.6-0.5-4.1,3.9c3.8,3.7,9,6.5,9,6.5l5.6,7.1c0,0-5.1-5.1-6.6-6.4c-1.5-1.3-10.5-6-12.7-7.6
					c-3-2.3-7.3-0.4-3.5,4c3.8,4.4,7.1,6,9.3,8c3.1,3,8,8.5,8,8.5c-6.6-5.6-15.1-14.5-18.8-15.3c-3.6-0.7-5.5,3.3-0.1,6.9
					c9.7,6.4,13.9,13.6,13.9,13.6l-11.5-10.9c0,0-6.3-1.6-1.4,4.4c15.9,19.2,23.3,34.5,25.2,35.8
					C1872.7,1240,1904.2,1247,1932.6,1252.2z"/>
			</g>
			<g>
				<path class="st51" d="M2023.9,1202.4c-13.9-2.6-22.2-5.4-27.3-4.8c-19.3,1.5-83.6,12-93.6,30.3c-11.5,21.1,9.3,37.3,9.3,37.3
					c13.9-1.2,71.9-31.9,87.7-41.6c13,5.1,32.1,14.1,32.1,14.1s10.1-8.1,13.2-14C2048.4,1217.8,2039.9,1205.4,2023.9,1202.4z"/>
				<path class="st45" d="M2033.6,1115c12.9,0,25.2,30.7,26.5,47.9c4.3,53.5,13.6,112.6,0.6,121.6c-12.9,9.1-153.4-17.2-155.9-18.6
					c-2.6-1.3,2.6-40.5,12.9-43.1c10.4-2.6,92.5,10.6,97.7,4.1c5.2-6.5,7.6-35.2,9-52.4C2027.1,1143.5,2033.6,1115,2033.6,1115z"/>
				<path class="st44" d="M1856.1,1235.6c9.1-8.2,99.1-37.1,113.9-34.8c14.8,2.3,7.1,38.5,7.1,38.5s-100.1,54.6-109.6,55.1
					C1858,1294.9,1856.1,1235.6,1856.1,1235.6z"/>
			</g>
		</g>
		<path class="st44" d="M2031.1,1144.3c4.6,4,12.7,66.5,6.9,81.7c-5.8,15.1,5.6,5.6,8.9,14.9c3.3,9.3-17-7.4-17-7.4l17.4,24.6
			c0,0-19.3-15-21.9-14.8c-2.6,0.2,6.4,16,6.4,16l-15.6-23.1L2031.1,1144.3z"/>
		<path class="st45" d="M1966.1,1199.8c-16.7,3.4-107.4,28.6-112.3,35.3c-4.8,6.7-9.9,14.6-7.9,15.2c2,0.5,52.4-19.6,74.1-26.5
			c21.7-6.9,55.2-17.6,55.2-17.6L1966.1,1199.8z"/>
	</g>
	<g>
		<path class="st52" d="M3639.4,958.3c-3.9-1.5-8.3,0.5-9.7,4.4c-1.5,3.9,0.5,8.3,4.4,9.7c3.9,1.5,8.3-0.5,9.7-4.4
			C3645.3,964.2,3643.3,959.8,3639.4,958.3z M3647.6,936.5c-15.9-6-33.7,2-39.8,17.9c-6,15.9,2,33.8,18,39.8c15.9,6,33.7-2,39.8-18
			C3671.6,960.3,3663.6,942.5,3647.6,936.5z M3631.1,980.2c-8.2-3.1-12.3-12.2-9.2-20.4c3.1-8.2,12.2-12.3,20.4-9.2
			c8.2,3.1,12.3,12.2,9.2,20.4C3648.4,979.2,3639.3,983.3,3631.1,980.2z M3679.4,1000.5l-4.9,5.1c-0.7,0.8-2,0.9-2.9,0.2l-8-6
			c-5.6,4.4-12.2,7.3-19.2,8.6l-0.8,9.6c-0.1,1.2-1,2.1-2.1,2l-7.1,0.3c-1,0.1-2-0.7-2.2-1.9l-1.6-9.9c-3.1-0.5-6.2-1.2-9.2-2.4
			c-3.3-1.2-6.3-2.8-9.1-4.7l-7.9,6.4c-0.9,0.7-2.2,0.7-2.9-0.1l-5.1-4.9c-0.8-0.7-0.9-2-0.2-2.9l6-8.1c-4.2-5.5-7.1-11.9-8.3-18.7
			l-10.6-0.9c-1.2-0.1-2.1-1-2.1-2.1l-0.3-7.1c-0.1-1,0.7-2,1.9-2.2l10.9-1.9c0.4-3.1,1.2-6.1,2.4-9.1c1.3-3.5,3.1-6.8,5.2-9.7
			l-7-8.7c-0.7-0.9-0.7-2.2,0.1-2.9l4.9-5.1c0.7-0.8,2-0.9,2.9-0.2l9.1,6.8c5.4-3.9,11.6-6.6,18.2-7.7l0.6-11.1c0.1-1.2,1-2.1,2-2.1
			l7.1-0.5c1-0.2,2,0.7,2.3,1.8l2.3,11.5c0,0.1,0,0.1,0,0.2c2.9,0.4,5.8,1.2,8.7,2.3c3.1,1.2,6,2.7,8.7,4.5c0,0,0,0,0.1-0.1l9.3-7.1
			c0.9-0.7,2.2-0.6,2.9,0.2l5,5.1c0.8,0.7,0.8,2,0.1,2.9l-6.9,8.8c3.8,5,6.6,10.8,8,16.9l10.6,0.9c1.2,0.1,2.1,1,2.1,2.1l0.3,7.1
			c0.1,1-0.7,2-1.9,2.2l-10.2,1.7c-0.4,3.7-1.2,7.5-2.6,11.1c-1.2,3.2-2.7,6.1-4.5,8.8l6.4,8
			C3680.2,998.5,3680.1,999.8,3679.4,1000.5z"/>
		<g class="st53">
			<path class="st5" d="M3728.2,932.7c-2.6-1-5.6,0.3-6.6,3c-1,2.6,0.3,5.6,2.9,6.6c2.6,1,5.6-0.3,6.6-3
				C3732.2,936.6,3730.8,933.7,3728.2,932.7z M3733.8,918c-10.7-4.1-22.7,1.4-26.8,12.1c-4.1,10.7,1.4,22.7,12.1,26.8
				c10.7,4.1,22.7-1.3,26.8-12.1C3749.9,934.1,3744.5,922.1,3733.8,918z M3722.7,947.5c-5.5-2.1-8.3-8.2-6.2-13.7
				c2.1-5.5,8.2-8.3,13.8-6.2c5.5,2.1,8.3,8.2,6.2,13.8C3734.3,946.8,3728.2,949.5,3722.7,947.5z M3755.2,961.1l-3.3,3.4
				c-0.4,0.5-1.3,0.6-2,0.1l-5.4-4c-3.8,2.9-8.2,4.9-13,5.8l-0.5,6.5c-0.1,0.8-0.7,1.4-1.4,1.4l-4.8,0.2c-0.7,0.1-1.4-0.5-1.5-1.3
				l-1.1-6.7c-2.1-0.3-4.1-0.8-6.2-1.6c-2.2-0.8-4.2-1.9-6.1-3.2l-5.3,4.3c-0.6,0.5-1.5,0.5-2,0l-3.4-3.3c-0.6-0.4-0.6-1.3-0.1-1.9
				l4.1-5.5c-2.8-3.7-4.8-8-5.6-12.6l-7.2-0.6c-0.8-0.1-1.4-0.7-1.4-1.4l-0.2-4.8c-0.1-0.7,0.5-1.4,1.2-1.5l7.4-1.3
				c0.3-2.1,0.8-4.1,1.6-6.2c0.9-2.4,2.1-4.6,3.5-6.6l-4.7-5.8c-0.5-0.6-0.5-1.5,0.1-2l3.3-3.4c0.5-0.5,1.3-0.6,2-0.1l6.1,4.6
				c3.6-2.6,7.8-4.4,12.2-5.2l0.4-7.5c0-0.8,0.6-1.4,1.3-1.4l4.8-0.3c0.7-0.1,1.4,0.4,1.5,1.2l1.5,7.8c0,0,0,0.1,0,0.1
				c2,0.3,3.9,0.8,5.8,1.6c2.1,0.8,4.1,1.8,5.9,3c0,0,0,0,0,0l6.3-4.8c0.6-0.5,1.5-0.4,2,0.1l3.4,3.4c0.5,0.5,0.6,1.3,0.1,2
				l-4.7,5.9c2.6,3.4,4.4,7.3,5.4,11.4l7.1,0.6c0.8,0.1,1.4,0.7,1.4,1.4l0.2,4.8c0.1,0.7-0.5,1.4-1.3,1.5l-6.8,1.2
				c-0.2,2.5-0.8,5-1.8,7.5c-0.8,2.1-1.8,4.1-3,5.9l4.3,5.4C3755.7,959.8,3755.7,960.6,3755.2,961.1z"/>
		</g>
	</g>
	<g class="st54">
		<g class="st55">
			<polygon class="st5" points="3137.7,874.7 3137.7,961.7 3216.2,962.6 3216.2,874.3 			"/>
		</g>
		<g>
			<rect x="3154.1" y="900.6" class="st42" width="24" height="1.5"/>
			<rect x="3154.1" y="907.2" class="st42" width="24" height="1.5"/>
			<rect x="3154.1" y="913.7" class="st42" width="24" height="1.5"/>
			<rect x="3154.1" y="920.3" class="st42" width="24" height="1.5"/>
			<rect x="3154.1" y="926.8" class="st42" width="50.9" height="1.5"/>
			<rect x="3154.1" y="935.5" class="st42" width="50.9" height="1.5"/>
		</g>
	</g>
	<g class="st56">
		<g>
			<polygon class="st5" points="3201.9,1002.5 3225.1,1028.3 3224,1001.7 			"/>
		</g>
	</g>
	<path class="st57" d="M3697.4,1001.1l9,9.8l-69.2,59.5l-36.4-17.2l-159,132.1c5.3,0.8,9.4,5.1,10.2,10.4l151.9-122.7l36.7,17.4
		l76.7-67.5l9.5,10.4l5.7-35.8L3697.4,1001.1z"/>
	<path class="st57" d="M3623.7,1155.4l6.7,7.3l-51.4,44.2l-27-12.8l-118.1,98.1c3.9,0.6,7,3.8,7.5,7.7l112.8-91.1l27.3,12.9
		l56.9-50.2l7.1,7.8l4.2-26.6L3623.7,1155.4z"/>
	<g>
		<path class="st48" d="M1146.6,1291.8c-3-7.1-11.9-7.8-14.6-2.3c-2.7,5.6-1.9,26.4,8.5,29.5
			C1150.6,1322,1146.6,1291.8,1146.6,1291.8z"/>
	</g>
	<g>
		<polygon class="st35" points="3516.3,1764 3524.1,1764 3494.6,1509.1 3472.2,1509.1 		"/>
		<g>
			<path class="st35" d="M3453.4,1775.6c-2.2-0.6-3.4-2.9-2.8-5.1l0,0c10.8-38,27.3-115,43.7-153.5l0,0
				c5.8-12.8,10.2-21.9,18.7-24.1l0,0c17.8-3.4,37-5.8,52.1-5.8l0,0c11.3,0.2,20.1,1,25.8,5.6l0,0c2.7,2.9,3.3,6,4.9,11.4l0,0
				c1.4,5.3,2.8,12.2,4.2,20.3l0,0c2.9,16.2,5.9,36.9,8.6,57.4l0,0c5.5,41,9.9,80.9,9.9,81l0,0c0.2,2.2-1.4,4.3-3.6,4.5l0,0
				c-2.2,0.2-4.3-1.4-4.5-3.6l0,0c0-0.1-4.1-37.4-9.3-76.9l0,0c-5.1-39.1-11.9-81.7-15.6-87.9l0,0c0,0,0-0.1,0.1,0l0,0
				c-1.8-1.9-9.9-3.7-20.4-3.6l0,0c-14.2,0-33.1,2.4-50.6,5.7l0,0c-1.6-0.4-7.8,6.9-12.7,19.3l0,0c-5.2,12.3-10.6,29.1-15.9,47.5
				l0,0c-10.5,36.7-20.2,79.4-27.5,105l0,0c-0.5,1.8-2.2,3-3.9,3l0,0C3454.1,1775.8,3453.7,1775.7,3453.4,1775.6L3453.4,1775.6z"/>
			<g>
				<path class="st35" d="M3695.9,1499.4c-6.6,10.6-30.2,65.2-15.6,102.2c-8.6-2-12.8-2.4-12.8-2.4s-6.4-69.3,19.4-102.4
					C3712.7,1463.7,3695.9,1499.4,3695.9,1499.4z"/>
				<path class="st35" d="M3573.5,1484.5c5.2,28.4,5.3,75.2-17.1,108c8.8,0,10.2-1.8,10.2-1.8s28.2-70.6,16.4-106.8
					C3569.9,1444.1,3573.5,1484.5,3573.5,1484.5z"/>
				<g>
					<path class="st35" d="M3713.8,1461.2c0,0,0.1-0.1,0.1-0.2c0.2-5.7-35.4-13.2-81.8-15.2c-46.4-2-70.7,4.6-70.9,10.4
						c0,0.2-7.7,44.9,4.5,47.5c8.3,1.8,15.6,2.7,61,4.7c45.4,2,74.9,6.8,81.5-0.4C3708.1,1508,3718.4,1471.3,3713.8,1461.2z"/>
					<path class="st36" d="M3715.4,1460.9c0-0.1-0.3-0.4-0.3-0.5c-1.5-6-24.1-12.7-70.5-14.7c-46.5-2-57.5,0.6-64.7,1.4
						c0,0-19.8,5.8-18.4,8.2c5.9-6.3,29.8-5.7,63.8-4.2c46.4,2,80.4,7.3,83.7,14.1c0,0.1-4.4,0.1-4.4,0.1
						c3.6,12.9-1.3,34.8-6.1,45.4c3,1.9,13.4-2.1,13.6-6.8C3712.1,1504,3720,1471,3715.4,1460.9z"/>
				</g>
			</g>
			<path class="st35" d="M3580.1,1791c-2.3-0.3-3.8-2.4-3.5-4.6l0,0c8-60.4,16.3-151.7,26.4-176.9l0,0c1.7-3.6,2.7-6.7,7.2-8.1l0,0
				c24.3-4.8,39.8-15.3,52.5-15.7l0,0c3,0,6.2,0.8,8.7,2.9l0,0c2.8,2.7,3.7,5.8,5.9,11.3l0,0c1.9,5.4,4.2,12.5,6.5,20.8l0,0
				c4.8,16.6,10.3,37.9,15.5,59.1l0,0c10.4,42.2,19.8,83.5,19.8,83.6l0,0c0.5,2.2-0.9,4.4-3.1,4.9l0,0c-2.2,0.5-4.4-0.9-4.9-3.1l0,0
				c0-0.1-8.7-38.7-18.7-79.4l0,0c-9.8-40.5-21.7-84.1-26-90.5l0,0l0-0.1c-0.9-0.7-1.8-1-3.6-1.1l0,0c-7.8-0.3-25.3,10.2-50.4,15.4
				l0,0c0,0-0.1,0.1-0.1,0.2l0,0c-0.4,0.5-1,1.6-1.6,3.1l0,0c-1.2,3-2.6,7.6-3.9,13.4l0,0c-2.6,11.5-5.2,27.6-7.7,45.8l0,0
				c-5,36.4-9.8,81.2-14.3,115.7l0,0h0c-0.3,2.1-2.1,3.6-4.1,3.6l0,0C3580.4,1791,3580.2,1791,3580.1,1791L3580.1,1791z"/>
			<path class="st35" d="M3687.7,1585.9c-3.2-5.2-126.5-10.2-136.6-9c-10.1,1.2-82.2,9.9-86,18.3c-3.8,8.4-6.9,23.2,4.5,28
				c11.4,4.8,116.5,16.8,135.3,12.5c12-2.8,80.4-15.6,82.7-23.3C3691.6,1598.6,3687.7,1585.9,3687.7,1585.9z"/>
			<path class="st36" d="M3481.1,1595.5c9.9,0.8,104.7,10,118.5,6.8c16.7-3.8,88.1-15.2,79-16.7s-107.9-7.6-124.6-7.6
				C3537.3,1578,3475.6,1595.1,3481.1,1595.5z"/>
		</g>
		<polygon class="st58" points="3544.6,1819.7 3535.9,1819.7 3569.1,1531.4 3594.4,1531.4 		"/>
		<polygon class="st36" points="3302.9,1782.5 3294.6,1782.5 3344.3,1509.3 3368.3,1509.3 		"/>
		<polygon class="st36" points="3786.4,1788.7 3794.5,1788.7 3759.2,1533.5 3735.9,1533.5 		"/>
		<polygon class="st37" points="3798.1,1518.5 3535.7,1530.8 3306.2,1509.4 3474.2,1504.3 		"/>
		<g>
			<polygon class="st35" points="3796.7,1537.7 3544.9,1546.1 3306.2,1529.5 3306.2,1509.4 3543.2,1525.2 3796.7,1518.1 			"/>
		</g>
	</g>
	<g>
		<polygon class="st59" points="3174.6,1894 3186.6,1894 3141.2,1500.9 3106.5,1500.9 		"/>
		<g>
			<g>
				<g>
					<g>
						<g>
							<path class="st51" d="M3033.7,1738.2c4,10.8-16.1,111.6-19.5,120.5c-11.5,29.7-31.3,28.9-53.6,43c11.8,12,18.5,17.1,50.1,1.5
								c12.7-6.3,31.4,0.9,36.1-6.7c10.7-17.2,1.2-6.4,1.6-35.1c0.4-25.5,29.7-84.9,20.5-133.1
								C3063.1,1699,3029.7,1727.4,3033.7,1738.2z"/>
						</g>
					</g>
					<path class="st45" d="M2979.7,1890c5.4,3.6,41.2,8.6,61.3-11.7c9.1-9.1,10.6-4.8,10.6-4.8s5.1,22.4,1.4,27.7
						c-3.6,5.4-1.4,8.6-21.4,8.2c-14.7-0.3-14.6,0.1-51.7,7c-19.9,3.7-34.4-13.7-23.1-15.9C2968.2,1898.4,2979.7,1890,2979.7,1890z"
						/>
				</g>
				<path class="st45" d="M3288.2,1579.1c11.2,21.5,16.3,59.2-1.7,77.2c-8.9,8.9-186.5,34-192.8,38.6c4.6,19.3,2.2,37.5-9.1,74.4
					c-19.8,64.4-21.7,85.8-21.7,85.8s-42.9-10.3-49.2-10.3c5.7-36.5,11.3-133.1,12.1-150.8c1.1-23.4,0-36.4,10.9-45.7
					c11-9.4,175.9-58.3,185.2-61.5C3231.2,1583.7,3288.2,1579.1,3288.2,1579.1z"/>
			</g>
		</g>
		<g>
			<path class="st60" d="M3437.9,1794.7c0,82.2-73.1,148.8-163.2,148.8c-90.1,0-163.2-66.6-163.2-148.8
				c0-82.2,73.1-148.8,163.2-148.8C3364.9,1645.8,3437.9,1712.5,3437.9,1794.7z"/>
			<path class="st61" d="M3275.3,1656.5c-47.4,0.6-122.2,35.8-127.9,66.4c25.9-19.1,74.9-31.8,110.8-31.8
				c83.3,0,144.5,44.2,144.5,120.2c0,32.7-12.6,62.8-33.5,86.4c34.1-25.2,56-63.7,56-106.9
				C3425.2,1714.8,3367.1,1655.3,3275.3,1656.5z"/>
		</g>
		<polygon class="st59" points="2823.3,1919.6 2812,1919.6 2862.2,1526.1 2895,1526.1 		"/>
		<g>
			<g>
				<g>
					<g>
						<g>
							<path class="st48" d="M3053.4,1749.5c4.3,11.6-17.2,119.2-20.9,128.7c-12.2,31.7-33.5,30.9-57.3,46
								c12.6,12.9,19.8,18.3,53.5,1.6c13.6-6.7,33.5,1,38.6-7.1c11.4-18.4,1.3-6.9,1.7-37.5c0.4-27.2,31.8-90.8,21.9-142.2
								C3084.9,1707.6,3049.2,1738,3053.4,1749.5z"/>
						</g>
					</g>
					<path class="st45" d="M2995.8,1911.7c5.7,3.9,44.1,9.1,65.5-12.5c9.7-9.8,11.3-5.1,11.3-5.1s5.4,23.9,1.5,29.7
						c-3.9,5.7-1.5,9.2-22.8,8.7c-15.7-0.3-15.6,0.2-55.2,7.5c-21.3,3.9-36.8-14.7-24.8-16.9
						C2983.5,1920.6,2995.8,1911.7,2995.8,1911.7z"/>
				</g>
				<path class="st44" d="M3325.5,1579.4c11.9,22.9,17.4,63.3-1.8,82.5c-9.5,9.5-199.3,36.3-206,41.3c4.9,20.7,2.4,40.1-9.8,79.5
					c-21.1,68.8-23.2,91.7-23.2,91.7s-45.9-11-52.6-11c6.1-39,12-142.2,12.9-161.2c1.1-25-1.4-43.5,10.2-53.5
					c11.7-10,144.7-43.6,193.5-68.7C3258,1575.1,3325.5,1579.4,3325.5,1579.4z"/>
			</g>
		</g>
		<polygon class="st62" points="3180.9,1481.6 3209.6,1435.5 3222.7,1485.7 3188.8,1508.5 3179.4,1500.9 		"/>
		<path class="st63" d="M3225.4,1371.9c-7,5.5-18.1,19.2-18.1,19.2l9.5,25.4l15.2-35L3225.4,1371.9z"/>
		<g>
			<path class="st64" d="M3281.3,1381.7c-6.4-12.2-32.6-31.4-40.8-92.3c-3.4-25.1-43.9,63.1-43.9,63.1c14.9,6.1,25.9,16.6,23.4,37.1
				c-9.4,38.2-18,63.4-16,62C3198.7,1474.1,3286.1,1384.8,3281.3,1381.7z"/>
			<linearGradient id="SVGID_1_" gradientUnits="userSpaceOnUse" x1="3286.8606" y1="1387.1831" x2="3189.7034" y2="1309.3329">
				<stop  offset="0" style="stop-color:#FFFFFF"/>
				<stop  offset="0.1275" style="stop-color:#FBFAFA"/>
				<stop  offset="0.2889" style="stop-color:#EEEBEA"/>
				<stop  offset="0.4687" style="stop-color:#D9D2D0"/>
				<stop  offset="0.6604" style="stop-color:#BCB0AC"/>
				<stop  offset="0.7125" style="stop-color:#B3A6A1"/>
			</linearGradient>
			<path class="st65" d="M3206.9,1360.9l55.6,37l12.6-12.1c0,0-2.8-12.6-9.8-23.5c-10.5-16.4-19.7-46-19.7-46
				S3226.8,1348.3,3206.9,1360.9z"/>
		</g>
		<path class="st66" d="M3248,1376.9c-6.2,5.1-35.7,38.1-35.7,38.1c-4.7,15.3-14.4,32.4-20.2,50.3c-3.4,10.5,0.1,23.9,5.5,31.5
			c4.8,6.8,17.9,38.1,17.9,45.1c0,14.1-23.2,43.4-23.2,43.4s151.7,63.3,148.5,37.9c-6.1-48.9-25.9-90.5-33.7-171.2
			c-1.8-18.7-3.6-42.1-14.3-61.3c-3.4-6.1-12.6-16.1-22.5-26.2C3258.2,1370.2,3257.2,1369.3,3248,1376.9z"/>
		<path class="st63" d="M3207.2,1426.6c15.9-29.7,18.4-27.3,23.3-38.2c3-6.7,3.5,4.1,3.5,4.1L3207.2,1426.6z"/>
		<path class="st66" d="M3214.4,1398.5c0.8,4.2-18.5,58.3-18.5,58.3l16.8-24.9l4.3-30.7L3214.4,1398.5z"/>
		<linearGradient id="SVGID_2_" gradientUnits="userSpaceOnUse" x1="3318.0769" y1="1506.3503" x2="3260.844" y2="1461.3511">
			<stop  offset="0" style="stop-color:#FFFFFF"/>
			<stop  offset="0.6429" style="stop-color:#C6C0B9"/>
		</linearGradient>
		<path class="st67" d="M3290.5,1408.7l4.5,9.6c0,0,4.7,49,11,81c5.5,28.1,19.7,57.2,14.5,60.8c-1.1,0.8-8.5,11.4-12.1,10.1
			c-21.2-7.6-72.8-56.4-72.8-56.4l19.1-90.7L3290.5,1408.7z"/>
		<g>
			<g>
				<g>
					<polygon class="st63" points="3236.2,1409.8 3223.4,1389.3 3264.4,1351.8 3273.1,1365.4 					"/>
				</g>
			</g>
		</g>
		<g>
			<polygon class="st5" points="2925.4,1984.1 2912.3,1984.1 2962,1551.6 3000.1,1551.6 			"/>
			<polygon class="st5" points="3286.7,1976.3 3299.8,1976.3 3242.2,1559.4 3204.2,1559.4 			"/>
			<polygon class="st5" points="3306,1545.9 2930,1545.9 2817.8,1509.3 3072.8,1503.4 			"/>
			<g>
				<polygon class="st59" points="3304,1574.9 2936.3,1574.9 2817.8,1539.5 2817.8,1509.3 2941.2,1545.3 3304,1545.3 				"/>
			</g>
		</g>
		<g>
			<path class="st64" d="M3173.1,1346.8c-0.5-2.4,2.3-11.6,0.8-24c-0.9-3.3-3.4-9.1-3.6-10.1c-7.6-33.7,3.7-53.2,30.5-59.2
				c26.8-6,41.3,5.8,48.8,39.5c7.5,33.7-6.6,54-20.4,65.7c-4.6,3.9-23,12.5-29.2,11.9c-5.2-0.4-12.7-7.9-17.5-19.3
				C3179.6,1351.3,3174.1,1351.3,3173.1,1346.8z"/>
			<g>
				<g>
					<path class="st68" d="M3167.1,1284.4c0.9,0.1,1.9,1.9,5.8,1.3c0.6,0-0.4-1.5,0.2-1.5c4.5-0.2,8.4,0.8,16.3,4.5
						c1.3,0.6,3.4-1.5,4.8-0.6c4,2.3,4.7,5,9.4,7.7c1.3,1.1,4.4,3.5,5.7,4.7c1.3,1.2,3.1,0.4,4.4,1.8c2.3,2.3,4.9,1.6,7.3,4.4
						c1.9,2.4,5.6,1,6.2-3.4c0,0,4.3-6.5,8.6-0.5c6.6,8.9-0.5,20.3-0.5,20.3l17.8,15.8c0,0,39.3-33.3,14.4-73.7
						c-23.4-38.1-63-24.3-91.4-7.4C3163.5,1265.4,3167.1,1284.4,3167.1,1284.4z"/>
					<path class="st69" d="M3179.6,1285.1c15.3-4.6,17.9-20.3,29.7-31.4c11.8-11.1,33.1-12.5,38.1-8.6c-8.3-0.9-26.2-4.8-35.8,15.9
						c-9.6,20.7-12.8,27-21,28C3182.4,1290.1,3179.6,1285.1,3179.6,1285.1z"/>
					<path class="st69" d="M3181.7,1285.8c9.1-10.2,4.9-17.2,19.2-29.3c14.3-12.1,33.8-12.6,33.8-12.6s-23.8-0.8-38.7,12.3
						c-14.9,13.1-24.7,30.4-20.5,31.1C3179.7,1288,3181.7,1285.8,3181.7,1285.8z"/>
					<path class="st69" d="M3236.2,1242.5c-2.2-0.4-34.7,0.4-54,21.9c-13,14.5-6,19.9-7.5,21.5c-1.6,1.6-3.3-0.7-3.4-2
						c-0.1-1.2-4.6-12.8,15.6-27.7C3210.2,1238.9,3238.2,1242.8,3236.2,1242.5z"/>
					<path class="st69" d="M3200.6,1292.7c9.3-1,11-10.9,20.3-27c9.3-16.1,15.1-12.4,15.1-12.4s-9.5-0.1-10.2,9.6
						c-0.6,9.7-17.3,32.5-21.2,32.8C3200.8,1296,3200.6,1292.7,3200.6,1292.7z"/>
					<path class="st69" d="M3204.7,1295.6c2.7,2.2,4.2,8.6,11.2-2.5c7-11.1,12.8-27.6,15.2-29.8c2.3-2.2,0.1,0.5-3,9.1
						c-3.1,8.5-9.4,30.2-14.4,30.7C3208.7,1303.7,3204.7,1295.6,3204.7,1295.6z"/>
				</g>
				<path class="st68" d="M3242.9,1241.6c-2.1-11.6,4.6-21.5,17.5-22.3c2.2-0.2,5.4-4.2,8-3.8c2.6,0.4,10.1,3.5,13,4.6
					c18.9,7.1,29.6,45.6-20.6,52.6C3243.5,1275.1,3242.9,1241.6,3242.9,1241.6z"/>
				<path class="st69" d="M3250,1250.1c17.4-5.4,25.4-35.7,16.9-33.5c-5,1.3,8.2-6,9.9,4.8c1.7,10.8-21,33.2-21,33.2
					s28.6-22.8,24.6-34.6c8.3,0.6,1.2,29.8-12,36.3c-13.2,6.5-8.2,4.7-8.2,4.7L3250,1250.1z"/>
				<path class="st69" d="M3260.4,1219.2c-1.5,4.3-7.3,27.4-12,29.6c-4.7,2.1,2.9,1.9,2.9,1.9s14.2-10.9,10.8-30
					C3261.6,1218.4,3260.4,1219.2,3260.4,1219.2z"/>
			</g>
		</g>
		<g>
			<path class="st44" d="M3018.4,1517.3c0.3,1.1,1.1,1.8,2,1.6l45.1,19.2c0.9-0.2,1.5-1.3,1.2-2.5l-28.9-157c-0.9-3.7-3-4.5-5.2-5
				l-41.8-6.6c-2.2-0.2-3.3,2.2-3,3.3L3018.4,1517.3z"/>
			<path class="st44" d="M3184.7,1529.6c0.6,0.5,1.3,1.5,0.2,1.5l-121.2,2.9c-1.3,0-6-1.4-5.2-2l-24.6-21.2c0.4-0.4-6.1-5.6-5.2-5.6
				l66.3-0.2c0.8,0,3.6,0.2,4,0.5L3184.7,1529.6z"/>
			<path class="st45" d="M3185.5,1533.8c0,1.2-0.8,2.2-1.9,2.2l-118,2.2c-1.1,0-1.9-1-1.9-2.2l0-2c0-1.2,0.8-2.2,1.9-2.2l118-2.2
				c1.1,0,1.9,1,1.9,2.2L3185.5,1533.8z"/>
		</g>
		<path class="st62" d="M3194.4,1506.3c-15.6-15.6-6.2-36-6.2-36c-6.5,8.8-9.3,14.7-15,15.8c-5.2,1-40.7,7.8-59.2,10.2
			c-8.5-1.7-18.8-5-22.8-4.4c-5.6,0.9-12.1,0.7-15.5,3.1c-3.4,2.4-13.6,9.7-10.9,12.2c1.1,1.1,2.3-0.2,6.4-3.3
			c2.5-1.9,4.5-3.2,7.9-3.2c3.8,0,12.4,1.2,12.4,1.2s-13.8,3.5-12.4,6.3c0.6,1.3,1.8,1.6,8,0.6c6.2-0.9,10.6,4.5,17.4,3.5
			c4.4-0.7,6-0.9,10.7-1.9C3130.4,1511.5,3204.5,1516.5,3194.4,1506.3z"/>
		<g>
			<path class="st64" d="M3257.8,1425c-4.3,3.1-22.7,43.9-44.5,66.2c-2.9,2.9-67.6,16.2-68.7,15.5c-5.1-3-8-5.3-11.2-6.2
				c-4.3-1.3-16.7-2.5-17.7-1.9c-3.9,2.5,6.4,3.2,6.4,3.2s-14.8-0.3-18.5-0.1c-4.5,0.2-8.5,3.4-10.5,4.6c-2.6,1.6-3,4.4,0.9,3.4
				c3.9-1,6.6-4,9.9-3.4c2.6,0.5,7.5,0.1,7.5,0.1s-6.1-0.5-9.9,0.4c-3.9,1-10.3,5-10.3,5s-2.2,3.9,0.4,3.5
				c6.2-0.9,12.8-3.6,12.8-3.6l8.7-1.2c0,0-20.7,2.9-20.2,6.6c0.3,1.8,0,1.4,7.2-0.6c9.1-2.5,7.5,0.1,7.5,0.1s-6.5,1-9.9,1.8
				c-2.6,0.6-4.4,2,0.7,2.8c5.2,0.8,7.5-0.4,13,1.3c17.2,5.5,34.4,2.8,34.4,2.8c51.9,6.5,81.9-0.5,91.9-7.7
				c10-7.2,66.6-75.6,53.9-101.1C3287.7,1408.5,3262,1421.9,3257.8,1425z"/>
			<path class="st63" d="M3285.5,1398c15.3,10.6,9.1,60.5-2.7,93.9c-26.1-13.6-55.1-27.3-55.1-27.3s16.6-40,21.1-51.6
				C3255.7,1395.1,3272.5,1388.9,3285.5,1398z"/>
		</g>
	</g>
	<path class="st70" d="M2938.9,1010.4c0-46.9,38-85,85-85c46.9,0,85,38,85,85c0,46.9-38,85-85,85
		C2977,1095.4,2938.9,1057.4,2938.9,1010.4z"/>
	<g class="st71">
		<g>
			<g>
				<g>
					<g>
						<path class="st5" d="M3053,1002.2c0-13.4-12.6-24.3-28.1-24.3c-15.5,0-28.1,10.9-28.1,24.3c0,4.4,1.4,8.5,3.7,12.1
							c3.5,6.5,10.4,21.6,12.2,32.1h9c3.7,0,6.7,0,6.7,0h8.5c2.2-12.6,13-31.8,14.1-34.9l-0.1,0
							C3052.3,1008.6,3053,1005.4,3053,1002.2z M3044,1009.6c-0.8,2.3-8.7,16.3-10.3,25.6h-6.2c0,0-2.2,0-4.9,0h-6.6
							c-1.4-7.7-6.4-18.8-8.9-23.6c-1.7-2.6-2.7-5.6-2.7-8.9c0-9.8,9.2-17.8,20.6-17.8c11.4,0,20.6,8,20.6,17.8
							C3045.5,1005.2,3044.9,1007.5,3044,1009.6L3044,1009.6z"/>
					</g>
				</g>
				<g>
					<path class="st5" d="M3028.9,969.5c0,1.8-1.4,3.2-3.2,3.2h-1.6c-0.4,0-0.7-0.1-1.1-0.2c-1.3-0.4-2.1-1.6-2.1-3v-14.4
						c0-1.8,1.4-3.2,3.2-3.2h1.6c1.8,0,3.2,1.4,3.2,3.2V969.5z"/>
					<path class="st5" d="M3057.6,983.8c-1.3,1.1-3.4,1-4.5-0.4l-1.1-1.2c-1.1-1.4-1-3.4,0.4-4.5l11-9.3c1.4-1.1,3.4-1,4.5,0.4
						l1,1.2c1.1,1.4,1,3.4-0.4,4.5L3057.6,983.8z"/>
					<path class="st5" d="M3063,1014c-1.8,0-3.2-1.4-3.2-3.2v-1.6c0-1.8,1.4-3.2,3.2-3.2h14.4c1.8,0,3.2,1.4,3.2,3.2v1.6
						c0,1.8-1.4,3.2-3.2,3.2H3063z"/>
					<g>
						<path class="st5" d="M2992.5,983.8c1.4,1.1,3.4,1,4.5-0.4l1-1.2c1.1-1.4,1-3.4-0.4-4.5l-11-9.3c-1.4-1.1-3.4-1-4.5,0.4l-1,1.2
							c-1.1,1.4-0.9,3.4,0.4,4.5L2992.5,983.8z"/>
						<path class="st5" d="M2987.1,1014c1.8,0,3.2-1.4,3.2-3.2v-1.6c0-1.8-1.4-3.2-3.2-3.2h-14.4c-1.8,0-3.2,1.4-3.2,3.2v1.6
							c0,1.8,1.4,3.2,3.2,3.2H2987.1z"/>
					</g>
				</g>
				<path class="st5" d="M3013.1,1048.7c0,0,0,10.8,0,12c0,1.2,7,7.8,8.5,9c0.1,0.2,0.2,0.4,0.3,0.4c0.4,0.2,1.7,0.3,3.1,0.3
					c1.4,0,2.7-0.1,3.1-0.3c0.1,0,0.2-0.2,0.3-0.4c1.5-1.2,8.5-7.8,8.5-9c0-1.2,0-12,0-12H3013.1z M3033.9,1060.1
					c0,0.3-0.2,0.5-0.5,0.5h-16.6c-0.2,0-0.5-0.2-0.5-0.5v-0.4c0-0.3,0.2-0.5,0.5-0.5h16.6c0.3,0,0.5,0.2,0.5,0.5V1060.1z
					 M3033.9,1056.4c0,0.3-0.2,0.5-0.5,0.5h-16.6c-0.2,0-0.5-0.2-0.5-0.5v-0.4c0-0.3,0.2-0.5,0.5-0.5h16.6c0.3,0,0.5,0.2,0.5,0.5
					V1056.4z M3033.9,1052.8c0,0.3-0.2,0.5-0.5,0.5h-16.6c-0.2,0-0.5-0.2-0.5-0.5v-0.4c0-0.3,0.2-0.5,0.5-0.5h16.6
					c0.3,0,0.5,0.2,0.5,0.5V1052.8z"/>
			</g>
		</g>
	</g>
	<path class="st72" d="M2914.4,1010c0-61,49.4-110.3,110.3-110.3l0,0c60.9,0,110.4,49.4,110.4,110.3l0,0
		c0,60.9-49.4,110.3-110.4,110.3l0,0C2963.8,1120.3,2914.4,1070.9,2914.4,1010L2914.4,1010z M2921,1010
		c0.1,57.3,46.4,103.6,103.7,103.7l0,0c57.3-0.1,103.6-46.4,103.7-103.7l0,0c-0.1-57.3-46.4-103.6-103.7-103.7l0,0
		C2967.4,906.4,2921.1,952.7,2921,1010L2921,1010L2921,1010z"/>
	<g>
		<g class="st73">
			<g>
				<g>
					<g>
						<path class="st5" d="M3432.9,1041.5c0-8.8-8.3-16-18.5-16c-10.2,0-18.5,7.2-18.5,16c0,2.9,0.9,5.6,2.4,7.9
							c2.3,4.3,6.8,14.2,8,21.1h5.9c2.4,0,4.4,0,4.4,0h5.6c1.5-8.3,8.5-20.9,9.3-23l-0.1,0
							C3432.4,1045.7,3432.9,1043.6,3432.9,1041.5z M3427,1046.4c-0.5,1.5-5.7,10.7-6.8,16.8h-4.1c0,0-1.4,0-3.2,0h-4.3
							c-0.9-5.1-4.2-12.3-5.9-15.5c-1.1-1.7-1.8-3.7-1.8-5.8c0-6.5,6.1-11.7,13.5-11.7s13.6,5.2,13.6,11.7
							C3428,1043.5,3427.6,1045,3427,1046.4L3427,1046.4z"/>
					</g>
				</g>
				<g>
					<path class="st5" d="M3417.1,1020c0,1.2-0.9,2.1-2.1,2.1h-1.1c-0.2,0-0.5-0.1-0.7-0.1c-0.8-0.3-1.4-1.1-1.4-2v-9.4
						c0-1.2,0.9-2.1,2.1-2.1h1.1c1.1,0,2.1,0.9,2.1,2.1V1020z"/>
					<path class="st5" d="M3436,1029.4c-0.9,0.7-2.2,0.6-3-0.2l-0.7-0.8c-0.7-0.9-0.6-2.2,0.2-2.9l7.2-6.1c0.9-0.7,2.2-0.6,3,0.3
						l0.7,0.8c0.7,0.9,0.6,2.2-0.3,3L3436,1029.4z"/>
					<path class="st5" d="M3439.5,1049.3c-1.1,0-2.1-0.9-2.1-2.1v-1.1c0-1.1,1-2.1,2.1-2.1h9.5c1.2,0,2.1,0.9,2.1,2.1l0,1.1
						c0,1.2-0.9,2.1-2.1,2.1H3439.5z"/>
					<g>
						<path class="st5" d="M3393.2,1029.4c0.9,0.7,2.2,0.6,3-0.2l0.7-0.8c0.7-0.9,0.6-2.2-0.3-2.9l-7.2-6.1c-0.9-0.7-2.2-0.6-3,0.3
							l-0.7,0.8c-0.7,0.9-0.6,2.2,0.2,3L3393.2,1029.4z"/>
						<path class="st5" d="M3389.7,1049.3c1.2,0,2.1-0.9,2.1-2.1v-1.1c0-1.1-0.9-2.1-2.1-2.1h-9.5c-1.2,0-2.1,0.9-2.1,2.1v1.1
							c0,1.2,0.9,2.1,2.1,2.1H3389.7z"/>
					</g>
				</g>
				<path class="st5" d="M3406.7,1072.1c0,0,0.1,7.1,0.1,7.9c0,0.7,4.6,5.1,5.6,5.9c0.1,0.1,0.1,0.2,0.2,0.3c0.3,0.1,1.2,0.2,2,0.2
					c0.9,0,1.8-0.1,2-0.2c0,0,0.1-0.1,0.2-0.3c1-0.8,5.6-5.1,5.6-5.9c0-0.8,0-7.9,0-7.9H3406.7z M3420.4,1079.6
					c0,0.2-0.1,0.3-0.3,0.3h-10.9c-0.2,0-0.3-0.2-0.3-0.3v-0.3c0-0.2,0.1-0.3,0.3-0.3h10.9c0.2,0,0.3,0.2,0.3,0.3V1079.6z
					 M3420.4,1077.2c0,0.2-0.1,0.3-0.3,0.3h-10.9c-0.2,0-0.3-0.2-0.3-0.3v-0.3c0-0.2,0.1-0.3,0.3-0.3h10.9c0.2,0,0.3,0.1,0.3,0.3
					V1077.2z M3420.4,1074.8c0,0.2-0.1,0.3-0.3,0.3h-10.9c-0.2,0-0.3-0.2-0.3-0.3v-0.3c0-0.2,0.1-0.3,0.3-0.3h10.9
					c0.2,0,0.3,0.2,0.3,0.3V1074.8z"/>
			</g>
		</g>
		<path class="st74" d="M3351.8,1047.9c0-33.5,27.2-60.7,60.7-60.7l0,0c33.5,0,60.7,27.2,60.7,60.7l0,0c0,33.5-27.2,60.7-60.7,60.7
			l0,0C3378.9,1108.7,3351.8,1081.5,3351.8,1047.9L3351.8,1047.9z M3359.9,1047.9c0,29.1,23.5,52.6,52.6,52.6l0,0
			c29.1,0,52.6-23.6,52.6-52.6l0,0c-0.1-29.1-23.6-52.6-52.6-52.6l0,0C3383.4,995.3,3359.9,1018.8,3359.9,1047.9L3359.9,1047.9
			L3359.9,1047.9z"/>
	</g>
	<polygon class="st75" points="2915.1,996.2 2915.1,1004.8 2856,1004.6 2856,1003.5 2855.9,1003.6 2823.1,957.1 2829.7,953.5 
		2861.1,996 	"/>
	<g>
		<g class="st76">
			<g>
				<g>
					<g>
						<path class="st5" d="M2815.1,900.6c0-8-7.5-14.4-16.6-14.4c-9.2,0-16.6,6.4-16.6,14.4c0,2.6,0.8,5,2.2,7.1
							c2.1,3.8,6.1,12.8,7.2,19h5.4c2.2,0,3.9,0,3.9,0h5c1.3-7.5,7.7-18.8,8.3-20.7l0,0C2814.6,904.4,2815.1,902.5,2815.1,900.6z
							 M2809.7,905c-0.5,1.4-5.1,9.6-6.1,15.1h-3.7c0,0-1.3,0-2.9,0h-3.9c-0.8-4.6-3.8-11.1-5.3-13.9c-1-1.5-1.6-3.3-1.6-5.2
							c0-5.8,5.4-10.5,12.2-10.5s12.2,4.7,12.2,10.5C2810.6,902.4,2810.3,903.7,2809.7,905L2809.7,905z"/>
					</g>
				</g>
				<g>
					<path class="st5" d="M2800.8,881.2c0,1.1-0.9,1.9-1.9,1.9h-1c-0.2,0-0.4,0-0.6-0.1c-0.7-0.2-1.3-1-1.3-1.8v-8.5
						c0-1.1,0.8-1.9,1.9-1.9h1c1,0,1.9,0.9,1.9,1.9V881.2z"/>
					<path class="st5" d="M2817.8,889.7c-0.8,0.7-2,0.6-2.7-0.2l-0.6-0.7c-0.7-0.8-0.6-2,0.2-2.7l6.5-5.5c0.8-0.7,2-0.6,2.7,0.2
						l0.6,0.7c0.7,0.8,0.6,2-0.2,2.7L2817.8,889.7z"/>
					<path class="st5" d="M2821,907.6c-1,0-1.9-0.9-1.9-1.9v-1c0-1,0.9-1.9,1.9-1.9h8.5c1,0,1.9,0.8,1.9,1.9l0,1
						c0,1-0.9,1.9-1.9,1.9H2821z"/>
					<g>
						<path class="st5" d="M2779.3,889.7c0.8,0.7,2,0.6,2.7-0.2l0.6-0.7c0.7-0.8,0.6-2-0.2-2.7l-6.5-5.5c-0.8-0.7-2-0.6-2.7,0.2
							l-0.6,0.7c-0.7,0.8-0.6,2,0.2,2.7L2779.3,889.7z"/>
						<path class="st5" d="M2776.1,907.6c1,0,1.9-0.9,1.9-1.9v-1c0-1-0.9-1.9-1.9-1.9h-8.5c-1,0-1.9,0.8-1.9,1.9v1
							c0,1,0.8,1.9,1.9,1.9H2776.1z"/>
					</g>
				</g>
				<path class="st5" d="M2791.5,928.1c0,0,0,6.4,0,7.1c0,0.7,4.1,4.6,5,5.3c0.1,0.1,0.1,0.2,0.2,0.2c0.2,0.1,1,0.2,1.8,0.2
					c0.8,0,1.6-0.1,1.8-0.2c0,0,0.1-0.1,0.2-0.2c0.9-0.7,5-4.6,5-5.3c0-0.7,0-7.1,0-7.1H2791.5z M2803.8,934.8
					c0,0.2-0.1,0.3-0.3,0.3h-9.8c-0.2,0-0.3-0.1-0.3-0.3v-0.2c0-0.1,0.1-0.3,0.3-0.3h9.8c0.2,0,0.3,0.1,0.3,0.3V934.8z
					 M2803.8,932.7c0,0.2-0.1,0.3-0.3,0.3h-9.8c-0.2,0-0.3-0.1-0.3-0.3v-0.2c0-0.2,0.1-0.3,0.3-0.3h9.8c0.2,0,0.3,0.1,0.3,0.3V932.7
					z M2803.8,930.5c0,0.2-0.1,0.3-0.3,0.3h-9.8c-0.2,0-0.3-0.1-0.3-0.3v-0.2c0-0.2,0.1-0.3,0.3-0.3h9.8c0.2,0,0.3,0.1,0.3,0.3
					V930.5z"/>
			</g>
		</g>
		<path class="st57" d="M2744.3,906.9c0-30.2,24.5-54.6,54.7-54.6l0,0c30.2,0,54.6,24.4,54.6,54.6l0,0c0,30.2-24.5,54.7-54.6,54.7
			l0,0C2768.7,961.6,2744.3,937.1,2744.3,906.9L2744.3,906.9z M2751.5,906.9L2751.5,906.9c0.1,26.2,21.2,47.3,47.4,47.4l0,0
			c26.1,0,47.3-21.2,47.4-47.4l0,0c-0.1-26.1-21.2-47.3-47.4-47.3l0,0C2772.7,859.6,2751.6,880.8,2751.5,906.9L2751.5,906.9z"/>
	</g>
	<polygon class="st75" points="3418.5,939.8 3325,939.8 3326.1,946.6 3409.8,946.6 3409.8,988.4 3418.4,988.4 3418.4,946.6 
		3418.5,946.6 	"/>
	<g>
		<g class="st77">
			<path class="st5" d="M3399.8,1205.5c0-15.3,12.4-27.7,27.7-27.7l0,0c15.3,0,27.7,12.4,27.7,27.7l0,0c0,15.3-12.4,27.7-27.7,27.7
				l0,0C3412.2,1233.2,3399.8,1220.8,3399.8,1205.5L3399.8,1205.5z M3409.2,1205.5L3409.2,1205.5c0,10.1,8.2,18.2,18.3,18.3l0,0
				c10.1,0,18.3-8.2,18.3-18.3l0,0c0-10.1-8.2-18.3-18.3-18.3l0,0C3417.4,1187.2,3409.2,1195.4,3409.2,1205.5L3409.2,1205.5z"/>
		</g>
		<polygon class="st78" points="3418.3,1179.3 3409.2,1183.8 3409.2,1109.8 3418.3,1109.8 		"/>
	</g>
	<g>
		<g>
			<g>
				<path class="st44" d="M2158.3,1691c0,0.9-6.1,1.7-13.6,1.7c-7.5,0-13.6-0.7-13.6-1.7s6.1-1.7,13.6-1.7
					C2152.2,1689.4,2158.3,1690.1,2158.3,1691z"/>
				<path class="st79" d="M2135.7,1694.9c0,3.2,1.8,5.8,4.1,5.8h8.1c2.2,0,4-2.6,4-5.8v-126.1c0-3.2-1.8-5.7-4-5.7h-8.1
					c-2.3,0-4.1,2.6-4.1,5.7V1694.9z"/>
				<path class="st44" d="M2131.2,1690.9h-0.2v93.2h27.3v-93.1c-0.7,0.8-6.4,1.5-13.5,1.5
					C2137.4,1692.4,2131.4,1691.7,2131.2,1690.9z"/>
			</g>
			<g>
				<path class="st44" d="M2160.4,1791.2c7.2-0.5,98.6,1.5,107.2,3.4c4.2,0.9,5.7,1.5,5.9,4.9c0.4,5.5,2,7.7,2.6,11.7l11.9-1.7
					c0,0,1.4-19-4.3-24.7c-5.8-5.8-86.2-17-109.9-16.1c-10.3,0.4-27.4-0.5-27.4-0.5L2160.4,1791.2z"/>
				<g>
					<path class="st80" d="M2281.9,1809c0,6.4-5.2,11.6-11.5,11.6c-6.4,0-11.5-5.2-11.5-11.6c0-6.3,5.2-11.5,11.5-11.5
						C2276.7,1797.5,2281.9,1802.7,2281.9,1809z"/>
					<path class="st45" d="M2276,1810c0,4.5-3.6,8.2-8.1,8.2c-4.5,0-8.2-3.7-8.2-8.2c0-4.5,3.7-8.2,8.2-8.2
						C2272.3,1801.8,2276,1805.5,2276,1810z"/>
				</g>
				<path class="st44" d="M2144.1,1798.5c9.2-0.6,86.6,29.8,95.1,37c4,3.4,4.3,1.9,4.6,6.1c0.5,6.7,3.8,8.8,3.8,8.8l15.4-1
					c0,0,2.1-17.1-3.5-23.5c-6.8-7.7-78-47.5-90.2-52.4c-12.2-4.9-26.8,3.7-26.8,3.7L2144.1,1798.5z"/>
				<g>
					<path class="st80" d="M2254.6,1845.6c0,8.1-6.6,14.6-14.6,14.6c-8,0-14.6-6.6-14.6-14.6c0-8.1,6.6-14.6,14.6-14.6
						C2248,1831,2254.6,1837.5,2254.6,1845.6z"/>
					<path class="st45" d="M2247.1,1846.9c0,5.7-4.6,10.3-10.4,10.3c-5.7,0-10.4-4.6-10.4-10.3c0-5.7,4.7-10.4,10.4-10.4
						C2242.5,1836.5,2247.1,1841.1,2247.1,1846.9z"/>
				</g>
				<path class="st45" d="M2162.7,1773c6.1,2.4,78.4,32.7,98,52.5c0,0,3.4,3.8,3.4,23.9c-2.6,0.6-4.8,0.5-4.8,0.5s-0.2-20-4.3-22.9
					c-38.7-28-106.9-52.1-112.1-50.9C2152.3,1771.8,2162.7,1773,2162.7,1773z"/>
			</g>
			<g>
				<path class="st44" d="M2131.8,1791.2c-7.2-0.5-98,3.6-105.4,8.3c-2.9,1.8-4.2,3.1-4.4,6.4c-0.4,5.3-1,11-1,11l-14.9-2.6
					c0,0-1.4-19,4.3-24.8c5.8-5.8,76.3-16.9,108.2-21c10.3-1.4,27.4-0.5,27.4-0.5L2131.8,1791.2z"/>
				<g>
					<path class="st81" d="M2012.1,1813.9c0,6.4,5.2,11.5,11.5,11.5c6.4,0,11.5-5.2,11.5-11.5c0-6.4-5.2-11.5-11.5-11.5
						C2017.3,1802.4,2012.1,1807.5,2012.1,1813.9z"/>
					<path class="st45" d="M2018,1814.9c0,4.5,3.7,8.2,8.2,8.2c4.5,0,8.2-3.7,8.2-8.2c0-4.5-3.7-8.2-8.2-8.2
						C2021.6,1806.7,2018,1810.3,2018,1814.9z"/>
				</g>
				<path class="st44" d="M2148.1,1798.5c-9.1-0.6-82.3,31.4-90.9,38.6c-4,3.4-5.4,6.9-5.7,11.2c-0.5,6.7-0.9,7.7-0.9,7.7l-19.4-3
					c0,0,0-19,5.6-25.4c6.8-7.7,73.8-49.1,86-54c12.2-4.9,26.8,3.6,26.8,3.6L2148.1,1798.5z"/>
				<g>
					<path class="st81" d="M2030.6,1846.3c0,8.1,6.6,14.6,14.6,14.6c8.1,0,14.6-6.6,14.6-14.6c0-8.1-6.6-14.7-14.6-14.7
						C2037.2,1831.6,2030.6,1838.2,2030.6,1846.3z"/>
					<path class="st45" d="M2038.1,1847.5c0,5.7,4.6,10.4,10.4,10.4c5.7,0,10.4-4.6,10.4-10.4c0-5.7-4.6-10.4-10.4-10.4
						C2042.7,1837.1,2038.1,1841.8,2038.1,1847.5z"/>
				</g>
				<path class="st45" d="M2129.6,1773c-6.1,2.4-75,33.6-93.9,56.5c0,0-3.1-2.5-2.5,21.3c2.6,0.6,5,1.1,5,1.1s-0.5-16,3.6-18.9
					c38.7-28.1,102.5-58,107.6-56.8C2139.9,1771.8,2129.6,1773,2129.6,1773z"/>
			</g>
		</g>
		<g>
			<path class="st66" d="M2024,1611.3c25.7,14.3,223.6,26.3,255.9-2c27-23.6,6.2-42.2-8.2-40c-108.5,17.2-247.4-28.9-258.3,2.3
				C2002.5,1602.8,2024,1611.3,2024,1611.3z"/>
			<path class="st63" d="M2195.7,1543.5c0,0,63.1,2.1,69.2,3.4c6.1,1.2,24.7,30.2,24.7,30.2s-62.5,28.7-220.4,8.2
				c-87.7-11.3-17.4-30.8-8.8-30.8C2068.9,1554.5,2195.7,1543.5,2195.7,1543.5z"/>
		</g>
		<path class="st66" d="M2104.3,1289.4c37.2-10.5,147.7-10.6,166.8,7.1c9.4,8.7,14.5,14.5,15.9,29.6c1.4,15.2,10.7,156.1,4.8,178.7
			c-5,19.3-16.3,19.4-28.7,21.1c-12.3,1.6-156.2-7.3-175.6-8.9c-20.6-1.6-33.7-6.9-32.8-39c0.9-32.1,27.4-144.4,27.8-158.8
			C2083,1300.2,2104.3,1289.4,2104.3,1289.4z"/>
		<path class="st79" d="M2104.5,1556c27.4,9.1,84.3,19.2,107.1,12.5c27.3-8,40.7-38.5,27.9-51.3c-12.8-12.8-94.5,1.3-111,8.6
			C2112.2,1533.2,2104.5,1556,2104.5,1556z"/>
		<g>
			<path class="st51" d="M2010.7,1771.7c0.6,19.6-1.7,58.4-24.4,77c-22.7,18.6,2.6,18.7,10.6,19.2c7.9,0.5,47.9-8.3,48.3-13.5
				c0.8-11.6,1.7-13.1-2.2-31.5c-4.4-20.6,3.6-31.8,4.9-40.8C2049.2,1773.2,2010.7,1771.7,2010.7,1771.7z"/>
			<path class="st44" d="M2017.1,1858.3c3.6-15.8-26.4-33.7-35.2-16c-6.2,12.6-13.6,13.6-13.6,13.6s-36.3,16.8-22.4,37.1
				c9.1,13.3,51.1,2.2,67.9-9.2C2029.6,1873.2,2017.1,1858.3,2017.1,1858.3z"/>
			<path class="st44" d="M2045.3,1833.9c8.7,16.9,6.1,33.5,1.3,35.7c-4.9,2.3-15-2-36.4,15.2c-6.7,5.4-15.6-14.8-15.6-14.8
				s27.3-18.7,37.8-20.6C2041.1,1848,2045.3,1833.9,2045.3,1833.9z"/>
		</g>
		<path class="st79" d="M2192.6,1468l-66-6.9c-6.8,0.9-33.7,27-39.5,28.1c-55.6,10.7-84,32.9-88.9,63.1c-0.9,5.6-3.4,40.1-0.6,54.9
			c12.5,66.6-3.5,166.9-5.2,188.2c-2.4,30.4-2.4,30.4-2.4,30.4s59.6,4.7,76.3,32.7c26.3-56.1,0-51.4,7.2-63.1
			c7.1-11.7,9.5-102.9,2.4-156.6c-7.1-53.8-5-57.8-5-57.8l73.3-31.6L2192.6,1468z"/>
		
			<linearGradient id="SVGID_3_" gradientUnits="userSpaceOnUse" x1="12251.4004" y1="1724.2623" x2="12297.6055" y2="1546.2844" gradientTransform="matrix(-0.9991 -4.210000e-02 -4.210000e-02 0.9991 14493.2334 320.599)">
			<stop  offset="0" style="stop-color:#FFFFFF"/>
			<stop  offset="9.301316e-02" style="stop-color:#F9F8F8"/>
			<stop  offset="0.2283" style="stop-color:#E7E5E5"/>
			<stop  offset="0.3894" style="stop-color:#C9C5C5"/>
			<stop  offset="0.5703" style="stop-color:#A1999A"/>
			<stop  offset="0.7654" style="stop-color:#6D6162"/>
			<stop  offset="0.8681" style="stop-color:#4F4042"/>
		</linearGradient>
		<path class="st82" d="M2106.8,1457.9l63.2,75.6l32.2,8.2c0,0,16.3-19.9,17.1-40.4c0.9-20.5,10.7-36.1,3.7-40.4
			c-6.9-4.3-79.8-28.2-90.5-26.8C2121.8,1435.6,2106.8,1457.9,2106.8,1457.9z"/>
		<path class="st83" d="M2202,1287.2c56.8,16.7,70.8,30.2,70.8,30.2s-18.5,72.7-18.9,80.7c-0.4,8-4.8,42.6-3.1,76.7
			c1.8,36.1,10.4,25.3,3.1,44.8c-1.9,5.1-6.3,9-6.6,17.3c-10.2-1.7-28.4-7-41.9-21.9c-16.2-18-74.9-17.9-86.8-19.5
			c-30.6-4.1-43.6,3.8-43.6,3.8c4.2-17.5,6.9-33.3,18.9-62.6c11.4-27.9-5.2-52.2-3.3-65.8c1.8-13.6-4.5-50.6,1.6-59.5
			c6.2-8.8,30-20,58.5-24.7C2163.5,1284.6,2202,1287.2,2202,1287.2z"/>
		<g>
			<path class="st51" d="M2148.4,1256.1c2,10.6,1.9,30.4-2.5,39.3c-4.3,8.9,9.1,25.6,21.9,30.4c25.9,9.8,46.3-29.4,46.3-29.4
				s-9.7-8.9-11.4-14.2c-0.1-0.4-0.2-0.9-0.4-1.3c-1.6-6.2-3.2-19.1-3.3-45.8C2199.1,1226.7,2148.4,1256.1,2148.4,1256.1z"/>
			<g>
				
					<linearGradient id="SVGID_4_" gradientUnits="userSpaceOnUse" x1="12253.4287" y1="1540.9816" x2="12269.4062" y2="1467.9355" gradientTransform="matrix(-0.9987 -5.180000e-02 -5.180000e-02 0.9987 14501.2705 394.916)">
					<stop  offset="0" style="stop-color:#FFFFFF"/>
					<stop  offset="0.5165" style="stop-color:#C6C0B9"/>
				</linearGradient>
				<path class="st84" d="M2149.1,1277c4.5,6.9,25,40.3,33.9,40.3c7.4,0,27.1-14.6,31.9-19.5c-19.8-9.6-16-54.2-16-56
					C2198.9,1241.8,2154.1,1268.2,2149.1,1277z"/>
			</g>
		</g>
		
			<linearGradient id="SVGID_5_" gradientUnits="userSpaceOnUse" x1="12357.0156" y1="1602.7081" x2="12381.9414" y2="1471.8457" gradientTransform="matrix(-1 0 0 1 14491.0986 0)">
			<stop  offset="0" style="stop-color:#FFFFFF"/>
			<stop  offset="9.301316e-02" style="stop-color:#F9F8F8"/>
			<stop  offset="0.2283" style="stop-color:#E7E5E5"/>
			<stop  offset="0.3894" style="stop-color:#C9C5C5"/>
			<stop  offset="0.5703" style="stop-color:#A1999A"/>
			<stop  offset="0.7654" style="stop-color:#6D6162"/>
			<stop  offset="0.8681" style="stop-color:#4F4042"/>
		</linearGradient>
		<path class="st85" d="M2001.2,1537.7l82.7,48.6c0,0,155.9,17.9,162.7-11.4c6.8-29.3-35.3-73.7-60.7-64.6
			c-25.3,9.1-111.5,15.9-124.5,16.5C2048.6,1527.5,2001.2,1537.7,2001.2,1537.7z"/>
		<g>
			<g>
				<g>
					<g>
						<path class="st79" d="M2172.8,1406.5l-44,0l7.5,64.1c0,0-0.1,0-0.1,0.1c0,1.1,6.6,2,14.8,1.9c7.9,0,14.3-0.8,14.7-1.8h0.1
							L2172.8,1406.5z"/>
						<path class="st5" d="M2151.1,1472.6c-8.2,0-14.8-0.9-14.8-1.9c0,0-7.5-64.2-7.5-64.2h22L2151.1,1472.6z"/>
						<path class="st86" d="M2172.8,1406.7c0,1.6-9.9,2.9-22.1,2.9c-12.1,0-22.1-1.3-22.1-2.9c0-1.6,9.9-2.9,22.1-2.9
							C2163,1403.9,2172.8,1405.1,2172.8,1406.7z"/>
					</g>
				</g>
				<g>
					<g>
						<path class="st79" d="M2127.7,1402.8l-2.1,9.8c0.7,1.4,11.5,2.6,25.4,2.6c14.1,0,25-1.3,25.5-2.7c0-0.1,0-0.2,0.1-0.3
							l-1.2-9.5L2127.7,1402.8z"/>
					</g>
					<path class="st5" d="M2175.4,1402.7c0,1.4-10.6,2.5-23.8,2.5c-13.2,0-23.8-1.1-23.8-2.5c0-1.4,10.7-2.6,23.9-2.6
						C2164.8,1400.2,2175.5,1401.3,2175.4,1402.7z"/>
				</g>
			</g>
			<g>
				<path class="st48" d="M2167.4,1424.2c-2.9-2.7-9.6-3.5-10.9-3.1c0,0,6.9,23.1,3.2,28.3c-1.5,2.1,15.9,5.9,20.2,4.6
					c13.7,0,6.4-6.2,7.1-14C2187.6,1431.6,2183.6,1436.6,2167.4,1424.2z"/>
				<path class="st48" d="M2155.2,1421.1c-2.8,0.7-6.4,2.9-9.3,4.6c-2.9,1.6-11.5,7.5-10.7,9.3c0.9,1.8,6.3-1.8,12-4
					c6-2.3,6.1-1.9,7.6-1.3c0,0-4.7,1.7-9,3.5c-3.2,1.3-12.1,4.5-10.5,7.7c1.2,2.3,6.9-1.9,11.4-2.8c4.6-0.9,10.1-2.4,10.1-2.4
					s-4.3,1.5-8.7,3.5c-4.8,2.2-10.2,3.7-9.8,5.4c0.4,1.8,6.7,0.4,11.9-0.2c4.4-0.5,8.9-0.2,8.9-0.2s-19.2,3.4-16,5.8
					c3.2,2.4,15.7,0.7,22.8-1.3c3.4-1,2.2-9.4,0.1-16.7C2162.7,1420,2155.2,1421.1,2155.2,1421.1z"/>
			</g>
		</g>
		<path class="st48" d="M2181.2,1434.3c10.9,0.4,32.7,4.6,38.9,4.2c6.3-0.4,13.6,26.6,6.8,28.8c-6.7,2.2-46.5-10.6-50.2-14.4
			C2173,1449.2,2181.2,1434.3,2181.2,1434.3z"/>
		<path class="st5" d="M2218.4,1437c-1.6-0.4-12.5-1-12.5-1s-1.6,30.1-5,31.4c10.8,4.6,22.9,0.8,22.9,0.8L2218.4,1437z"/>
		<path class="st87" d="M2263.9,1314.9c7.6-2.8,13.7,10,21.4,24.7c7.7,14.7,35.5,117.2,22.1,131.8c-9.6,10.5-91.1,5-96.9,5
			c1.2-8.4,8.3-41,0-41.6c27.9,0.5,51.2-3,51.2-3s-3.1-11.1-7.7-26.7C2240.5,1359.6,2263.9,1314.9,2263.9,1314.9z"/>
		<g>
			<path class="st51" d="M1986.9,1525.7c-23.2-0.8-30.6,3.3-34.3,5.6c-1.6,1-18.9,2.8-24.7,6.7c-8.1,5.4-14.7,30.2-17.9,40.7
				c-5.5,18.1-0.6,6.7,11.7,5.9c12.2-0.8,60.7-29.7,72.9-29.3C2006.6,1555.6,1986.9,1525.7,1986.9,1525.7z"/>
			<path class="st5" d="M2241.2,1487.4c-9.3-14.9-36.5-19.4-69.2-7.7c-17.5,6.3-200.2,24.4-229.7,50.8c0,0,10.1,48,19.8,57.1
				c2.1,2,13.1-6.3,24.5-15.1c7.1-5.5,24.1-17.8,35.9-17.7c36.6,0.3,144.2-2.9,179.7-1.7C2277.8,1555.5,2241.2,1487.4,2241.2,1487.4
				z"/>
			<path class="st44" d="M1892.3,1572.2c2.3-4,21.6-17.6,24-22.6c5.9-12,6.9-14.7,10.6-16.4c3.7-1.7,11.5-0.6,15.1,0.1l-13.3,6.3
				c-7.8,9.5-15.8,24.6-10.5,20.9c10.7-7.5,20.4-8.3,30.3,2.1c10.7,11.2,5,28.7-7.7,30.3c-7.2,0.9-10.4,7.6-22.7,16.9
				c-15.6,12-29,9.3-34.8,4.1C1870.1,1601.8,1883.7,1582.9,1892.3,1572.2z"/>
			<path class="st79" d="M2250.4,1522.2c-30.6,22.7-58.8-2.2-58.8-2.2s-101.6,26.2-138.2,27.8c-36.6,1.6-56,0.4-61.4-7
				c-5.5-7.3-0.8,12.1-0.8,12.1s-18.3-1.9-20-20.2c-9.2,1.8-4.8,31.8-4.8,31.8l6.8,18.2c0,0,9.1-6,16.6-11.4
				c6-4.4,14.8-13.9,24.7-14.2c33.4-1.1,160.7-4.8,188.7-2.2c28,2.6,37.8-7.7,42.2-15.6L2250.4,1522.2z"/>
		</g>
		<g>
			<path class="st51" d="M2080.4,1473.9c2.9,2.4,12,7.2,15.3,9c3.2,1.8,8.2,5.1,16.2,8c2.2,0.8,2.3,3.9-0.5,3.5
				c-2.8-0.3-7.5-1.9-11.2-2.3c-1.9-0.2,1.4,6.8,2.8,9.9c1.3,2.7,2.2,23.4,0.2,24c-3.8,1.1-3.1-20.5-4.5-19.6
				c-1.1,0.6,0.8,19.8-1.5,20.7c-6.4,2.5-2.4-17-5.5-18c0,0,0.8,4.2,0.6,8.5c-0.2,4.2-0.5,9.7-1.3,10.8c-2.9,3.8-4.9-22.5-7.7-20.4
				c-2.2,1.7,1.8,17.8-1.5,18c-1.7,0.1-5.2-18.3-5.2-18.3s-13.3-19.3-15.5-27.7c-1.4-5.1-5.5-16.8-5.5-16.8l17.8-4.7
				C2073.2,1458.6,2075.5,1469.8,2080.4,1473.9z"/>
			<path class="st5" d="M2077.8,1465.9c2.1,1.5,12.8,13.1,12.8,13.1s-14.4-5.6-23.9,18.8c-1.9,5-8-8.1-8-8.1L2077.8,1465.9z"/>
			<path class="st87" d="M2094.3,1309.1c3.2,5.4,4.9,66-0.6,86.7c-5.8,21.6-19.6,56.8-19.6,56.8s10.6,8,16,20.9
				c-15.3,1.3-31.1,25.8-31.1,25.8s-23.6-6.7-23.9-22.6c-0.6-30.2,21-96.7,31.9-129.2C2077,1317.4,2094.3,1309.1,2094.3,1309.1z"/>
		</g>
		<path class="st5" d="M2032.4,1557.5c-11.1-6.4-35.8-2.9-37.6,12.9c-1.8,15.8,4.5,40.2,6.3,47.2c1.8,7-7.1,152.5-7.1,161.3
			c0,8.8-5.4,38.6-5.4,38.6s44.1-7.2,60.5,2.4c16.4,9.6-31.9-23.5-37.2-21.7c22.9,1.8,32.2,0,32.2,0l-19.7-18.3
			c0,0,1.8-147.7,1.8-161.7C2026.2,1604.1,2053.8,1569.8,2032.4,1557.5z"/>
		<g>
			<path class="st5" d="M2162.4,1315.2c-3-3-22.2-4.5-33.5,15.9c-2.4,4.3,8.4-38.6,10.7-42.4c2.3-3.8,8.5-9.1,8.5-9.1
				s-3,12.1,2.3,20.8C2154.9,1307.8,2162.4,1315.2,2162.4,1315.2z"/>
			<path class="st5" d="M2155.4,1310.2c4.6,2.3,12.5,10.3,12.5,14.8s-6.2-2.4-6.2-2.4s-10.4-9.3-16.5-10.8
				C2139.2,1310.3,2155.4,1310.2,2155.4,1310.2z"/>
		</g>
		<g>
			<path class="st5" d="M2189.4,1315.8c3-3,22.2-4.5,33.5,15.9c2.4,4.3-8.4-38.6-10.7-42.4c-2.3-3.8-8.5-9.1-8.5-9.1
				s3,12.1-2.3,20.8C2196.9,1308.3,2189.4,1315.8,2189.4,1315.8z"/>
			<path class="st5" d="M2196.3,1310.8c-4.6,2.3-12.5,10.3-12.5,14.8s6.2-2.4,6.2-2.4s10.4-9.3,16.5-10.8
				C2212.5,1310.9,2196.3,1310.8,2196.3,1310.8z"/>
		</g>
		<g>
			<path class="st48" d="M2130.6,1245.1c-1.7-8.4-3.2-15.2,2.3-16.7c-2.9-21.4-1.3-40,29.3-44.5c4.7-0.7,8.8-0.9,12.4-0.8
				c0-0.1,0-0.1,0-0.2c22,0.8,31.6,9.8,34.6,28.2c0.6-0.2-1.2,6.3-0.7,6.3c6.1-0.5,5.5,6,5.2,14.1c-0.2,7.6-4.1,13.5-5.9,14.4
				c-0.8,6.1-4.9,14.5-7.1,19.8c-0.2,0.4-0.3,0.8-0.5,1.2c-0.4,1-0.9,1.9-1.3,2.8c-0.5,1-1,1.9-1.5,2.8c-0.3,0.6-0.6,1.1-1,1.7
				c-1,1.5-2.1,3-3.2,4.3c-0.1,0-0.1,0.2-0.2,0.2c-4.2,5-9.3,8.4-15.1,9.3c-14.8,2.5-29-14.4-37.1-32.8
				C2136.6,1253.7,2132,1251.6,2130.6,1245.1z"/>
			<path class="st45" d="M2172.3,1181.2l-1-1.9c0,0-8.4-4.2-7-4.3c0.8-0.1,3.3-3.1,5.6,1l2.8-8.1l13.7,5.2c0,0,2.6-0.4-0.7-4.4
				c-2.5-3,12.8,12.3,12.8,12.3s-1.1-2.5-4.4-6.6c7.7,5.7,14.1,15.2,15,22.8c0.6,2.1,1.3,4.6,1.8,7.3c2.3,11.2-1.3,16.9-1.3,16.9
				l-3.4,4.4c0,0-3.3-22.3-13.6-29.2c-10.2-6.8-27.4-0.2-27.4-0.2L2172.3,1181.2z"/>
			<path class="st44" d="M2139.7,1253.8c0,0,4.6,22.9,8.4,28.4c3.8,5.5,18.8,14.6,25,16.1c2.4,0.6,10.4-0.6,10.4-0.6
				s1.2-18.9-1-19.1c-7.6-0.6-14-2.1-16.8-3.6c-2.8-1.4-10.9-6.2-13.1-9.4c-4.6-6.5-9-14.2-9-14.2L2139.7,1253.8z"/>
			<path class="st45" d="M2209.3,1245.1c0.7,2.1-1.3,27.6-2.8,31.3c-1.6,3.7-21.4,21.5-23,21.2c-1.7-0.2-3-18.8-3-18.8
				s13.8-6.5,18.9-13.6c3.4-4.5,6.3-16.7,8-18.8C2209,1244.3,2209.3,1245.1,2209.3,1245.1z"/>
			<path class="st44" d="M2128.8,1234.3l3.8-5l1.1,0.4c2.6,4.7,5.9,14.2,5.9,14.2l4.1-2.1l-1.3-14.3c0,0-1.3-9.1,0.5-13.8
				c1.4-3.5,7.9-9.4,14.3-12.9c9.1-1.5,27.4-2.5,29.9-5.2c5.3-5.9,4.8-14.8-1.8-20.2c-5.6-6.8-14.6-6.8-13.8-13.5
				c-2.2,5.1,1.8,8.1,3.4,12.2c-3-3.2-10.6-0.6-5.6-11.7c1-2.1-14.9,9.2-14.8,15.8c0,0-0.1,0-0.1,0c-0.2-4.1,8-13.5,8-13.5
				c-15.7,7.8-14.9,7.7-16.9,13.1c-1.1-5.3,3.4-5.6,2.9-6.1c-0.9-0.7-10.9,6.4-12.7,12c-4.5,2.8-9.1,9.4-11.5,16.4
				C2119.3,1214.3,2128.8,1234.3,2128.8,1234.3z M2175.2,1175.3c0,0.1,0.1,0.1,0,0.1C2175.1,1175.5,2175.2,1175.4,2175.2,1175.3z"/>
		</g>
	</g>
	<g>
		<g>
			<path class="st64" d="M2497.2,1217.1c-3.3,9.9-22.8,30.3-26.8,30.8c-4,0.6-17.1,2.3-34.6,0c-42.6-5.5-42.4-13.5-77.3-22.6
				c-1.9-0.5,0.5-20,0.5-20c39.1-3.5,88.6-0.9,90.7-1.5c5.2-1.4,45.3-96,56.1-100.2C2516.8,1099.4,2497.2,1217.1,2497.2,1217.1z"/>
			<g>
				<path class="st88" d="M2455.7,1195.8c4.2-7.1,33-71.5,34.9-79.2c4.4-18.4,13.4-29,17.3-30.3c0,0,20.3,90.8,19,103.9
					c-1.3,13-38.6,52.7-47.7,55.3C2479.2,1245.5,2452.6,1201.2,2455.7,1195.8z"/>
				<path class="st89" d="M2488.2,1235.5c4.6-9.7-2.7-45.4-0.7-54.9c2-9.5,6.6,34.4,6.6,34.4l2.8-33.7c0,0,6.6,6.9,6.9,12.2
					c0.4,5.4,12.7-18.3,12.7-18.3s4.6,25.8,3,31.3c-1.6,5.5-29.5,35-29.5,35L2488.2,1235.5z"/>
			</g>
			<g>
				<path class="st62" d="M2334.7,1200.6c-7.1-1.6-33.7-1.1-34.2,1.9c-0.4,3,16.4,2.5,24.6,4.8c0,0-23.4-2.6-23.3,0.4
					c0.2,4.9,24.1,3.7,24.1,3.7s-17.7-0.2-18,2c-0.5,3.8,16.8-0.3,40.1,9.7C2353.9,1225.7,2334.7,1200.6,2334.7,1200.6z"/>
				<path class="st64" d="M2359.4,1203.4c-7.8-3.8-24.4-7.4-24.4-7.4l-17.5-1.5l-14.7,0.4c0,0-2.7,3.9,5.4,5
					c2.6,0.4,9.9,0.5,13.1,1.5c7,2.1,12.9,5,16.5,10.5c5.3,8.1-10.8,11.5-16.8,16c-2.8,2.2-1.1,4,6.8,2c11.1-2.8,25.8,3.6,41.6-4.3
					c15.8-7.9,16.5-12.4,10.3-14.2C2373.5,1209.7,2359.4,1203.4,2359.4,1203.4z"/>
			</g>
			<path class="st89" d="M2450.1,1201.4c10.2,0.9,27.1,39.6,26.3,50.8c10.1,0,23.1-18.3,23.1-18.3s-37.5-51.3-44.4-49.6
				C2448.2,1186.1,2450.1,1201.4,2450.1,1201.4z"/>
		</g>
		<g>
			<path class="st44" d="M2587.3,1866.9c0.7-10.2-5.3-16.7-0.8-69.2c0.6-6.4-47.1-8.5-47.1-8.5c2.1,25.8,8.9,42-16.1,73
				c-5.4,6.8-21.2,19.3-26.7,24.8c-3.9,3.9-8.5,21.9,15,21.9c29.6,0,52.2-8.9,59.7-22.9c0.6-1.1,2.5-0.7,2.5-0.7
				S2585.4,1893.5,2587.3,1866.9z"/>
			<path class="st44" d="M2670.2,1821l44.8-6.1c0,0-5.4,5.9-1.9,21.4c6.5,28.7,16.6,33.7,34.4,51c10.1,9.8,6,25,6,25
				s-4.3,5.1-13.3,6.8c-12,2.2-38.3-2-42.9-8.5c-0.8-1.1-6.4-9.1-9.3-11.3c-4.2-3.2-10.3-2.8-11.5-5.8c0,0-5.7-13.1-0.5-27.4
				C2681.3,1851.7,2670.2,1821,2670.2,1821z"/>
			<path class="st44" d="M2512.1,1328.7c-5.4,17-7.8,38.2-7.9,42.6c-0.5,27.6-0.7,51.6-0.7,64.4c0,13.9,3.5,168.8,13.9,203.6
				c10.4,34.8,12.8,173.6,5.9,184.1c-6.9,10.5-5,40.6-5,40.6s71.3-7.2,73.1,6.7c0,0,2.6-14.8,4.3-45.2c3.4-60.3,3.8-103-2.9-185.8
				c-4.8-59.8-1.3-140.8-1.3-161.7c0-15.6,34.7,154.4,48.6,203.1c0,0,23,103,17.2,147.9c-5.2,40.4,7.2,50.9,7.2,50.9
				s43.5-22.4,67.9-8.5c0.8-13.9,2.5-15.5-0.7-40.7c-3.9-31.3-11.2-106.9-24.6-165.6c-11.6-50.9-11.9-167.9-15.4-230.5
				c-3.5-62.7-26-117.8-33.1-130.3C2651.4,1291.6,2512.1,1328.7,2512.1,1328.7z"/>
			<path class="st45" d="M2508.2,1443.4c2.6,71.3,12.6,144.1,20.4,175.4c7.8,31.3,12.7,51.7,16.6,70c3.9,18.3,2.6,110.9,2.6,117.4
				c0,6.5,42.6,43.5,34.1,39.6c-23-10.5-40.6-14.5-40.6-10.5c0,3.9,29.6,14,29.6,14s-50.5,1.3-53.1,0c-2.6-1.3,0.5-23.2,2.3-37
				c1.8-13.9,12.2-107.9,1.8-141.8c-10.5-33.9-21.5-235-17.5-257.2C2508.2,1391.2,2508.2,1443.4,2508.2,1443.4z"/>
			<path class="st45" d="M2593.4,1459.4c14.4,28.7,44.5,179.8,51,200.6c6.5,20.9,17.4,39.6,22.6,46.1c5.2,6.5,34.6,110.9,30.7,129.2
				c-13,1.3-26.1-1.3-27.4,5.2c-1.3,6.5,33.9,3.9,33.9,3.9l-44.4,23.5c0,0-2.6-22.2-2.6-39.1c0-17-2.8-97-15.9-138.8
				c-13-41.8-21.7-75.8-26.9-112.4C2609.2,1541.2,2593.4,1459.4,2593.4,1459.4z"/>
		</g>
		<path class="st89" d="M2623.2,1048.3c-2.3-4.9-4.2-8.8-9.5-8.2c-5.2,0.7-58.1,9.5-59.7,18.9c-1.6,9.4,11.8,18.9,20.6,20.2
			C2583.4,1080.6,2623.2,1048.3,2623.2,1048.3z"/>
		<g>
			<path class="st62" d="M2558.5,1034.6c3.5,11.8,3.3,24.9-0.7,35.5c-4,10.6,13.2,26.9,19.6,26.4c6.4-0.5,42.8-34.2,42.8-34.2
				s-6.4-40.2-7.9-49.6C2610.9,1003.4,2558.5,1034.6,2558.5,1034.6z"/>
			<g>
				
					<linearGradient id="SVGID_6_" gradientUnits="userSpaceOnUse" x1="12220.0244" y1="1068.6589" x2="12359.2832" y2="972.5515" gradientTransform="matrix(-1 0 0 1 14854.5186 0)">
					<stop  offset="0" style="stop-color:#FFFFFF"/>
					<stop  offset="0.5165" style="stop-color:#C6C0B9"/>
				</linearGradient>
				<path class="st90" d="M2556.1,1039.5c0.1,1.7,2,9.9,1.7,17c6,7.4,47.2,36.2,57.4,35.4c8.5-0.8,1.3-15.8,6.2-22
					c-1.8-8.5-9.2-57.7-9.3-59.6L2556.1,1039.5z"/>
			</g>
		</g>
		<path class="st88" d="M2522.3,1169.8l-17.3-83.4l48.5-23.5c2.9,3.6,14.3,23.4,23,22.5c8.7-1,4.6,15.1,4.6,15.1l-5,201l-57.6-0.6
			c0,0,5.7-8.2,5.7-45.8C2524.3,1243.3,2517.7,1200.8,2522.3,1169.8z"/>
		<path class="st89" d="M2569.4,1247.6c0.9-60.5,6-157.7,15.1-162.2c7.8-3.9,34.5-21.6,37.3-27.8l2.3-4.1
			c34.8,14.4,66.8,14.4,64.8,20.1c0,0-6.5,53-8.7,75.5c-2.7,27.3-25.7,82.2-24.1,108.2c0.9,14.7,10.5,43.8,10.5,43.8
			s-71.4,3.2-94.1,0.1C2566.1,1300.4,2568.7,1281.9,2569.4,1247.6z"/>
		<g>
			<g>
				<g>
					<polygon class="st91" points="2564.2,1299.6 2574.5,1079.2 2591.1,1078.9 2596.9,1082.2 2583.9,1095.6 2589.2,1280.6 					"/>
					<polygon class="st5" points="2545.5,1282.3 2566.5,1094.7 2558.5,1081.5 2563.2,1077.8 2576.9,1079.3 2575.4,1095.1 
						2575.3,1095.1 2564.2,1299.6 					"/>
				</g>
			</g>
		</g>
		<g>
			<g>
				<g>
					<path class="st46" d="M2556.8,1318.7c2.2,32.2,27.9,68.3,27.9,68.3s33.3-2.3,66.8-16.7c23.3-10,42.7-19.7,42.1-21.5
						c-12.5-37.4-16.5-65.6-19.8-88.2c-3.8-26.2,11.1-77.5,7.1-84.4c-39.3-67.2,12.2-105.4,5-106.8c-20.4-4-24.1-3.3-60-18.5
						c0,0-1,57.6-58.2,132.3C2565.1,1190.7,2553.9,1274.8,2556.8,1318.7z"/>
				</g>
			</g>
		</g>
		<path class="st47" d="M2511.5,1270.8c3.8-30-7.6-85.3-6.2-94.6c2.8-19.4,3.5-59.5-0.3-90.6c-0.1-0.7,26.6-10.6,43.9-23.5
			l-3.6,25.8c2,53.8,22.8,91.3,22.8,91.3l-2.9,64.1c-2.9,32-3.6,82.7-5.1,88.8c-3.7,15-16.9,45.4-19.8,46.4
			c-8.3,2.7-41.9-13.8-41.9-13.8S2507.7,1300.8,2511.5,1270.8z"/>
		<path class="st88" d="M2619.9,1042.5c0.3,5.9-18.9,30.3-37,36.9c14-3.3,30.7,28.9,35.6,34.8c0-29.4,19.3-55.9,16.8-57.7
			C2630.4,1052.9,2619.9,1042.5,2619.9,1042.5z"/>
		<path class="st89" d="M2557.2,1053.9c-0.8,7.8,10.4,23.4,13.1,24.7c-12.1-2.9-29.3,29.1-29.3,29.1l-1.2-39.6
			C2539.8,1068.1,2557.5,1050.6,2557.2,1053.9z"/>
		<g>
			<g>
				<path class="st68" d="M2626.9,972.4c0.7,8.3-5.3,38.4-4.9,40c0.3,1.6,1.2,7.2,2.8,6.6c1.6-0.6-9.1,9.3-12,6.8
					c-2.8-2.5-10-41.7-8.8-44C2605.1,979.6,2626.9,972.4,2626.9,972.4z"/>
				<path class="st64" d="M2539.5,1012c-4.5-15-7.9-37.9-1.9-54.4c4-10.5,27.7-20.2,33.3-20.3c35-0.7,36.9,21.3,37.7,44.1
					c7.9-4.9,11.4,2.8,10.9,11.9c-0.3,6.9-3.7,14.8-8.3,17.2c-2.3,19.6-15.1,34.7-39.6,37.8c-4.3,0.6-8.2-0.2-11.7-2.1
					c-5.4-2.2-9.2-6.9-12.3-12.8C2544.6,1028.1,2539.9,1013,2539.5,1012z"/>
				<g>
					<g>
						<g>
							<path class="st68" d="M2610.8,935.4c-3-5.5-23.9-9.3-23.4-5c-4.9-4.5-4.5,6.7-4.5,6.7c-0.4-8.1,9,13.3,8.6,15.1
								c20.2,0,8.4,24.6,10.6,28c2.9,4.6,2.2,8.6,2.2,8.6l4.7-2.3l5-7.6l10.3,8.5C2624.2,987.4,2637.2,945.9,2610.8,935.4z"/>
						</g>
					</g>
				</g>
				<path class="st69" d="M2537.1,1004c-0.1,7.9,0.2,41.2,4.4,48.5c4.2,7.4,17.9,23.6,25.8,23.7c4.2-6.5-1.2-43.1-1.2-43.1
					s-9.4,3.4-17.8-4.6C2539.9,1020.4,2537.1,1004,2537.1,1004z"/>
				<g>
					<path class="st69" d="M2553.5,1017.8c-3.6,0.8-7.9,12-8.3,16.3c-0.4,4.3,12.4-9.8,16-8.6c0-9,0-9,0-9L2553.5,1017.8z"/>
					<path class="st68" d="M2561.1,1016.5c0,0,8-0.9,11.2,2c3.2,2.9,11.6,11.5,11.6,11.5s-3.9,4-12.4-1.7
						c-4.6-3.1-10.4-2.7-10.4-2.7L2561.1,1016.5z"/>
				</g>
				<path class="st68" d="M2607.7,970.7c-0.7,7.9-6.6,37.4-11.9,48.1c-5.1,10.1-29.5,13.9-33.8,15.1c-0.7,4.9,3.9,43.6,3.9,43.6
					s20.2-1.5,31.6-21c6.2-10.6,13.6-36.3,13.4-42C2610.6,1005.1,2607.7,970.7,2607.7,970.7z"/>
			</g>
			<path class="st69" d="M2533.7,981.5c-3.9-12.7-3.9-23.5-2.9-30.3c1-6.8-9.7-15.6-3.9-26.4c5.9-10.8,13.4-5.9,13.4-5.9
				s17.7-13.3,28.7-6.9c9.6,5.6,8.2,1.5,13.8,5.3c1.2,0.8,4.3,4.8,5.5,5.7c0.6,0.4,1.4-0.6,2-0.1c7.4,6.1,12.5,15.2,10,23.3
				c-4.9,15.7-9.8,2.9-19.5,1c-9.8-2-22.5,8.8-22.5,8.8s2-2.5-5.9-2.9C2532.7,952.2,2533.7,981.5,2533.7,981.5z"/>
			<path class="st69" d="M2591.5,952.2c4-5.2,9.9-23.3,21-17.4c-2.6-0.5-6.2,0.2-9.8,5.1c5.6-7.3,12.4-4.2,18.2-0.3
				c-12.4-2.3-14,5.5-13.3,10.7c0.7,5.2,5.3-11,4.9-7.5c-1,7.5-0.4,9.3-2.6,18.6c-2.2,9.3-7.3,12.4-7.3,12.4s-0.5-13-3.7-16.9
				C2595.6,952.9,2591.5,952.2,2591.5,952.2z"/>
			<path class="st68" d="M2557.6,950.8c-2.4-6.4-3.9-7.3-13.7-19c-9.8-11.7-7.7-17-3.4-14.7c-2.4-3.9-6.2-0.2-5.4,2.9
				c2.1,7.8,5.9,16.1,12.2,22C2553.7,947.9,2557.6,950.8,2557.6,950.8z"/>
			<path class="st68" d="M2549.3,948.8c-7.8-1.5-16.6-6.8-17.6-15.2c-1-8.3,3.4-15.6,3.4-15.6s-5.9,4.4-6.4,8.8
				c-0.5,4.4,2.4,18.6,9.3,21.5C2544.9,951.3,2549.3,948.8,2549.3,948.8z"/>
			<path class="st68" d="M2546.2,949.8c-3.4,1.1-17.4-4.7-19.4-12.2c-2-7.5,0.3-13.2,1-14.3c-3,3.4-9.1,16.5,0.8,25.4
				c9.9,9,13.1,5.9,14.5,5.1C2544.6,952.9,2546.2,949.8,2546.2,949.8z"/>
			<path class="st68" d="M2558.1,956.2c0.3-8.8,3.7-16,1.7-27.4c-2-11.4-12.8-15.6-16.4-11.7c0.7-3.9,8.2-9.3,14.4-1.5
				c6.2,7.8,10.7,17.6,5.1,29.3C2557.5,956.6,2558.1,956.2,2558.1,956.2z"/>
			<path class="st68" d="M2559.9,952.2c3.6-4.6,11.1-16.8,5.6-28.7c-5.6-11.9-13.7-10.8-18.3-9c3.6-2.4,14.8-2.8,19.7,3.4
				c4.9,6.2,11.4,21,3.2,29.1C2562,955.3,2559.9,952.2,2559.9,952.2z"/>
			<path class="st68" d="M2595.1,953.6c3.7-9.8,12.1-16.4-7.2-32.6c5.6,3.8,8.5,20.5,5.4,22.9c-1.5-16.6-5.3-24.1-12.3-27.5
				c4.5,3.7,12.6,27,7.9,31.2c-4.7,4.1,1.4,4.6,2.6,4.6C2592.8,952.2,2595.1,953.6,2595.1,953.6z"/>
		</g>
		<g>
			<path class="st62" d="M2696.7,1207.9c4,15.5,29,62.2,34.1,64.2c5,2,39.1,3.5,48.1-28.6c9-32.1-19-15.5-19-15.5
				s-24-48.1-33.1-57.1C2717.7,1161.8,2696.7,1207.9,2696.7,1207.9z"/>
			<path class="st89" d="M2757.4,1210.3c-15.8-69.7-49.4-114.8-49.4-114.8c-5.4-22.2-17.5-26.6-24.5-19.4
				c-10.5,10.9-21.1,75.3-13.4,94.6c7,17.4,24.3,54.6,45.1,73.5c0,0,11.3-29.5,24.2-34.6L2757.4,1210.3z"/>
			<path class="st88" d="M2754.1,1192.9c-13.2-5.2-35.6,24.3-46.4,33.4c-10.9,9.2-5.9,15.5-5.9,15.5l15.8,20.3
				c0,0,4.7-45.5,38.5-51.8C2767.5,1208.1,2762.7,1216.9,2754.1,1192.9z"/>
			<path class="st64" d="M2754.9,1233.9c-4.2-4.2-3.1-11.5-5.6-17.3c-4.1-9.3-7.4-12.9-11.3-16c-1.8-1.4,2-5.3,6.3-3.3
				c5.8,2.6,11.6,12.2,16.8,12.2c0,0,11.9-5.3,19.1-9.2c4.2-2.3,5.5-3.7,12.3-6.3c10.4-3.9,16-4.1,16.5-3.1c1.9,3.8-8,5.3-13.9,9.2
				c-3.5,2.4-4.6,3.6-8.2,6c0,0,11.4-5.2,18.2-7.2c5.6-1.6,15-1.2,15.8,0.2c2,3.6-4.7,4.6-14.5,7.2c-4.7,1.3-12.5,6.2-12.5,6.2
				s5.8-2.8,12.9-5.1c5.8-1.9,16.3-1.6,17.2,0.2c1.7,3.4-5.3,4.2-12.4,6.1c-6.9,1.9-13.5,5.5-13.5,5.5s7.9-3.1,15.5-3.1
				c5.9,0,8.9,0.3,9.2,1.1c1.4,4-10.2,4.5-19.4,8.1c-7.4,2.9-8.3,14.6-26.5,16C2758.7,1242.8,2754.9,1233.9,2754.9,1233.9z"/>
			<path class="st88" d="M2674,1110.3c4,3.9,20.3,43.5,25.3,60.9c4.9,17.4-6,22.2-6,22.2l21.8-9.6c0,0-17.8,12.5-14.9,17.4
				c3,4.8,18.9,2.9,18.9,2.9l-15.4,23.7c0,0-30.8-38.6-35.7-67.1C2665.1,1143.4,2674,1110.3,2674,1110.3z"/>
		</g>
	</g>
	<g>
		<g>
			<path class="st45" d="M1063.5,1615.9c14.5,10.3,36.6,25.9,22.3,69c-5.8,17.4,67.4-5.8,67.4-5.8l-19.3-76.1L1063.5,1615.9z"/>
			<path class="st47" d="M1075.8,1707.4c-12-5.4-12.8-18.2-5.1-19.1c7.7-1,210.9-32.8,210.9-32.8l105.5,18.3l-89.5,40.6
				L1075.8,1707.4z"/>
			<g>
				<path class="st46" d="M1037.4,1630.9c1.4,21.5,6.2,42.3,42.5,35l139.5-26.9c18.2-1.3,23.3-18.2,22-39.7l-39.8-165.4
					c-1.4-21.5-25-45.4-43.1-44l-134.5,14c-18.2,1.3-31.8,19.8-30.5,41.3L1037.4,1630.9z"/>
				<g>
					<path class="st79" d="M1193.4,1809.2c0,2.1,1.7,3.8,3.8,3.8h7.5c2.1,0,3.7-1.7,3.7-3.8v-83.1c0-2.1-1.7-3.8-3.7-3.8h-7.5
						c-2.1,0-3.8,1.7-3.8,3.8V1809.2z"/>
					<rect x="1189" y="1804.3" class="st45" width="22.6" height="82.6"/>
					<path class="st45" d="M1212.2,1870.3c7.8,6.4,81.8,57.9,81.8,61.5c0,3.7,0,22.4,0,22.4h-12.7v-17.8l-84.3-42.5l4.9-20.9
						L1212.2,1870.3z"/>
					<path class="st45" d="M1194.6,1871.8c-7.8,6.4-81.8,57.9-81.8,61.6c0,3.6,0,22.4,0,22.4h12.7V1938l79.3-42.4v-21L1194.6,1871.8
						z"/>
					<polygon class="st45" points="1196,1871.1 1089.8,1898.4 1089.8,1925.8 1098.7,1925.8 1098.7,1910.3 1188.2,1892 					"/>
					<polygon class="st45" points="1208.7,1868.4 1322.6,1895.8 1322.6,1923.2 1313.8,1923.2 1313.8,1907.7 1216.5,1889.4 					"/>
				</g>
			</g>
		</g>
		<path class="st46" d="M1065.4,1694.1c-4.8,10.6-1.5,33.7,3.4,35.6c4.8,1.9,160,15.3,168.7,13.3c8.7-1.9,177.3-39.4,178.5-45.9
			c1.1-6.5-1.8-29.2-12.4-27.2c-10.6,1.9-147.8,32.6-168.9,35.5C1213.3,1708.3,1065.4,1694.1,1065.4,1694.1z"/>
	</g>
	<polygon class="st59" points="1388.8,1912.6 1377.2,1912.6 1420.9,1535.1 1454.2,1535.1 	"/>
	<g>
		<path class="st44" d="M1362.5,1853.1c0,0,41-10.6,44.2,6.7c4.5,24.6,13.1,36.3,40.5,47.3c9.4,3.8,11.2,6.8,12.3,10.9
			c1.2,3.1,1.8,7.7-2.2,11.7c-6.7,6.8-36.7,8.3-62.1,1c-6.9-2-9.4-10-27.2-5.1c-3,0.8-15.1-2.7-15.1-2.7s-3.7-10.7-3.2-21.5
			C1346.9,1886,1360.7,1863.9,1362.5,1853.1z"/>
		<path class="st45" d="M1250.3,1587.5c7.9,0.7,31.9,19.5,48.8,24.6c50.8,15.4,131.7,37.7,141.8,46.7c16.7,15,18.4,35.9,10,54.2
			c-3.3,7.3-34.2,170.2-36.2,173.9c-12.5,23.5-70.6-7.7-70.6-7.7s32.9-189.2,34.3-167.1c0.5,8.1-146.5-100.4-157.6-105.9
			C1209.6,1600.7,1250.3,1587.5,1250.3,1587.5z"/>
		<path class="st44" d="M1464.2,1878.5c0,0,30.3-29,45.4-17.6c29.9,22.5,50.1,17.2,74.2,14.4c10.8-1.2,16.8,0.6,20.2,3.5
			c2.9,2,6.3,5.6,5.4,11.6c-1.6,10.2-24.6,35.4-61.6,37.7c-7.7,0.5-11.2-1.1-14.5,4.4c-1.7,2.8-14.9,7.1-14.9,7.1
			s-13.7-4.6-20.1-14.4C1486.3,1913.5,1469.3,1889.1,1464.2,1878.5z"/>
		<path class="st44" d="M1117.5,1613.4c10.1,61.3,26.8,83.5,91.2,82.5c28.8-0.4,138.8,56.7,147.2,72.1
			c31.5,57.4,86.5,138.1,127.3,158c16.7,8.1,64.5-55.9,64.5-55.9s-101.2-106.1-114.6-138.7c-13.5-32.7-21.6-36.4-37.5-46.2
			c-31.7-19.4-103.2-58.7-117-65.6c-11.7-5.8-11-14.4-28.2-32.3L1117.5,1613.4z"/>
	</g>
	<g>
		<g>
			<path class="st92" d="M1229.4,1546c-8.7-21.3,19-26,20.2-25.2c4.9,3.1,39,4.5,59.3,7.2c9.3-1.8,17.8-8.8,22.2-8.1
				c6.1,1,15,1.9,18.7,4.6c3.8,2.7,9.6,10.8,6.7,13.5c-1.2,1.2-0.9-1-6.1-5.1c-1.5-1.2-7.3-2.3-7.9-2.3c-3.2,0.5-9.7,3-9.7,3
				s16,4.1,14.5,7.3c-0.7,1.5-2,1.8-8.8,0.7c-6.8-1.1-11.6,5-19.1,3.8c-4.9-0.7-6.6-1-11.8-2.1
				C1290.8,1544.7,1235.4,1560.6,1229.4,1546z"/>
			<path class="st60" d="M1186.5,1410.9c5.8,1.9,15.4,17.3,25,37.6c9.6,20.2,32.4,68.9,36.3,68.7c10.1-0.5,55.8,9.6,55.8,9.6
				l-9.6,16.1c0,0-76.7,9.6-82.5,7.7c-5.8-1.9-26.9-61.6-28.9-88.6C1180.7,1435,1186.5,1410.9,1186.5,1410.9z"/>
			<path class="st91" d="M1291.5,1524.2c-2.3,3.2-8.7,12.5-8.7,14.8c0,2.2,8.7,2.5,8.7,2.5l8.7-15.4L1291.5,1524.2z"/>
		</g>
		<path class="st93" d="M1099.5,1389.3c-20.9,14.8-33.2,19.9-50.7,47c-3.5,5.4-1.6,39.3,10.9,75c9.8,27.8,27.6,63.2,36.3,86.3
			c8.7,23.1,25,68.6,27.9,58.7c11.6-38.5,51.5-56.8,69.8-52.9c18.3,3.8,58.3-28.9,58.3-28.9s-46.5-46.9-46.5-69
			c0-22.1,2.6-21.8-1.3-39.1c-3.9-17.3-10.2-52.1-20.1-59.9C1150.4,1380.1,1099.5,1389.3,1099.5,1389.3z"/>
		<g>
			<polygon class="st5" points="1311.3,2014.4 1324.3,2014.4 1275.1,1587.5 1237.6,1587.5 			"/>
			<polygon class="st5" points="933.6,1975.3 921.6,1975.3 973.9,1597.4 1008.3,1597.4 			"/>
			<polygon class="st5" points="929.3,1585.8 1265.9,1593.5 1706.2,1530 1407.7,1531.9 			"/>
			<g>
				<polygon class="st59" points="931.3,1614.3 1259.7,1614.3 1706.2,1559.8 1706.2,1530 1254.9,1585.2 931.3,1585.2 				"/>
			</g>
		</g>
		<g>
			<path class="st44" d="M1338.7,1536.5c-0.3,0.8-0.1,1.7,0.5,2l20.9,18.1c0.7,0.4,1.6-0.1,2.1-1l57.1-128.4c1-2.5-1-4.1-1.9-4.2
				l-27.6,0.6c-0.8,0-1.6,0.6-2,1.4L1338.7,1536.5z"/>
			<path class="st45" d="M1338,1542.4c-0.4,0.8-0.2,1.7,0.3,1.9l20.3,8.9c0.6,0.3,1.4-0.2,1.8-1.2l54.9-125.1
				c0.4-0.9,0.5-2.8-1.1-2.7l-23.3,0.4c-0.6,0-1.4,0.7-1.8,1.6L1338,1542.4z"/>
			<path class="st45" d="M1202.1,1552.4c-0.6,0.6-0.3,1.1,0.8,1.1l155.4,0.2c1.3,0,1.8-0.6,1-1.2l-18.8-15.9
				c-0.5-0.4-1.7-0.7-2.7-0.7l-117.6,1.4c-0.9,0-1.9,0.3-2.3,0.7L1202.1,1552.4z"/>
			<polygon class="st94" points="1399.4,1445.3 1363.1,1526.1 1353.2,1520.1 1387.6,1443.9 			"/>
			<path class="st44" d="M1201.6,1557c0,1,0.9,1.8,2,1.8l155.6-1.1c1.1,0,1.9-0.8,2-1.8l0-1.6c0-1-0.9-1.8-2-1.8l-155.6,1.1
				c-1.1,0-2,0.8-2,1.8L1201.6,1557z"/>
			<polygon class="st94" points="1329.1,1538 1339.8,1549 1262.9,1549.5 1259.6,1538.8 			"/>
		</g>
		<g>
			<path class="st48" d="M1104.1,1317.6c2.6,10.7,13.7,50.6-3.6,71.8c-5.2,6.4,8.1,15.9,19.6,20.4c30.8,12,48.1,16.2,48.1,16.2
				s-1.6-14.6-3.5-20.2c-0.9-2.6-3.1-6.4-3.2-8c-0.6-13.8,0.7-31.5,17.5-40C1190.2,1352,1104.1,1317.6,1104.1,1317.6z"/>
			<g>
				<path class="st48" d="M1133.1,1262.4c23.1-5.6,36.1,0.4,49.2,33.7c0.8,2.1-0.5,7.6,0.2,9.7c0.1,0.4,0.2,0.9,0.4,1.3
					c5.1,7.9,13.7,19.6,13.9,21.9c0.1,1.9-3.7,4.9-7.7,6.4c0.6,5.5,0.6,10.1,0.8,14.2c0.6,10.5,0,13.4-2.9,14.6
					c-10.6,4.7-24.2,4.2-37,4.7c-17.5,0.7-29.4-20.4-36.4-37.4C1102.1,1303.4,1103.5,1269.6,1133.1,1262.4z"/>
				<path class="st44" d="M1172.4,1276.3c11.4-13,0.3-4,4-12.6c1.5-3.4-1.7-20.2-1.7-20.2l-9.3,11.7c0,0,8.7-19.3,6.2-15.5
					c-7.9,11.8-22.1,12-22.1,12s-28.2-2.7-50.5,9.3c-14.7,8-15.2,16.1-15.2,16.1s-27.7,34.2,6.3,75.9c0,0,9.1,16.2,4.1,24.6
					c8.9,2.6,18.3-4.3,18.3-4.3s12-31.3,7.9-36.4c-8.6-10.9-0.3-26.4,6.6-21.3c1.7,1.2,4.4,11.6,7,12.3c2.2,0.6,13.1,9.8,12.2,8
					c-10.7-20.2-4.6-42-0.2-47.9c4.5-5.8-20.5-11.2-27.5-10.6c-7,0.5,13-1.1,31,5.9C1153.4,1284.8,1172.4,1276.3,1172.4,1276.3z"/>
			</g>
		</g>
		<path class="st5" d="M1093.1,1391c-2.6,7.7-2.6,17,9,22.1c11.6,5.1,70,23.1,77.7,34.7c-0.7-36.6-8-47.8-10-48.5
			c-1.9-0.7-6.8-2.9-6.8-2.9s5.1,26.3,5.1,29.5c-9-1.3-43.7-14.1-53.3-19.3c-9.6-5.1-13.5-16-12.9-18
			C1102.7,1386.8,1093.1,1391,1093.1,1391z"/>
	</g>
	<g>
		<g>
			<path class="st51" d="M1152.9,1536.7c2.1,3.4,95.8,5.8,96.9,5c4.6-3.3,8.3-4.7,11.3-5.8c4.1-1.5,15.9-3.6,16.9-3
				c3.9,2.2-6,3.5-6,3.5s14.3-1.3,17.9-1.4c4.3-0.2,8.4,2.7,10.4,3.6c2.7,1.4,3.2,4.1-0.6,3.4c-3.8-0.7-6.6-3.4-9.7-2.6
				c-2.5,0.7-7.3,0.6-7.3,0.6s5.8-0.9,9.6-0.2c3.8,0.7,10.2,4.1,10.2,4.1s2.4,3.6-0.1,3.4c-6-0.5-12.5-2.6-12.5-2.6l-8.5-0.6
				c0,0,20.2,1.4,19.9,4.9c-0.1,1.7-2.2,1.1-5.8,0.9c-9.1-0.6-10.7,1.7-10.7,1.7s8.6-1.4,11.9-0.9c2.5,0.4,5.3,1.9,0.3,3.1
				c-4.9,1.2-8.2,1.4-13.3,3.8c-19.9,9.4-32,5.7-32,5.7c-49.5,9.8-103.7,14.2-113.8,8C1127.8,1565,1142.6,1520.4,1152.9,1536.7z"/>
		</g>
		<g>
			<g>
				<g>
					<g>
						<path class="st60" d="M1108.5,1443.9c-18.6-32.7-49.4-25.2-55.5-13.7c-11.3,21.4-2.9,48.8,9.9,67c21.8,30.8,37,54.4,61,73.8
							c7.6,6.2,95.5,5.9,104.5,1.4c5.2-2.6,6.3-22.8,8.2-31.3c-48.2-16.6-76.1-12.8-81.2-18.2
							C1129.3,1494.9,1108.5,1443.9,1108.5,1443.9z"/>
					</g>
				</g>
			</g>
			<path class="st5" d="M1226.1,1537.8c-0.5,6.7-3.9,28.8-12.1,35.9l11.9-1c0,0,7.9-17.2,5.8-32.8
				C1228.1,1538.8,1226.1,1537.8,1226.1,1537.8z"/>
		</g>
		<path class="st93" d="M1137.4,1524.2c-9,1.9-9.6,23.1-6.4,22.5c3.2-0.6,11.6-16.7,14.8-16.1c3.2,0.6-12.3,25.3-6.9,20.4
			c9.6-8.7,10.7-17.2,15.3-17.2c4.5,0,3.8,8.4,3.8,8.4s59.4-1,65.2,3.5c1.9-7.7,1.9-7.7,1.9-7.7s-70.5-11.1-74.2-13.8
			c-11.6-8.3-41.1-72.5-43-74.5C1105.9,1447.8,1137.4,1524.2,1137.4,1524.2z"/>
	</g>
	<g>
		<path class="st48" d="M1766.2,1376.1c3.6-0.7,11.1-2.1,14.6-3.4c3.4-1.3,11.4-0.4,18.7-4.7c2-1.2,4.4,0.7,2.4,2.6
			c-2,2-7.9,4.2-11.1,6c-4,2.3,8.9,4.6,12.2,5.5c2.8,0.7,19.7,7.3,18.9,9.2c-1.5,3.5-19.9-4.5-20.2-2.8c-0.2,1.3,20.5,4.8,19.7,7.2
			c-2.2,6.5-19.2-1.1-21.9,0.6c0,0,4.7,0.7,9,2.4c3.9,1.5,9.1,1.7,9.4,3.1c1.1,4.6-23.5-3.2-23.7,0.3c-0.1,2.8,12.9,7.2,10.9,9.8
			c-1,1.3-18.8-4.6-18.8-4.6s-23.7-4.4-31.5-7.9c-4.7-2.2-17.6-4.8-17.6-4.8l11-20C1748,1374.6,1760,1377.3,1766.2,1376.1z"/>
		<path class="st91" d="M1751.8,1371.4c2.6,0,13,2.8,13,2.8s-9.1,26.7-7.9,31.9c1.3,5.1-12.2-3.8-12.2-3.8L1751.8,1371.4z"/>
		<path class="st89" d="M1655.5,1249.4c6.1,1,14.1,16.7,16.1,37.9c1.5,15.9,23.1,65.8,23.1,65.8s36.8,13.7,63.9,18.9
			c-8.7,12.5-11.2,37.2-11.2,37.2s-63.9,4.5-76.4-5.2c-12.5-9.6-40.4-50.1-44.3-83.8C1622.7,1286.6,1655.5,1249.4,1655.5,1249.4z"/>
		<polygon class="st59" points="1672.9,1952.2 1684.4,1952.2 1633.6,1555 1600.5,1555 		"/>
		<g>
			<g>
				<g>
					<path class="st51" d="M1757.8,1671.3c-22.2,32.3-31,49.9-32.1,60.4c-1.1,10.5,0.8,28.3,2.8,32.8c1.9,4.4-7.9,11.5-14.6,6.4
						c-6.7-5.1-32.9-39.1-36.2-41.7c-3.4-2.5-3-15,0.5-17.7c3.5-2.7,9.5-1.6,18.3-9.1c9.2-7.8,30.4-61.5,30.4-61.5L1757.8,1671.3z"
						/>
					<path class="st44" d="M1734.8,1746.1c2.4,30.9,20.9,39.4,19,49.7c-1.9,10.3-13.9,5.6-25.9,1.1c-12-4.6-35.1-28.7-37.3-37.4
						c-6.8-27.2-21.4-24.2-23.8-35.5c-0.7-3.3,16.5-21.7,21.5-20.9c5,0.7-3.2,8,2.2,18.4c5.2,10.4,17.7,31.9,21.4,28.2
						C1715.8,1746,1733.9,1734.8,1734.8,1746.1z"/>
				</g>
				<path class="st46" d="M1643.9,1418.6c8,4.3,32.9,38.9,40.4,42.7c86.7,43.3,129.4,64.5,137.7,77c13.8,20.9-4.8,55.5-4.8,55.5
					l-73.2,141.6c0,0-50.4-37-46.2-47.2c20.6-50.1,32.1-79.3,46.2-105c6.5-11.9-131.7-45.3-141.6-68.4c-9.9-23-15.4-87.6-15.4-87.6
					L1643.9,1418.6z"/>
			</g>
			<path class="st47" d="M1665.6,1429.7c9.6,9.6,11.1,27.3,17.8,30.2c6.8,2.9,109.3,55.5,125.2,66.6c8.2,5.7,22.6,22.1,18.8,37.6
				c-3.9,15.4-14.9,33.7-14.9,33.7s11.5-37.6-3.8-53.9c-15.4-16.4-121.3-68.5-132.9-75.3c-11.5-6.7-26-42.2-25-45.1
				C1651.6,1420.5,1665.6,1429.7,1665.6,1429.7z"/>
		</g>
		<g>
			<path class="st51" d="M1725.2,1852.8c4.9,18,17.6,52.6,43,63.3c25.3,10.7,2.8,17.7-4.1,20.3c-6.9,2.7-44.9,5.4-46.7,0.8
				c-4-10.3-5.2-11.5-6.7-29.2c-1.8-19.9-11.9-27.9-15.6-35.7C1691.4,1864.6,1725.2,1852.8,1725.2,1852.8z"/>
			<path class="st46" d="M1736.8,1869.3c-1.5-3.8-42-139.7-42-139.7c-8.2-36-47.8-207.1-51.9-214.6c-19.6-36.3-16.8-83.1-27-93.4
				l-90.5,19.2c0,0,0.3,48.2,2.2,75.1c1.9,26.9,24.6,41.4,28.6,49.1c36.6,71.3,76,173.5,77,183c4.1,38.1,29,120.2,53,159.9
				C1686.3,1907.8,1738.8,1874.4,1736.8,1869.3z"/>
			<path class="st44" d="M1743.4,1933.1c-7.6-13.4,14.2-37.7,26.9-24.1c9,9.7,15.8,8.7,15.8,8.7s36.9,5.5,30.2,27.6
				c-4.4,14.5-44.8,15.8-62.9,10C1736.4,1950,1743.4,1933.1,1743.4,1933.1z"/>
			<path class="st44" d="M1711.6,1918.6c-3.1,17.7,3.8,32.1,8.7,32.8c4.9,0.7,12.8-5.8,36.6,4c7.5,3.1,9.7-17.7,9.7-17.7
				s-29.4-9.6-39.2-8.5C1719.2,1930.2,1711.6,1918.6,1711.6,1918.6z"/>
			<path class="st47" d="M1630.4,1513.3c5.8,0,16,11.6,18,14.8c14.4,23.1,37.2,146.8,40.8,173.2c1.7,12,2.3,24.7,8.6,34.2
				c6.3,9.5,39.9,132.2,36.1,137.2c-3.8,5-11.5,8.7-11.5,8.7s8.3-16-38.4-119.8c-8.5-18.9-2.5-41.6-6.1-69.7
				C1671.5,1641.7,1630.4,1513.3,1630.4,1513.3z"/>
		</g>
		<path class="st88" d="M1538.9,1218.3c-47.2,18.3-64.8,30.5-64.8,30.5s23.9,66,23.9,74.9c0,9,6,58.3,2.1,96.5
			c-4.1,40.5,6.8,51.6,13.9,73.9c1.9,5.9,3,13,2.8,22.4c11.6-1.3,27-14.8,43-30.8c19.3-19.2,57.8-32.2,71.3-33.4c34.7-2.9,48,0,48,0
			c-3.7-19.9-9.5-37.2-21.2-70.8c-11.2-32-5-50.6-6.3-66c-1.3-15.4,13.5-57.1,7.1-67.4c-6.4-10.3-30.2-20.5-62-27.4
			C1582.4,1217.6,1538.9,1218.3,1538.9,1218.3z"/>
		<path class="st80" d="M1528.4,1220.7c-0.9-5.6,5.8-9.1,17.3-10.1c11.5-1,59.1,2.6,59.1,13.2c0,10.6,5.9,32.6-26.8,24.9
			C1545.2,1240.9,1528.8,1223.6,1528.4,1220.7z"/>
		<g>
			<path class="st51" d="M1601.1,1186.5c-2.9,11.7-3.9,34.1,0.5,44.3c4.3,10.2-1.1,20.4-15.7,25.1c-29.7,9.5-61-27.9-61-27.9
				s11.4-9.5,13.6-15.3c0.2-0.4,0.3-0.9,0.5-1.5c2.2-6.9,4.7-21.3,6.3-51.3C1545.8,1150.5,1601.1,1186.5,1601.1,1186.5z"/>
			<g>
				<linearGradient id="SVGID_7_" gradientUnits="userSpaceOnUse" x1="1558.5482" y1="1232.8167" x2="1576.526" y2="1150.6266">
					<stop  offset="0" style="stop-color:#FFFFFF"/>
					<stop  offset="0.5165" style="stop-color:#C6C0B9"/>
				</linearGradient>
				<path class="st95" d="M1599,1209.9c-5.5,7.5-30.4,43.8-40.4,43.4c-8.4-0.4-29.6-17.9-34.7-23.8c22.8-9.6,21.2-60,21.2-62
					C1545.1,1167.5,1593.9,1199.7,1599,1209.9z"/>
			</g>
		</g>
		<g>
			<g>
				<path class="st96" d="M1547.1,1097.3c-7.8-10.1-22.4-23.6-35.9-18c-13.4,5.6-20.2,25.5-6.3,34c10.3,6.4,18.6,7.7,18.6,7.7
					s-14.5-8.3-9.9-16.1c3.4-5.8,7.3,1.2,8.4,4.9C1523.1,1113.6,1547.1,1097.3,1547.1,1097.3z"/>
				<path class="st97" d="M1540.8,1093.9c-9.3-10.9-19.1-16.6-25.8-14.6c7.6,0.8,12.4,5.6,13.5,7.6c-5.6-3.4-12.9-8.4-17.9-5.3
					c5.9,1.4,16.8,7.3,18.3,13.2c1.4,5.9,3.4,3.4,3.4,3.4L1540.8,1093.9z"/>
			</g>
			<path class="st44" d="M1618.5,1139.4c0,0-31.1,2.4-31.1,5.7c0,3.4,4.3,1.1,4.3,1.1l28.4-0.6L1618.5,1139.4z"/>
			<path class="st97" d="M1610.7,1138.8c0-11.6,0.3-27.6-6.7-36.6c-7.1-9-27.3-17.3-49.4-12.2c-10.4,2.4-16,4.2-16,4.2
				s60.9,22.8,59.8,27.3C1597.2,1126,1610.7,1138.8,1610.7,1138.8z"/>
			<path class="st96" d="M1515.7,1157c2.1,8.2,13.9,28.4,18.8,32.1c1.3,1,7.3,10.4,9.3,7.1c1.9-3.4-1.9-46.6-3.9-48.4
				C1537.9,1146,1515.7,1157,1515.7,1157z"/>
			<path class="st48" d="M1614.9,1165.5c-2.2-17.5-5.5-41.9-16.8-55.7c-7.4-8.8-13.5-12.4-21.6-11.2c-1.8,1.1-24.2-9.3-26-8
				c-5.4,0.2-10.6,8.5-18.3,11.1c-33.8,11.2-3.1,32.5,3.9,54.6c-9.2-2-9.9,6.6-6.5,15.1c2.7,6.5,6.7,10.7,12,11.4
				c12.2,25.4,41.7,34.4,62.2,26.8C1614.5,1202.7,1616.9,1182,1614.9,1165.5z"/>
			<path class="st96" d="M1587.7,1091.1c-12.8-11.5-57.8-0.4-59.1,3.6c0,0-8.5,8.6-9.6,14.8c1-0.2,4.9,1.4,9.8,3.9
				c10.7,3.7,21.6,10,25.9,13.4c7.1-2,19.3-0.7,30.9-4.3c2.3-0.7,6.7-2.2,8.8-4.1c1.6-1.4,6.7-2.2,8.3-1.6
				C1607.3,1118.7,1607.5,1101.4,1587.7,1091.1z M1518.9,1109.7c0,0,0.1-0.1,0.1-0.1C1518.9,1109.6,1518.9,1109.7,1518.9,1109.7z
				 M1519,1109.6c-11.6,5.3-6.4,15.6-7.9,23.4c-3,15.9,7.6,29.9,7.6,29.9l15.6-9.4l7.6,20.4l8,6.1c0,0-6.1-34.4-4.8-39.8
				c0.7-3,2.9-7.7,7.9-11.1c-5.6-5.2-15.3-10.8-23.3-14.8C1524.3,1112.4,1519.3,1110,1519,1109.6z"/>
			<path class="st97" d="M1594.8,1119.3c0.6-3.5,3.9-15.4-5.1-22.1c-9-6.7-18.1-7-26.8-5.3c19.5-2.4,27.4,7.7,29,15.4
				c1.6,7.7,1.6,8.8,1.9,11.3C1594,1119.7,1594.8,1119.3,1594.8,1119.3z"/>
			<path class="st97" d="M1589,1121.5c-4.3,0-3.4-14-15.4-24.1c-12-10.1-28-10.4-37.6-6.1c8.3-0.3,25.6-5.4,36.7,11.4
				c0,0-11.5-10.3-40.2-11.1c7.5,0.6,32.7,3.4,36.7,15.4c4,12,9.5,16.7,14.8,16.5C1589.2,1123.4,1589,1121.5,1589,1121.5z"/>
			<path class="st97" d="M1577.1,1124.2c-4.8,0.9-10.2,2.7-12.2-7.9c-1.9-10.6-9.6-18.4-14.5-19.1c3.5,1.9,10.4,8.5,11.7,14.6
				c1.3,6.1,1.8,14,6.9,14.3C1574.2,1126.5,1577.1,1124.2,1577.1,1124.2z"/>
			<path class="st97" d="M1568.2,1126c-2.3,1-4.5,2.4-6.4-0.8c-1.9-3.2,1.1-17-7.9-21.2c5.1,1.9,7.5,11.6,7.7,14.8
				c0.2,3.2,2.1,5.5,4,6C1567.5,1125.2,1568.2,1126,1568.2,1126z"/>
			<g>
				<path class="st44" d="M1555.8,1151.8c0,0-28.9,1.8-28.9,5.1c0,3.4,4.3,1.1,4.3,1.1l28.4,1.4L1555.8,1151.8z"/>
				<g>
					<path class="st98" d="M1588.4,1149.4c-0.8,4,1,12.9-2.3,15.8c-3.2,2.9-18.6,5.6-20.7,5.1c-2.1-0.5-7.7-13.8-6.3-17
						c1.4-3.2,6.6-4,13.8-6.1C1585.3,1143.6,1588.4,1149.4,1588.4,1149.4z"/>
					<path class="st99" d="M1598,1145.1c0.5,3.7,0.2,13.4,6.1,15.6c6,2.3,12.5,1,14-1.8c1.4-2.9,3.6-20.3,0.9-20.8
						c-2.7-0.5-19,3.2-19.8,4.1C1598.3,1143.2,1598,1145.1,1598,1145.1z"/>
					<path class="st44" d="M1620.3,1137.9c0,0-1.2-1.5-3.1-1.2c-3.4,0.5-13.7,2.8-16.6,3.6c-4.5,1.3-4.9,2.6-5.5,4.8
						c-0.2,0.8-2.1-1.7-6,1.5c0,0-0.5-0.5-1.9-1.7c-3.2-2.9-13.8-0.4-20.8,1.1c-9,1.9-9.3,4.9-10.6,5.9c-1.3,1,2.4,14.3,7.2,18.8
						c4.8,4.5,21.4-0.8,23.1-2.4c2.9-2.7,4.3-16.1,4.3-16.1c1.3-1.3,5.9-1.4,5.9-1.4s3.2,9.9,6.1,12.5c2,1.8,10.1,0.7,13.8-0.9
						C1625.8,1158.3,1620.3,1137.9,1620.3,1137.9z M1584,1165.3c-2.6,1.3-16.7,4.6-18.8,2.6c-2.1-2.1-7.2-14.9-3.4-16.2
						c2.7-1,18.6-5,21.4-4.2c1.3,0.4,3.8,2.4,3.7,6.6C1586.8,1158.2,1586.6,1164,1584,1165.3z M1602.9,1158.5
						c-3.7-6.6-4.7-12.3-4.7-12.3c0.6-1.6,2-3,6-4c4-1,13.4-3.1,13.6-2.2c2.1,7.9,1.6,16.5-0.7,18.4
						C1615.2,1160.1,1606,1163.8,1602.9,1158.5z"/>
				</g>
			</g>
		</g>
		<path class="st5" d="M1530.9,1214.8c1.9,7.7,20.8,33.7,53.6,28.2c20.5-3.4,19.9-15.1,19.9-20.9c4.8,8.7,7.1,15.4,7.1,15.4
			s-5.8,9.5-15.7,15.1c-8.4,4.8-19.7,6.2-32.1,3.2c-23.8-5.7-43-29.6-43-29.6L1530.9,1214.8z"/>
		<linearGradient id="SVGID_8_" gradientUnits="userSpaceOnUse" x1="1544.9282" y1="1497.0474" x2="1596.9188" y2="1296.7878">
			<stop  offset="0" style="stop-color:#FFFFFF"/>
			<stop  offset="9.301316e-02" style="stop-color:#F9F8F8"/>
			<stop  offset="0.2283" style="stop-color:#E7E5E5"/>
			<stop  offset="0.3894" style="stop-color:#C9C5C5"/>
			<stop  offset="0.5703" style="stop-color:#A1999A"/>
			<stop  offset="0.7654" style="stop-color:#6D6162"/>
			<stop  offset="0.8681" style="stop-color:#4F4042"/>
		</linearGradient>
		<path class="st100" d="M1630.9,1422.3l-74.6,82l-36.6,7.7c0,0-17.3-23.1-17.3-46.2c0-23.1-10.3-41.1-2.2-45.6
			c8-4.5,91.1-27.9,103-25.8C1615,1396.4,1630.9,1422.3,1630.9,1422.3z"/>
		<g>
			<g>
				<g>
					<g>
						<g>
							<path class="st91" d="M1585,1353l49.4-3.3l-3.6,72.5c0,0.1,0.1,0.1,0.1,0.1c0.1,1.2-7.3,2.7-16.5,3.3
								c-8.9,0.6-16.1,0.2-16.7-0.9h-0.2L1585,1353z"/>
							<path class="st5" d="M1614.4,1425.6c9.2-0.6,16.6-2.1,16.5-3.3c0,0,3.5-72.6,3.5-72.6l-24.7,1.7L1614.4,1425.6z"/>
							<path class="st86" d="M1585,1353.2c0.1,1.8,11.3,2.5,25,1.6c13.6-0.9,24.7-3.1,24.6-4.9c-0.1-1.8-11.4-2.5-25-1.6
								C1595.9,1349.3,1584.9,1351.5,1585,1353.2z"/>
						</g>
					</g>
					<g>
						<g>
							<path class="st91" d="M1635.4,1345.4l3.1,10.9c-0.6,1.6-12.7,3.8-28.3,4.9c-15.8,1.1-28.2,0.4-28.8-1.1
								c-0.1-0.1-0.1-0.2-0.1-0.3l0.6-10.8L1635.4,1345.4z"/>
						</g>
						<path class="st5" d="M1581.8,1349c0.1,1.6,12.1,2,26.9,1c14.8-1,26.7-3.1,26.6-4.6c-0.1-1.6-12.2-2-27-1
							C1593.5,1345.3,1581.7,1347.4,1581.8,1349z"/>
					</g>
				</g>
				<g>
					<path class="st48" d="M1592.4,1372.5c3.1-3.2,10.5-4.6,12.1-4.3c0,0-6,26.5-1.4,32c1.9,2.3-17.4,7.8-22.3,6.7
						c-15.3,1-7.6-6.5-9-15.2C1570.3,1382.3,1575.2,1387.7,1592.4,1372.5z"/>
					<path class="st48" d="M1605.8,1368c3.2,0.6,7.4,2.8,10.8,4.5c3.3,1.6,13.5,7.6,12.7,9.6c-0.9,2-7.3-1.6-13.7-3.6
						c-6.9-2.1-7-1.6-8.6-0.8c0,0,5.4,1.6,10.4,3.2c3.7,1.2,14,4.2,12.4,7.9c-1.1,2.7-7.9-1.7-13-2.4c-5.2-0.7-11.4-1.9-11.4-1.9
						s4.9,1.4,10,3.3c5.5,2.1,11.7,3.4,11.4,5.4c-0.3,2-7.5,1-13.4,0.7c-5-0.3-10.1,0.5-10.1,0.5s21.8,2.4,18.4,5.3
						c-3.4,2.9-17.6,2-25.7,0.3c-3.9-0.8-3.2-10.4-1.4-18.7C1597.4,1367.4,1605.8,1368,1605.8,1368z"/>
				</g>
			</g>
			<path class="st48" d="M1577.8,1384.9c-12.2,1.3-37.9-0.6-44.9-0.6c-7.1,0-16.7,32.1-9,34c7.7,1.9,56.5-8.4,60.4-12.8
				C1588.1,1400.9,1577.8,1384.9,1577.8,1384.9z"/>
			<path class="st5" d="M1543.8,1383.4c1.9,0,14,2.4,14,2.4s-6.7,33.2-3.4,35.6c-13,1.9-18.3,1.9-18.3,1.9L1543.8,1383.4z"/>
			<path class="st89" d="M1474.1,1248.8c-9-1.3-12.8,14.1-18,32.1c-5.1,18-36.6,122.3-10.6,151.2c11.7,13,91.2-6.1,97.6-7.4
				c-3.2-9-4.5-39.1,4.5-41.7c-35-4.2-60.7-4.8-60.7-4.8s14.2-21.1,15.7-39.5C1507.2,1285.4,1474.1,1248.8,1474.1,1248.8z"/>
		</g>
	</g>
</g>
<g id="Layer_2">
</g>
<g id="Layer_4">
</g>
<g id="Layer_5">
</g>
</svg>
