<?xml version="1.0" encoding="utf-8"?>
<!-- Generator: Adobe Illustrator 25.1.0, SVG Export Plug-In . SVG Version: 6.00 Build 0)  -->
<svg version="1.1" xmlns="http://www.w3.org/2000/svg" xmlns:xlink="http://www.w3.org/1999/xlink" x="0px" y="0px"
	 viewBox="0 0 4158.6 2478.2" style="enable-background:new 0 0 4158.6 2478.2;" xml:space="preserve">
<style type="text/css">
	.st0{fill:#EBF3FA;}
	.st1{fill:#B0D4FF;}
	.st2{fill:#95C0F4;}
	.st3{fill:#CAE5FF;}
	.st4{fill:#DFEDFB;}
	.st5{fill:#FFFFFF;}
	.st6{fill:#FFA412;}
	.st7{fill:#EEF6FF;}
	.st8{fill:#78ACEA;}
	.st9{fill:#BAE8E3;}
	.st10{fill:#A1D6CE;}
	.st11{fill:#F99746;}
	.st12{fill:#C0D8FB;}
	.st13{fill:#DFEBFD;}
	.st14{fill:#B7D3F3;}
	.st15{fill:#FFB27D;}
	.st16{fill:#233862;}
	.st17{fill:#A9453D;}
	.st18{fill:#ED975D;}
	.st19{fill:#2A4E96;}
	.st20{fill:#5F9AA8;}
	.st21{fill:#1E3D70;}
	.st22{fill:#ED7D2B;}
	.st23{fill:#163560;}
	.st24{fill:#B0D0FF;}
	.st25{fill:#98BAF4;}
	.st26{fill:#E8945B;}
	.st27{fill:#F2CCAA;}
	.st28{fill:#B5453C;}
	.st29{fill:#2B478B;}
	.st30{fill:#EBF3FF;}
	.st31{fill:#213F7A;}
	.st32{fill:#E2915A;}
	.st33{fill:#2E3552;}
	.st34{fill:#B4A3C6;}
	.st35{fill:#ADBCC9;}
	.st36{fill:#BAC6D3;}
	.st37{fill:#D0DAE2;}
	.st38{opacity:0.6;fill:#FFFFFF;}
	.st39{opacity:0.75;fill:#FFFFFF;}
	.st40{opacity:0.85;fill:#FFFFFF;}
	.st41{opacity:0.63;fill:#FFFFFF;}
	.st42{fill-rule:evenodd;clip-rule:evenodd;fill:#FFFFFF;}
	.st43{fill:#282626;}
	.st44{fill:#151823;}
	.st45{fill:#282A35;}
	.st46{fill:#102B8C;}
	.st47{fill:#2A4FC6;}
	.st48{fill:#DBB2A5;}
	.st49{fill:#BA784A;}
	.st50{fill:#A0593A;}
	.st51{fill:#CC9987;}
	.st52{opacity:0.8;fill:#FFFFFF;}
	.st53{opacity:0.8;}
	.st54{opacity:0.84;}
	.st55{opacity:0.55;}
	.st56{opacity:0.54;}
	.st57{opacity:0.64;fill:#FFFFFF;}
	.st58{fill:#C3CED8;}
	.st59{fill:#DDE8F2;}
	.st60{fill:#E64A00;}
	.st61{opacity:0.74;fill:#FF781D;}
	.st62{fill:#DBA697;}
	.st63{fill:#992C75;}
	.st64{fill:#E5BFB5;}
	.st65{fill:url(#SVGID_1_);}
	.st66{fill:#7F1C5C;}
	.st67{fill:url(#SVGID_2_);}
	.st68{fill:#3D0C04;}
	.st69{fill:#59140A;}
	.st70{opacity:0.38;fill:#FFFFFF;}
	.st71{opacity:0.5;}
	.st72{opacity:0.68;fill:#FFFFFF;}
	.st73{opacity:0.37;}
	.st74{opacity:0.94;fill:#FFFFFF;}
	.st75{opacity:0.25;fill:#FFFFFF;}
	.st76{opacity:0.88;}
	.st77{opacity:0.62;}
	.st78{opacity:0.59;fill:#FFFFFF;}
	.st79{fill:#CFD9E2;}
	.st80{fill:#C7D3E0;}
	.st81{fill:#96A6BC;}
	.st82{fill:url(#SVGID_3_);}
	.st83{fill:#66BCF7;}
	.st84{fill:url(#SVGID_4_);}
	.st85{opacity:0.7;fill:url(#SVGID_5_);}
	.st86{fill:#A3CCE2;}
	.st87{fill:#8ACDFF;}
	.st88{fill:#D1203D;}
	.st89{fill:#AA0031;}
	.st90{fill:url(#SVGID_6_);}
	.st91{fill:#DCE1E5;}
	.st92{fill:#D19D90;}
	.st93{fill:#FF781D;}
	.st94{opacity:0.42;fill:#C7D3E0;}
	.st95{fill:url(#SVGID_7_);}
	.st96{fill:#AF664B;}
	.st97{fill:#BF845C;}
	.st98{opacity:0.36;fill:#FFFFFF;}
	.st99{opacity:0.37;fill:#FFFFFF;}
	.st100{fill:url(#SVGID_8_);}
	.st101{fill:#97D3FF;}
	.st102{fill:#468BB7;}
	.st103{fill:#743064;}
	.st104{fill:#303030;}
	.st105{fill:#56585E;}
	.st106{fill:#0A2126;}
	.st107{fill:#004555;}
	.st108{fill:#1E0C00;}
	.st109{fill:#0089A9;}
	.st110{fill:#3C1047;}
	.st111{fill:#FD5E5A;}
	.st112{fill:#FC7575;}
	.st113{fill:#AF9BE2;}
	.st114{fill:#CFC3EE;}
	.st115{fill:#8475AA;}
	.st116{fill:url(#SVGID_9_);}
	.st117{fill:#F8F0A1;}
	.st118{fill:#6B9FC5;}
	.st119{fill:url(#SVGID_10_);}
	.st120{fill:#290096;}
	.st121{fill:#F1ECFF;}
	.st122{fill:#D7CEEE;}
	.st123{fill:#FFE5A0;}
	.st124{fill:#FFFCED;}
	.st125{fill:#ECB2CD;}
	.st126{fill:#002B32;}
	.st127{fill:#746C87;}
	.st128{fill:#2E0A29;}
	.st129{fill:#001542;}
	.st130{fill:#FF4747;}
	.st131{fill:#4D475B;}
	.st132{fill:#998DB6;}
	.st133{fill:#703C6A;}
	.st134{fill:#47003F;}
	.st135{fill:#060032;}
	.st136{fill:#482044;}
	.st137{fill:#FF7B7B;}
	.st138{fill:#4B2847;}
	.st139{fill:#99CEDC;}
	.st140{fill:#95508D;}
	.st141{fill:#CEF2FA;}
	.st142{fill:#5DB9F4;}
	.st143{fill:#00485C;}
	.st144{fill:#333A6A;}
	.st145{fill:#47405C;}
	.st146{fill:#5F557B;}
	.st147{fill:#C3EDF4;}
	.st148{fill:#363A68;}
	.st149{fill:#260E0D;}
	.st150{fill:#2F1954;}
	.st151{fill:#0E0E0E;}
	.st152{fill:#F1A97E;}
	.st153{fill:#121841;}
	.st154{fill:#555DA2;}
	.st155{fill:#777EB5;}
	.st156{fill:#1E3340;}
	.st157{fill:#EEF1F9;}
	.st158{fill:#403003;}
	.st159{fill:#4C3D65;}
	.st160{fill:#554004;}
	.st161{fill:#322844;}
	.st162{fill:#000945;}
	.st163{fill:#F66D75;}
	.st164{fill:#98B0BF;}
	.st165{fill:#2D1175;}
	.st166{fill:#CAEBFF;}
	.st167{fill:#C33EA4;}
	.st168{fill:#7F71A4;}
	.st169{fill:#B2AAC8;}
	.st170{fill:#0A6980;}
	.st171{fill:#084F60;}
	.st172{fill:#D4C5F6;}
	.st173{fill:#313B3D;}
	.st174{fill:url(#SVGID_11_);}
	.st175{fill:#339CB4;}
	.st176{fill:#666E9E;}
	.st177{fill:#371C45;}
	.st178{fill:#170053;}
	.st179{opacity:0.53;fill:#FD5E5A;}
	.st180{fill:#322554;}
	.st181{fill:#1B2B80;}
	.st182{fill:#2F499F;}
	.st183{fill:#023135;}
	.st184{fill:#560D68;}
	.st185{fill:#510B5E;}
	.st186{fill:#CEF794;}
	.st187{fill:#7BD3E0;}
	.st188{fill:#B3EEFF;}
	.st189{opacity:0.7;fill:#7BD3E0;}
	.st190{fill:#99DFED;}
	.st191{fill:#D5F8FF;}
	.st192{fill:#1A5C60;}
	.st193{fill:#F77967;}
	.st194{fill:#25767F;}
	.st195{fill:#1F4E54;}
	.st196{fill:#DD5444;}
	.st197{fill:#275962;}
	.st198{fill:#318796;}
	.st199{fill:#70BCE2;}
	.st200{fill:#FF9E85;}
	.st201{fill:#E87558;}
	.st202{fill:#D7F4FC;}
	.st203{fill:#92CEF4;}
	.st204{fill:#C4F5FF;}
	.st205{fill:#ECFAF9;}
	.st206{fill:#F97B51;}
	.st207{fill:#184449;}
	.st208{fill:#ED7D60;}
	.st209{fill:#77B4E5;}
	.st210{fill:#FC8F74;}
	.st211{fill:#317A8B;}
	.st212{fill:#EF6B45;}
	.st213{fill:#A5E0FF;}
	.st214{fill:#1B484C;}
	.st215{fill:#304752;}
	.st216{fill:#C6E4FF;}
	.st217{fill:#13B789;}
	.st218{opacity:0.6;}
	.st219{fill:#008E5D;}
	.st220{fill:#009B00;}
	.st221{opacity:0.4;fill:#FFFFFF;}
	.st222{fill:#B1EDB7;}
	.st223{fill:#EB4A78;}
	.st224{fill:#68396B;}
	.st225{fill:#F69EA7;}
	.st226{opacity:0.32;fill:#F69EA7;}
	.st227{fill:none;}
	.st228{fill:#3B89C4;}
	.st229{fill:url(#SVGID_12_);}
	.st230{fill:#DB857D;}
	.st231{fill:none;stroke:#FFFFFF;stroke-width:0.7412;stroke-miterlimit:10;}
	.st232{fill:url(#SVGID_13_);}
	.st233{fill:url(#SVGID_14_);}
	.st234{fill:url(#SVGID_15_);}
	.st235{fill:url(#SVGID_16_);}
	.st236{fill:url(#SVGID_17_);}
	.st237{fill:url(#SVGID_18_);}
	.st238{fill:url(#SVGID_19_);}
	.st239{fill:url(#SVGID_20_);}
	.st240{fill:url(#SVGID_21_);}
	.st241{fill:url(#SVGID_22_);}
	.st242{fill:url(#SVGID_23_);}
	.st243{fill:url(#SVGID_24_);}
	.st244{fill:url(#SVGID_25_);}
	.st245{fill:url(#SVGID_26_);}
	.st246{opacity:0.49;fill:#E6E6E6;}
</style>
<g id="Слой_1">
</g>
<g id="Layer_3">
</g>
<g id="Layer_2">
	<path class="st101" d="M205.4,2327.8c0.2,0.1,3682.2-0.5,3682.2-0.5c121.2-258.6,121-384.9,134.8-533.1
		c76.2-819.2-540.8-945.1-721.6-979.3c-553.4-104.6-301.6-622.1-1743.7-525c-132.2,8.9-443.8,80.7-551.2,127.3
		c-75.3,32.6-359.2,178.6-442.4,425.5c-26.3,77.9-32.6,165.9-6.1,263.5c93.9,345.5-150.8,325.7-329.6,490.3
		C-10.9,1816.4,14,2175.8,205.4,2327.8z"/>
	<path class="st102" d="M3161.5,1954.3c0,40.6-533.9,73.5-1192.6,73.5s-1192.6-32.9-1192.6-73.5s533.9-73.5,1192.6-73.5
		S3161.5,1913.7,3161.5,1954.3z"/>
	<rect x="2725.4" y="1304.3" class="st103" width="22.1" height="649.8"/>
	<g>
		<g>
			<rect x="1999.7" y="1503.6" class="st104" width="46.3" height="63.8"/>
			<g>
				<g>
					<rect x="2001.8" y="1521" class="st105" width="40.3" height="309.9"/>
				</g>
				<g>
					<polygon class="st106" points="2241.4,1889.7 2048.5,1786.8 2048.5,1833.7 2186.8,1889.7 2186.8,1900 2241.4,1900 					"/>
					<polygon class="st106" points="2048.5,1833.7 1996.1,1833.7 1996.1,1786.8 1996.1,1749.1 2048.5,1749.1 					"/>
					<polygon class="st106" points="1803.1,1889.7 1996.1,1786.8 1996.1,1833.7 1857.7,1889.7 1857.7,1900 1803.1,1900 					"/>
					<polygon class="st106" points="2004.7,1786.8 2004.7,1900 1991.8,1900 1991.8,1908 2048.5,1908 2048.5,1900 2036.5,1900 
						2040.2,1786.8 					"/>
				</g>
			</g>
		</g>
		<g>
			<path class="st107" d="M2106.7,1347.5h-191.8l-52.7-326.2c-9.5-58.6,35.8-111.7,95.1-111.7h106.9c59.4,0,104.6,53.1,95.1,111.7
				L2106.7,1347.5z"/>
			<polygon class="st108" points="1888.8,1185.6 1810,1216.8 1858.4,1418.2 1879.5,1415.1 1856.4,1239.7 1898.2,1221.7 			"/>
			<polygon class="st108" points="2127.6,1185.6 2195,1232.3 2183.8,1428.7 2156.6,1423.6 2166.1,1254.3 2112.2,1222.6 			"/>
			<path class="st109" d="M2215.3,1450.7h-358.9v-35.6h323.3C2199.3,1415.1,2215.3,1431,2215.3,1450.7L2215.3,1450.7z"/>
		</g>
	</g>
	<path class="st110" d="M2095.8,775.9c0,0-7.6,85.1,15.8,108.5c23.4,23.4,26.8,22.8,34.9,20.5c0,0-5.4,14.4-20.3,15.4
		c-1,0.1-2.1,0.1-3.2,0c-17.3-1.1,1.4,13.1,10.4,16.2c9,3.2-18,6.8-37,2.3c-11.7-2.8-133-1.3-151.9-18.1
		c-11.8-10.5,39.8-62.9,42.2-89.3C1992.9,762.7,2095.8,775.9,2095.8,775.9z"/>
	<path class="st111" d="M2340,768.5c0,0-11.3,23.9-16.3,51.3c-4.9,27.4,2.5,76.1,16.3,96.5c13.7,20.4,15.1,28,27.5,28
		c12.4,0,61.9-21.8,66.4-72.2c4.4-50.4-90.3-103.5-90.3-103.5H2340z"/>
	<path class="st112" d="M2851.9,1199.9c0,0-31.8-14.5-41.7-24.4c-9.8-9.8-40.9-35.4-56.6-35.4s-94.3,35.2-83.3,39.2
		c11,4,71.5-14,71.5-14s-70.7,29.1-58.2,34.6c12.6,5.5,51.1-9.4,51.1-9.4s-19.7,9.4-19.7,16.5c0,7.1,28.8-7.1,45.5-7.1
		c16.6,0,60.7,27.5,60.7,27.5L2851.9,1199.9z"/>
	<g>
		<g>
			<path class="st113" d="M3027.5,1632c-6,6.3-16.9,10.2-29.2,9.8c-12.3-0.4-22.9-5.2-28.4-11.9c6-6.3,16.9-10.2,29.2-9.8
				C3011.4,1620.6,3022,1625.3,3027.5,1632z"/>
			<g>
				<path class="st113" d="M3161.1,1888.3c-8.2-56-12-112.6-11-169.1c0.2-28.2,1.8-56.4,4-84.6c2.1-28.1,5.6-56.1,9.5-84.1
					c8-55.8,19.3-111.1,33.3-165.7c7-27.3,14.8-54.4,23.3-81.2c8.5-26.8,17.7-53.5,28.2-79.7l3.3,1.4
					c-10.1,26.1-18.9,52.8-27.1,79.7c-8.2,26.9-15.6,54-22.2,81.2c-13.3,54.6-23.9,109.8-31.1,165.4c-3.6,27.8-6.6,55.7-8.4,83.7
					c-1.9,28-3.1,56-3,84c-0.2,56,4.2,112,13,167.1L3161.1,1888.3z"/>
				<path class="st113" d="M3264.9,1111.7c-15.9,9.6-28.7,30-32.2,54.9c-3.5,24.9,3,48,15.7,61.7c16-9.6,28.7-30,32.2-54.9
					C3284.1,1148.5,3277.5,1125.4,3264.9,1111.7z"/>
				<path class="st113" d="M3170.9,1197.6c-2,14.4,4.2,32.1,17.7,46.5c13.4,14.3,30.7,21.7,45.2,20.7c2-14.4-4.2-32.1-17.7-46.5
					C3202.7,1203.9,3185.4,1196.6,3170.9,1197.6z"/>
				<path class="st113" d="M3235.1,1272.8c12.2,7.9,30.9,9.8,49.6,3.8c18.7-6.1,32.7-18.6,38-32.1c-12.2-7.9-30.9-9.8-49.6-3.8
					C3254.3,1246.7,3240.3,1259.2,3235.1,1272.8z"/>
				<path class="st113" d="M3218.2,1325.9c12.2,7.9,30.9,9.9,49.6,3.8c18.7-6.1,32.7-18.6,38-32.1c-12.2-7.9-30.9-9.8-49.6-3.8
					C3237.5,1299.8,3223.5,1312.3,3218.2,1325.9z"/>
				<path class="st113" d="M3199.1,1389.2c12.2,7.9,30.9,9.9,49.6,3.8c18.7-6.1,32.7-18.6,38-32.1c-12.2-7.9-30.9-9.9-49.6-3.8
					C3218.4,1363.2,3204.4,1375.7,3199.1,1389.2z"/>
				<path class="st113" d="M3186.3,1448.2c12.2,7.9,30.9,9.9,49.6,3.8c18.7-6.1,32.7-18.6,38-32.1c-12.2-7.9-30.9-9.9-49.6-3.8
					C3205.6,1422.2,3191.6,1434.7,3186.3,1448.2z"/>
				<path class="st113" d="M3191.6,1436.3c-12.2,7.9-30.9,9.8-49.6,3.8c-18.7-6.1-32.7-18.6-38-32.1c12.2-7.9,30.9-9.9,49.6-3.8
					C3172.4,1410.2,3186.4,1422.7,3191.6,1436.3z"/>
				<path class="st113" d="M3153.7,1253.8c-2,14.4,4.2,32.1,17.7,46.5c13.4,14.3,30.7,21.7,45.2,20.7c2-14.4-4.2-32.1-17.7-46.5
					C3185.5,1260.1,3168.2,1252.7,3153.7,1253.8z"/>
				<path class="st113" d="M3134.1,1317.5c-2,14.4,4.2,32.1,17.7,46.5c13.4,14.4,30.7,21.7,45.2,20.7c1.9-14.4-4.2-32.1-17.7-46.5
					C3165.9,1323.8,3148.6,1316.5,3134.1,1317.5z"/>
				<g>
					<path class="st113" d="M3521.3,1371.8c-24.5,13.5-47.4,29.4-69.7,46.2c-22.2,16.8-43.4,35-63.7,54.1
						c-20.3,19.1-39.6,39.3-57.9,60.5c-18.2,21.2-35.2,43.4-51.2,66.3c-31.9,45.9-58.5,95.5-79.9,147.2
						c-20.9,51.9-36.4,106.1-46.2,161.3l11.8,2c8.8-54.5,23.3-108.1,43.2-159.8c20.4-51.4,45.9-100.9,76.8-146.8
						c15.4-23,32-45.3,49.7-66.6c17.8-21.2,36.7-41.6,56.6-61c19.9-19.3,40.7-37.7,62.6-54.9c21.9-17,44.6-33.3,68.6-47
						L3521.3,1371.8z"/>
					<path class="st113" d="M3611.6,1308.7c-1.3,18.6-13.7,39.2-34.3,53.7c-20.6,14.5-44.1,19.2-62.1,14.1
						c1.3-18.6,13.7-39.2,34.3-53.7C3570.1,1308.4,3593.7,1303.7,3611.6,1308.7z"/>
					<path class="st113" d="M3473,1293c13.8,12.6,22.2,35.1,20.8,60.2c-1.4,25.1-12.4,46.5-27.5,57.4
						c-13.8-12.6-22.2-35.1-20.8-60.2C3446.9,1325.3,3457.9,1303.9,3473,1293z"/>
					<path class="st113" d="M3391.1,1334.1c16.6,8.5,30.7,27.9,36,52.5c5.3,24.6,0.4,48.1-11.2,62.7c-16.6-8.5-30.7-27.9-36-52.5
						C3374.6,1372.1,3379.5,1348.6,3391.1,1334.1z"/>
					<path class="st113" d="M3336,1384.9c16.6,8.5,30.7,27.9,36,52.5c5.3,24.6,0.4,48.1-11.2,62.7c-16.6-8.5-30.7-27.9-36-52.5
						C3319.4,1422.9,3324.3,1399.4,3336,1384.9z"/>
					<path class="st113" d="M3272.4,1437.1c18.2,3.9,36.8,19.1,48.3,41.5c11.4,22.4,12.7,46.4,5.2,63.5
						c-18.2-3.9-36.9-19.1-48.3-41.5C3266.2,1478.1,3264.9,1454.1,3272.4,1437.1z"/>
					<path class="st113" d="M3227.6,1502.4c16.6-0.7,36.1,8.2,51.1,25c14.9,16.8,21.5,37.2,18.8,53.7c-16.6,0.7-36.1-8.2-51.1-25
						C3231.5,1539.3,3225,1518.8,3227.6,1502.4z"/>
					<path class="st113" d="M3195.2,1543.5c16.6-0.7,36.1,8.2,51.1,25c14.9,16.8,21.4,37.3,18.8,53.7c-16.6,0.7-36.1-8.2-51.1-25
						C3199,1580.4,3192.5,1559.9,3195.2,1543.5z"/>
					<path class="st113" d="M3176.6,1604.1c14.3-0.6,31,7,43.8,21.4c12.8,14.4,18.4,31.9,16.1,46c-14.3,0.6-31-7-43.8-21.4
						C3179.9,1635.7,3174.3,1618.2,3176.6,1604.1z"/>
					<path class="st113" d="M3158.6,1667.3c10.4-5.9,25.8-6.6,40.9-0.7c15.1,5.8,26.1,16.7,29.8,28c-10.4,5.9-25.8,6.6-40.9,0.7
						C3173.3,1689.5,3162.4,1678.6,3158.6,1667.3z"/>
					<path class="st113" d="M3151.4,1719.4c6.4-7.1,17.9-11.6,30.9-11c13,0.6,24.1,6,29.8,13.6c-6.4,7.1-17.9,11.6-30.9,11
						C3168.2,1732.5,3157.1,1727,3151.4,1719.4z"/>
					<path class="st113" d="M3577.4,1447.1c-15.8,9.8-39.8,11.8-63.6,3.6c-23.8-8.2-41.4-24.6-47.8-42.1
						c15.8-9.8,39.8-11.8,63.6-3.6C3553.4,1413.3,3571,1429.6,3577.4,1447.1z"/>
					<path class="st113" d="M3527.1,1488.5c-15.8,9.8-39.8,11.8-63.6,3.6c-23.8-8.2-41.4-24.6-47.8-42.1
						c15.8-9.8,39.8-11.8,63.6-3.6C3503.2,1454.6,3520.8,1471,3527.1,1488.5z"/>
					<path class="st113" d="M3473.6,1539.5c-15.8,9.8-39.8,11.8-63.6,3.6c-23.8-8.2-41.4-24.6-47.8-42.1
						c15.8-9.8,39.8-11.8,63.6-3.6C3449.6,1505.6,3467.2,1522,3473.6,1539.5z"/>
					<path class="st113" d="M3413.1,1573.4c-12.9,8-32.3,9.6-51.7,2.9c-19.3-6.7-33.6-20-38.8-34.2c12.9-8,32.4-9.6,51.7-2.9
						C3393.6,1545.9,3407.9,1559.2,3413.1,1573.4z"/>
					<path class="st113" d="M3367.9,1605.8c-10.5,6.8-26.3,8.4-42,3c-15.6-5.4-27.1-16.4-31.2-28.3c10.5-6.8,26.3-8.4,42-3
						C3352.3,1582.9,3363.8,1593.9,3367.9,1605.8z"/>
					<path class="st113" d="M3340.8,1647.4c-10.5,6.8-26.3,8.4-42,3c-15.6-5.4-27.1-16.4-31.2-28.3c10.5-6.8,26.3-8.4,42-3
						C3325.3,1624.6,3336.7,1635.6,3340.8,1647.4z"/>
					<path class="st113" d="M3311.2,1685.1c-8.5,7.3-22.8,10.8-38.2,8.3c-15.3-2.5-27.8-10.3-33.6-19.9c8.5-7.3,22.8-10.8,38.2-8.3
						C3292.9,1667.7,3305.4,1675.6,3311.2,1685.1z"/>
					<path class="st113" d="M3282.5,1732.6c-9.6,2.7-22.4,0.3-33.7-7.5c-11.3-7.7-18.3-18.7-19.2-28.7c9.6-2.7,22.4-0.3,33.7,7.5
						C3274.6,1711.7,3281.6,1722.7,3282.5,1732.6z"/>
					<path class="st113" d="M3250.6,1761c-7.6,0.7-16.9-3-24.3-10.4c-7.4-7.4-11.1-16.7-10.4-24.3c7.6-0.7,16.9,3,24.3,10.4
						C3247.6,1744.1,3251.3,1753.4,3250.6,1761z"/>
					<path class="st113" d="M3229.4,1768.4c-5,0.8-10.9-1.2-15.4-5.8c-4.5-4.5-6.5-10.4-5.8-15.4c5-0.8,10.9,1.2,15.4,5.8
						C3228.2,1757.5,3230.2,1763.4,3229.4,1768.4z"/>
					<path class="st113" d="M3222.6,1782.4c-5,0.8-10.9-1.2-15.4-5.8c-4.5-4.5-6.5-10.4-5.8-15.4c5-0.8,10.9,1.2,15.4,5.8
						C3221.4,1771.5,3223.4,1777.4,3222.6,1782.4z"/>
				</g>
				<g>
					<path class="st114" d="M2977.2,1324.8c17.5,19.1,32.9,40,47.4,61.3c14.5,21.4,27.7,43.7,39.8,66.6c12.1,22.9,23,46.4,32.8,70.4
						c9.7,24,18,48.6,25.2,73.5c14.3,49.8,22.9,101.3,26.3,153.1c2.9,51.9,0.4,104-7.5,155.4l-11-1.8c8.5-50.5,11.8-101.9,9.7-153.2
						c-2.6-51.2-10.2-102.3-23.7-151.9c-6.7-24.8-14.6-49.3-23.8-73.3c-9.3-24-19.8-47.5-31.5-70.4c-11.7-22.9-24.5-45.3-38.6-66.8
						c-14.1-21.5-29.2-42.5-46.3-61.8L2977.2,1324.8z"/>
					<path class="st114" d="M2916.7,1242.5c-4.4,16.7,0.3,38.5,14.1,57.3c13.8,18.9,33.1,30,50.3,30.9c4.4-16.7-0.3-38.5-14.1-57.3
						C2953.3,1254.6,2934,1243.4,2916.7,1242.5z"/>
					<path class="st114" d="M3043.2,1270c-15.8,6.9-29.9,24.2-36.2,46.7c-6.2,22.5-3,44.5,7,58.6c15.8-6.9,30-24.2,36.2-46.7
						C3056.4,1306.1,3053.2,1284.1,3043.2,1270z"/>
					<path class="st114" d="M3102.8,1330.5c-17.1,2.5-35.3,15.3-47.3,35.4c-12,20-14.7,42.1-8.8,58.4c17.1-2.5,35.3-15.3,47.3-35.4
						C3106,1368.8,3108.7,1346.7,3102.8,1330.5z"/>
					<path class="st114" d="M3136.2,1391.6c-17.1,2.5-35.3,15.3-47.3,35.4c-12,20-14.7,42.2-8.8,58.4c17.1-2.5,35.3-15.3,47.3-35.4
						C3139.3,1429.9,3142,1407.8,3136.2,1391.6z"/>
					<path class="st114" d="M3176.4,1456.4c-17.2-2-38.1,5.8-54.8,22.1c-16.7,16.3-25,37-23.5,54.2c17.2,2,38.1-5.8,54.8-22.1
						C3169.7,1494.2,3177.9,1473.6,3176.4,1456.4z"/>
					<path class="st114" d="M3196.2,1527.1c-14.4-5.6-34.2-3.6-52.3,6.7c-18.1,10.3-29.9,26.3-32.5,41.6c14.4,5.6,34.2,3.6,52.3-6.7
						C3181.9,1558.3,3193.7,1542.3,3196.2,1527.1z"/>
					<path class="st114" d="M3212.5,1572.9c-14.4-5.6-34.2-3.6-52.3,6.7c-18.1,10.3-29.9,26.3-32.5,41.6c14.4,5.6,34.2,3.6,52.3-6.7
						C3198.1,1604.1,3210,1588.1,3212.5,1572.9z"/>
					<path class="st114" d="M3210.7,1631.6c-12.3-4.8-29.3-3.1-44.8,5.8c-15.5,8.8-25.7,22.6-27.9,35.6c12.3,4.8,29.3,3.1,44.8-5.8
						C3198.4,1658.4,3208.5,1644.7,3210.7,1631.6z"/>
					<path class="st114" d="M3207.7,1692.5c-7.4-8.2-20.7-13.4-35.7-12.8c-15,0.6-27.9,6.9-34.5,15.7c7.4,8.2,20.7,13.4,35.7,12.8
						C3188.2,1707.6,3201,1701.3,3207.7,1692.5z"/>
					<path class="st114" d="M3198.5,1740.4c-3.5-8.1-12.3-15.5-23.8-18.9c-11.6-3.4-22.9-1.9-30.2,3.1c3.5,8.1,12.3,15.5,23.8,18.9
						C3179.9,1746.9,3191.2,1745.4,3198.5,1740.4z"/>
					<path class="st114" d="M2905.5,1374.3c11,13.3,31.4,22.2,54.8,22.1c23.3-0.1,43.7-9.3,54.5-22.7c-11-13.3-31.4-22.2-54.8-22.1
						C2936.7,1351.7,2916.3,1360.8,2905.5,1374.3z"/>
					<path class="st114" d="M2937.3,1425.6c11,13.3,31.4,22.2,54.8,22.1c23.3-0.1,43.7-9.3,54.5-22.7c-11-13.3-31.4-22.2-54.8-22.1
						C2968.5,1403,2948.1,1412.1,2937.3,1425.6z"/>
					<path class="st114" d="M2969.2,1486.3c11,13.3,31.4,22.2,54.8,22.1c23.4-0.1,43.7-9.3,54.5-22.7c-11-13.3-31.4-22.2-54.8-22.1
						C3000.3,1463.7,2980,1472.9,2969.2,1486.3z"/>
					<path class="st114" d="M3012.2,1534.1c8.9,10.8,25.5,18.1,44.5,18c19-0.1,35.5-7.5,44.3-18.5c-8.9-10.8-25.6-18.1-44.5-18
						C3037.5,1515.8,3021,1523.2,3012.2,1534.1z"/>
					<path class="st114" d="M3042.2,1576.1c7.2,9.1,20.6,15.2,36,15.1c15.3-0.1,28.7-6.3,35.8-15.5c-7.2-9.1-20.6-15.2-36-15.1
						C3062.7,1560.6,3049.4,1566.9,3042.2,1576.1z"/>
					<path class="st114" d="M3053.6,1620.7c7.2,9.1,20.6,15.2,36,15.1c15.3-0.1,28.7-6.3,35.8-15.5c-7.2-9.1-20.6-15.2-36-15.1
						C3074.1,1605.3,3060.7,1611.5,3053.6,1620.7z"/>
					<path class="st114" d="M3068.4,1662.7c5.3,8.9,16.8,16.3,31.1,18.7c14.2,2.4,27.5-0.8,35.5-7.5c-5.3-8.9-16.8-16.3-31.1-18.7
						C3089.6,1652.8,3076.4,1656,3068.4,1662.7z"/>
					<path class="st114" d="M3079.4,1712.9c7.6,5.3,19.6,6.9,31.8,3.5c12.2-3.4,21.6-11,25.4-19.5c-7.6-5.3-19.6-6.9-31.8-3.5
						C3092.6,1696.9,3083.2,1704.5,3079.4,1712.9z"/>
					<path class="st114" d="M3099,1747.4c6.5,2.9,15.7,2.4,24.4-1.9c8.7-4.3,14.7-11.3,16.4-18.2c-6.5-2.9-15.7-2.4-24.4,1.9
						C3106.6,1733.4,3100.6,1740.5,3099,1747.4z"/>
					<path class="st114" d="M3115.4,1760.2c4.2,2.2,9.9,2.2,15.3-0.5c5.3-2.6,8.8-7.2,9.7-11.8c-4.2-2.2-9.9-2.2-15.3,0.5
						C3119.7,1751,3116.2,1755.6,3115.4,1760.2z"/>
					<path class="st114" d="M3117.2,1774.5c4.2,2.2,9.9,2.2,15.3-0.5c5.3-2.6,8.8-7.2,9.7-11.8c-4.2-2.2-9.9-2.2-15.3,0.5
						C3121.5,1765.3,3118,1769.9,3117.2,1774.5z"/>
				</g>
				<g>
					<path class="st115" d="M3347.5,1267.9c-17.8,21.5-33.3,44.7-47.8,68.5c-14.5,23.8-27.5,48.5-39.4,73.8
						c-11.8,25.3-22.4,51.1-31.6,77.5c-9.1,26.4-16.8,53.3-23.3,80.5c-12.8,54.4-19.4,110.3-20.3,166.3c-0.4,56,5.1,112,16.2,167
						l11.7-2.5c-11.8-54-18-109.1-18.5-164.4c0.1-55.3,5.7-110.7,17.5-164.8c5.9-27,13.2-53.8,21.8-80.2
						c8.8-26.3,18.8-52.2,30.2-77.5c11.4-25.3,24-50.1,38.1-74c14.1-23.9,29.2-47.3,46.6-69L3347.5,1267.9z"/>
					<path class="st115" d="M3408.3,1176.2c5.6,17.8,1.7,41.5-12.2,62.5c-13.8,21-34,34-52.6,35.9c-5.6-17.8-1.7-41.5,12.2-62.5
						C3369.6,1191.1,3389.8,1178.1,3408.3,1176.2z"/>
					<path class="st115" d="M3273.6,1212.4c17.4,6.6,33.5,24.5,41.4,48.4c7.9,23.9,5.5,47.8-4.5,63.5c-17.4-6.6-33.5-24.5-41.4-48.4
						C3261.2,1252,3263.5,1228.1,3273.6,1212.4z"/>
					<path class="st115" d="M3212.5,1280.7c18.5,1.8,38.8,14.6,52.8,35.6c14,20.9,18.1,44.6,12.6,62.4
						c-18.5-1.8-38.8-14.7-52.8-35.6C3211.1,1322.1,3207,1298.5,3212.5,1280.7z"/>
					<path class="st115" d="M3179.8,1348.2c18.5,1.8,38.8,14.6,52.8,35.6c14,20.9,18.1,44.6,12.6,62.4
						c-18.5-1.8-38.8-14.7-52.8-35.6C3178.4,1389.6,3174.3,1366,3179.8,1348.2z"/>
					<path class="st115" d="M3139.9,1420.1c18.4-3,41.3,4.2,60.1,20.9c18.9,16.7,28.9,38.5,28.1,57.1c-18.4,3-41.3-4.2-60.1-20.9
						C3149.1,1460.5,3139.1,1438.7,3139.9,1420.1z"/>
					<path class="st115" d="M3122.2,1497.3c15.2-6.8,36.6-5.6,56.7,4.5c20.1,10.2,33.6,26.8,37.2,43c-15.2,6.8-36.6,5.6-56.7-4.5
						C3139.4,1530.1,3125.8,1513.5,3122.2,1497.3z"/>
					<path class="st115" d="M3107.1,1547.4c15.2-6.8,36.6-5.6,56.7,4.5c20.1,10.2,33.6,26.8,37.2,43c-15.2,6.8-36.6,5.6-56.7-4.5
						C3124.2,1580.3,3110.7,1563.7,3107.1,1547.4z"/>
					<path class="st115" d="M3112.1,1610.6c13-5.8,31.4-4.8,48.6,3.9c17.2,8.7,28.8,23,31.9,36.9c-13,5.8-31.4,4.8-48.6-3.9
						C3126.8,1638.8,3115.1,1624.5,3112.1,1610.6z"/>
					<path class="st115" d="M3118.6,1676c7.5-9.3,21.6-15.6,37.8-15.7c16.2-0.1,30.4,6,38,15.1c-7.5,9.3-21.6,15.6-37.8,15.7
						C3140.4,1691.2,3126.2,1685.1,3118.6,1676z"/>
					<path class="st115" d="M3130.9,1727.1c3.3-8.9,12.4-17.3,24.7-21.6c12.3-4.2,24.6-3.2,32.7,1.7c-3.3,8.9-12.4,17.3-24.7,21.6
						C3151.4,1733.1,3139.1,1732.1,3130.9,1727.1z"/>
					<path class="st115" d="M3427.3,1317.5c-11.1,14.9-32.7,25.6-57.8,26.7c-25.1,1.1-47.5-7.7-59.9-21.6
						c11.1-14.9,32.7-25.6,57.8-26.7C3392.6,1294.7,3414.9,1303.5,3427.3,1317.5z"/>
					<path class="st115" d="M3395.7,1374.4c-11.1,14.9-32.7,25.6-57.8,26.7c-25.2,1.1-47.5-7.7-59.9-21.6
						c11.1-14.9,32.7-25.6,57.8-26.7C3361,1351.7,3383.4,1360.4,3395.7,1374.4z"/>
					<path class="st115" d="M3364.6,1441.5c-11.1,14.9-32.7,25.6-57.8,26.7c-25.1,1.1-47.5-7.7-59.9-21.6
						c11.1-14.9,32.7-25.6,57.8-26.7C3329.9,1418.8,3352.2,1427.5,3364.6,1441.5z"/>
					<path class="st115" d="M3320.8,1495.2c-9.1,12.1-26.6,20.8-47,21.7c-20.5,0.9-38.6-6.3-48.7-17.6c9.1-12.1,26.6-20.8,47-21.7
						C3292.6,1476.7,3310.8,1483.9,3320.8,1495.2z"/>
					<path class="st115" d="M3290.6,1542c-7.3,10.2-21.4,17.5-38,18.2c-16.5,0.7-31.2-5.3-39.4-14.9c7.3-10.2,21.4-17.5,37.9-18.2
						C3267.8,1526.4,3282.5,1532.4,3290.6,1542z"/>
					<path class="st115" d="M3280.7,1590.6c-7.3,10.2-21.4,17.5-38,18.2c-16.5,0.7-31.2-5.3-39.4-14.9c7.3-10.2,21.4-17.5,37.9-18.2
						C3257.9,1575.1,3272.6,1581.1,3280.7,1590.6z"/>
					<path class="st115" d="M3267,1636.6c-5.3,9.9-17.3,18.4-32.5,21.7c-15.2,3.3-29.7,0.6-38.6-6.2c5.3-9.9,17.3-18.4,32.5-21.7
						C3243.6,1627.1,3258.1,1629.8,3267,1636.6z"/>
					<path class="st115" d="M3257.8,1691.3c-7.9,6.1-20.7,8.5-34.1,5.4c-13.4-3-23.9-10.7-28.4-19.6c7.9-6.1,20.7-8.5,34.1-5.4
						C3242.7,1674.7,3253.2,1682.4,3257.8,1691.3z"/>
					<path class="st115" d="M3238.5,1729.3c-6.8,3.4-16.8,3.4-26.4-0.8c-9.6-4.2-16.4-11.4-18.6-18.8c6.8-3.4,16.8-3.4,26.4,0.8
						C3229.6,1714.7,3236.4,1722,3238.5,1729.3z"/>
					<path class="st115" d="M3221.5,1744c-4.4,2.6-10.6,2.8-16.5,0.3c-5.9-2.6-9.9-7.3-11-12.2c4.4-2.5,10.6-2.8,16.5-0.3
						C3216.4,1734.3,3220.4,1739.1,3221.5,1744z"/>
					<path class="st115" d="M3220.3,1759.6c-4.4,2.6-10.6,2.8-16.5,0.3c-5.9-2.6-9.9-7.3-11-12.2c4.4-2.6,10.6-2.8,16.5-0.3
						C3215.2,1749.9,3219.2,1754.6,3220.3,1759.6z"/>
				</g>
				<g>
					<path class="st113" d="M3088.7,1716.6c-26.3-38.5-54-76.2-83.6-112.3l0.5-0.4c30.3,35.6,58.8,72.7,85.9,110.8
						c27.1,38.1,52.6,77.4,75.6,118.3c5.5,9.9,10.9,19.9,16.1,30c-2,1.1-4.1,2.3-6.1,3.5c-5-10.2-10.2-20.4-15.6-30.4
						C3139.6,1794.9,3114.9,1755.2,3088.7,1716.6z"/>
					<path class="st113" d="M2976.1,1555.1c9.7,0.9,19.8,7.4,26.1,17.9c6.3,10.6,7.3,22.5,3.6,31.5c-9.7-0.9-19.8-7.4-26.1-17.9
						C2973.3,1576.1,2972.4,1564.1,2976.1,1555.1z"/>
					<path class="st113" d="M3048.2,1577.7c4,7.7,4.2,19.3-0.3,30.8c-4.4,11.5-12.4,19.9-20.5,23c-4-7.7-4.2-19.3,0.3-30.8
						C3032.2,1589.1,3040.1,1580.7,3048.2,1577.7z"/>
					<path class="st113" d="M3050.6,1662.4c-6.6,5.6-17.8,8.5-30,6.8c-12.2-1.7-22.2-7.5-27.1-14.7c6.6-5.6,17.8-8.5,30-6.8
						C3035.8,1649.5,3045.8,1655.3,3050.6,1662.4z"/>
					<path class="st113" d="M3079.8,1700c-6.6,5.6-17.8,8.5-30,6.8c-12.2-1.7-22.2-7.5-27.1-14.7c6.6-5.6,17.8-8.5,30-6.8
						C3064.9,1687,3074.9,1692.8,3079.8,1700z"/>
					<path class="st113" d="M3099.5,1729.9c-6.6,5.6-17.8,8.5-30,6.8c-12.2-1.7-22.2-7.5-27.1-14.7c6.6-5.6,17.8-8.5,30-6.8
						C3084.7,1717,3094.7,1722.8,3099.5,1729.9z"/>
					<path class="st113" d="M3121.4,1763c-6.6,5.6-17.8,8.5-30,6.8c-12.2-1.7-22.2-7.5-27.1-14.7c6.6-5.6,17.8-8.5,30-6.8
						C3106.6,1750,3116.6,1755.8,3121.4,1763z"/>
					<path class="st113" d="M3073.6,1609.9c4,7.7,4.2,19.3-0.3,30.8c-4.4,11.5-12.4,19.9-20.5,23c-4-7.7-4.2-19.3,0.3-30.8
						C3057.5,1621.4,3065.4,1612.9,3073.6,1609.9z"/>
					<path class="st113" d="M3097.8,1643.1c4,7.7,4.2,19.3-0.3,30.8c-4.4,11.5-12.4,19.9-20.5,23c-4-7.7-4.2-19.3,0.3-30.8
						C3081.7,1654.5,3089.7,1646.1,3097.8,1643.1z"/>
					<path class="st113" d="M3120.8,1676.5c4,7.7,4.2,19.3-0.3,30.8c-4.4,11.5-12.4,19.9-20.5,23c-4-7.7-4.2-19.3,0.3-30.8
						C3104.8,1688,3112.7,1679.6,3120.8,1676.5z"/>
					<path class="st113" d="M3143.1,1709.3c4,7.7,4.2,19.3-0.3,30.8c-4.4,11.5-12.4,19.9-20.5,23c-4-7.7-4.2-19.3,0.3-30.8
						C3127.1,1720.8,3135,1712.3,3143.1,1709.3z"/>
				</g>
			</g>
		</g>
		<linearGradient id="SVGID_1_" gradientUnits="userSpaceOnUse" x1="3023.9041" y1="1867.8586" x2="3293.3469" y2="1867.8586">
			<stop  offset="0" style="stop-color:#F24949"/>
			<stop  offset="1" style="stop-color:#FFC16F"/>
		</linearGradient>
		<path class="st65" d="M3071.3,1804.9h174.6c29,14.8,47.4,36.9,47.4,61.5c0,26.3-21,49.7-53.4,64.4h-162.6
			c-32.5-14.8-53.4-38.1-53.4-64.4C3023.9,1841.8,3042.3,1819.7,3071.3,1804.9z"/>
		<path class="st117" d="M3087.7,1818.7c-17.2-2-40.3,11-46.2,37.1c-8.1,51.5,43.4,66.6,71.6,53.5c-24.5-6.2-51.3-17.4-52.1-42.7
			c-1.4-13.3,6.5-26,6.6-26.4c1.1-1.6,3.3-5.4,7.4-9.9C3078.6,1825.9,3083,1822.2,3087.7,1818.7z"/>
		
			<rect x="3063.2" y="1797.4" transform="matrix(-1 -1.224647e-16 1.224647e-16 -1 6319.228 3606.8308)" class="st118" width="192.9" height="12.1"/>
	</g>
	<g>
		<g>
			<path class="st113" d="M1093.5,1600.4c-6,6.3-16.9,10.2-29.2,9.8c-12.3-0.5-22.9-5.2-28.4-11.9c6-6.3,16.9-10.2,29.2-9.8
				C1077.5,1588.9,1088,1593.7,1093.5,1600.4z"/>
			<g>
				<path class="st113" d="M1227.2,1857.3c-8.2-56-12-112.6-11-169.1c0.2-28.2,1.8-56.4,4-84.6c2.2-28.1,5.6-56.2,9.5-84.1
					c8-55.8,19.3-111.1,33.3-165.7c7-27.3,14.8-54.4,23.3-81.2c8.5-26.8,17.7-53.5,28.2-79.7l3.3,1.4
					c-10.1,26.1-18.9,52.9-27.1,79.7c-8.1,26.9-15.6,54-22.2,81.2c-13.3,54.5-23.9,109.8-31.1,165.4c-3.5,27.8-6.6,55.7-8.4,83.7
					c-1.9,28-3.1,56-2.9,84c-0.2,56,4.2,112,13,167.2L1227.2,1857.3z"/>
				<path class="st113" d="M1331,1080.7c-16,9.6-28.7,30-32.2,54.9c-3.5,24.9,3,48,15.7,61.7c15.9-9.6,28.7-30,32.2-54.9
					C1350.1,1117.5,1343.6,1094.4,1331,1080.7z"/>
				<path class="st113" d="M1236.9,1166.6c-2,14.4,4.2,32.1,17.7,46.5c13.4,14.3,30.7,21.7,45.2,20.7c2-14.4-4.2-32.1-17.7-46.5
					C1268.7,1172.9,1251.5,1165.6,1236.9,1166.6z"/>
				<path class="st113" d="M1301.1,1238.5c12.2,7.9,30.9,9.9,49.6,3.8c18.7-6.1,32.7-18.6,38-32.1c-12.2-7.9-30.9-9.9-49.6-3.8
					C1320.4,1212.5,1306.4,1225,1301.1,1238.5z"/>
				<path class="st113" d="M1284.3,1294.9c12.2,7.9,30.9,9.9,49.6,3.8c18.7-6.1,32.7-18.6,38-32.1c-12.2-7.9-30.9-9.8-49.6-3.8
					C1303.5,1268.8,1289.6,1281.3,1284.3,1294.9z"/>
				<path class="st113" d="M1265.2,1358.2c12.2,7.9,30.9,9.8,49.6,3.8c18.7-6.1,32.7-18.6,38-32.1c-12.2-7.9-30.9-9.9-49.6-3.8
					C1284.4,1332.2,1270.5,1344.7,1265.2,1358.2z"/>
				<path class="st113" d="M1252.4,1417.2c12.2,7.9,30.9,9.9,49.6,3.8c18.7-6.1,32.7-18.6,38-32.1c-12.2-7.9-30.9-9.8-49.6-3.8
					C1271.6,1391.2,1257.6,1403.7,1252.4,1417.2z"/>
				<path class="st113" d="M1257.7,1405.3c-12.2,7.9-30.9,9.9-49.6,3.8c-18.7-6.1-32.7-18.6-38-32.1c12.2-7.9,30.9-9.8,49.6-3.8
					C1238.5,1379.2,1252.4,1391.7,1257.7,1405.3z"/>
				<path class="st113" d="M1219.8,1222.8c-2,14.4,4.2,32.1,17.7,46.5c13.4,14.3,30.7,21.7,45.2,20.7c1.9-14.4-4.2-32.1-17.7-46.5
					C1251.6,1229.1,1234.3,1221.7,1219.8,1222.8z"/>
				<path class="st113" d="M1200.1,1286.5c-2,14.4,4.2,32.1,17.7,46.5c13.4,14.3,30.7,21.7,45.2,20.7c2-14.4-4.2-32.1-17.7-46.5
					C1231.9,1292.8,1214.7,1285.5,1200.1,1286.5z"/>
				<g>
					<path class="st113" d="M1587.4,1340.8c-24.5,13.5-47.4,29.4-69.7,46.2c-22.2,16.8-43.4,35-63.7,54.1
						c-20.3,19.2-39.6,39.3-57.9,60.5c-18.2,21.2-35.2,43.4-51.2,66.3c-31.9,45.9-58.5,95.5-79.9,147.2
						c-20.9,51.9-36.4,106.1-46.2,161.3l11.8,2c8.8-54.5,23.3-108.1,43.1-159.8c20.4-51.4,45.9-100.9,76.8-146.8
						c15.4-23,32-45.2,49.7-66.6c17.8-21.3,36.7-41.6,56.6-61c19.9-19.3,40.7-37.7,62.6-54.9c21.9-17.1,44.6-33.3,68.6-47.1
						L1587.4,1340.8z"/>
					<path class="st113" d="M1677.7,1277.8c-1.3,18.6-13.7,39.2-34.3,53.7c-20.6,14.5-44.1,19.2-62.1,14.1
						c1.3-18.6,13.7-39.2,34.3-53.7C1636.2,1277.4,1659.8,1272.7,1677.7,1277.8z"/>
					<path class="st113" d="M1539.1,1262c13.8,12.6,22.2,35.1,20.8,60.2c-1.4,25.1-12.4,46.5-27.5,57.4
						c-13.7-12.6-22.2-35.1-20.8-60.2C1513,1294.3,1524,1272.9,1539.1,1262z"/>
					<path class="st113" d="M1457.2,1303.1c16.6,8.5,30.7,27.9,36,52.5c5.3,24.6,0.4,48.1-11.2,62.7c-16.6-8.5-30.7-27.9-36-52.5
						C1440.7,1341.1,1445.6,1317.6,1457.2,1303.1z"/>
					<path class="st113" d="M1402,1353.9c16.6,8.5,30.7,27.9,36,52.5c5.3,24.6,0.4,48.1-11.2,62.7c-16.6-8.5-30.7-27.9-36-52.5
						C1385.5,1391.9,1390.4,1368.4,1402,1353.9z"/>
					<path class="st113" d="M1338.5,1406.1c18.2,3.9,36.8,19.1,48.3,41.5c11.4,22.4,12.7,46.4,5.2,63.5
						c-18.2-3.9-36.8-19.1-48.3-41.5C1332.2,1447.1,1330.9,1423.1,1338.5,1406.1z"/>
					<path class="st113" d="M1293.7,1471.4c16.6-0.7,36.1,8.2,51.1,25c14.9,16.8,21.4,37.3,18.8,53.7c-16.6,0.7-36.1-8.2-51.1-25
						C1297.6,1508.3,1291,1487.9,1293.7,1471.4z"/>
					<path class="st113" d="M1261.2,1512.5c16.6-0.7,36.1,8.2,51.1,25c14.9,16.8,21.5,37.3,18.8,53.7c-16.6,0.7-36.1-8.2-51.1-25
						C1265.1,1549.4,1258.6,1528.9,1261.2,1512.5z"/>
					<path class="st113" d="M1242.7,1573.1c14.3-0.6,31,7,43.8,21.4c12.8,14.4,18.4,31.9,16.1,46c-14.3,0.6-31-7-43.8-21.4
						C1246,1604.7,1240.4,1587.2,1242.7,1573.1z"/>
					<path class="st113" d="M1224.7,1636.3c10.4-5.9,25.8-6.6,40.9-0.7c15.1,5.8,26.1,16.7,29.8,28c-10.4,5.9-25.8,6.6-40.9,0.7
						C1239.4,1658.5,1228.4,1647.6,1224.7,1636.3z"/>
					<path class="st113" d="M1217.4,1688.4c6.4-7.1,17.9-11.6,30.9-11c13,0.6,24.1,6,29.8,13.6c-6.4,7.1-17.9,11.6-30.9,11
						C1234.3,1701.5,1223.2,1696,1217.4,1688.4z"/>
					<path class="st113" d="M1643.5,1416.1c-15.8,9.8-39.8,11.8-63.6,3.6c-23.8-8.2-41.4-24.6-47.8-42.1
						c15.8-9.8,39.8-11.8,63.6-3.6C1619.5,1382.3,1637.1,1398.6,1643.5,1416.1z"/>
					<path class="st113" d="M1593.2,1457.5c-15.8,9.8-39.8,11.8-63.6,3.6c-23.8-8.2-41.4-24.6-47.8-42.1
						c15.8-9.8,39.8-11.8,63.6-3.6C1569.2,1423.6,1586.8,1440,1593.2,1457.5z"/>
					<path class="st113" d="M1539.7,1508.5c-15.8,9.8-39.8,11.8-63.6,3.6c-23.8-8.2-41.4-24.6-47.8-42.1
						c15.8-9.8,39.8-11.8,63.6-3.6C1515.7,1474.6,1533.3,1491,1539.7,1508.5z"/>
					<path class="st113" d="M1479.2,1542.4c-12.9,8-32.4,9.6-51.7,2.9c-19.3-6.7-33.6-20-38.8-34.2c12.9-8,32.4-9.6,51.7-2.9
						C1459.7,1514.9,1474,1528.2,1479.2,1542.4z"/>
					<path class="st113" d="M1433.9,1574.8c-10.5,6.8-26.3,8.4-42,3c-15.6-5.4-27.1-16.4-31.2-28.3c10.5-6.8,26.3-8.4,42-3
						C1418.4,1551.9,1429.8,1562.9,1433.9,1574.8z"/>
					<path class="st113" d="M1406.9,1616.5c-10.5,6.8-26.3,8.4-42,3c-15.6-5.4-27.1-16.4-31.2-28.3c10.5-6.8,26.3-8.4,42-3
						C1391.3,1593.6,1402.8,1604.6,1406.9,1616.5z"/>
					<path class="st113" d="M1377.2,1654.2c-8.5,7.3-22.8,10.8-38.2,8.3c-15.3-2.5-27.8-10.3-33.6-19.9c8.5-7.3,22.8-10.8,38.2-8.3
						C1359,1636.7,1371.4,1644.6,1377.2,1654.2z"/>
					<path class="st113" d="M1348.6,1701.6c-9.6,2.7-22.4,0.3-33.7-7.5c-11.3-7.7-18.3-18.7-19.2-28.7c9.6-2.7,22.4-0.3,33.7,7.5
						C1340.7,1680.7,1347.6,1691.7,1348.6,1701.6z"/>
					<path class="st113" d="M1316.7,1730c-7.6,0.7-16.9-3-24.3-10.4c-7.4-7.4-11.1-16.7-10.4-24.3c7.6-0.7,16.9,3,24.3,10.4
						C1313.7,1713.1,1317.4,1722.4,1316.7,1730z"/>
					<path class="st113" d="M1295.5,1737.4c-5,0.8-10.9-1.2-15.4-5.8c-4.5-4.5-6.5-10.4-5.8-15.4c5-0.8,10.9,1.2,15.4,5.8
						C1294.3,1726.5,1296.3,1732.4,1295.5,1737.4z"/>
					<path class="st113" d="M1288.7,1751.4c-5,0.8-10.9-1.2-15.4-5.8c-4.5-4.5-6.5-10.4-5.8-15.4c5-0.8,10.9,1.2,15.4,5.8
						C1287.5,1740.5,1289.5,1746.4,1288.7,1751.4z"/>
				</g>
				<g>
					<path class="st114" d="M1043.3,1293.8c17.5,19.1,32.9,40,47.4,61.3c14.5,21.4,27.7,43.7,39.8,66.5c12.1,22.9,23,46.4,32.8,70.4
						c9.7,24,18,48.6,25.2,73.5c14.3,49.8,22.9,101.3,26.3,153.1c2.9,51.9,0.4,104-7.5,155.4l-11-1.8c8.5-50.5,11.8-101.9,9.7-153.2
						c-2.5-51.2-10.2-102.3-23.7-151.9c-6.7-24.8-14.6-49.3-23.8-73.3c-9.3-24-19.8-47.5-31.5-70.4c-11.7-22.9-24.5-45.3-38.6-66.9
						c-14.1-21.5-29.2-42.5-46.2-61.8L1043.3,1293.8z"/>
					<path class="st114" d="M982.8,1211.5c-4.4,16.7,0.3,38.5,14.1,57.3c13.8,18.9,33.1,30,50.3,30.9c4.4-16.7-0.3-38.5-14.1-57.3
						C1019.3,1223.6,1000,1212.4,982.8,1211.5z"/>
					<path class="st114" d="M1109.2,1239c-15.8,6.9-30,24.2-36.2,46.7c-6.2,22.5-3,44.5,7,58.6c15.8-6.9,29.9-24.2,36.2-46.7
						C1122.5,1275.1,1119.2,1253.1,1109.2,1239z"/>
					<path class="st114" d="M1168.9,1299.5c-17.1,2.5-35.3,15.3-47.3,35.4c-12,20-14.7,42.1-8.8,58.4c17.1-2.5,35.3-15.3,47.3-35.4
						C1172,1337.9,1174.8,1315.7,1168.9,1299.5z"/>
					<path class="st114" d="M1202.2,1360.6c-17.1,2.5-35.3,15.3-47.3,35.4c-12,20-14.7,42.1-8.8,58.4c17.1-2.5,35.3-15.3,47.3-35.4
						C1205.4,1398.9,1208.1,1376.8,1202.2,1360.6z"/>
					<path class="st114" d="M1242.5,1425.4c-17.2-2-38.1,5.8-54.8,22.1c-16.7,16.3-25,37-23.5,54.2c17.2,2,38-5.8,54.8-22.1
						C1235.7,1463.3,1244,1442.6,1242.5,1425.4z"/>
					<path class="st114" d="M1262.3,1496.1c-14.4-5.6-34.2-3.6-52.3,6.7c-18.1,10.3-29.9,26.3-32.5,41.5c14.4,5.6,34.2,3.6,52.3-6.8
						C1247.9,1527.3,1259.8,1511.3,1262.3,1496.1z"/>
					<path class="st114" d="M1278.6,1541.9c-14.4-5.6-34.2-3.6-52.3,6.7c-18.1,10.3-29.9,26.3-32.5,41.5c14.4,5.6,34.2,3.6,52.3-6.7
						C1264.2,1573.1,1276,1557.1,1278.6,1541.9z"/>
					<path class="st114" d="M1276.8,1600.6c-12.3-4.8-29.3-3.1-44.8,5.8c-15.5,8.8-25.7,22.6-27.8,35.6c12.3,4.8,29.3,3.1,44.8-5.8
						C1264.5,1627.4,1274.6,1613.7,1276.8,1600.6z"/>
					<path class="st114" d="M1273.8,1661.5c-7.4-8.2-20.7-13.4-35.7-12.8c-15,0.6-27.9,6.9-34.5,15.7c7.4,8.2,20.7,13.4,35.7,12.8
						C1254.2,1676.6,1267.1,1670.3,1273.8,1661.5z"/>
					<path class="st114" d="M1264.6,1709.4c-3.5-8.1-12.3-15.5-23.8-18.9c-11.6-3.4-22.9-1.9-30.2,3.1c3.5,8.1,12.3,15.5,23.8,18.9
						C1245.9,1715.9,1257.3,1714.4,1264.6,1709.4z"/>
					<path class="st114" d="M971.6,1343.3c11,13.3,31.4,22.2,54.8,22.1c23.4-0.1,43.7-9.3,54.5-22.7c-11-13.3-31.4-22.2-54.8-22.1
						C1002.7,1320.7,982.4,1329.8,971.6,1343.3z"/>
					<path class="st114" d="M1003.4,1394.6c11,13.3,31.4,22.2,54.8,22.1c23.3-0.1,43.7-9.3,54.5-22.7c-11-13.3-31.4-22.2-54.8-22.1
						C1034.5,1372,1014.2,1381.1,1003.4,1394.6z"/>
					<path class="st114" d="M1035.2,1455.3c11,13.3,31.4,22.2,54.8,22.1c23.4-0.1,43.7-9.3,54.5-22.7c-11-13.3-31.4-22.2-54.8-22.1
						C1066.4,1432.7,1046.1,1441.9,1035.2,1455.3z"/>
					<path class="st114" d="M1078.2,1503.2c8.9,10.8,25.5,18.1,44.5,18c19-0.1,35.5-7.5,44.3-18.5c-8.9-10.8-25.5-18.1-44.5-18
						C1103.6,1484.8,1087,1492.2,1078.2,1503.2z"/>
					<path class="st114" d="M1108.3,1545.1c7.2,9.1,20.6,15.2,36,15.1c15.3-0.1,28.7-6.3,35.8-15.5c-7.2-9.1-20.6-15.2-36-15.1
						C1128.8,1529.7,1115.4,1535.9,1108.3,1545.1z"/>
					<path class="st114" d="M1119.7,1589.8c7.2,9.1,20.6,15.2,36,15.1c15.3-0.1,28.7-6.3,35.8-15.5c-7.2-9.1-20.6-15.2-36-15.1
						C1140.1,1574.3,1126.8,1580.6,1119.7,1589.8z"/>
					<path class="st114" d="M1134.5,1631.7c5.3,8.9,16.9,16.3,31.1,18.7c14.2,2.4,27.5-0.8,35.5-7.5c-5.3-8.9-16.9-16.3-31.1-18.7
						C1155.7,1621.8,1142.4,1625,1134.5,1631.7z"/>
					<path class="st114" d="M1145.5,1682c7.6,5.3,19.6,6.9,31.8,3.5c12.2-3.4,21.6-11,25.4-19.5c-7.6-5.3-19.6-6.9-31.8-3.5
						C1158.7,1665.9,1149.3,1673.5,1145.5,1682z"/>
					<path class="st114" d="M1165,1716.4c6.5,2.9,15.7,2.4,24.4-1.9c8.7-4.3,14.7-11.3,16.3-18.2c-6.5-2.9-15.7-2.4-24.4,1.9
						C1172.7,1702.4,1166.7,1709.5,1165,1716.4z"/>
					<path class="st114" d="M1181.4,1729.2c4.2,2.2,9.9,2.2,15.3-0.5c5.3-2.6,8.8-7.2,9.7-11.8c-4.2-2.2-9.9-2.2-15.3,0.5
						C1185.8,1720,1182.2,1724.6,1181.4,1729.2z"/>
					<path class="st114" d="M1183.2,1743.5c4.2,2.2,9.9,2.2,15.3-0.5c5.3-2.6,8.8-7.2,9.7-11.8c-4.2-2.2-9.9-2.2-15.3,0.5
						C1187.6,1734.3,1184,1738.9,1183.2,1743.5z"/>
				</g>
				<g>
					<path class="st115" d="M1413.5,1236.9c-17.8,21.5-33.3,44.7-47.8,68.5c-14.5,23.8-27.5,48.5-39.4,73.8
						c-11.8,25.3-22.4,51.1-31.6,77.5c-9.1,26.4-16.8,53.3-23.3,80.5c-12.8,54.4-19.4,110.3-20.3,166.3c-0.4,56,5.1,112,16.2,167
						l11.7-2.5c-11.8-54-18-109.1-18.5-164.4c0.1-55.3,5.7-110.7,17.5-164.8c5.9-27.1,13.2-53.8,21.8-80.2
						c8.8-26.3,18.8-52.2,30.2-77.5c11.4-25.3,24-50.1,38.1-74c14.1-23.9,29.2-47.3,46.6-69L1413.5,1236.9z"/>
					<path class="st115" d="M1474.4,1145.2c5.6,17.8,1.7,41.5-12.2,62.5c-13.8,21-34,34-52.6,35.9c-5.6-17.8-1.7-41.5,12.2-62.5
						C1435.7,1160.1,1455.9,1147.1,1474.4,1145.2z"/>
					<path class="st115" d="M1339.6,1181.4c17.4,6.6,33.5,24.5,41.4,48.4c7.9,23.9,5.5,47.8-4.5,63.5c-17.4-6.6-33.5-24.5-41.4-48.4
						C1327.3,1221,1329.6,1197.1,1339.6,1181.4z"/>
					<path class="st115" d="M1278.6,1249.7c18.5,1.8,38.8,14.6,52.8,35.6c14,20.9,18.1,44.6,12.6,62.4
						c-18.5-1.8-38.8-14.7-52.8-35.6C1277.2,1291.1,1273.1,1267.5,1278.6,1249.7z"/>
					<path class="st115" d="M1245.9,1317.2c18.5,1.8,38.8,14.6,52.8,35.6c14,20.9,18.1,44.6,12.6,62.4
						c-18.6-1.8-38.8-14.6-52.8-35.6C1244.5,1358.6,1240.4,1335,1245.9,1317.2z"/>
					<path class="st115" d="M1205.9,1389.1c18.4-3,41.3,4.2,60.1,20.9c18.9,16.7,28.9,38.5,28.1,57.1c-18.4,3-41.3-4.2-60.1-20.9
						C1215.2,1429.5,1205.2,1407.7,1205.9,1389.1z"/>
					<path class="st115" d="M1188.3,1466.3c15.2-6.8,36.6-5.6,56.7,4.5c20.1,10.2,33.6,26.8,37.2,43c-15.2,6.8-36.6,5.6-56.7-4.5
						C1205.4,1499.2,1191.8,1482.5,1188.3,1466.3z"/>
					<path class="st115" d="M1173.2,1516.4c15.2-6.8,36.6-5.6,56.7,4.5c20.1,10.2,33.6,26.8,37.2,43c-15.2,6.8-36.6,5.6-56.7-4.5
						C1190.3,1549.3,1176.7,1532.7,1173.2,1516.4z"/>
					<path class="st115" d="M1178.2,1579.6c13-5.8,31.4-4.8,48.6,3.9c17.2,8.7,28.8,23,31.9,36.9c-13,5.8-31.4,4.8-48.6-3.9
						C1192.8,1607.8,1181.2,1593.5,1178.2,1579.6z"/>
					<path class="st115" d="M1184.6,1645c7.5-9.3,21.6-15.6,37.8-15.7c16.2-0.1,30.4,6,38,15.1c-7.5,9.3-21.6,15.6-37.8,15.7
						C1206.5,1660.2,1192.3,1654.1,1184.6,1645z"/>
					<path class="st115" d="M1197,1696.1c3.3-8.9,12.4-17.3,24.7-21.6c12.3-4.2,24.6-3.2,32.7,1.7c-3.3,8.9-12.4,17.3-24.7,21.6
						C1217.5,1702.1,1205.1,1701.1,1197,1696.1z"/>
					<path class="st115" d="M1493.4,1286.5c-11.1,14.9-32.7,25.6-57.8,26.7c-25.1,1.1-47.5-7.7-59.9-21.6
						c11.1-14.9,32.7-25.6,57.8-26.7C1458.6,1263.8,1481,1272.5,1493.4,1286.5z"/>
					<path class="st115" d="M1461.8,1343.4c-11.1,14.9-32.7,25.6-57.8,26.7c-25.1,1.1-47.5-7.7-59.9-21.6
						c11.1-14.9,32.7-25.6,57.8-26.7C1427.1,1320.7,1449.4,1329.4,1461.8,1343.4z"/>
					<path class="st115" d="M1430.7,1410.5c-11.1,14.9-32.7,25.6-57.8,26.7c-25.1,1.1-47.5-7.7-59.9-21.6
						c11.1-14.9,32.7-25.6,57.8-26.7C1396,1387.8,1418.3,1396.5,1430.7,1410.5z"/>
					<path class="st115" d="M1386.9,1464.2c-9.1,12.1-26.6,20.8-47,21.7c-20.5,0.9-38.6-6.3-48.7-17.6c9.1-12.1,26.6-20.8,47-21.7
						C1358.7,1445.7,1376.8,1452.9,1386.9,1464.2z"/>
					<path class="st115" d="M1356.7,1511c-7.3,10.2-21.4,17.5-38,18.2c-16.5,0.7-31.2-5.3-39.4-14.9c7.3-10.2,21.4-17.5,38-18.2
						C1333.8,1495.4,1348.5,1501.4,1356.7,1511z"/>
					<path class="st115" d="M1346.8,1559.6c-7.3,10.2-21.4,17.5-38,18.2c-16.5,0.7-31.2-5.3-39.4-14.9c7.3-10.2,21.4-17.5,37.9-18.2
						C1324,1544.1,1338.7,1550.1,1346.8,1559.6z"/>
					<path class="st115" d="M1333.1,1605.6c-5.3,9.9-17.3,18.4-32.5,21.7c-15.2,3.3-29.7,0.6-38.6-6.2c5.3-9.9,17.3-18.4,32.5-21.7
						C1309.7,1596.1,1324.2,1598.8,1333.1,1605.6z"/>
					<path class="st115" d="M1323.8,1660.3c-7.9,6.1-20.7,8.5-34.1,5.4c-13.3-3-23.9-10.7-28.4-19.6c7.9-6.1,20.7-8.5,34.1-5.4
						C1308.8,1643.7,1319.3,1651.4,1323.8,1660.3z"/>
					<path class="st115" d="M1304.6,1698.3c-6.8,3.4-16.8,3.4-26.4-0.7c-9.6-4.2-16.4-11.4-18.6-18.8c6.8-3.4,16.8-3.4,26.4,0.8
						C1295.6,1683.7,1302.4,1691,1304.6,1698.3z"/>
					<path class="st115" d="M1287.6,1713c-4.4,2.5-10.6,2.8-16.5,0.3c-5.9-2.6-9.9-7.3-11-12.2c4.4-2.6,10.6-2.8,16.5-0.3
						C1282.5,1703.3,1286.5,1708.1,1287.6,1713z"/>
					<path class="st115" d="M1286.4,1728.6c-4.4,2.6-10.6,2.8-16.5,0.3c-5.9-2.6-9.9-7.3-11-12.2c4.4-2.5,10.6-2.8,16.5-0.3
						C1281.3,1718.9,1285.3,1723.6,1286.4,1728.6z"/>
				</g>
				<g>
					<path class="st113" d="M1154.8,1685.6c-26.3-38.5-54-76.2-83.6-112.3l0.5-0.4c30.3,35.6,58.8,72.7,86,110.8
						c27.1,38.1,52.6,77.4,75.6,118.3c5.5,9.9,10.9,19.9,16.2,30c-2,1.1-4.1,2.3-6.1,3.5c-5-10.2-10.2-20.4-15.6-30.4
						C1205.7,1763.9,1181,1724.2,1154.8,1685.6z"/>
					<path class="st113" d="M1042.1,1524.2c9.7,0.9,19.8,7.4,26.1,17.9c6.3,10.6,7.3,22.5,3.6,31.5c-9.7-0.9-19.8-7.4-26.1-17.9
						C1039.3,1545.1,1038.3,1533.1,1042.1,1524.2z"/>
					<path class="st113" d="M1114.3,1546.7c4,7.7,4.2,19.3-0.3,30.8c-4.4,11.5-12.4,19.9-20.5,23c-4-7.7-4.2-19.3,0.3-30.8
						C1098.2,1558.1,1106.2,1549.7,1114.3,1546.7z"/>
					<path class="st113" d="M1116.7,1631.5c-6.6,5.6-17.8,8.5-30,6.8c-12.2-1.7-22.2-7.5-27.1-14.7c6.6-5.6,17.8-8.5,30-6.8
						C1101.9,1618.5,1111.9,1624.3,1116.7,1631.5z"/>
					<path class="st113" d="M1145.8,1669c-6.6,5.6-17.8,8.5-30,6.8c-12.2-1.7-22.2-7.5-27.1-14.7c6.6-5.6,17.8-8.5,30-6.8
						C1131,1656,1141,1661.8,1145.8,1669z"/>
					<path class="st113" d="M1165.6,1699c-6.6,5.6-17.8,8.5-30,6.8c-12.2-1.7-22.2-7.5-27.1-14.7c6.6-5.6,17.8-8.5,30-6.8
						C1150.7,1686,1160.8,1691.8,1165.6,1699z"/>
					<path class="st113" d="M1187.5,1732c-6.6,5.6-17.8,8.5-30,6.8c-12.2-1.7-22.2-7.5-27.1-14.7c6.6-5.6,17.8-8.5,30-6.8
						C1172.7,1719,1182.7,1724.8,1187.5,1732z"/>
					<path class="st113" d="M1139.6,1578.9c4,7.7,4.2,19.3-0.3,30.8c-4.4,11.5-12.4,19.9-20.5,23c-4-7.7-4.2-19.3,0.3-30.8
						C1123.6,1590.4,1131.5,1581.9,1139.6,1578.9z"/>
					<path class="st113" d="M1163.8,1612.1c4,7.7,4.2,19.3-0.3,30.8c-4.4,11.5-12.4,19.9-20.5,23c-4-7.7-4.2-19.3,0.3-30.8
						C1147.8,1623.6,1155.7,1615.1,1163.8,1612.1z"/>
					<path class="st113" d="M1186.9,1645.5c4,7.7,4.2,19.3-0.3,30.8c-4.4,11.5-12.4,19.9-20.5,23c-4-7.7-4.2-19.3,0.3-30.8
						C1170.8,1657,1178.8,1648.6,1186.9,1645.5z"/>
					<path class="st113" d="M1209.2,1678.3c4,7.7,4.2,19.3-0.3,30.8c-4.4,11.5-12.4,19.9-20.5,23c-4-7.7-4.2-19.3,0.3-30.8
						C1193.2,1689.8,1201.1,1681.3,1209.2,1678.3z"/>
				</g>
			</g>
		</g>
		<linearGradient id="SVGID_2_" gradientUnits="userSpaceOnUse" x1="1089.9677" y1="1836.8665" x2="1359.4164" y2="1836.8665">
			<stop  offset="0" style="stop-color:#F24949"/>
			<stop  offset="1" style="stop-color:#FFC16F"/>
		</linearGradient>
		<path class="st67" d="M1137.4,1773.9H1312c29,14.8,47.4,36.9,47.4,61.5c0,26.3-21,49.7-53.4,64.4h-162.6
			c-32.5-14.7-53.4-38.1-53.4-64.4C1090,1810.8,1108.4,1788.7,1137.4,1773.9z"/>
		<path class="st117" d="M1153.8,1787.7c-17.2-2-40.3,11-46.2,37.1c-8.1,51.5,43.4,66.6,71.6,53.5c-24.5-6.2-51.3-17.4-52.1-42.7
			c-1.4-13.3,6.5-26,6.7-26.4c1.1-1.6,3.3-5.4,7.4-9.9C1144.7,1794.9,1149.1,1791.2,1153.8,1787.7z"/>
		
			<rect x="1129.2" y="1766.4" transform="matrix(-1 -1.224647e-16 1.224647e-16 -1 2451.3606 3544.8455)" class="st118" width="192.9" height="12.1"/>
	</g>
	<g>
		
			<rect x="2450" y="285" transform="matrix(-1.836970e-16 1 -1 -1.836970e-16 3487.9841 -2172.0527)" class="st120" width="760.1" height="745.9"/>
		<rect x="2471.4" y="292.3" class="st121" width="717.3" height="731.4"/>
		<g>
			<path class="st122" d="M2860,499.9h-134l117.9,63.9C2853.8,544.6,2859.6,522.9,2860,499.9z"/>
			<path class="st122" d="M2571.1,499.9c0.9,52.8,30.2,98.7,73.3,123.2l66.7-123.2H2571.1z"/>
			<path class="st122" d="M2718.2,501.6v140.1c52.9-0.9,98.8-30.3,123.2-73.4L2718.2,501.6z"/>
			<path class="st122" d="M2571.1,494.7h134.3l-118.1-64C2577.3,449.9,2571.5,471.6,2571.1,494.7z"/>
			<path class="st123" d="M2786.6,371.5l-66.7,123.2H2860C2859.1,441.8,2829.7,395.9,2786.6,371.5z"/>
			<path class="st122" d="M2713,492.8v-140c-52.8,0.9-98.7,30.2-123.1,73.3L2713,492.8z"/>
			<path class="st124" d="M2719.9,348.7v134.1l63.9-117.9C2764.6,354.9,2742.9,349.1,2719.9,348.7z"/>
			<path class="st122" d="M2713,507.5l-64,118c19.2,10,40.9,15.8,64,16.2V507.5z"/>
			<g>
				<rect x="2590.2" y="850.2" class="st122" width="31.6" height="119.7"/>
				<rect x="2647.5" y="828.6" class="st122" width="31.6" height="141.3"/>
				<rect x="2704.8" y="806.9" class="st122" width="31.6" height="163"/>
				<rect x="2762" y="785.3" class="st122" width="31.6" height="184.6"/>
				<rect x="2819.3" y="763.6" class="st122" width="31.6" height="206.3"/>
				<rect x="2876.6" y="742" class="st122" width="31.6" height="227.9"/>
				<rect x="2933.9" y="720.4" class="st122" width="31.6" height="249.5"/>
				<rect x="2991.2" y="698.7" class="st122" width="31.6" height="271.2"/>
				<rect x="3048.5" y="677.1" class="st122" width="31.6" height="292.8"/>
				<rect x="3105.7" y="655.4" class="st122" width="31.6" height="314.4"/>
			</g>
			<path class="st125" d="M3145.6,532.6L3145.6,532.6L3145.6,532.6c-2.8,0.5-78.6,14-81.3,14l25.9,7c-10.1,3.8-64.2,24.4-77.6,29.4
				c-4.1,17.7-6.9,30.3-9.2,40.2c-12.3-1.2-35.3-3.3-55.2-5.2c-7.5,6.8-65.5,58.9-73,65.7c-18.3-2.3-40.9-5.2-57.2-7.3
				c-15.7,13.3-90.9,77.5-105.9,90.2c-15-5-36.3-12.3-49.4-16.7c-5.5,3.8-101.6,70.5-107.3,74.4l5.4,7.7l103.4-71.7
				c15.3,5.2,35.4,12,50,16.9c12.6-10.7,95.4-81.3,106.8-91c18.2,2.3,40.9,5.2,57.4,7.3c4.1-3.7,70.5-63.4,73.2-65.8
				c10.2,1,44.1,4.1,59.3,5.5c2.5-11.1,8.7-38.1,10-43.6l73.6-33.7l-5.7,25.3L3145.6,532.6z"/>
		</g>
	</g>
	<g>
		<g>
			<g>
				<g>
					<rect x="1493.1" y="1521" class="st105" width="40.3" height="309.8"/>
				</g>
				<g>
					<polygon class="st106" points="1539.8,1833.5 1487.4,1833.5 1487.4,1786.7 1487.4,1749 1539.8,1749 					"/>
					<polygon class="st106" points="1294.5,1889.5 1487.4,1786.7 1487.4,1833.5 1349.1,1889.5 1349.1,1899.8 1294.5,1899.8 					"/>
					<polygon class="st106" points="1732.8,1889.5 1539.8,1786.7 1539.8,1833.5 1678.2,1889.5 1678.2,1899.8 1732.8,1899.8 					"/>
					<polygon class="st106" points="1496,1786.7 1496,1899.8 1483.1,1899.8 1483.1,1907.8 1539.8,1907.8 1539.8,1899.8 
						1527.8,1899.8 1531.5,1786.7 					"/>
				</g>
			</g>
			<rect x="1488.2" y="1503.6" class="st104" width="52" height="63.8"/>
		</g>
		<g>
			<polygon class="st108" points="1380.1,1185.6 1316.1,1220.9 1367.8,1455.4 1392.9,1450.7 1363.3,1232.9 1398.1,1218 			"/>
			<polygon class="st108" points="1619,1185.6 1686.4,1238.5 1675.1,1460.8 1648,1455.1 1657.5,1263.4 1603.5,1227.5 			"/>
			<path class="st109" d="M1598,1347.5h-191.8l-52.7-326.2c-9.5-58.6,35.8-111.7,95.1-111.7h106.9c59.4,0,104.6,53.1,95.1,111.7
				L1598,1347.5z"/>
			<path class="st109" d="M1698.5,1478.6h-358.9l0,0c0-19.6,15.9-35.6,35.6-35.6h287.8C1682.5,1443,1698.5,1458.9,1698.5,1478.6
				L1698.5,1478.6z"/>
		</g>
	</g>
	<path class="st126" d="M1614.6,947.7l18-12.2c0,0-47-77.3-42.2-143.9c2.6-35.2-55.1-87-70.4-79c-0.9-0.4-51.2,1.1-55.7,116
		l-10.7,134.6l54.3,48.1c0,0,34.2-58.7,77.8-32.9c43.6,25.8,27.2,14.7,27.2,14.7S1614.6,960.1,1614.6,947.7z"/>
	<path class="st127" d="M1418.6,950.8c0,0-0.5,128.1,12.5,155.2c13,27.1,7.2,188.9,7.2,188.9l149.6,4.4c0,0,19.1-150.9,19.1-192.2
		s15.1-156.8,15.1-156.8S1520.3,924.2,1418.6,950.8z"/>
	<path class="st112" d="M1564.5,859.6c2.3,2.3-7,63.7,2.1,81.8c0,0-23.9,132.6-40.1,134.5c-14,1.7-21.5-111-24.3-123.8
		c-3.8-17.3,4.5-103.7,4.5-103.7L1564.5,859.6z"/>
	<path class="st111" d="M1563.5,886.5c-21.4,19.4-42.8,10.2-59-14c0.4-12.2,2.1-23.5,2.1-24.2l57.9,11.3
		C1565.4,860.5,1564.4,872,1563.5,886.5z"/>
	<path class="st112" d="M1556,717.3c0,0,26.4,5,29.5,27.6c3.1,22.6,7.5,41.4,3.1,67.8c-4.4,26.4-20.1,61.5-45.8,67.1
		c-25.7,5.6-52.7-37-52.7-60.2c0-23.2-9.4-62.1,8.2-86C1515.8,709.8,1556,717.3,1556,717.3z"/>
	<g>
		<path class="st5" d="M1526.2,838.9c13.9,6,34.4,6.2,34.4,6.2s-1.5,2.8-4,5.9c-6-0.3-17.8-1.4-27.4-4.9
			C1527.2,842.2,1526.2,838.9,1526.2,838.9z"/>
		<path class="st128" d="M1529.2,846c9.7,3.5,21.4,4.5,27.4,4.9C1546.8,862.6,1536.4,859.8,1529.2,846z"/>
	</g>
	<path class="st111" d="M1556,717.3c0,0,26.4,5,29.5,27.6c2.8,20.5,6.7,37.9,4.2,60.6c-4.2-2.9-10.1-5.8-18.5-8.6
		c-23.3-7.7-47-43.1-50.3-69.9C1520.4,704.5,1556,717.3,1556,717.3z"/>
	<path class="st129" d="M1457,1286.1l-28.2,13.3c0,0-32,35.4-39,97.9c-7.1,62.5,77.8,93.2,77.8,93.2l167.4-11.8
		c0,0,61.9-169.6-40.9-190C1495.5,1269,1457,1286.1,1457,1286.1z"/>
	<path class="st130" d="M1551.3,1379.5c0,0,0.9,29.6,2.5,30.3c14,5.5,75.6-1.4,82.4,33.8c7.5,39.3-117.2,325.6-108.9,368
		c8.3,42.5,19.4,79.1,26.2,85.8c6.8,6.8,6.9,12.6,1,18.5c-5.9,5.9-31-0.9-38.1-8c-7.1-7.1-15.5-61.8-28.2-74.5
		c-12.7-12.7-17.7-20.6-3-50.7c14.7-30.1,53.1-262.9,57.8-287.1c4.7-24.2-2.9-34.9-2.9-34.9l-58.4-37.1L1551.3,1379.5z"/>
	<path class="st112" d="M1598.5,1353.6c0,0-21.8-14.7-65.4,0c-43.6,14.7-73.1,51.3-77.8,68.4c-4.7,17.1-24.2,349-50.1,403.3
		c-25.9,54.2-27.5,57.4-38.9,68.8c-11.4,11.4-6.2,39.5,0,45.8c6.2,6.2,54.2-6.4,59.7-25.3c5.5-18.9,17.3-62.9,22-76.3
		c4.7-13.4,38-139.7,69.7-199.6c31.7-59.8,42.1-191.9,42.1-202.9c0-11,55.7-15.1,55.7-15.1S1627.2,1360.1,1598.5,1353.6z"/>
	<path class="st131" d="M1622.1,950.3c0,0,20.3,11.8,23.2,26.8c11.5,60.2,21.6,212.9,16.9,251.5c-5.9,48.2-24.8,48.2-24.8,48.2
		l-225.2-27l9.4-60.1c0,0,153.3,9.4,168.6,9.4c15.3,0,16.4-116.4,16.4-116.4L1622.1,950.3z"/>
	<path class="st132" d="M1418.6,950.8c0,0-53.5-0.5-65.3,67.9c-11.8,68.4-4.7,258.1,20,258.1c24.8,0,161.6-79.4,180.4-79.4l0,0
		c-5-1.1-8.9-5.2-9.8-10.2l-6.5-36.4c0,0-106.4,1.2-125.3,20c0,0,20-74.3,20-101.4C1432.2,1042.3,1451.6,950.8,1418.6,950.8z"/>
	<path class="st112" d="M1600.8,1172.7c0,0-59.7-19.9-61.3-10.6c-4.3,24.9,9.6,36.3,9.6,36.3s40.4,6.1,46.9-0.4
		C1602.6,1191.4,1600.8,1172.7,1600.8,1172.7z"/>
	<path class="st111" d="M2109,1176.8l-3.1,96.2c0,0,45.6,8.6,58.2,3.8c7-2.7,8.3-50.6,6.1-106
		C2146.3,1168.8,2131.5,1168.7,2109,1176.8z"/>
	<path class="st133" d="M2170.2,1170.8c-1.8-44.5-5.8-93.7-11.1-128.4c-11.8-77.8-59-118.2-59-118.2l-1.3,239.5l1,16
		C2122.4,1171.7,2146.3,1168.8,2170.2,1170.8z"/>
	<path class="st134" d="M1930.5,928.9c0,31.4,5.4,188.3,14.8,238.5c9.4,50.1-65.8,137.3-65.8,179.6c0,42.3,55,103.6,55,103.6h183.9
		c0,0,56.6-103,36.2-151.3c-20.4-48.3-48.7-12.2-34.6-81.4c14.1-69.2,15.5-164,7.7-230c-7.9-66-43.6-86.1-104.9-86.1
		C1961.5,901.9,1930.5,897.5,1930.5,928.9z"/>
	<path class="st135" d="M2098.9,1317.8c0,0-86.7-26.5-128.1,14.9c-41.5,41.5-36.2,117.9-36.2,117.9h183.9
		C2118.5,1450.7,2178.2,1366.6,2098.9,1317.8z"/>
	<path class="st111" d="M2060.6,1373.2c-13-31.5-27.1-37.5-38.9-37.5c-21.5,0-55.4,11.8-70,49c-15.4,39.5-75.2,280.2-85.6,324.7
		c-7.4,31.7-22.1,53.7-37.6,71.7c-32.7,49.2-23.2,80.9-1,104.3c0,3,23.8,9.1,50.3-64.7c5.9-16.5,8.7-26.6,15.7-62.3
		C1900.6,1722.7,2073.6,1404.6,2060.6,1373.2z"/>
	<path class="st136" d="M1874.8,1828.8c-8.7,5.5-29.6,18.1-38,18.1c-8.1,0-19.3-23.9-24.1-35.3c-12,33.4-2.5,58.3,14.8,76.6
		C1830.8,1892,1849.5,1894.2,1874.8,1828.8z"/>
	<path class="st137" d="M2148.2,1391.7c0.7-34.4-20.5-41.6-37.3-44.7c-21.1-3.8-48.8,20.5-71.6,56.2
		c-22.8,35.7-75.2,280.2-85.6,324.7c-7.4,31.7-22.1,53.7-37.6,71.7c-32.7,49.2-23.2,81.4-1,104.8c0,3,23.8,8.6,50.3-65.2
		c5.9-16.5,8.6-26.6,15.7-62.3C1988.3,1741.3,2147.6,1425.7,2148.2,1391.7z"/>
	<path class="st138" d="M1958.2,1857.7c-10.4,3.5-21.2,5.9-29.8,4.5c-16.8-2.8-19.9-30.8-20-49.9c-23.2,42.5-13.6,73.1,6.7,94.4
		C1918.9,1908.8,1934.8,1912.4,1958.2,1857.7z"/>
	<path class="st139" d="M2045.4,1181.8l41.6,76.9c0.3,0.6,0.1,1.4-0.5,1.7c-0.6,0.3-1.3,0.1-1.7-0.5l-44.1-75.6
		c-0.7-1.3-0.3-2.9,1-3.6C2043,1180.1,2044.6,1180.5,2045.4,1181.8C2045.4,1181.8,2045.4,1181.8,2045.4,1181.8z"/>
	<path class="st112" d="M2066.6,1206.9c-9-9-22.8,3.2-35.3,7.1c-12.6,3.9-130.5,3.1-147-0.8c-6.1-1.5-3.3-20.3,2.9-45.7
		c-19.2-6.3-40-8.1-59.5-5.9c-6.5,61.9-8.5,116.8,0,122.4c18.9,12.5,175.8-38.6,191.7-38.6c15.9,0,8,7.4,31.6,7.4
		c13.9,0,23.6-2.6,29.2-4.7c3.4-1.3,5-5.1,3.7-8.4C2080.4,1230.7,2073.1,1213.5,2066.6,1206.9z"/>
	<path class="st111" d="M1885,1176.9c0.7-3,1.4-6.1,2.2-9.3c-19.2-6.3-40-8.1-59.5-5.9c-0.8,7.8-1.5,15.4-2.2,22.9
		C1837.1,1182.3,1866.1,1177.2,1885,1176.9z"/>
	<path class="st140" d="M1887.2,1167.6c19.6-42.8,51.4-114.4,53.9-143.1c3.9-45.6-6-115-6-115s-53.7,33.3-70.9,71.8
		c-9.5,21.1-38.7,111.4-46.5,186.3C1837.1,1165.3,1868,1161.2,1887.2,1167.6z"/>
	<path class="st141" d="M2006.8,1270.6H2120C2120,1270.6,2042.3,1245.4,2006.8,1270.6z"/>
	<path class="st142" d="M2228.5,1270.6H2120c0,0,41.8-8.8,70-8.8C2218.2,1261.8,2228.5,1270.6,2228.5,1270.6z"/>
	<path class="st142" d="M2209.2,1235.6c0,0-52.8-1.5-89.3,35c0,0,17.3-12.4,45.6-19.7c28.4-7.3,47.6-7,47.6-7L2209.2,1235.6z"/>
	<polygon class="st143" points="1999.4,1270.6 2120,1270.6 2005.9,1267.9 	"/>
	<path class="st111" d="M2214.5,1144.6c-8.4-54.9-1.5-119.1-1.5-119.1s14.7-12.8,34.3-7.5c19.6,5.2,30.1,8.5,28.1,2.9
		c-1.9-5.6-27.4-14.5-27.4-14.5s24.6-0.3,37.1,6.2c12.5,6.4,15.4-6-19.5-12.2c-35-6.2-23.5-9.6-17.7-11.6c5.9-2,40.7,7.1,50,0.5
		c8.5-6.1-47.2-12.2-63.7-10.3c71.5-20.3,49.2-29.1-18.5-5.9c-19.4,6.7-36.9,35.7-37.3,36.4c-1.8,2.3-20.9,90.9-21.9,158.5
		C2174.9,1159.7,2197.5,1155.3,2214.5,1144.6z"/>
	<path class="st144" d="M2167.1,1033.2c-5.2,5.2-65.8,231.5-31.2,240.6c34.5,9.1,76.6-34.1,76.6-34.1l8.2-186.7L2167.1,1033.2z"/>
	<path class="st112" d="M2646.6,1022.2c7.1-16.1,36.8-20.2,46.3-23.3c9.5-3.1,18.3-22.1,24.6-24.1c6.3-2,4.4,19.3-5.2,24.8
		c-9.6,5.5,2.7,13.9,10.2,14c7.5,0.1,34.6-2,40.8-16c6.2-14.1,17.8-22.4,19.3-17.5c1.6,4.9-14.3,26.3-14.3,26.3s25.7-23.5,27.6-17.7
		c1.9,5.8-21.6,22.7-21.6,22.7s15.8-7.3,20.4-4.6c4.6,2.7-37.6,28.8-45.9,31.4c-8.3,2.7-41.3,0.9-57.6-0.8
		c-6.8-0.7-10.2,32.9-21.9,76.7c-6-10.7-34.9-20-43.3-28.8C2639.9,1055.4,2643.7,1028.5,2646.6,1022.2z"/>
	<path class="st144" d="M2626.7,1054.4l-53.3,223.9c0,0,50,7.3,71,0c21-7.3,47.2-155.8,47.2-220.7L2626.7,1054.4z"/>
	<polygon class="st145" points="3039.4,1467.4 2928.4,1488.9 2857.8,1460.9 2928.4,1387.8 	"/>
	<path class="st146" d="M3092.5,969.6c0,0-18,10.9-39.7,63.6c-21.7,52.7-21.6,161.9-42.8,171.9c-18.6,8.7-167.3,26.9-204,31.3
		c-5.2,0.6-9.8,3.6-12.6,8l-19.2,30.6l99.8,3.3c0,0,113.4,56.6,142.5,37.3c29-19.3,113.2-178.9,124.1-226.1
		C3151.4,1042.3,3092.5,969.6,3092.5,969.6z"/>
	<path class="st147" d="M2873.9,1189.7c-4.7,0-51.9-11-51.9-11l-11,48.7l48.7,20.4L2873.9,1189.7z"/>
	<path class="st146" d="M2779.6,1846.8c0,0-16.6,50.4-63,62.8c-17.5,4.7-97.2,44.1-82.3,44.1c5.7,0,171,0.6,171,0.6
		s12.3-21.8,7.6-41.4c-4.7-19.7,18-66,18-66H2779.6z"/>
	<path class="st148" d="M942.8,689.2c0,0,13.9,83.2,57.5,139.2c32.6,41.9,100.8,88.5,100.8,88.5l-38.6,42.4l-106.6-88L942.8,689.2z"
		/>
	<polygon class="st149" points="884.5,611.4 799,611.4 801.8,892.4 915.2,900.1 	"/>
	<path class="st149" d="M980.2,1958c48.1,0,47,19.8,47,19.8H886.3c0,0,7-60.8,8.1-75.2h33.1C931.1,1920.1,943.3,1958,980.2,1958z"/>
	<path class="st149" d="M744.7,1965.2c43.8,0,52.8-53.1,54-62.7h31.7c0,2.6,0,4.2,0,4.6c0,6.6,8.2,77.8,8.2,77.8s-35.2,0-58.7,0
		c-23.5,0-82.2,0-82.2,0S696.6,1965.2,744.7,1965.2z"/>
	<path class="st150" d="M757.3,1582.7l-45-380.4l12.7-112.6h247.6l1.8,99.2l26,386.5c0,0-64.6,321.8-63.5,327.1h-46.7
		c0.1-1.2,13.2-352.9,13.2-352.9l-53.4-313.3L829,1565.2c0,0,9.5,296.4,9.6,337.3h-44C794.8,1901.6,757.3,1582.7,757.3,1582.7z"/>
	<path class="st151" d="M723.3,1104.5l1.7-14.8h247.6l0.2,13l-52,17.7c-42.4,14.4-87.4,15.6-130.4,3.3L723.3,1104.5z"/>
	<path class="st152" d="M707.8,686.1c26.9-30.2,89.2-78.5,157.9-66.9l71.8,31.9L958.6,806l18.9,295l-255.9,2.9l-24.3-287.2
		C697.3,816.8,680.9,716.4,707.8,686.1z"/>
	<path class="st112" d="M874.5,549.7c0,0,0.7,60.5,6.5,91.4c2.2,11.9-3.2,24.1-13.4,28.5c-7.5,3.2-17.4,5.1-29.7,2.8
		c-32.2-6.1-33.3-42.3-33.3-42.3l10.9-110.4L874.5,549.7z"/>
	<path class="st111" d="M815.5,519.7l59,30c0,0,0.3,22.3,1.8,46.8c-15.4,0.8-34.7-8-55.3-34.3c-3.1-3.9-5.9-7.8-8.6-11.6
		L815.5,519.7z"/>
	<path class="st112" d="M870.7,394.6c0,0,20.2,17.2,28.9,46c8.7,28.8,16.4,49.7,16.4,49.7l-9.3,6.1c0,0,7.4,40.2,1.6,54
		c-8.7,20.9-45.6,37.7-87.3-9.2c-41.8-46.9-45.3-88.3-38.2-108.6C789.9,412.4,854.3,384.1,870.7,394.6z"/>
	<path class="st153" d="M807.9,439.4c0,0,18.6-17.2,45.3-9.8c26.7,7.4,35.8-4,30.6-9.8c0,0,23.5,0.6,32.2-20.9
		c8.7-21.5,6.6-86.5-34.9-74.2c-41.5,12.3-33.1,41.7-33.1,41.7s-13.3-14.1-25.8-6.7c-12.6,7.4-10.9,17.8-10.9,17.8
		s-11.5,23.9-27.3,27c-15.8,3.1-14.2,38.6-14.2,38.6s-9.3,7.4-2.7,33.1c6.6,25.8,45.1,65.7,45.1,78c0,0,9.5-16,1.8-41.2
		c-7.6-25.1-7.6-39.9,0.5-39.9C822.6,473.2,807.9,439.4,807.9,439.4z"/>
	<path class="st112" d="M819.7,489.8c0,0-2.7-21.2-8.6-21.2c-5.9,0-11.5,2.3-10,14.3c1.4,12,7.6,25.3,15.4,19.8
		C824.2,497.2,819.7,489.8,819.7,489.8z"/>
	<path class="st153" d="M749.5,441.1c0.5-1.8,1.9-3.7,3.6-4.5c5.6-2.7,13,3.1,17.9,7l0.8-1.1c-3.3-3.8-6.8-7.6-11.7-10.1
		c-7.2-3.4-13.6,0.1-16.3,6.5L749.5,441.1z"/>
	<path class="st153" d="M749.1,468.5c-0.5-3.1-0.5-6.6,0.2-9.8c3.5-15.9,20.8-14.5,21.6-15v-1c-0.5,0.2-25-5.1-28.5,20.6
		c-0.3,2.2-0.5,4.1-0.3,6.8L749.1,468.5z"/>
	<path class="st154" d="M893,622.1l19.1,572.7h118.7l-35-260.1l-23-158.2c0,0-11.1-106.3-35.3-125.4
		C913.3,632.1,893,622.1,893,622.1z"/>
	<path class="st111" d="M815.8,481.3c0,0-3.5-7.2-6.6-6.1c-3.1,1-3.8,15.4,1.7,21.5C816.4,502.7,821,492.7,815.8,481.3z"/>
	<path class="st154" d="M797.7,618.9l12.5,575.8H683.1c0,0-4.8-456.4,9.3-504.1C706.4,642.9,797.7,618.9,797.7,618.9z"/>
	<polygon class="st155" points="939.1,643.3 884.5,611.4 902.1,896.1 932.1,734.6 921.5,727.3 	"/>
	<polygon class="st155" points="803.7,893.4 799,611.4 750.3,633.5 776.8,727.1 770.1,732.3 	"/>
	<polygon class="st156" points="1027.2,977.1 1203.4,842.3 1016.8,825 875.6,977.1 	"/>
	<path class="st112" d="M929,919.9c0,0-19.1,4.4-26.2,12.1c-9,9.9-30.5,25.9-39.5,25.9c-9,0-47.4,3.8-47.4,3.8l-6.4,43.1
		c0,0,143.2-33.5,149.9-40.9c6.7-7.4-33.6,5.5-33.6,2.2c0-3.3,48.6-7,46.1-15.3c-2.5-8.3-44.8,11.2-48.6,7.1
		c-3.8-4.1,51.1-11,51.1-19.7c0-8.8-54.6,12.7-54.6,12.7s-1-4.5,13.8-11.6c14.8-7.1,29.1-12.9,25.8-16.4c-3.3-3.6-41,19.1-46,13.7
		L929,919.9z"/>
	<path class="st155" d="M727.4,679.5c0,0,20.8,38.9,16.7,94.9c-4.2,56-11.2,141.9,0.4,169.9c11.7,28,97,0,97,0v66.3
		c0,0-123.8,51.3-159.6,34.5c-35.8-16.8-32.4-161.5-32.4-232.4C649.4,741.7,704.5,628.6,727.4,679.5z"/>
	<path class="st157" d="M727.4,679.5c10.3,22.5,17,55.9,14.9,90.5c-3.9,52.1-16,165.3,6.2,182.5c21.4,13.5,69.9,0,93-8.2
		c-22.7,6.1-86.8,21.2-95.1-1c-7.1-17.8-6-60.8-5.3-80c2.6-82.7,12.5-111.9-4.6-162.4C734,693.6,731.1,686.3,727.4,679.5z"/>
	<path class="st112" d="M1079.1,918.1c0,0,2.5,3.1,6.4,12.6c3.8,9.2-6.8,18.7-8.9,20.7c-4,3.8-11.1,9-15.6,11.6
		c-4.4,2.6-7.3,3.9-11.6,4.9c-6.3,1.4-20.4-21.5-18.5-23.7c1.3-1.5,2.9-2.6,4.4-2.2c1.5,0.5,17.2,13,17.2,13s-14.1-18-12.5-23.4
		c1.6-5.4,4.6-4.7,5.9-3.3c1.2,1.4,19.2,18.3,19.2,18.3s-12.1-21.5-11.1-25c1-3.5,5.9-6,11.5,2.7c3.1,4.9,11.3,12.8,11.3,12.8
		s-6.8-16.3-5.2-21.5C1073.1,910.3,1079.1,918.1,1079.1,918.1z"/>
	<path class="st158" d="M2425.9,1912c0,0,0.4,2.2,1.5,5.6c3.3,10.1,12.6,31,33.9,36.2c28.3,6.9,50.7-0.6,55.8,4.5
		c5.1,5.1,7,20.9,7,20.9l-170.4,8l10-69.6L2425.9,1912z"/>
	<polygon class="st158" points="2287.3,1492.9 2352.7,1934.2 2440.2,1920.3 2426,1489.8 	"/>
	<path class="st159" d="M2344,1896.5c0,0-21.6,18.5-21.6,37.8l-74.8,55.2H2221c0,0,55.2-69,66.3-86.3c11.1-17.3,11.6-34.3,11.6-34.3
		L2344,1896.5z"/>
	<path class="st160" d="M2580.5,1482.9c-24.3-73.1-91-39.3-91-39.3c-41.7,7.9-103.7,151.7-112.4,196.6
		c-6.2,32.4-67.7,179.6-101.5,259.1c23.4-12.7,54.4-5.3,67.9,16.8C2415,1797.7,2588.5,1506.9,2580.5,1482.9z"/>
	<path class="st161" d="M2294.9,1908c0,0,20.5,5.9,27,19.5c6.5,13.6-27,39.8-27,51.8c0,11.9,8.8,22.1,0,26.5
		c-8.9,4.4-81.4,5.1-77.4-9.4c4-14.5,32.5-30.9,44.1-49C2273.2,1929.2,2283.5,1903.1,2294.9,1908z"/>
	<path class="st158" d="M2499.4,1467.4c0,0,109.7-31.6,74.1,43.2c-6.9,14.5-322.9,36.2-322.9,9.7c0-26.5,20-52.9,20-52.9H2499.4z"/>
	<path class="st162" d="M2257.6,993.7c0,0,37.2-15.1,82.3-19c24.7-2.1,49.4,5.9,77.3,5.9c78.6,0,154.5,20.8,162.8,59
		c8.4,38.4-95.2,411.2-71.6,434.8c23.6,23.6-208.2,38.4-237.3,9.3C2241.9,1454.6,2172.7,1026.7,2257.6,993.7z"/>
	<path class="st163" d="M2363.5,903.6l-23.5,79.3c0,0,61.6,24.3,102.8,0l-13-88L2363.5,903.6z"/>
	<path class="st162" d="M2257.6,993.7c0,0-66.1,88.7-80.2,131.2c-14.1,42.4-52.8,114.5-49.5,133.2c3.3,18.8,26.3,37.3,64.8,28
		c38.5-9.2,35.7-46.4,35.7-46.4L2257.6,993.7z"/>
	<path class="st162" d="M2577.9,1033.2c0,0,82.9,228.7,66.5,245.1c-16.4,16.4-71,0-71,0l-59.9-116.9L2577.9,1033.2z"/>
	<path class="st112" d="M3077.6,708.8c0,0-30.9,40.6-35.5,68.1c-4.8,28.3-10.5,73.6-10.5,73.6h12.6c0,0,10.5,25.1,10.5,41.9
		c0,16.7,26.5,6.3,41.9,6.3c15.4,0,49.5-13.3,62.8-61.4C3172.5,789.1,3196.9,703.3,3077.6,708.8z"/>
	<polygon class="st164" points="3113.8,937.9 3095.1,951.8 3088.4,977.4 3115.2,965.1 	"/>
	<path class="st112" d="M3145.3,836.5L3192,944c0,0-89.7,29.7-85.1,25.1c4.5-4.5-5.8-83.7-5.8-83.7L3145.3,836.5z"/>
	<path class="st165" d="M3035.7,679.5c-1.4,2.4-25.7,51.7,16.1,70.5c41.8,18.8,52.2-8.3,63.3,8.5c11.2,16.7-9.7,43.9-0.6,59.2
		l13.9,2.7c0,0,2.8-8.3,8.4-8.3s7.2,42.3,16.1,42.3c9,0,26.4-36,34.8-52.7c8.4-16.7,25.8-73.3-6.3-87.9c-32.1-14.7-46-3.5-46-17.4
		c0-14-14,0.7-14,0.7s-7.7-10.5-2.8-22.3c4.9-11.9-34.2-16.1-43.3,7.7C3066.4,706,3051.1,653.7,3035.7,679.5z"/>
	<g>
		<g>
			<rect x="3171.6" y="1640.2" class="st105" width="40.3" height="298.3"/>
		</g>
		<g>
			<polygon class="st106" points="3218.2,1941.1 3165.9,1941.1 3165.9,1896 3165.9,1859.7 3218.2,1859.7 			"/>
			<polygon class="st106" points="2972.9,1995 3165.9,1896 3165.9,1941.1 3027.5,1995 3027.5,2004.9 2972.9,2004.9 			"/>
			<polygon class="st106" points="3411.2,1995 3218.2,1896 3218.2,1941.1 3356.6,1995 3356.6,2004.9 3411.2,2004.9 			"/>
			<polygon class="st106" points="3174.4,1896 3174.4,2004.9 3161.5,2004.9 3161.5,2012.6 3218.2,2012.6 3218.2,2004.9 
				3206.2,2004.9 3210,1896 			"/>
		</g>
	</g>
	<rect x="3165.9" y="1577" class="st104" width="51.7" height="104.3"/>
	<path class="st145" d="M2637.9,1657.2c0,0-37.6,37.7-50.2,50.3c-12.6,12.6-82.7,19.1-68.8,33c13.9,14,50,32,66.5,32
		c16.5,0,79.4-14.1,79.4-14.1s7.2-63,15.7-71.6L2637.9,1657.2z"/>
	<path class="st146" d="M2859.7,1333.3c-53.5,0-240.6,306.6-240.6,306.6l18.8,17.3l50.3,37.4c8.5-8.5,204.3-251,204.3-251
		s76,31,134.1,31c58.2,0,127.8-120.2,127.8-120.2C3147.7,1347.6,2913.2,1333.3,2859.7,1333.3z"/>
	<path class="st147" d="M3247,1330.5c0.1-1.1,0.2-2.2,0.3-3.3c3.9-45.6,16.3-407.2-47.4-407.2c0,0-73.5,13.2-120.3,72.7
		c-7.9,10-9.3,19.1-12.8,32.7c-23.3,91.2-38.7,260.3-36.6,324.4C3102.2,1378.4,3182.7,1376.5,3247,1330.5z"/>
	<path class="st166" d="M3175.5,889.1c-6.3,0-70.6,62-70.6,62l-5.5,35.6l100.5-47L3175.5,889.1z"/>
	<polygon class="st167" points="3104.3,955.2 3088.5,961.7 3072.1,995.7 3081.5,992.8 3100.5,978.6 	"/>
	<path class="st103" d="M3081.5,992.8c0,0-38.1,193-46.9,362.8l-24.6,22c0,0,3.1-26.7,3.1-65.2c0-38.5,39.9-288.9,59-316.6
		L3081.5,992.8z"/>
	<path class="st168" d="M3199.9,920.1c0,0-19.2,3.5-44.2,14.8c-7,28.4-46.4,94.2-64,164.4c-13.1,52.4-43.7,120.8-48.7,164.4
		c-4.3,37.5-11.4,69.7-13.9,91.7c-5.9,53.1-30.1,143.4-30.1,143.4l228.8-31.3c0,0,15.7-94.6,19.7-140.2
		C3251.3,1281.7,3263.7,920.1,3199.9,920.1z"/>
	<path class="st132" d="M3170.5,1419.8l-44.5-5.1c-17.2-2-29.6-17.5-27.6-34.7l9.8-86.1l106.8,12.1l-9.8,86.1
		C3203.2,1409.4,3187.7,1421.8,3170.5,1419.8z"/>
	<path class="st169" d="M3167.6,910.5l-61,51.9l-61.3,296.4c0,0,70.2-123,68.5-135.7c-1.8-12.7-12.7-23.9-12.7-23.9
		S3167.6,932.4,3167.6,910.5z"/>
	<polygon class="st169" points="3188.3,896.1 3167.6,910.5 3160,940.9 3208.6,922.5 	"/>
	<path class="st104" d="M3220.8,1580.4h-66c-8.6,0-15.6-7-15.6-15.6V1509h97.2v55.8C3236.4,1573.4,3229.5,1580.4,3220.8,1580.4z"/>
	<g>
		<path class="st108" d="M3269.3,1285.6c0,0-224.4-1.5-231.5,14.1c-7.1,15.7,3.5,199,3.5,199l26.7-4.8c0,0-11.1-155.5,5.5-172.1
			c16.6-16.6,198.1,8.5,200.4,6.2C3276.4,1325.7,3269.3,1285.6,3269.3,1285.6z"/>
		<path class="st169" d="M3035,1295c-12,12.6,2.3,148.7,4.4,165.8c1.7-77-0.7-141.5,3.1-158.4c12.4-7.6,106-10.8,182-16.7
			C3198.7,1284,3052.8,1278.7,3035,1295z M3042.6,1302.1C3042.6,1302,3042.6,1302,3042.6,1302.1
			C3042.6,1301.9,3042.6,1302,3042.6,1302.1z"/>
		<path class="st170" d="M3373.1,1510.4h-399.3l0,0c0-23.7,19.2-43,43-43h356.4V1510.4z"/>
		<path class="st170" d="M3335.4,1007.3c0,0-94.3,45.3-94.3,195.6c0,150.3,55,264.6,55,264.6h77c0,0-99.1-211.8-53.5-302.2
			C3365.2,1074.9,3442.3,1024.6,3335.4,1007.3z"/>
		<path class="st171" d="M3319.7,1165.3c43.5-86.3,115.7-136,29.1-155.4c64.1,21.7-2.2,70.5-43.1,151.6
			c-45.6,90.3,53.4,302.2,53.4,302.2v43h-385.2c-0.1,1.3-0.2,2.5-0.2,3.8h399.3v-43C3373.1,1467.4,3274.1,1255.6,3319.7,1165.3z"/>
	</g>
	<path class="st132" d="M3178.5,949c-28.5,6.7-62.5,27.6-81.3,84.2c-18.8,56.6-37.6,135.4-62.8,146.9
		c-25.1,11.5-188.7-1.5-188.7-1.5l-4.2,73.5c0,0,178.5,52.4,226.4,47.2c47.8-5.2,131.9-175.2,157.4-236.7
		C3274.5,944.3,3208.4,941.9,3178.5,949z"/>
	<path class="st172" d="M3178.5,949c-80.4,24.6-77.1,108.5-112.5,194.8c-5.6,13.2-16.5,36-30,41.2c-3,0-20.2,15.4-190.3-6.3
		c57,1.3,173.6,5.3,188.7-4.4c22.8-15.6,42.5-98.9,60.3-146.3c7.1-18.8,17.2-36.9,31.5-51.3C3140.5,962.4,3158.9,952.3,3178.5,949z"
		/>
	<path class="st168" d="M2924.7,1528.2c-21.6,103.9-89,346.9-89,346.9l-82-23.8c0,0,51.3-389.3,92.8-430.8
		C2887.9,1379.1,2946.2,1424.3,2924.7,1528.2z"/>
	<path class="st173" d="M2807.1,1243.9c0,0,22.7-3.5,34.4,8.3c11.7,11.7,16.3,25.4,16.3,25.4l-83.7-2.5
		C2774.1,1275,2787.1,1243.1,2807.1,1243.9z"/>
	<path class="st147" d="M2774.1,1275c0,0,13-32,33-31.1c0,0,22.7-3.5,34.4,8.3c2.1,2.1,3.9,4.2,5.5,6.3c-2.1-3.5-4.6-7.2-7.5-10.8
		c-11.7-14.1-26.5-10.7-34.4-10c-19.9,1.8-33,37.5-33,37.5L2774.1,1275z"/>
	<path class="st112" d="M2806.1,1243.9c0,0-11.4-1.1-15.5,3c-4.1,4-6.7,7-8.1,8.3c-1.3,1.3-0.2,17.7,18.7,21.8
		c18.9,4.1,15.5-4.8,20.9-2.6c5.4,2.3,11.6,5.8,14.3,3.1c2.7-2.7,6.3,3.8,10.3,0c3.9-3.8-6.9-28-13.1-34.1c-6.2-6-10.7-3.8-15.7-3.8
		C2813,1239.6,2806.1,1243.9,2806.1,1243.9z"/>
	<rect x="2844.8" y="1315.1" class="st103" width="22.1" height="649.8"/>
	<rect x="1108.2" y="1311.2" class="st103" width="22.1" height="649.8"/>
	<rect x="1313.6" y="1294.9" class="st103" width="22.1" height="649.8"/>
	<linearGradient id="SVGID_3_" gradientUnits="userSpaceOnUse" x1="1984.7024" y1="1497.8975" x2="1994.807" y2="1289.0686">
		<stop  offset="0" style="stop-color:#6A0352"/>
		<stop  offset="1" style="stop-color:#B8004C"/>
	</linearGradient>
	<rect x="1045.3" y="1270.6" class="st82" width="1898.6" height="45"/>
	<path class="st109" d="M2472.9,1534h-249.2l-68.5-373c-12.3-67,46.5-127.8,123.6-127.8h138.9c77.1,0,83,90,79.1,162.2l-10.4,147.6
		L2472.9,1534z"/>
	<path class="st175" d="M2181,1192.9c-12.3-67,46.5-127.8,123.6-127.8h138.9c16.2,0,29.2,4,39.7,10.9
		c-11.6-25.5-31.7-42.9-65.6-42.9h-138.9c-77.1,0-135.9,60.8-123.6,127.8l68.5,373h20L2181,1192.9z"/>
	<g>
		<g>
			<g>
				<rect x="2363.7" y="1595.3" class="st176" width="40.3" height="390.7"/>
			</g>
			<g>
				<polygon class="st177" points="2410.4,1989 2358,1989 2358,1937.6 2358,1896.2 2410.4,1896.2 				"/>
				<polygon class="st177" points="2165.1,2050.5 2358,1937.6 2358,1989 2219.7,2050.5 2219.7,2061.7 2165.1,2061.7 				"/>
				<polygon class="st177" points="2603.3,2050.5 2410.4,1937.6 2410.4,1989 2548.7,2050.5 2548.7,2061.7 2603.3,2061.7 				"/>
				<polygon class="st177" points="2366.6,1937.6 2366.6,2061.7 2353.7,2061.7 2353.7,2070.5 2410.4,2070.5 2410.4,2061.7 
					2398.4,2061.7 2402.1,1937.6 				"/>
			</g>
		</g>
		<rect x="2357.9" y="1560.8" class="st104" width="52" height="39.7"/>
	</g>
	<path class="st107" d="M2609,1560.8h-449.6l0,0c0-27.8,22.6-50.4,50.4-50.4h348.9C2586.5,1510.4,2609,1533,2609,1560.8L2609,1560.8
		z"/>
	<path class="st144" d="M2336.9,956.6c0,0,72.3,28.8,105.9,2.2l10.1,23.3c0,0-11.5,20.1-58,23.7c-46.5,3.5-69.2-29.4-69.2-29.4
		L2336.9,956.6z"/>
	<path class="st163" d="M2346.6,844c0,0-16.6-12.6-16.6-3.3c0,9.3-1.9,42.2,13.7,33C2359.3,864.5,2346.6,844,2346.6,844z"/>
	<path class="st178" d="M2365.7,752.1c0,0-31.4-10.3-40,21.6c-8.7,31.9,14.3,64.7,14.3,80.6c0,15.9,8.6,34.2,23.5,49.2
		c15,15,50,30.6,50,30.6s38.9-24.1,52.2-50.6c13.3-26.5,5.3-44.2,10.6-84.1c5.3-39.8-21.9-53.1-33.5-53.1
		C2431.2,746.4,2391.4,703.1,2365.7,752.1z"/>
	<polygon class="st108" points="2619.1,1377.6 2486.8,1337.8 2484.3,1372.2 2573.4,1392.1 2551.7,1512 2577,1513.9 	"/>
	<path class="st138" d="M2069.2,913c0-9.7-7.6-12.7-17.1-14.8c-32.2-7.2-73.7-8.5-70.7,2.7c3.9,14.6,34.9,34.7,55.9,34.7
		c21,0,31-17.2,31-17.2L2069.2,913z"/>
	<path class="st112" d="M2045.3,867.5l6.8,77.6c0,0-28.2,14-63.4-2.4l14-127.3L2045.3,867.5z"/>
	<path class="st111" d="M2045.3,867.5l2.9,33.4c-3.2-0.1-6.4-1-9.7-2.8c-27-14.5-31-54.6-31.5-77.4L2045.3,867.5z"/>
	<path class="st112" d="M2094,733.8c0,0,12.4,9.7,15.2,27.3c2.8,17.6-9,37.3-9,52.1c0,14.8-27.5,85.3-61.7,68.7
		c-34.2-16.7-31.5-70.3-31.5-82.4c0-12,16.7-53.7,37-63.4C2064.4,726.4,2094,733.8,2094,733.8z"/>
	<path class="st5" d="M2043.9,849.6c10.4,4.4,15.1,8.8,28.7,8.2C2062.2,861.5,2049.9,857.2,2043.9,849.6z"/>
	<path class="st179" d="M2094,733.8c0,0,12.4,9.7,15.2,27.3c2.8,17.6,5.6,49.4-9,52.1c-8.4,1.6-37.7-46.9-29.4-82.1
		C2083.6,731.2,2094,733.8,2094,733.8z"/>
	<path class="st140" d="M1981.4,900.9l-8.6,38c9.8,15.4,60,94.3,73.3,115.5c8.2,13.2,17.7-75.8,23-141.4
		C2032.4,924.6,2011.9,930.4,1981.4,900.9z"/>
	<path class="st112" d="M3124.9,796.8c0,0-0.7,27.5,6,27.5c6.6,0,21.2-15.6,18.7-32.2C3147.2,775.6,3127.9,777.6,3124.9,796.8z"/>
	<path class="st111" d="M3129.6,793.8c0,0-3.3,10.9,1.7,15.9c5,5,14.6-7,9.3-15.9C3135.2,784.9,3130.6,787.5,3129.6,793.8z"/>
	<path class="st165" d="M3053.3,880.9c0,0-2.2,10.8-2.2,17c0,6.2,15.5,13.1,29.4,9.1c13.9-4,33.3-13.2,38.1-17.9
		c4.7-4.8,8.6-69,8.6-69l-12.6-2.4c0,0-6.2,41.9-11.4,47.1C3097.9,870,3053.3,880.9,3053.3,880.9z"/>
	<path class="st165" d="M3017.3,729.8c-0.3,2.3,2.1,6.3,3.4,8.2c7.3,9.5,21.6,10.9,31.1,12.1c-1.3,0.1-14,2.5-24.7-0.5
		c-11.5-3-18.4-10.6-20.4-18.3L3017.3,729.8z"/>
	<path class="st180" d="M1385.9,1918.6c-5.8,0-10-21.7-11.8-33.4c-2.4,3.1-4.8,5.7-7.9,8.8c-11.4,11.4-6.2,39.5,0,45.8
		c6.2,6.2,54.2-6.4,59.7-25.3c0.8-2.7,1.7-5.9,2.7-9.5C1416.3,1909.7,1391.8,1918.6,1385.9,1918.6z"/>
	<path class="st180" d="M1487.4,1776.2c0,0-17.4,28.9-17.4,42.5c0,13.6,8.7,90.2,8.7,90.2l11.7,0.4c0,0-8.6-52.4-1.2-54.3
		c7.4-1.9,19.3,69.7,19.3,69.7l60.2,4.1c0,0,1-19.9-17.4-34.1c-18.4-14.2-19.3-9.5-28.2-39.7
		C1514.3,1824.8,1487.4,1776.2,1487.4,1776.2z"/>
	<path class="st130" d="M1474.5,1434.9c0,0-1.4,20.3,4.6,26.3c6,6,35.1,2.2,35.1-13.1C1514.2,1432.7,1483.5,1425.9,1474.5,1434.9z"
		/>
	<path class="st130" d="M2078.5,1390.2c-23.6,9.1,5.3,35.4,23.9,32.3C2121,1419.4,2107.7,1379,2078.5,1390.2z"/>
	<path class="st130" d="M2010.4,1380.1c0,0-10.3-9.9-31.5-7.1c-21.2,2.9,15.1,39,31.9,35C2027.6,1404,2010.4,1380.1,2010.4,1380.1z"
		/>
	<path class="st130" d="M1846.8,1252c8.7-0.9,18.6-0.7,18.6,4.9c0,9.9-31.2,17.3-31.2,9.3C1834.4,1265.7,1834.6,1253.3,1846.8,1252z
		"/>
	<path class="st112" d="M1444.5,1158.7c0,0-3.2-29.8-6.8-33.8c-3.7-4-35.7-43.8-39.7-39.4c-4,4.4,23.7,35.7,23.7,35.7
		s-32.7-30.7-34.5-23.7c-1.8,7,30.1,36.4,30.1,36.4s-33.5-25.5-33.5-20c0,0,31.4,32.9,32.5,34.1c1.1,1.2,4,17.7,4,17.7
		L1444.5,1158.7z"/>
	<path class="st112" d="M1419.7,1089.5c0,0,15.5,7.3,15.5,13.1c0,5.8,4.7,33.3,4.7,33.3l-13.3-5.7l2.6-24.6
		C1429.2,1105.7,1414.4,1089.5,1419.7,1089.5z"/>
	<path class="st181" d="M1532.7,698.2c-19.2,2.2-49.6-2.5-63.8,28.9c-8.4,17.8-25.5,52.1-25.5,113.1c0,90.9-87.7,131.1-87.7,131.1
		l38.4,18.6l22.9-18.6l-15.7,33.4l63,6.3l2.7-43.5l13,49.5l29.4-6c0,0-11.6-148.7-12.9-204.9c0.2,0.2,0.3,0.4,0.3,0.4
		s-0.3-7.2-0.3-16.5c0,0,0,0,0-0.1c0.2-2.7,0.2-5.5,0.1-8.4c0.2-8.9,0.6-18.3,1.8-24.6c2.8-15.4,8.5-23.2,22.3-29.8
		c13.8-6.6,63.2,12.2,63.2,12.2C1582.3,710.6,1551.9,696,1532.7,698.2z"/>
	<path class="st182" d="M1558.4,703.4c24.2,5.3,31.5,42.5,51.2,62.3c19.8,19.8,14.7,48.3,5.3,67.1c-9.4,18.8-24.5,6.6-24.5,6.6
		s7.9,4.4,12.9-11.3c5-15.7-3.8-27.9-30.4-36.7c-26.7-8.8-52.1-64.3-52.1-64.3C1520.1,716.2,1534.2,698,1558.4,703.4z"/>
	<path class="st183" d="M1590.4,839.4c9.2,5.3,22.1-17.1,12.7-31.7c-6.9-11.3-21.9-16.1-33.9-21.1c-19-10.9-37.3-41.1-48.4-59.5
		c8,22,25.1,52.5,45.6,64.6l4.9,2.1c5.1,2,20.5,6.2,28,16.3c6,7.9,3.1,20.2-0.8,26C1596.8,838.6,1593.7,840.5,1590.4,839.4z"/>
	<path class="st112" d="M1502,809.2c0,0-6.7-29.1-17.9-22.1c-11.2,7,0.8,39.3,11.2,39.3C1505.8,826.4,1502,809.2,1502,809.2z"/>
	<path class="st111" d="M1491.1,793.3c0,0,16.5,26.5,5.2,23.6C1485,813.9,1480.5,788.4,1491.1,793.3z"/>
	<path class="st184" d="M2096.3,735.6c27.4,6.9,38.2,33.7,24.5,54.4c-2.3,3.5-5.5,6.8-9.6,7.1v-5.9c1.5,0.3,4.5-3,5.4-4.2
		C2130.3,769.5,2121.9,744.1,2096.3,735.6z"/>
	<path class="st185" d="M2076.2,716.9c0,0,19.3,0.1,33.5,14.3c14.2,14.2,9.9,70.2,0,78.5c-9.9,8.3,25.3,16.2,4.2,16.2
		C2092.7,825.8,2057.3,718.8,2076.2,716.9z"/>
	<path class="st185" d="M2100.7,742.6c0.3-1-10.8-31-38.1-35.4c-32.7-5.3-71.3,19-83.1,51.9c-11.8,33-22.4,70.6-54.7,79.9
		c-32.3,9.4-38.2,56.9-28.1,86.8c10.1,29.8,40.9,22.2,40.9,22.2s-18.9-16.5-13.9-21.5c0,0,14.4,27.9,30.7,22.4
		c16.3-5.6,22.9-14.6,22.9-14.6s-28.1-4.3-9.6-19.9c12.9-10.9,19.4-20.8,34.7-39.2c14.6-17.6,7-64.7,19.7-98.5c1.6,1.3,4.1,2.6,8,3
		c17.3,1.8,9.4-10.8,25.9-29.6C2084.2,734.1,2098.8,742.7,2100.7,742.6z"/>
	<path class="st184" d="M1987.3,780c4.5,12.7,7.6,29.4,7,42.5c-2.1,41.6-46.3,19.9-58.5,20.8c-7.5,0.3-14,7.3-11.2,16.6
		c2.2,7.7,7.2,10.1,9.8,13.2c3.9,4.8,1.9,10.4-2.7,12.6c-9.1,4.6-20.3-5.8-24,6.6c-2.8,8.6-0.1,18.8,6.7,25.5
		c-7.7-5.7-11.6-16.4-9.5-26.3c2.2-10.1,9.3-9.7,19-9c6,0.4,8.2-2.5,7.7-4.3c-0.4-3.6-8.7-5-12.3-16.7c-2.9-8.4,0.4-17.4,8.2-21.8
		c20.2-11.7,65.4,30.4,63.5-31.5C1990.6,798.8,1989.2,789.4,1987.3,780z"/>
	<path class="st112" d="M2025,788.7c0,0,0.7-16-7.7-14.7c-8.3,1.4-14.2,12.3-10.1,23C2011.3,807.7,2026.2,803,2025,788.7z"/>
	<path class="st111" d="M2021.8,791.2c0,0,1.1-9.8-2.5-10.7c-3.7-0.9-7.5,6.8-6.7,11.8C2013.3,797.4,2021.2,797.1,2021.8,791.2z"/>
</g>
<g id="Layer_4">
</g>
<g id="Layer_5">
</g>
</svg>
