<?xml version="1.0" encoding="utf-8"?>
<!-- Generator: Adobe Illustrator 25.1.0, SVG Export Plug-In . SVG Version: 6.00 Build 0)  -->
<svg version="1.1" xmlns="http://www.w3.org/2000/svg" xmlns:xlink="http://www.w3.org/1999/xlink" x="0px" y="0px"
	 viewBox="0 0 3973.6 2049.7" style="enable-background:new 0 0 3973.6 2049.7;" xml:space="preserve">
<style type="text/css">
	.st0{fill:#EBF3FA;}
	.st1{fill:#B0D4FF;}
	.st2{fill:#95C0F4;}
	.st3{fill:#CAE5FF;}
	.st4{fill:#DFEDFB;}
	.st5{fill:#FFFFFF;}
	.st6{fill:#FFA412;}
	.st7{fill:#EEF6FF;}
	.st8{fill:#78ACEA;}
	.st9{fill:#BAE8E3;}
	.st10{fill:#A1D6CE;}
	.st11{fill:#F99746;}
	.st12{fill:#C0D8FB;}
	.st13{fill:#DFEBFD;}
	.st14{fill:#B7D3F3;}
	.st15{fill:#FFB27D;}
	.st16{fill:#233862;}
	.st17{fill:#A9453D;}
	.st18{fill:#ED975D;}
	.st19{fill:#2A4E96;}
	.st20{fill:#5F9AA8;}
	.st21{fill:#1E3D70;}
	.st22{fill:#ED7D2B;}
	.st23{fill:#163560;}
	.st24{fill:#B0D0FF;}
	.st25{fill:#98BAF4;}
	.st26{fill:#E8945B;}
	.st27{fill:#F2CCAA;}
	.st28{fill:#B5453C;}
	.st29{fill:#2B478B;}
	.st30{fill:#EBF3FF;}
	.st31{fill:#213F7A;}
	.st32{fill:#E2915A;}
	.st33{fill:#2E3552;}
	.st34{fill:#B4A3C6;}
	.st35{fill:#ADBCC9;}
	.st36{fill:#BAC6D3;}
	.st37{fill:#D0DAE2;}
	.st38{opacity:0.6;fill:#FFFFFF;}
	.st39{opacity:0.75;fill:#FFFFFF;}
	.st40{opacity:0.85;fill:#FFFFFF;}
	.st41{opacity:0.63;fill:#FFFFFF;}
	.st42{fill-rule:evenodd;clip-rule:evenodd;fill:#FFFFFF;}
	.st43{fill:#282626;}
	.st44{fill:#151823;}
	.st45{fill:#282A35;}
	.st46{fill:#102B8C;}
	.st47{fill:#2A4FC6;}
	.st48{fill:#DBB2A5;}
	.st49{fill:#BA784A;}
	.st50{fill:#A0593A;}
	.st51{fill:#CC9987;}
	.st52{opacity:0.8;fill:#FFFFFF;}
	.st53{opacity:0.8;}
	.st54{opacity:0.84;}
	.st55{opacity:0.55;}
	.st56{opacity:0.54;}
	.st57{opacity:0.64;fill:#FFFFFF;}
	.st58{fill:#C3CED8;}
	.st59{fill:#DDE8F2;}
	.st60{fill:#E64A00;}
	.st61{opacity:0.74;fill:#FF781D;}
	.st62{fill:#DBA697;}
	.st63{fill:#992C75;}
	.st64{fill:#E5BFB5;}
	.st65{fill:url(#SVGID_1_);}
	.st66{fill:#7F1C5C;}
	.st67{fill:url(#SVGID_2_);}
	.st68{fill:#3D0C04;}
	.st69{fill:#59140A;}
	.st70{opacity:0.38;fill:#FFFFFF;}
	.st71{opacity:0.5;}
	.st72{opacity:0.68;fill:#FFFFFF;}
	.st73{opacity:0.37;}
	.st74{opacity:0.94;fill:#FFFFFF;}
	.st75{opacity:0.25;fill:#FFFFFF;}
	.st76{opacity:0.88;}
	.st77{opacity:0.62;}
	.st78{opacity:0.59;fill:#FFFFFF;}
	.st79{fill:#CFD9E2;}
	.st80{fill:#C7D3E0;}
	.st81{fill:#96A6BC;}
	.st82{fill:url(#SVGID_3_);}
	.st83{fill:#66BCF7;}
	.st84{fill:url(#SVGID_4_);}
	.st85{opacity:0.7;fill:url(#SVGID_5_);}
	.st86{fill:#A3CCE2;}
	.st87{fill:#8ACDFF;}
	.st88{fill:#D1203D;}
	.st89{fill:#AA0031;}
	.st90{fill:url(#SVGID_6_);}
	.st91{fill:#DCE1E5;}
	.st92{fill:#D19D90;}
	.st93{fill:#FF781D;}
	.st94{opacity:0.42;fill:#C7D3E0;}
	.st95{fill:url(#SVGID_7_);}
	.st96{fill:#AF664B;}
	.st97{fill:#BF845C;}
	.st98{opacity:0.36;fill:#FFFFFF;}
	.st99{opacity:0.37;fill:#FFFFFF;}
	.st100{fill:url(#SVGID_8_);}
	.st101{fill:url(#SVGID_9_);}
	.st102{fill:#468BB7;}
	.st103{fill:#743064;}
	.st104{fill:#303030;}
	.st105{fill:#56585E;}
	.st106{fill:#0A2126;}
	.st107{fill:#004555;}
	.st108{fill:#1E0C00;}
	.st109{fill:#0089A9;}
	.st110{fill:#3C1047;}
	.st111{fill:#F7D3B0;}
	.st112{fill:#FFE0BC;}
	.st113{fill:#AF9BE2;}
	.st114{fill:#CFC3EE;}
	.st115{fill:#8475AA;}
	.st116{fill:url(#SVGID_10_);}
	.st117{fill:#F8F0A1;}
	.st118{fill:#6B9FC5;}
	.st119{fill:url(#SVGID_11_);}
	.st120{fill:#290096;}
	.st121{fill:#F1ECFF;}
	.st122{fill:#D7CEEE;}
	.st123{fill:#FFE5A0;}
	.st124{fill:#FFFCED;}
	.st125{fill:#ECB2CD;}
	.st126{fill:#002B32;}
	.st127{fill:#746C87;}
	.st128{fill:#2E0A29;}
	.st129{fill:#001542;}
	.st130{fill:#FFCDA4;}
	.st131{fill:#4D475B;}
	.st132{fill:#998DB6;}
	.st133{fill:#703C6A;}
	.st134{fill:#47003F;}
	.st135{fill:#060032;}
	.st136{fill:#482044;}
	.st137{fill:#F7D4B2;}
	.st138{fill:#4B2847;}
	.st139{fill:#99CEDC;}
	.st140{fill:#95508D;}
	.st141{fill:#CEF2FA;}
	.st142{fill:#5DB9F4;}
	.st143{fill:#00485C;}
	.st144{fill:#333A6A;}
	.st145{fill:#47405C;}
	.st146{fill:#5F557B;}
	.st147{fill:#C3EDF4;}
	.st148{fill:#363A68;}
	.st149{fill:#260E0D;}
	.st150{fill:#2F1954;}
	.st151{fill:#0E0E0E;}
	.st152{fill:#F1A97E;}
	.st153{fill:#121841;}
	.st154{fill:#555DA2;}
	.st155{fill:#777EB5;}
	.st156{fill:#1E3340;}
	.st157{fill:#EEF1F9;}
	.st158{fill:#403003;}
	.st159{fill:#4C3D65;}
	.st160{fill:#554004;}
	.st161{fill:#322844;}
	.st162{fill:#000945;}
	.st163{fill:#FFD5B3;}
	.st164{fill:#98B0BF;}
	.st165{fill:#2D1175;}
	.st166{fill:#CAEBFF;}
	.st167{fill:#C33EA4;}
	.st168{fill:#7F71A4;}
	.st169{fill:#B2AAC8;}
	.st170{fill:#0A6980;}
	.st171{fill:#084F60;}
	.st172{fill:#D4C5F6;}
	.st173{fill:#313B3D;}
	.st174{fill:url(#SVGID_12_);}
	.st175{fill:#339CB4;}
	.st176{fill:#666E9E;}
	.st177{fill:#371C45;}
	.st178{fill:#F66D75;}
	.st179{fill:#170053;}
	.st180{opacity:0.53;fill:#FD5E5A;}
	.st181{fill:#322554;}
	.st182{fill:#FFBB78;}
	.st183{fill:#1B2B80;}
	.st184{fill:#2F499F;}
	.st185{fill:#023135;}
	.st186{fill:#560D68;}
	.st187{fill:#510B5E;}
	.st188{fill:#CEF794;}
	.st189{fill:#7BD3E0;}
	.st190{fill:#B3EEFF;}
	.st191{opacity:0.7;fill:#7BD3E0;}
	.st192{fill:#99DFED;}
	.st193{fill:#D5F8FF;}
	.st194{fill:#1A5C60;}
	.st195{fill:#F77967;}
	.st196{fill:#25767F;}
	.st197{fill:#1F4E54;}
	.st198{fill:#DD5444;}
	.st199{fill:#275962;}
	.st200{fill:#318796;}
	.st201{fill:#70BCE2;}
	.st202{fill:#FF9E85;}
	.st203{fill:#E87558;}
	.st204{fill:#D7F4FC;}
	.st205{fill:#92CEF4;}
	.st206{fill:#C4F5FF;}
	.st207{fill:#ECFAF9;}
	.st208{fill:#F97B51;}
	.st209{fill:#184449;}
	.st210{fill:#ED7D60;}
	.st211{fill:#77B4E5;}
	.st212{fill:#FC8F74;}
	.st213{fill:#317A8B;}
	.st214{fill:#EF6B45;}
	.st215{fill:#A5E0FF;}
	.st216{fill:#1B484C;}
	.st217{fill:#304752;}
	.st218{fill:#C6E4FF;}
	.st219{fill:#13B789;}
	.st220{opacity:0.6;}
	.st221{fill:#008E5D;}
	.st222{fill:#009B00;}
	.st223{opacity:0.4;fill:#FFFFFF;}
	.st224{fill:#B1EDB7;}
	.st225{fill:#EB4A78;}
	.st226{fill:#68396B;}
	.st227{fill:#F69EA7;}
	.st228{opacity:0.32;fill:#F69EA7;}
	.st229{fill:none;}
	.st230{fill:#3B89C4;}
	.st231{fill:url(#SVGID_13_);}
	.st232{fill:#DB857D;}
	.st233{fill:none;stroke:#FFFFFF;stroke-width:0.7412;stroke-miterlimit:10;}
	.st234{fill:url(#SVGID_14_);}
	.st235{fill:url(#SVGID_15_);}
	.st236{fill:url(#SVGID_16_);}
	.st237{fill:url(#SVGID_17_);}
	.st238{fill:url(#SVGID_18_);}
	.st239{fill:url(#SVGID_19_);}
	.st240{fill:url(#SVGID_20_);}
	.st241{fill:url(#SVGID_21_);}
	.st242{fill:url(#SVGID_22_);}
	.st243{fill:url(#SVGID_23_);}
	.st244{fill:url(#SVGID_24_);}
	.st245{fill:url(#SVGID_25_);}
	.st246{fill:url(#SVGID_26_);}
	.st247{fill:url(#SVGID_27_);}
	.st248{opacity:0.49;fill:#E6E6E6;}
	.st249{fill:#F0F0F0;}
	.st250{fill:url(#SVGID_28_);}
	.st251{fill:#C7C7C7;}
	.st252{fill:#482C3B;}
	.st253{fill:#A6AEBA;}
	.st254{fill:#D2DCEB;}
	.st255{fill:#D0DFE1;}
	.st256{fill:#B0BEBF;}
	.st257{fill:#0B5A70;}
	.st258{fill:#8B4200;}
	.st259{fill:none;stroke:#482C3B;stroke-width:0.25;stroke-miterlimit:10;}
	.st260{fill:#FFD04D;}
	.st261{fill:#B56537;}
	.st262{fill:#E4DDD7;}
	.st263{fill:#133A50;}
	.st264{fill:#364469;}
	.st265{fill:#E9F2F4;}
	.st266{fill:none;stroke:#AEBFDE;stroke-width:0.25;stroke-miterlimit:10;}
	.st267{fill:#97A3CC;}
	.st268{fill:url(#_Path_3_1_);}
	.st269{fill:#DBDBDB;}
	.st270{fill:none;stroke:#E9F2F4;stroke-miterlimit:10;}
	.st271{fill:#00A0B4;}
</style>
<g id="Слой_1">
</g>
<g id="Layer_3">
</g>
<g id="Layer_2">
	<linearGradient id="SVGID_1_" gradientUnits="userSpaceOnUse" x1="3969.4902" y1="1594.8567" x2="165.8069" y2="830.9033">
		<stop  offset="0" style="stop-color:#00BFC2"/>
		<stop  offset="0.489" style="stop-color:#00BDC4"/>
		<stop  offset="0.665" style="stop-color:#00B6C9"/>
		<stop  offset="0.8794" style="stop-color:#00ABD4"/>
		<stop  offset="0.9456" style="stop-color:#009AE2"/>
		<stop  offset="1" style="stop-color:#0084F5"/>
	</linearGradient>
	<path class="st65" d="M150.1,2049.9c0.2,0.1,3682.2-0.5,3682.2-0.5c121.2-258.6,121-384.9,134.8-533.1
		c76.2-819.2-540.8-945.1-721.6-979.3C2692.1,432.5,2944-85,1501.8,12.1C1369.7,21,1058,92.8,950.6,139.4
		C875.3,172,591.4,317.9,508.2,564.8c-26.3,77.9-32.6,165.9-6.1,263.5c93.9,345.5-150.8,325.7-329.6,490.3
		C-66.2,1538.5-41.3,1897.9,150.1,2049.9z"/>
	<path class="st102" d="M3106.2,1676.4c0,40.6-533.9,73.5-1192.6,73.5S721,1716.9,721,1676.4c0-40.6,533.9-73.5,1192.6-73.5
		S3106.2,1635.8,3106.2,1676.4z"/>
	<rect x="2670.1" y="1026.4" class="st103" width="22.1" height="649.8"/>
	<g>
		<g>
			<rect x="1944.4" y="1225.7" class="st104" width="46.3" height="63.8"/>
			<g>
				<g>
					<rect x="1946.5" y="1243.1" class="st105" width="40.3" height="309.9"/>
				</g>
				<g>
					<polygon class="st106" points="2186.1,1611.7 1993.2,1508.9 1993.2,1555.7 2131.5,1611.7 2131.5,1622 2186.1,1622 					"/>
					<polygon class="st106" points="1993.2,1555.7 1940.8,1555.7 1940.8,1508.9 1940.8,1471.1 1993.2,1471.1 					"/>
					<polygon class="st106" points="1747.9,1611.7 1940.8,1508.9 1940.8,1555.7 1802.5,1611.7 1802.5,1622 1747.9,1622 					"/>
					<polygon class="st106" points="1949.4,1508.9 1949.4,1622 1936.5,1622 1936.5,1630 1993.2,1630 1993.2,1622 1981.2,1622 
						1984.9,1508.9 					"/>
				</g>
			</g>
		</g>
		<g>
			<path class="st107" d="M2051.4,1069.5h-191.8l-52.7-326.2c-9.5-58.6,35.8-111.7,95.1-111.7H2009c59.4,0,104.6,53.1,95.1,111.7
				L2051.4,1069.5z"/>
			<polygon class="st108" points="1833.5,907.7 1754.8,938.9 1803.1,1140.3 1824.3,1137.2 1801.1,961.7 1842.9,943.7 			"/>
			<polygon class="st108" points="2072.4,907.7 2139.7,954.4 2128.5,1150.7 2101.3,1145.7 2110.9,976.4 2056.9,944.7 			"/>
			<path class="st109" d="M2160,1172.7h-358.9v-35.6h323.3C2144.1,1137.2,2160,1153.1,2160,1172.7L2160,1172.7z"/>
		</g>
	</g>
	<path class="st110" d="M2040.5,497.9c0,0-7.6,85.1,15.8,108.5c23.4,23.4,26.8,22.8,34.9,20.5c0,0-5.4,14.4-20.3,15.4
		c-1,0.1-2.1,0.1-3.2,0c-17.3-1.1,1.4,13.1,10.4,16.2c9,3.2-18,6.8-37,2.3c-11.7-2.8-133-1.3-151.9-18.1
		c-11.8-10.5,39.8-62.9,42.2-89.3C1937.6,484.7,2040.5,497.9,2040.5,497.9z"/>
	<path class="st111" d="M2284.7,490.6c0,0-11.3,23.9-16.3,51.3c-4.9,27.4,2.5,76.1,16.3,96.5c13.7,20.4,15.1,28,27.5,28
		c12.4,0,61.9-21.8,66.4-72.2c4.4-50.4-90.3-103.5-90.3-103.5H2284.7z"/>
	<path class="st112" d="M2796.7,922c0,0-31.8-14.5-41.7-24.4c-9.8-9.8-40.9-35.4-56.6-35.4s-94.3,35.2-83.3,39.2
		c11,4,71.5-14,71.5-14s-70.7,29.1-58.2,34.6c12.6,5.5,51.1-9.4,51.1-9.4s-19.7,9.4-19.7,16.5c0,7.1,28.8-7.1,45.5-7.1
		c16.6,0,60.7,27.5,60.7,27.5L2796.7,922z"/>
	<g>
		<g>
			<path class="st113" d="M2972.2,1354.1c-6,6.3-16.9,10.2-29.2,9.8c-12.3-0.4-22.9-5.2-28.4-11.9c6-6.3,16.9-10.2,29.2-9.8
				C2956.2,1342.7,2966.7,1347.4,2972.2,1354.1z"/>
			<g>
				<path class="st113" d="M3105.8,1610.4c-8.2-56-12-112.6-11-169.1c0.2-28.2,1.8-56.4,4-84.6c2.1-28.1,5.6-56.1,9.5-84.1
					c8-55.8,19.3-111.1,33.3-165.7c7-27.3,14.8-54.4,23.3-81.2c8.5-26.8,17.7-53.5,28.2-79.7l3.3,1.4
					c-10.1,26.1-18.9,52.8-27.1,79.7c-8.2,26.9-15.6,54-22.2,81.2c-13.3,54.6-23.9,109.8-31.1,165.4c-3.6,27.8-6.6,55.7-8.4,83.7
					c-1.9,28-3.1,56-3,84c-0.2,56,4.2,112,13,167.1L3105.8,1610.4z"/>
				<path class="st113" d="M3209.6,833.8c-15.9,9.6-28.7,30-32.2,54.9c-3.5,24.9,3,48,15.7,61.7c16-9.6,28.7-30,32.2-54.9
					C3228.8,870.6,3222.3,847.5,3209.6,833.8z"/>
				<path class="st113" d="M3115.6,919.7c-2,14.4,4.2,32.1,17.7,46.5c13.4,14.3,30.7,21.7,45.2,20.7c2-14.4-4.2-32.1-17.7-46.5
					C3147.4,926,3130.1,918.7,3115.6,919.7z"/>
				<path class="st113" d="M3179.8,994.8c12.2,7.9,30.9,9.8,49.6,3.8c18.7-6.1,32.7-18.6,38-32.1c-12.2-7.9-30.9-9.8-49.6-3.8
					C3199,968.8,3185,981.3,3179.8,994.8z"/>
				<path class="st113" d="M3163,1047.9c12.2,7.9,30.9,9.9,49.6,3.8c18.7-6.1,32.7-18.6,38-32.1c-12.2-7.9-30.9-9.8-49.6-3.8
					C3182.2,1021.9,3168.2,1034.4,3163,1047.9z"/>
				<path class="st113" d="M3143.8,1111.3c12.2,7.9,30.9,9.9,49.6,3.8c18.7-6.1,32.7-18.6,38-32.1c-12.2-7.9-30.9-9.9-49.6-3.8
					C3163.1,1085.2,3149.1,1097.7,3143.8,1111.3z"/>
				<path class="st113" d="M3131,1170.3c12.2,7.9,30.9,9.9,49.6,3.8c18.7-6.1,32.7-18.6,38-32.1c-12.2-7.9-30.9-9.9-49.6-3.8
					C3150.3,1144.2,3136.3,1156.7,3131,1170.3z"/>
				<path class="st113" d="M3136.4,1158.4c-12.2,7.9-30.9,9.8-49.6,3.8c-18.7-6.1-32.7-18.6-38-32.1c12.2-7.9,30.9-9.9,49.6-3.8
					C3117.1,1132.3,3131.1,1144.8,3136.4,1158.4z"/>
				<path class="st113" d="M3098.4,975.8c-2,14.4,4.2,32.1,17.7,46.5c13.4,14.3,30.7,21.7,45.2,20.7c2-14.4-4.2-32.1-17.7-46.5
					C3130.2,982.1,3113,974.8,3098.4,975.8z"/>
				<path class="st113" d="M3078.8,1039.6c-2,14.4,4.2,32.1,17.7,46.5c13.4,14.4,30.7,21.7,45.2,20.7c1.9-14.4-4.2-32.1-17.7-46.5
					C3110.6,1045.9,3093.3,1038.6,3078.8,1039.6z"/>
				<g>
					<path class="st113" d="M3466.1,1093.8c-24.5,13.5-47.4,29.4-69.7,46.2c-22.2,16.8-43.4,35-63.7,54.1
						c-20.3,19.1-39.6,39.3-57.9,60.5c-18.2,21.2-35.2,43.4-51.2,66.3c-31.9,45.9-58.5,95.5-79.9,147.2
						c-20.9,51.9-36.4,106.1-46.2,161.3l11.8,2c8.8-54.5,23.3-108.1,43.2-159.8c20.4-51.4,45.9-100.9,76.8-146.8
						c15.4-23,32-45.3,49.7-66.6c17.8-21.2,36.7-41.6,56.6-61c19.9-19.3,40.7-37.7,62.6-54.9c21.9-17,44.6-33.3,68.6-47
						L3466.1,1093.8z"/>
					<path class="st113" d="M3556.3,1030.8c-1.3,18.6-13.7,39.2-34.3,53.7c-20.6,14.5-44.1,19.2-62.1,14.1
						c1.3-18.6,13.7-39.2,34.3-53.7C3514.9,1030.5,3538.4,1025.8,3556.3,1030.8z"/>
					<path class="st113" d="M3417.7,1015.1c13.8,12.6,22.2,35.1,20.8,60.2c-1.4,25.1-12.4,46.5-27.5,57.4
						c-13.8-12.6-22.2-35.1-20.8-60.2C3391.6,1047.3,3402.6,1026,3417.7,1015.1z"/>
					<path class="st113" d="M3335.9,1056.1c16.6,8.5,30.7,27.9,36,52.5c5.3,24.6,0.4,48.1-11.2,62.7c-16.6-8.5-30.7-27.9-36-52.5
						C3319.3,1094.2,3324.2,1070.7,3335.9,1056.1z"/>
					<path class="st113" d="M3280.7,1106.9c16.6,8.5,30.7,27.9,36,52.5c5.3,24.6,0.4,48.1-11.2,62.7c-16.6-8.5-30.7-27.9-36-52.5
						C3264.1,1145,3269,1121.5,3280.7,1106.9z"/>
					<path class="st113" d="M3217.1,1159.1c18.2,3.9,36.8,19.1,48.3,41.5c11.4,22.4,12.7,46.4,5.2,63.5
						c-18.2-3.9-36.9-19.1-48.3-41.5C3210.9,1200.2,3209.6,1176.2,3217.1,1159.1z"/>
					<path class="st113" d="M3172.4,1224.5c16.6-0.7,36.1,8.2,51.1,25c14.9,16.8,21.5,37.2,18.8,53.7c-16.6,0.7-36.1-8.2-51.1-25
						C3176.2,1261.3,3169.7,1240.9,3172.4,1224.5z"/>
					<path class="st113" d="M3139.9,1265.6c16.6-0.7,36.1,8.2,51.1,25c14.9,16.8,21.4,37.3,18.8,53.7c-16.6,0.7-36.1-8.2-51.1-25
						C3143.7,1302.4,3137.2,1282,3139.9,1265.6z"/>
					<path class="st113" d="M3121.3,1326.2c14.3-0.6,31,7,43.8,21.4c12.8,14.4,18.4,31.9,16.1,46c-14.2,0.6-31-7-43.8-21.4
						C3124.6,1357.8,3119,1340.3,3121.3,1326.2z"/>
					<path class="st113" d="M3103.3,1389.4c10.4-5.9,25.8-6.6,40.9-0.7c15.1,5.8,26.1,16.7,29.8,28c-10.4,5.9-25.8,6.6-40.9,0.7
						C3118.1,1411.5,3107.1,1400.7,3103.3,1389.4z"/>
					<path class="st113" d="M3096.1,1441.5c6.4-7.1,17.9-11.6,30.9-11c13,0.6,24.1,6,29.8,13.6c-6.4,7.1-17.9,11.6-30.9,11
						C3112.9,1454.5,3101.8,1449.1,3096.1,1441.5z"/>
					<path class="st113" d="M3522.1,1169.2c-15.8,9.8-39.8,11.8-63.6,3.6c-23.8-8.2-41.4-24.6-47.8-42.1
						c15.8-9.8,39.8-11.8,63.6-3.6C3498.1,1135.3,3515.7,1151.7,3522.1,1169.2z"/>
					<path class="st113" d="M3471.9,1210.6c-15.8,9.8-39.8,11.8-63.6,3.6c-23.8-8.2-41.4-24.6-47.8-42.1
						c15.8-9.8,39.8-11.8,63.6-3.6C3447.9,1176.7,3465.5,1193.1,3471.9,1210.6z"/>
					<path class="st113" d="M3418.3,1261.5c-15.8,9.8-39.8,11.8-63.6,3.6c-23.8-8.2-41.4-24.6-47.8-42.1
						c15.8-9.8,39.8-11.8,63.6-3.6C3394.3,1227.7,3411.9,1244,3418.3,1261.5z"/>
					<path class="st113" d="M3357.8,1295.5c-12.9,8-32.3,9.6-51.7,2.9c-19.3-6.7-33.6-20-38.8-34.2c12.9-8,32.4-9.6,51.7-2.9
						C3338.4,1267.9,3352.7,1281.2,3357.8,1295.5z"/>
					<path class="st113" d="M3312.6,1327.9c-10.5,6.8-26.3,8.4-42,3c-15.6-5.4-27.1-16.4-31.2-28.3c10.5-6.8,26.3-8.4,42-3
						C3297,1305,3308.5,1316,3312.6,1327.9z"/>
					<path class="st113" d="M3285.5,1369.5c-10.5,6.8-26.3,8.4-42,3c-15.6-5.4-27.1-16.4-31.2-28.3c10.5-6.8,26.3-8.4,42-3
						C3270,1346.6,3281.5,1357.6,3285.5,1369.5z"/>
					<path class="st113" d="M3255.9,1407.2c-8.5,7.3-22.8,10.8-38.2,8.3c-15.3-2.5-27.8-10.3-33.6-19.9c8.5-7.3,22.8-10.8,38.2-8.3
						C3237.6,1389.8,3250.1,1397.6,3255.9,1407.2z"/>
					<path class="st113" d="M3227.2,1454.7c-9.6,2.7-22.4,0.3-33.7-7.5c-11.3-7.7-18.3-18.7-19.2-28.7c9.6-2.7,22.4-0.3,33.7,7.5
						C3219.3,1433.7,3226.3,1444.7,3227.2,1454.7z"/>
					<path class="st113" d="M3195.3,1483c-7.6,0.7-16.9-3-24.3-10.4c-7.4-7.4-11.1-16.7-10.4-24.3c7.6-0.7,16.9,3,24.3,10.4
						C3192.4,1466.2,3196,1475.4,3195.3,1483z"/>
					<path class="st113" d="M3174.2,1490.5c-5,0.8-10.9-1.2-15.4-5.8c-4.5-4.5-6.5-10.4-5.8-15.4c5-0.8,10.9,1.2,15.4,5.8
						C3172.9,1479.6,3174.9,1485.5,3174.2,1490.5z"/>
					<path class="st113" d="M3167.3,1504.5c-5,0.8-10.9-1.2-15.4-5.8c-4.5-4.5-6.5-10.4-5.8-15.4c5-0.8,10.9,1.2,15.4,5.8
						C3166.1,1493.6,3168.1,1499.5,3167.3,1504.5z"/>
				</g>
				<g>
					<path class="st114" d="M2921.9,1046.8c17.5,19.1,32.9,40,47.4,61.3c14.5,21.4,27.7,43.7,39.8,66.6c12.1,22.9,23,46.4,32.8,70.4
						c9.7,24,18,48.6,25.2,73.5c14.3,49.8,22.9,101.3,26.3,153.1c2.9,51.9,0.4,104-7.5,155.4l-11-1.8c8.5-50.5,11.8-101.9,9.7-153.2
						c-2.6-51.2-10.2-102.3-23.7-151.9c-6.7-24.8-14.6-49.3-23.8-73.3c-9.3-24-19.8-47.5-31.5-70.4c-11.7-22.9-24.5-45.3-38.6-66.8
						c-14.1-21.5-29.2-42.5-46.3-61.8L2921.9,1046.8z"/>
					<path class="st114" d="M2861.4,964.6c-4.4,16.7,0.3,38.5,14.1,57.3c13.8,18.9,33.1,30,50.3,30.9c4.4-16.7-0.3-38.5-14.1-57.3
						C2898,976.6,2878.7,965.5,2861.4,964.6z"/>
					<path class="st114" d="M2987.9,992.1c-15.8,6.9-29.9,24.2-36.2,46.7c-6.2,22.5-3,44.5,7,58.6c15.8-6.9,30-24.2,36.2-46.7
						C3001.2,1028.2,2997.9,1006.2,2987.9,992.1z"/>
					<path class="st114" d="M3047.5,1052.6c-17.1,2.5-35.3,15.3-47.3,35.4c-12,20-14.7,42.1-8.8,58.4c17.1-2.5,35.3-15.3,47.3-35.4
						C3050.7,1090.9,3053.4,1068.8,3047.5,1052.6z"/>
					<path class="st114" d="M3080.9,1113.6c-17.1,2.5-35.3,15.3-47.3,35.4c-12,20-14.7,42.2-8.8,58.4c17.1-2.5,35.3-15.3,47.3-35.4
						C3084,1152,3086.8,1129.9,3080.9,1113.6z"/>
					<path class="st114" d="M3121.1,1178.4c-17.2-2-38.1,5.8-54.8,22.1c-16.7,16.3-25,37-23.5,54.2c17.2,2,38.1-5.8,54.8-22.1
						C3114.4,1216.3,3122.7,1195.6,3121.1,1178.4z"/>
					<path class="st114" d="M3141,1249.2c-14.4-5.6-34.2-3.6-52.3,6.7c-18.1,10.3-29.9,26.3-32.5,41.6c14.4,5.6,34.2,3.6,52.3-6.7
						C3126.6,1280.4,3138.4,1264.4,3141,1249.2z"/>
					<path class="st114" d="M3157.2,1294.9c-14.4-5.6-34.2-3.6-52.3,6.7c-18.1,10.3-29.9,26.3-32.5,41.6c14.4,5.6,34.2,3.6,52.3-6.7
						C3142.9,1326.2,3154.7,1310.2,3157.2,1294.9z"/>
					<path class="st114" d="M3155.4,1353.7c-12.3-4.8-29.3-3.1-44.8,5.8c-15.5,8.8-25.7,22.6-27.9,35.6c12.3,4.8,29.3,3.1,44.8-5.8
						C3143.1,1380.5,3153.3,1366.8,3155.4,1353.7z"/>
					<path class="st114" d="M3152.4,1414.6c-7.4-8.2-20.7-13.4-35.7-12.8c-15,0.6-27.9,6.9-34.5,15.7c7.4,8.2,20.7,13.4,35.7,12.8
						C3132.9,1429.7,3145.7,1423.4,3152.4,1414.6z"/>
					<path class="st114" d="M3143.3,1462.5c-3.5-8.1-12.3-15.5-23.8-18.9c-11.6-3.4-22.9-1.9-30.2,3.1c3.5,8.1,12.3,15.5,23.8,18.9
						C3124.6,1469,3136,1467.5,3143.3,1462.5z"/>
					<path class="st114" d="M2850.2,1096.3c11,13.3,31.4,22.2,54.8,22.1c23.3-0.1,43.7-9.3,54.5-22.7c-11-13.3-31.4-22.2-54.8-22.1
						C2881.4,1073.7,2861.1,1082.9,2850.2,1096.3z"/>
					<path class="st114" d="M2882,1147.6c11,13.3,31.4,22.2,54.8,22.1c23.3-0.1,43.7-9.3,54.5-22.7c-11-13.3-31.4-22.2-54.8-22.1
						C2913.2,1125,2892.9,1134.2,2882,1147.6z"/>
					<path class="st114" d="M2913.9,1208.4c11,13.3,31.4,22.2,54.8,22.1c23.4-0.1,43.7-9.3,54.5-22.7c-11-13.3-31.4-22.2-54.8-22.1
						S2924.7,1194.9,2913.9,1208.4z"/>
					<path class="st114" d="M2956.9,1256.2c8.9,10.8,25.5,18.1,44.5,18c19-0.1,35.5-7.5,44.3-18.5c-8.9-10.8-25.6-18.1-44.5-18
						C2982.2,1237.8,2965.7,1245.3,2956.9,1256.2z"/>
					<path class="st114" d="M2987,1298.2c7.2,9.1,20.6,15.2,36,15.1c15.3-0.1,28.7-6.3,35.8-15.5c-7.2-9.1-20.6-15.2-36-15.1
						C3007.4,1282.7,2994.1,1289,2987,1298.2z"/>
					<path class="st114" d="M2998.3,1342.8c7.2,9.1,20.6,15.2,36,15.1c15.3-0.1,28.7-6.3,35.8-15.5c-7.2-9.1-20.6-15.2-36-15.1
						C3018.8,1327.4,3005.4,1333.6,2998.3,1342.8z"/>
					<path class="st114" d="M3013.1,1384.8c5.3,8.9,16.8,16.3,31.1,18.7c14.2,2.4,27.5-0.8,35.5-7.5c-5.3-8.9-16.8-16.3-31.1-18.7
						C3034.4,1374.9,3021.1,1378.1,3013.1,1384.8z"/>
					<path class="st114" d="M3024.1,1435c7.6,5.3,19.6,6.9,31.8,3.5c12.2-3.4,21.6-11,25.4-19.5c-7.6-5.3-19.6-6.9-31.8-3.5
						C3037.3,1419,3027.9,1426.5,3024.1,1435z"/>
					<path class="st114" d="M3043.7,1469.4c6.5,2.9,15.7,2.4,24.4-1.9c8.7-4.3,14.7-11.3,16.4-18.2c-6.5-2.9-15.7-2.4-24.4,1.9
						C3051.3,1455.5,3045.4,1462.5,3043.7,1469.4z"/>
					<path class="st114" d="M3060.1,1482.2c4.2,2.2,9.9,2.2,15.3-0.5c5.3-2.6,8.8-7.2,9.7-11.8c-4.2-2.2-9.9-2.2-15.3,0.5
						C3064.4,1473,3060.9,1477.6,3060.1,1482.2z"/>
					<path class="st114" d="M3061.9,1496.6c4.2,2.2,9.9,2.2,15.3-0.5c5.3-2.6,8.8-7.2,9.7-11.8c-4.2-2.2-9.9-2.2-15.3,0.5
						C3066.2,1487.4,3062.7,1492,3061.9,1496.6z"/>
				</g>
				<g>
					<path class="st115" d="M3292.2,990c-17.8,21.5-33.3,44.7-47.8,68.5c-14.5,23.8-27.5,48.5-39.4,73.8
						c-11.8,25.3-22.4,51.1-31.6,77.5c-9.1,26.4-16.8,53.3-23.3,80.5c-12.8,54.4-19.4,110.3-20.3,166.3c-0.4,56,5.1,112,16.2,167
						l11.7-2.5c-11.8-54-18-109.1-18.5-164.4c0.1-55.3,5.7-110.7,17.5-164.8c5.9-27,13.2-53.8,21.8-80.2
						c8.8-26.3,18.8-52.2,30.2-77.5c11.4-25.3,24-50.1,38.1-74c14.1-23.9,29.2-47.3,46.6-69L3292.2,990z"/>
					<path class="st115" d="M3353,898.2c5.6,17.8,1.7,41.5-12.2,62.5c-13.8,21-34,34-52.6,35.9c-5.6-17.8-1.7-41.5,12.2-62.5
						C3314.3,913.1,3334.5,900.1,3353,898.2z"/>
					<path class="st115" d="M3218.3,934.5c17.4,6.6,33.5,24.5,41.4,48.4c7.9,23.9,5.5,47.8-4.5,63.5c-17.4-6.6-33.5-24.5-41.4-48.4
						C3205.9,974.1,3208.3,950.2,3218.3,934.5z"/>
					<path class="st115" d="M3157.3,1002.7c18.5,1.8,38.8,14.6,52.8,35.6c14,20.9,18.1,44.6,12.6,62.4
						c-18.5-1.8-38.8-14.7-52.8-35.6C3155.9,1044.2,3151.8,1020.5,3157.3,1002.7z"/>
					<path class="st115" d="M3124.5,1070.2c18.5,1.8,38.8,14.6,52.8,35.6c14,20.9,18.1,44.6,12.6,62.4
						c-18.5-1.8-38.8-14.7-52.8-35.6C3123.1,1111.7,3119.1,1088,3124.5,1070.2z"/>
					<path class="st115" d="M3084.6,1142.1c18.4-3,41.3,4.2,60.1,20.9c18.9,16.7,28.9,38.5,28.1,57.1c-18.4,3-41.3-4.2-60.1-20.9
						C3093.8,1182.6,3083.8,1160.7,3084.6,1142.1z"/>
					<path class="st115" d="M3067,1219.3c15.2-6.8,36.6-5.6,56.7,4.5c20.1,10.2,33.6,26.8,37.2,43c-15.2,6.8-36.6,5.6-56.7-4.5
						C3084.1,1252.2,3070.5,1235.6,3067,1219.3z"/>
					<path class="st115" d="M3051.8,1269.5c15.2-6.8,36.6-5.6,56.7,4.5c20.1,10.2,33.6,26.8,37.2,43c-15.2,6.8-36.6,5.6-56.7-4.5
						C3068.9,1302.4,3055.4,1285.7,3051.8,1269.5z"/>
					<path class="st115" d="M3056.8,1332.7c13-5.8,31.4-4.8,48.6,3.9c17.2,8.7,28.8,23,31.9,36.9c-13,5.8-31.4,4.8-48.6-3.9
						C3071.5,1360.8,3059.9,1346.6,3056.8,1332.7z"/>
					<path class="st115" d="M3063.3,1398.1c7.5-9.3,21.6-15.6,37.8-15.7c16.2-0.1,30.4,6,38,15.1c-7.5,9.3-21.6,15.6-37.8,15.7
						C3085.1,1413.3,3070.9,1407.2,3063.3,1398.1z"/>
					<path class="st115" d="M3075.7,1449.2c3.3-8.9,12.4-17.3,24.7-21.6c12.3-4.2,24.6-3.2,32.7,1.7c-3.3,8.9-12.4,17.3-24.7,21.6
						C3096.1,1455.2,3083.8,1454.2,3075.7,1449.2z"/>
					<path class="st115" d="M3372,1039.5c-11.1,14.9-32.7,25.6-57.8,26.7c-25.1,1.1-47.5-7.7-59.9-21.6
						c11.1-14.9,32.7-25.6,57.8-26.7C3337.3,1016.8,3359.6,1025.6,3372,1039.5z"/>
					<path class="st115" d="M3340.4,1096.4c-11.1,14.9-32.7,25.6-57.8,26.7c-25.2,1.1-47.5-7.7-59.9-21.6
						c11.1-14.9,32.7-25.6,57.8-26.7C3305.7,1073.7,3328.1,1082.5,3340.4,1096.4z"/>
					<path class="st115" d="M3309.3,1163.5c-11.1,14.9-32.7,25.6-57.8,26.7c-25.1,1.1-47.5-7.7-59.9-21.6
						c11.1-14.9,32.7-25.6,57.8-26.7C3274.6,1140.8,3297,1149.6,3309.3,1163.5z"/>
					<path class="st115" d="M3265.6,1217.3c-9.1,12.1-26.6,20.8-47,21.7c-20.5,0.9-38.6-6.3-48.7-17.6c9.1-12.1,26.6-20.8,47-21.7
						C3237.3,1198.8,3255.5,1205.9,3265.6,1217.3z"/>
					<path class="st115" d="M3235.3,1264c-7.3,10.2-21.4,17.5-38,18.2c-16.5,0.7-31.2-5.3-39.4-14.9c7.3-10.2,21.4-17.5,37.9-18.2
						C3212.5,1248.5,3227.2,1254.5,3235.3,1264z"/>
					<path class="st115" d="M3225.5,1312.7c-7.3,10.2-21.4,17.5-38,18.2c-16.5,0.7-31.2-5.3-39.4-14.9c7.3-10.2,21.4-17.5,37.9-18.2
						C3202.6,1297.1,3217.3,1303.2,3225.5,1312.7z"/>
					<path class="st115" d="M3211.7,1358.6c-5.3,9.9-17.3,18.4-32.5,21.7c-15.2,3.3-29.7,0.6-38.6-6.2c5.3-9.9,17.3-18.4,32.5-21.7
						C3188.3,1349.1,3202.8,1351.9,3211.7,1358.6z"/>
					<path class="st115" d="M3202.5,1413.3c-7.9,6.1-20.7,8.5-34.1,5.4c-13.4-3-23.9-10.7-28.4-19.6c7.9-6.1,20.7-8.5,34.1-5.4
						C3187.5,1396.7,3198,1404.4,3202.5,1413.3z"/>
					<path class="st115" d="M3183.2,1451.4c-6.8,3.4-16.8,3.4-26.4-0.8c-9.6-4.2-16.4-11.4-18.6-18.8c6.8-3.4,16.8-3.4,26.4,0.8
						C3174.3,1436.8,3181.1,1444.1,3183.2,1451.4z"/>
					<path class="st115" d="M3166.3,1466.1c-4.4,2.6-10.6,2.8-16.5,0.3c-5.9-2.6-9.9-7.3-11-12.2c4.4-2.5,10.6-2.8,16.5-0.3
						C3161.1,1456.4,3165.2,1461.1,3166.3,1466.1z"/>
					<path class="st115" d="M3165.1,1481.6c-4.4,2.6-10.6,2.8-16.5,0.3c-5.9-2.6-9.9-7.3-11-12.2c4.4-2.6,10.6-2.8,16.5-0.3
						C3159.9,1471.9,3164,1476.7,3165.1,1481.6z"/>
				</g>
				<g>
					<path class="st113" d="M3033.4,1438.7c-26.3-38.5-54-76.2-83.6-112.3l0.5-0.4c30.3,35.6,58.8,72.7,85.9,110.8
						c27.1,38.1,52.6,77.4,75.6,118.3c5.5,9.9,10.9,19.9,16.1,30c-2,1.1-4.1,2.3-6.1,3.5c-5-10.2-10.2-20.4-15.6-30.4
						C3084.3,1517,3059.6,1477.3,3033.4,1438.7z"/>
					<path class="st113" d="M2920.8,1277.2c9.7,0.9,19.8,7.4,26.1,17.9c6.3,10.6,7.3,22.5,3.6,31.5c-9.7-0.9-19.8-7.4-26.1-17.9
						C2918.1,1298.1,2917.1,1286.2,2920.8,1277.2z"/>
					<path class="st113" d="M2992.9,1299.7c4,7.7,4.2,19.3-0.3,30.8c-4.4,11.5-12.4,19.9-20.5,23c-4-7.7-4.2-19.3,0.3-30.8
						C2976.9,1311.2,2984.8,1302.8,2992.9,1299.7z"/>
					<path class="st113" d="M2995.4,1384.5c-6.6,5.6-17.8,8.5-30,6.8c-12.2-1.7-22.2-7.5-27.1-14.7c6.6-5.6,17.8-8.5,30-6.8
						C2980.5,1371.5,2990.5,1377.3,2995.4,1384.5z"/>
					<path class="st113" d="M3024.5,1422.1c-6.6,5.6-17.8,8.5-30,6.8c-12.2-1.7-22.2-7.5-27.1-14.7c6.6-5.6,17.8-8.5,30-6.8
						C3009.6,1409.1,3019.7,1414.9,3024.5,1422.1z"/>
					<path class="st113" d="M3044.2,1452c-6.6,5.6-17.8,8.5-30,6.8c-12.2-1.7-22.2-7.5-27.1-14.7c6.6-5.6,17.8-8.5,30-6.8
						C3029.4,1439,3039.4,1444.8,3044.2,1452z"/>
					<path class="st113" d="M3066.2,1485c-6.6,5.6-17.8,8.5-30,6.8c-12.2-1.7-22.2-7.5-27.1-14.7c6.6-5.6,17.8-8.5,30-6.8
						C3051.3,1472.1,3061.3,1477.9,3066.2,1485z"/>
					<path class="st113" d="M3018.3,1331.9c4,7.7,4.2,19.3-0.3,30.8c-4.4,11.5-12.4,19.9-20.5,23c-4-7.7-4.2-19.3,0.3-30.8
						C3002.2,1343.4,3010.2,1335,3018.3,1331.9z"/>
					<path class="st113" d="M3042.5,1365.1c4,7.7,4.2,19.3-0.3,30.8c-4.4,11.5-12.4,19.9-20.5,23c-4-7.7-4.2-19.3,0.3-30.8
						C3026.4,1376.6,3034.4,1368.2,3042.5,1365.1z"/>
					<path class="st113" d="M3065.5,1398.6c4,7.7,4.2,19.3-0.3,30.8c-4.4,11.5-12.4,19.9-20.5,23c-4-7.7-4.2-19.3,0.3-30.8
						C3049.5,1410.1,3057.4,1401.6,3065.5,1398.6z"/>
					<path class="st113" d="M3087.9,1431.4c4,7.7,4.2,19.3-0.3,30.8c-4.4,11.5-12.4,19.9-20.5,23c-4-7.7-4.2-19.3,0.3-30.8
						C3071.8,1442.8,3079.8,1434.4,3087.9,1431.4z"/>
				</g>
			</g>
		</g>
		<linearGradient id="SVGID_2_" gradientUnits="userSpaceOnUse" x1="2968.6216" y1="1589.9209" x2="3238.0645" y2="1589.9209">
			<stop  offset="0" style="stop-color:#F24949"/>
			<stop  offset="1" style="stop-color:#FFC16F"/>
		</linearGradient>
		<path class="st67" d="M3016,1527h174.6c29,14.8,47.4,36.9,47.4,61.5c0,26.3-21,49.7-53.4,64.4h-162.6
			c-32.5-14.8-53.4-38.1-53.4-64.4C2968.6,1563.8,2987,1541.8,3016,1527z"/>
		<path class="st117" d="M3032.5,1540.8c-17.2-2-40.3,11-46.2,37.1c-8.1,51.5,43.4,66.6,71.6,53.5c-24.5-6.2-51.3-17.4-52.1-42.7
			c-1.4-13.3,6.5-26,6.6-26.4c1.1-1.6,3.3-5.4,7.4-9.9C3023.4,1547.9,3027.8,1544.3,3032.5,1540.8z"/>
		
			<rect x="3007.9" y="1519.4" transform="matrix(-1 -1.224647e-16 1.224647e-16 -1 6208.6626 3050.9553)" class="st118" width="192.9" height="12.1"/>
	</g>
	<g>
		<g>
			<path class="st113" d="M1038.3,1322.4c-6,6.3-16.9,10.2-29.2,9.8c-12.3-0.5-22.9-5.2-28.4-11.9c6-6.3,16.9-10.2,29.2-9.8
				C1022.2,1311,1032.7,1315.7,1038.3,1322.4z"/>
			<g>
				<path class="st113" d="M1171.9,1579.4c-8.2-56-12-112.6-11-169.1c0.2-28.2,1.8-56.4,4-84.6c2.2-28.1,5.6-56.2,9.5-84.1
					c8-55.8,19.3-111.1,33.3-165.7c7-27.3,14.8-54.4,23.3-81.2c8.5-26.8,17.7-53.5,28.2-79.7l3.3,1.4
					c-10.1,26.1-18.9,52.9-27.1,79.7c-8.1,26.9-15.6,54-22.2,81.2c-13.3,54.5-23.9,109.8-31.1,165.4c-3.5,27.8-6.6,55.7-8.4,83.7
					c-1.9,28-3.1,56-2.9,84c-0.2,56,4.2,112,13,167.2L1171.9,1579.4z"/>
				<path class="st113" d="M1275.7,802.8c-16,9.6-28.7,30-32.2,54.9c-3.5,24.9,3,48,15.7,61.7c15.9-9.6,28.7-30,32.2-54.9
					C1294.9,839.6,1288.3,816.5,1275.7,802.8z"/>
				<path class="st113" d="M1181.7,888.7c-2,14.4,4.2,32.1,17.7,46.5c13.4,14.3,30.7,21.7,45.2,20.7c2-14.4-4.2-32.1-17.7-46.5
					C1213.5,895,1196.2,887.7,1181.7,888.7z"/>
				<path class="st113" d="M1245.8,960.6c12.2,7.9,30.9,9.9,49.6,3.8c18.7-6.1,32.7-18.6,38-32.1c-12.2-7.9-30.9-9.9-49.6-3.8
					C1265.1,934.5,1251.1,947,1245.8,960.6z"/>
				<path class="st113" d="M1229,1016.9c12.2,7.9,30.9,9.9,49.6,3.8c18.7-6.1,32.7-18.6,38-32.1c-12.2-7.9-30.9-9.8-49.6-3.8
					C1248.3,990.9,1234.3,1003.4,1229,1016.9z"/>
				<path class="st113" d="M1209.9,1080.3c12.2,7.9,30.9,9.8,49.6,3.8c18.7-6.1,32.7-18.6,38-32.1c-12.2-7.9-30.9-9.9-49.6-3.8
					C1229.2,1054.2,1215.2,1066.7,1209.9,1080.3z"/>
				<path class="st113" d="M1197.1,1139.3c12.2,7.9,30.9,9.9,49.6,3.8c18.7-6.1,32.7-18.6,38-32.1c-12.2-7.9-30.9-9.8-49.6-3.8
					C1216.3,1113.2,1202.4,1125.7,1197.1,1139.3z"/>
				<path class="st113" d="M1202.4,1127.4c-12.2,7.9-30.9,9.9-49.6,3.8c-18.7-6.1-32.7-18.6-38-32.1c12.2-7.9,30.9-9.8,49.6-3.8
					C1183.2,1101.3,1197.2,1113.8,1202.4,1127.4z"/>
				<path class="st113" d="M1164.5,944.8c-2,14.4,4.2,32.1,17.7,46.5c13.4,14.3,30.7,21.7,45.2,20.7c1.9-14.4-4.2-32.1-17.7-46.5
					C1196.3,951.1,1179,943.8,1164.5,944.8z"/>
				<path class="st113" d="M1144.9,1008.6c-2,14.4,4.2,32.1,17.7,46.5c13.4,14.3,30.7,21.7,45.2,20.7c2-14.4-4.2-32.1-17.7-46.5
					C1176.7,1014.9,1159.4,1007.6,1144.9,1008.6z"/>
				<g>
					<path class="st113" d="M1532.1,1062.8c-24.5,13.5-47.4,29.4-69.7,46.2c-22.2,16.8-43.4,35-63.7,54.1
						c-20.3,19.2-39.6,39.3-57.9,60.5c-18.2,21.2-35.2,43.4-51.2,66.3c-31.9,45.9-58.5,95.5-79.9,147.2
						c-20.9,51.9-36.4,106.1-46.2,161.3l11.8,2c8.8-54.5,23.3-108.1,43.1-159.8c20.4-51.4,45.9-100.9,76.8-146.8
						c15.4-23,32-45.2,49.7-66.6c17.8-21.3,36.7-41.6,56.6-61c19.9-19.3,40.7-37.7,62.6-54.9c21.9-17.1,44.6-33.3,68.6-47.1
						L1532.1,1062.8z"/>
					<path class="st113" d="M1622.4,999.8c-1.3,18.6-13.7,39.2-34.3,53.7c-20.6,14.5-44.1,19.2-62.1,14.1
						c1.3-18.6,13.7-39.2,34.3-53.7C1580.9,999.5,1604.5,994.8,1622.4,999.8z"/>
					<path class="st113" d="M1483.8,984.1c13.8,12.6,22.2,35.1,20.8,60.2c-1.4,25.1-12.4,46.5-27.5,57.4
						c-13.7-12.6-22.2-35.1-20.8-60.2C1457.7,1016.3,1468.7,995,1483.8,984.1z"/>
					<path class="st113" d="M1401.9,1025.1c16.6,8.5,30.7,27.9,36,52.5c5.3,24.6,0.4,48.1-11.2,62.7c-16.6-8.5-30.7-27.9-36-52.5
						C1385.4,1063.2,1390.3,1039.7,1401.9,1025.1z"/>
					<path class="st113" d="M1346.7,1075.9c16.6,8.5,30.7,27.9,36,52.5c5.3,24.6,0.4,48.1-11.2,62.7c-16.6-8.5-30.7-27.9-36-52.5
						C1330.2,1114,1335.1,1090.5,1346.7,1075.9z"/>
					<path class="st113" d="M1283.2,1128.1c18.2,3.9,36.8,19.1,48.3,41.5c11.4,22.4,12.7,46.4,5.2,63.5
						c-18.2-3.9-36.8-19.1-48.3-41.5C1276.9,1169.2,1275.6,1145.2,1283.2,1128.1z"/>
					<path class="st113" d="M1238.4,1193.5c16.6-0.7,36.1,8.2,51.1,25c14.9,16.8,21.4,37.3,18.8,53.7c-16.6,0.7-36.1-8.2-51.1-25
						C1242.3,1230.3,1235.7,1209.9,1238.4,1193.5z"/>
					<path class="st113" d="M1206,1234.6c16.6-0.7,36.1,8.2,51.1,25c14.9,16.8,21.5,37.3,18.8,53.7c-16.6,0.7-36.1-8.2-51.1-25
						C1209.8,1271.4,1203.3,1251,1206,1234.6z"/>
					<path class="st113" d="M1187.4,1295.2c14.3-0.6,31,7,43.8,21.4c12.8,14.4,18.4,31.9,16.1,46c-14.3,0.6-31-7-43.8-21.4
						C1190.7,1326.8,1185.1,1309.3,1187.4,1295.2z"/>
					<path class="st113" d="M1169.4,1358.4c10.4-5.9,25.8-6.6,40.9-0.7c15.1,5.8,26.1,16.7,29.8,28c-10.4,5.9-25.8,6.6-40.9,0.7
						C1184.1,1380.6,1173.2,1369.7,1169.4,1358.4z"/>
					<path class="st113" d="M1162.1,1410.5c6.4-7.1,17.9-11.6,30.9-11c13,0.6,24.1,6,29.8,13.6c-6.4,7.1-17.9,11.6-30.9,11
						C1179,1423.5,1167.9,1418.1,1162.1,1410.5z"/>
					<path class="st113" d="M1588.2,1138.2c-15.8,9.8-39.8,11.8-63.6,3.6s-41.4-24.6-47.8-42.1c15.8-9.8,39.8-11.8,63.6-3.6
						C1564.2,1104.3,1581.8,1120.7,1588.2,1138.2z"/>
					<path class="st113" d="M1537.9,1179.6c-15.8,9.8-39.8,11.8-63.6,3.6c-23.8-8.2-41.4-24.6-47.8-42.1
						c15.8-9.8,39.8-11.8,63.6-3.6C1514,1145.7,1531.5,1162.1,1537.9,1179.6z"/>
					<path class="st113" d="M1484.4,1230.6c-15.8,9.8-39.8,11.8-63.6,3.6c-23.8-8.2-41.4-24.6-47.8-42.1
						c15.8-9.8,39.8-11.8,63.6-3.6C1460.4,1196.7,1478,1213.1,1484.4,1230.6z"/>
					<path class="st113" d="M1423.9,1264.5c-12.9,8-32.4,9.6-51.7,2.9c-19.3-6.7-33.6-20-38.8-34.2c12.9-8,32.4-9.6,51.7-2.9
						C1404.4,1236.9,1418.7,1250.2,1423.9,1264.5z"/>
					<path class="st113" d="M1378.6,1296.9c-10.5,6.8-26.3,8.4-42,3c-15.6-5.4-27.1-16.4-31.2-28.3c10.5-6.8,26.3-8.4,42-3
						C1363.1,1274,1374.6,1285,1378.6,1296.9z"/>
					<path class="st113" d="M1351.6,1338.5c-10.5,6.8-26.3,8.4-42,3c-15.6-5.4-27.1-16.4-31.2-28.3c10.5-6.8,26.3-8.4,42-3
						C1336.1,1315.7,1347.5,1326.7,1351.6,1338.5z"/>
					<path class="st113" d="M1321.9,1376.2c-8.5,7.3-22.8,10.8-38.2,8.3c-15.3-2.5-27.8-10.3-33.6-19.9c8.5-7.3,22.8-10.8,38.2-8.3
						C1303.7,1358.8,1316.1,1366.6,1321.9,1376.2z"/>
					<path class="st113" d="M1293.3,1423.7c-9.6,2.7-22.4,0.3-33.7-7.5c-11.3-7.7-18.3-18.7-19.2-28.7c9.6-2.7,22.4-0.3,33.7,7.5
						C1285.4,1402.7,1292.3,1413.7,1293.3,1423.7z"/>
					<path class="st113" d="M1261.4,1452c-7.6,0.7-16.9-3-24.3-10.4c-7.4-7.4-11.1-16.7-10.4-24.3c7.6-0.7,16.9,3,24.3,10.4
						C1258.4,1435.2,1262.1,1444.4,1261.4,1452z"/>
					<path class="st113" d="M1240.2,1459.5c-5,0.8-10.9-1.2-15.4-5.8c-4.5-4.5-6.5-10.4-5.8-15.4c5-0.8,10.9,1.2,15.4,5.8
						C1239,1448.6,1241,1454.5,1240.2,1459.5z"/>
					<path class="st113" d="M1233.4,1473.5c-5,0.8-10.9-1.2-15.4-5.8c-4.5-4.5-6.5-10.4-5.8-15.4c5-0.8,10.9,1.2,15.4,5.8
						C1232.2,1462.6,1234.2,1468.5,1233.4,1473.5z"/>
				</g>
				<g>
					<path class="st114" d="M988,1015.8c17.5,19.1,32.9,40,47.4,61.3c14.5,21.4,27.7,43.7,39.8,66.5c12.1,22.9,23,46.4,32.8,70.4
						c9.7,24,18,48.6,25.2,73.5c14.3,49.8,22.9,101.3,26.3,153.1c2.9,51.9,0.4,104-7.5,155.4l-11-1.8c8.5-50.5,11.8-101.9,9.7-153.2
						c-2.5-51.2-10.2-102.3-23.7-151.9c-6.7-24.8-14.6-49.3-23.8-73.3c-9.3-24-19.8-47.5-31.5-70.4c-11.7-22.9-24.5-45.3-38.6-66.9
						c-14.1-21.5-29.2-42.5-46.3-61.8L988,1015.8z"/>
					<path class="st114" d="M927.5,933.6c-4.4,16.7,0.3,38.5,14.1,57.3c13.8,18.9,33.1,30,50.3,30.9c4.4-16.7-0.3-38.5-14.1-57.3
						C964,945.6,944.7,934.5,927.5,933.6z"/>
					<path class="st114" d="M1054,961.1c-15.8,6.9-30,24.2-36.2,46.7c-6.2,22.5-3,44.5,7,58.6c15.8-6.9,29.9-24.2,36.2-46.7
						C1067.2,997.2,1064,975.2,1054,961.1z"/>
					<path class="st114" d="M1113.6,1021.6c-17.1,2.5-35.3,15.3-47.3,35.4c-12,20-14.7,42.1-8.8,58.4c17.1-2.5,35.3-15.3,47.3-35.4
						C1116.8,1059.9,1119.5,1037.8,1113.6,1021.6z"/>
					<path class="st114" d="M1146.9,1082.6c-17.1,2.5-35.3,15.3-47.3,35.4c-12,20-14.7,42.1-8.8,58.4c17.1-2.5,35.3-15.3,47.3-35.4
						C1150.1,1121,1152.8,1098.9,1146.9,1082.6z"/>
					<path class="st114" d="M1187.2,1147.4c-17.2-2-38.1,5.8-54.8,22.1c-16.7,16.3-25,37-23.5,54.2c17.2,2,38-5.8,54.8-22.1
						C1180.4,1185.3,1188.7,1164.6,1187.2,1147.4z"/>
					<path class="st114" d="M1207,1218.2c-14.4-5.6-34.2-3.6-52.3,6.7c-18.1,10.3-29.9,26.3-32.5,41.5c14.4,5.6,34.2,3.6,52.3-6.8
						C1192.6,1249.4,1204.5,1233.4,1207,1218.2z"/>
					<path class="st114" d="M1223.3,1263.9c-14.4-5.6-34.2-3.6-52.3,6.7c-18.1,10.3-29.9,26.3-32.5,41.5c14.4,5.6,34.2,3.6,52.3-6.7
						C1208.9,1295.2,1220.7,1279.2,1223.3,1263.9z"/>
					<path class="st114" d="M1221.5,1322.7c-12.3-4.8-29.3-3.1-44.8,5.8c-15.5,8.8-25.7,22.6-27.8,35.6c12.3,4.8,29.3,3.1,44.8-5.8
						C1209.2,1349.5,1219.3,1335.8,1221.5,1322.7z"/>
					<path class="st114" d="M1218.5,1383.6c-7.4-8.2-20.7-13.4-35.7-12.8c-15,0.6-27.9,6.9-34.5,15.7c7.4,8.2,20.7,13.4,35.7,12.8
						C1198.9,1398.7,1211.8,1392.4,1218.5,1383.6z"/>
					<path class="st114" d="M1209.3,1431.5c-3.5-8.1-12.3-15.5-23.8-18.9c-11.6-3.4-22.9-1.9-30.2,3.1c3.5,8.1,12.3,15.5,23.8,18.9
						C1190.6,1438,1202,1436.5,1209.3,1431.5z"/>
					<path class="st114" d="M916.3,1065.3c11,13.3,31.4,22.2,54.8,22.1c23.4-0.1,43.7-9.3,54.5-22.7c-11-13.3-31.4-22.2-54.8-22.1
						C947.4,1042.7,927.1,1051.9,916.3,1065.3z"/>
					<path class="st114" d="M948.1,1116.6c11,13.3,31.4,22.2,54.8,22.1c23.3-0.1,43.7-9.3,54.5-22.7c-11-13.3-31.4-22.2-54.8-22.1
						C979.2,1094,958.9,1103.2,948.1,1116.6z"/>
					<path class="st114" d="M979.9,1177.4c11,13.3,31.4,22.2,54.8,22.1c23.4-0.1,43.7-9.3,54.5-22.7c-11-13.3-31.4-22.2-54.8-22.1
						C1011.1,1154.8,990.8,1163.9,979.9,1177.4z"/>
					<path class="st114" d="M1022.9,1225.2c8.9,10.8,25.5,18.1,44.5,18c19-0.1,35.5-7.5,44.3-18.5c-8.9-10.8-25.5-18.1-44.5-18
						C1048.3,1206.8,1031.7,1214.3,1022.9,1225.2z"/>
					<path class="st114" d="M1053,1267.2c7.2,9.1,20.6,15.2,36,15.1c15.3-0.1,28.7-6.3,35.8-15.5c-7.2-9.1-20.6-15.2-36-15.1
						C1073.5,1251.7,1060.2,1258,1053,1267.2z"/>
					<path class="st114" d="M1064.4,1311.8c7.2,9.1,20.6,15.2,36,15.1c15.3-0.1,28.7-6.3,35.8-15.5c-7.2-9.1-20.6-15.2-36-15.1
						C1084.8,1296.4,1071.5,1302.6,1064.4,1311.8z"/>
					<path class="st114" d="M1079.2,1353.8c5.3,8.9,16.9,16.3,31.1,18.7c14.2,2.4,27.5-0.8,35.5-7.5c-5.3-8.9-16.9-16.3-31.1-18.7
						C1100.4,1343.9,1087.1,1347.1,1079.2,1353.8z"/>
					<path class="st114" d="M1090.2,1404c7.6,5.3,19.6,6.9,31.8,3.5c12.2-3.4,21.6-11,25.4-19.5c-7.6-5.3-19.6-6.9-31.8-3.5
						C1103.4,1388,1094,1395.6,1090.2,1404z"/>
					<path class="st114" d="M1109.8,1438.4c6.5,2.9,15.7,2.4,24.4-1.9c8.7-4.3,14.7-11.3,16.3-18.2c-6.5-2.9-15.7-2.4-24.4,1.9
						C1117.4,1424.5,1111.4,1431.5,1109.8,1438.4z"/>
					<path class="st114" d="M1126.1,1451.3c4.2,2.2,9.9,2.2,15.3-0.5c5.3-2.6,8.8-7.2,9.7-11.8c-4.2-2.2-9.9-2.2-15.3,0.5
						C1130.5,1442,1127,1446.6,1126.1,1451.3z"/>
					<path class="st114" d="M1128,1465.6c4.2,2.2,9.9,2.2,15.3-0.5c5.3-2.6,8.8-7.2,9.7-11.8c-4.2-2.2-9.9-2.2-15.3,0.5
						C1132.3,1456.4,1128.8,1461,1128,1465.6z"/>
				</g>
				<g>
					<path class="st115" d="M1358.3,959c-17.8,21.5-33.3,44.7-47.8,68.5c-14.5,23.8-27.5,48.5-39.4,73.8
						c-11.8,25.3-22.4,51.1-31.6,77.5c-9.1,26.4-16.8,53.3-23.3,80.5c-12.8,54.4-19.4,110.3-20.3,166.3c-0.4,56,5.1,112,16.2,167
						l11.7-2.5c-11.8-54-18-109.1-18.5-164.4c0.1-55.3,5.7-110.7,17.5-164.8c5.9-27.1,13.2-53.8,21.8-80.2
						c8.8-26.3,18.8-52.2,30.2-77.5c11.4-25.3,24-50.1,38.1-74c14.1-23.9,29.2-47.3,46.6-69L1358.3,959z"/>
					<path class="st115" d="M1419.1,867.2c5.6,17.8,1.7,41.5-12.2,62.5c-13.8,21-34,34-52.6,35.9c-5.6-17.8-1.7-41.5,12.2-62.5
						C1380.4,882.1,1400.6,869.1,1419.1,867.2z"/>
					<path class="st115" d="M1284.4,903.5c17.4,6.6,33.5,24.5,41.4,48.4c7.9,23.9,5.5,47.8-4.5,63.5c-17.4-6.6-33.5-24.5-41.4-48.4
						C1272,943.1,1274.3,919.2,1284.4,903.5z"/>
					<path class="st115" d="M1223.3,971.7c18.5,1.8,38.8,14.6,52.8,35.6c14,20.9,18.1,44.6,12.6,62.4c-18.5-1.8-38.8-14.7-52.8-35.6
						C1221.9,1013.2,1217.8,989.5,1223.3,971.7z"/>
					<path class="st115" d="M1190.6,1039.2c18.5,1.8,38.8,14.6,52.8,35.6c14,20.9,18.1,44.6,12.6,62.4
						c-18.6-1.8-38.8-14.6-52.8-35.6C1189.2,1080.7,1185.1,1057,1190.6,1039.2z"/>
					<path class="st115" d="M1150.7,1111.1c18.4-3,41.3,4.2,60.1,20.9c18.9,16.7,28.9,38.5,28.1,57.1c-18.4,3-41.3-4.2-60.1-20.9
						C1159.9,1151.6,1149.9,1129.7,1150.7,1111.1z"/>
					<path class="st115" d="M1133,1188.3c15.2-6.8,36.6-5.6,56.7,4.5c20.1,10.2,33.6,26.8,37.2,43c-15.2,6.8-36.6,5.6-56.7-4.5
						C1150.1,1221.2,1136.6,1204.6,1133,1188.3z"/>
					<path class="st115" d="M1117.9,1238.5c15.2-6.8,36.6-5.6,56.7,4.5c20.1,10.2,33.6,26.8,37.2,43c-15.2,6.8-36.6,5.6-56.7-4.5
						C1135,1271.4,1121.4,1254.7,1117.9,1238.5z"/>
					<path class="st115" d="M1122.9,1301.7c13-5.8,31.4-4.8,48.6,3.9c17.2,8.7,28.8,23,31.9,36.9c-13,5.8-31.4,4.8-48.6-3.9
						C1137.6,1329.8,1125.9,1315.6,1122.9,1301.7z"/>
					<path class="st115" d="M1129.4,1367.1c7.5-9.3,21.6-15.6,37.8-15.7c16.2-0.1,30.4,6,38,15.1c-7.5,9.3-21.6,15.6-37.8,15.7
						C1151.2,1382.3,1137,1376.2,1129.4,1367.1z"/>
					<path class="st115" d="M1141.7,1418.2c3.3-8.9,12.4-17.3,24.7-21.6c12.3-4.2,24.6-3.2,32.7,1.7c-3.3,8.9-12.4,17.3-24.7,21.6
						C1162.2,1424.2,1149.9,1423.2,1141.7,1418.2z"/>
					<path class="st115" d="M1438.1,1008.5c-11.1,14.9-32.7,25.6-57.8,26.7c-25.1,1.1-47.5-7.7-59.9-21.6
						c11.1-14.9,32.7-25.6,57.8-26.7C1403.3,985.8,1425.7,994.6,1438.1,1008.5z"/>
					<path class="st115" d="M1406.5,1065.4c-11.1,14.9-32.7,25.6-57.8,26.7c-25.1,1.1-47.5-7.7-59.9-21.6
						c11.1-14.9,32.7-25.6,57.8-26.7C1371.8,1042.7,1394.1,1051.5,1406.5,1065.4z"/>
					<path class="st115" d="M1375.4,1132.5c-11.1,14.9-32.7,25.6-57.8,26.7c-25.1,1.1-47.5-7.7-59.9-21.6
						c11.1-14.9,32.7-25.6,57.8-26.7C1340.7,1109.8,1363,1118.6,1375.4,1132.5z"/>
					<path class="st115" d="M1331.6,1186.3c-9.1,12.1-26.6,20.8-47,21.7c-20.5,0.9-38.6-6.3-48.7-17.6c9.1-12.1,26.6-20.8,47-21.7
						C1303.4,1167.8,1321.6,1174.9,1331.6,1186.3z"/>
					<path class="st115" d="M1301.4,1233c-7.3,10.2-21.4,17.5-38,18.2c-16.5,0.7-31.2-5.3-39.4-14.9c7.3-10.2,21.4-17.5,38-18.2
						C1278.6,1217.5,1293.3,1223.5,1301.4,1233z"/>
					<path class="st115" d="M1291.5,1281.7c-7.3,10.2-21.4,17.5-38,18.2c-16.5,0.7-31.2-5.3-39.4-14.9c7.3-10.2,21.4-17.5,37.9-18.2
						C1268.7,1266.1,1283.4,1272.2,1291.5,1281.7z"/>
					<path class="st115" d="M1277.8,1327.6c-5.3,9.9-17.3,18.4-32.5,21.7c-15.2,3.3-29.7,0.6-38.6-6.2c5.3-9.9,17.3-18.4,32.5-21.7
						C1254.4,1318.1,1268.9,1320.9,1277.8,1327.6z"/>
					<path class="st115" d="M1268.6,1382.3c-7.9,6.1-20.7,8.5-34.1,5.4c-13.3-3-23.9-10.7-28.4-19.6c7.9-6.1,20.7-8.5,34.1-5.4
						C1253.5,1365.7,1264,1373.4,1268.6,1382.3z"/>
					<path class="st115" d="M1249.3,1420.4c-6.8,3.4-16.8,3.4-26.4-0.7c-9.6-4.2-16.4-11.4-18.6-18.8c6.8-3.4,16.8-3.4,26.4,0.8
						C1240.3,1405.8,1247.1,1413.1,1249.3,1420.4z"/>
					<path class="st115" d="M1232.3,1435.1c-4.4,2.5-10.6,2.8-16.5,0.3c-5.9-2.6-9.9-7.3-11-12.2c4.4-2.6,10.6-2.8,16.5-0.3
						C1227.2,1425.4,1231.2,1430.1,1232.3,1435.1z"/>
					<path class="st115" d="M1231.1,1450.6c-4.4,2.6-10.6,2.8-16.5,0.3c-5.9-2.6-9.9-7.3-11-12.2c4.4-2.5,10.6-2.8,16.5-0.3
						C1226,1440.9,1230,1445.7,1231.1,1450.6z"/>
				</g>
				<g>
					<path class="st113" d="M1099.5,1407.7c-26.3-38.5-54-76.2-83.6-112.3l0.5-0.4c30.3,35.6,58.8,72.7,86,110.8
						c27.1,38.1,52.6,77.4,75.6,118.3c5.5,9.9,10.9,19.9,16.2,30c-2,1.1-4.1,2.3-6.1,3.5c-5-10.2-10.2-20.4-15.6-30.4
						C1150.4,1486,1125.7,1446.3,1099.5,1407.7z"/>
					<path class="st113" d="M986.8,1246.2c9.7,0.9,19.8,7.4,26.1,17.9c6.3,10.6,7.3,22.5,3.6,31.5c-9.7-0.9-19.8-7.4-26.1-17.9
						C984,1267.1,983,1255.2,986.8,1246.2z"/>
					<path class="st113" d="M1059,1268.7c4,7.7,4.2,19.3-0.3,30.8c-4.4,11.5-12.4,19.9-20.5,23c-4-7.7-4.2-19.3,0.3-30.8
						C1043,1280.2,1050.9,1271.8,1059,1268.7z"/>
					<path class="st113" d="M1061.4,1353.5c-6.6,5.6-17.8,8.5-30,6.8c-12.2-1.7-22.2-7.5-27.1-14.7c6.6-5.6,17.8-8.5,30-6.8
						C1046.6,1340.5,1056.6,1346.3,1061.4,1353.5z"/>
					<path class="st113" d="M1090.5,1391.1c-6.6,5.6-17.8,8.5-30,6.8c-12.2-1.7-22.2-7.5-27.1-14.7c6.6-5.6,17.8-8.5,30-6.8
						C1075.7,1378.1,1085.7,1383.9,1090.5,1391.1z"/>
					<path class="st113" d="M1110.3,1421c-6.6,5.6-17.8,8.5-30,6.8c-12.2-1.7-22.2-7.5-27.1-14.7c6.6-5.6,17.8-8.5,30-6.8
						C1095.5,1408,1105.5,1413.8,1110.3,1421z"/>
					<path class="st113" d="M1132.2,1454.1c-6.6,5.6-17.8,8.5-30,6.8c-12.2-1.7-22.2-7.5-27.1-14.7c6.6-5.6,17.8-8.5,30-6.8
						S1127.4,1446.9,1132.2,1454.1z"/>
					<path class="st113" d="M1084.3,1301c4,7.7,4.2,19.3-0.3,30.8c-4.4,11.5-12.4,19.9-20.5,23c-4-7.7-4.2-19.3,0.3-30.8
						C1068.3,1312.4,1076.2,1304,1084.3,1301z"/>
					<path class="st113" d="M1108.6,1334.1c4,7.7,4.2,19.3-0.3,30.8c-4.4,11.5-12.4,19.9-20.5,23c-4-7.7-4.2-19.3,0.3-30.8
						C1092.5,1345.6,1100.4,1337.2,1108.6,1334.1z"/>
					<path class="st113" d="M1131.6,1367.6c4,7.7,4.2,19.3-0.3,30.8c-4.4,11.5-12.4,19.9-20.5,23c-4-7.7-4.2-19.3,0.3-30.8
						C1115.5,1379.1,1123.5,1370.6,1131.6,1367.6z"/>
					<path class="st113" d="M1153.9,1400.4c4,7.7,4.2,19.3-0.3,30.8c-4.4,11.5-12.4,19.9-20.5,23c-4-7.7-4.2-19.3,0.3-30.8
						C1137.9,1411.8,1145.8,1403.4,1153.9,1400.4z"/>
				</g>
			</g>
		</g>
		<linearGradient id="SVGID_3_" gradientUnits="userSpaceOnUse" x1="1034.6852" y1="1558.9287" x2="1304.1338" y2="1558.9287">
			<stop  offset="0" style="stop-color:#F24949"/>
			<stop  offset="1" style="stop-color:#FFC16F"/>
		</linearGradient>
		<path class="st82" d="M1082.1,1496h174.6c29,14.8,47.4,36.9,47.4,61.5c0,26.3-21,49.7-53.4,64.4h-162.6
			c-32.5-14.7-53.4-38.1-53.4-64.4C1034.7,1532.8,1053.1,1510.8,1082.1,1496z"/>
		<path class="st117" d="M1098.5,1509.8c-17.2-2-40.3,11-46.2,37.1c-8.1,51.5,43.4,66.6,71.6,53.5c-24.5-6.2-51.3-17.4-52.1-42.7
			c-1.4-13.3,6.5-26,6.7-26.4c1.1-1.6,3.3-5.4,7.4-9.9C1089.4,1517,1093.8,1513.3,1098.5,1509.8z"/>
		
			<rect x="1074" y="1488.4" transform="matrix(-1 -1.224647e-16 1.224647e-16 -1 2340.7957 2988.9697)" class="st118" width="192.9" height="12.1"/>
	</g>
	<g>
		
			<rect x="2394.7" y="7.1" transform="matrix(-1.836970e-16 1 -1 -1.836970e-16 3154.7637 -2394.708)" class="st120" width="760.1" height="745.9"/>
		<rect x="2416.1" y="14.3" class="st121" width="717.3" height="731.4"/>
		<g>
			<path class="st122" d="M2804.7,221.9h-134l117.9,63.9C2798.5,266.6,2804.3,244.9,2804.7,221.9z"/>
			<path class="st122" d="M2515.8,221.9c0.9,52.8,30.2,98.7,73.3,123.2l66.7-123.2H2515.8z"/>
			<path class="st122" d="M2662.9,223.6v140.1c52.9-0.9,98.8-30.3,123.2-73.4L2662.9,223.6z"/>
			<path class="st122" d="M2515.8,216.7h134.3l-118.1-64C2522.1,171.9,2516.3,193.7,2515.8,216.7z"/>
			<path class="st123" d="M2731.4,93.5l-66.7,123.2h140.1C2803.8,163.9,2774.5,117.9,2731.4,93.5z"/>
			<path class="st122" d="M2657.7,214.9v-140c-52.8,0.9-98.7,30.2-123.1,73.3L2657.7,214.9z"/>
			<path class="st124" d="M2664.6,70.7v134.1l63.9-117.9C2709.3,76.9,2687.6,71.1,2664.6,70.7z"/>
			<path class="st122" d="M2657.7,229.5l-64,118c19.2,10,40.9,15.8,64,16.2V229.5z"/>
			<g>
				<rect x="2534.9" y="572.3" class="st122" width="31.6" height="119.7"/>
				<rect x="2592.2" y="550.6" class="st122" width="31.6" height="141.3"/>
				<rect x="2649.5" y="529" class="st122" width="31.6" height="163"/>
				<rect x="2706.8" y="507.3" class="st122" width="31.6" height="184.6"/>
				<rect x="2764" y="485.7" class="st122" width="31.6" height="206.3"/>
				<rect x="2821.3" y="464.1" class="st122" width="31.6" height="227.9"/>
				<rect x="2878.6" y="442.4" class="st122" width="31.6" height="249.5"/>
				<rect x="2935.9" y="420.8" class="st122" width="31.6" height="271.2"/>
				<rect x="2993.2" y="399.2" class="st122" width="31.6" height="292.8"/>
				<rect x="3050.5" y="377.5" class="st122" width="31.6" height="314.4"/>
			</g>
			<path class="st125" d="M3090.3,254.7L3090.3,254.7L3090.3,254.7c-2.8,0.5-78.6,14-81.3,14l25.9,7c-10.1,3.8-64.2,24.4-77.6,29.4
				c-4.1,17.7-6.9,30.3-9.2,40.2c-12.3-1.2-35.3-3.3-55.2-5.2c-7.5,6.8-65.5,58.9-73,65.7c-18.3-2.3-40.9-5.2-57.2-7.3
				c-15.7,13.3-90.9,77.5-105.9,90.2c-15-5-36.3-12.3-49.4-16.7c-5.5,3.8-101.6,70.5-107.3,74.4l5.4,7.7l103.4-71.7
				c15.3,5.2,35.4,12,50,16.9c12.6-10.7,95.4-81.3,106.8-91c18.2,2.3,40.9,5.2,57.4,7.3c4.1-3.7,70.5-63.4,73.2-65.8
				c10.2,1,44.1,4.1,59.3,5.5c2.5-11.1,8.7-38.1,10-43.6l73.6-33.7l-5.7,25.3L3090.3,254.7z"/>
		</g>
	</g>
	<g>
		<g>
			<g>
				<g>
					<rect x="1437.9" y="1243.1" class="st105" width="40.3" height="309.8"/>
				</g>
				<g>
					<polygon class="st106" points="1484.5,1555.6 1432.2,1555.6 1432.2,1508.8 1432.2,1471.1 1484.5,1471.1 					"/>
					<polygon class="st106" points="1239.2,1611.6 1432.2,1508.8 1432.2,1555.6 1293.8,1611.6 1293.8,1621.9 1239.2,1621.9 					"/>
					<polygon class="st106" points="1677.5,1611.6 1484.5,1508.8 1484.5,1555.6 1622.9,1611.6 1622.9,1621.9 1677.5,1621.9 					"/>
					<polygon class="st106" points="1440.7,1508.8 1440.7,1621.9 1427.8,1621.9 1427.8,1629.9 1484.5,1629.9 1484.5,1621.9 
						1472.5,1621.9 1476.3,1508.8 					"/>
				</g>
			</g>
			<rect x="1432.9" y="1225.7" class="st104" width="52" height="63.8"/>
		</g>
		<g>
			<polygon class="st108" points="1324.8,907.7 1260.8,943 1312.5,1177.4 1337.7,1172.7 1308,955 1342.8,940.1 			"/>
			<polygon class="st108" points="1563.7,907.7 1631.1,960.6 1619.9,1182.9 1592.7,1177.1 1602.2,985.5 1548.2,949.6 			"/>
			<path class="st109" d="M1542.8,1069.5H1351l-52.7-326.2c-9.5-58.6,35.8-111.7,95.1-111.7h106.9c59.4,0,104.6,53.1,95.1,111.7
				L1542.8,1069.5z"/>
			<path class="st109" d="M1643.2,1200.6h-358.9l0,0c0-19.6,15.9-35.6,35.6-35.6h287.8C1627.3,1165.1,1643.2,1181,1643.2,1200.6
				L1643.2,1200.6z"/>
		</g>
	</g>
	<path class="st126" d="M1559.4,669.8l18-12.2c0,0-47-77.3-42.2-143.9c2.6-35.2-55.1-87-70.4-79c-0.9-0.4-51.2,1.1-55.7,116
		l-10.7,134.6l54.3,48.1c0,0,34.2-58.7,77.8-32.9c43.6,25.8,27.2,14.7,27.2,14.7S1559.4,682.1,1559.4,669.8z"/>
	<path class="st127" d="M1363.3,672.8c0,0-0.5,128.1,12.5,155.2c13,27.1,7.2,188.9,7.2,188.9l149.6,4.4c0,0,19.1-150.9,19.1-192.2
		s15.1-156.8,15.1-156.8S1465,646.3,1363.3,672.8z"/>
	<path class="st112" d="M1509.2,581.6c2.3,2.3-7,63.7,2.1,81.8c0,0-23.9,132.6-40.1,134.5c-14,1.7-21.5-111-24.3-123.8
		c-3.8-17.3,4.5-103.7,4.5-103.7L1509.2,581.6z"/>
	<path class="st111" d="M1508.3,608.6c-21.4,19.4-42.8,10.2-59-14c0.4-12.2,2.1-23.5,2.1-24.2l57.9,11.3
		C1510.1,582.5,1509.1,594.1,1508.3,608.6z"/>
	<path class="st112" d="M1500.7,439.4c0,0,26.4,5,29.5,27.6c3.1,22.6,7.5,41.4,3.1,67.8c-4.4,26.4-20.1,61.5-45.8,67.1
		c-25.7,5.6-52.7-37-52.7-60.2c0-23.2-9.4-62.1,8.2-86C1460.5,431.9,1500.7,439.4,1500.7,439.4z"/>
	<g>
		<path class="st5" d="M1470.9,560.9c13.9,6,34.4,6.2,34.4,6.2s-1.5,2.8-4,5.9c-6-0.3-17.8-1.4-27.4-4.9
			C1471.9,564.2,1470.9,560.9,1470.9,560.9z"/>
		<path class="st128" d="M1473.9,568.1c9.7,3.5,21.4,4.5,27.4,4.9C1491.5,584.7,1481.1,581.8,1473.9,568.1z"/>
	</g>
	<path class="st111" d="M1500.7,439.4c0,0,26.4,5,29.5,27.6c2.8,20.5,6.7,37.9,4.2,60.6c-4.2-2.9-10.1-5.8-18.5-8.6
		c-23.3-7.7-47-43.1-50.3-69.9C1465.1,426.6,1500.7,439.4,1500.7,439.4z"/>
	<path class="st129" d="M1401.7,1008.1l-28.2,13.3c0,0-32,35.4-39,97.9c-7.1,62.5,77.8,93.2,77.8,93.2l167.4-11.8
		c0,0,61.9-169.6-40.9-190C1440.2,991,1401.7,1008.1,1401.7,1008.1z"/>
	<path class="st130" d="M1496.1,1101.6c0,0,0.9,29.6,2.5,30.3c14,5.5,75.6-1.4,82.4,33.8c7.5,39.3-117.2,325.6-108.9,368
		c8.3,42.5,19.4,79.1,26.2,85.8c6.8,6.8,6.9,12.6,1,18.5c-5.9,5.9-31-0.9-38.1-8c-7.1-7.1-15.5-61.8-28.2-74.5
		c-12.7-12.7-17.7-20.6-3-50.7c14.7-30.1,53.1-262.9,57.8-287.1c4.7-24.2-2.9-34.9-2.9-34.9l-58.4-37.1L1496.1,1101.6z"/>
	<path class="st112" d="M1543.2,1075.7c0,0-21.8-14.7-65.4,0c-43.6,14.7-73.1,51.3-77.8,68.4c-4.7,17.1-24.2,349-50.1,403.3
		c-25.9,54.2-27.5,57.4-38.9,68.8c-11.4,11.4-6.2,39.5,0,45.8c6.2,6.2,54.2-6.4,59.7-25.3c5.5-18.9,17.3-62.9,22-76.3
		c4.7-13.4,38-139.7,69.7-199.6c31.7-59.8,42.1-191.9,42.1-202.9c0-11,55.7-15.1,55.7-15.1S1571.9,1082.2,1543.2,1075.7z"/>
	<path class="st131" d="M1566.8,672.4c0,0,20.3,11.8,23.2,26.8c11.5,60.2,21.6,212.9,16.9,251.5c-5.9,48.2-24.8,48.2-24.8,48.2
		l-225.2-27l9.4-60.1c0,0,153.3,9.4,168.6,9.4c15.3,0,16.4-116.4,16.4-116.4L1566.8,672.4z"/>
	<path class="st132" d="M1363.3,672.8c0,0-53.5-0.5-65.3,67.9c-11.8,68.4-4.7,258.1,20,258.1c24.8,0,161.6-79.4,180.4-79.4l0,0
		c-5-1.1-8.9-5.2-9.8-10.2l-6.5-36.4c0,0-106.4,1.2-125.3,20c0,0,20-74.3,20-101.4C1377,764.4,1396.3,672.8,1363.3,672.8z"/>
	<path class="st112" d="M1545.5,894.7c0,0-59.7-19.9-61.3-10.6c-4.3,24.9,9.6,36.3,9.6,36.3s40.4,6.1,46.9-0.4
		C1547.3,913.4,1545.5,894.7,1545.5,894.7z"/>
	<path class="st111" d="M2053.7,898.9l-3.1,96.2c0,0,45.6,8.6,58.2,3.8c7-2.7,8.3-50.6,6.1-106
		C2091,890.9,2076.3,890.8,2053.7,898.9z"/>
	<path class="st133" d="M2114.9,892.9c-1.8-44.5-5.8-93.7-11.1-128.4c-11.8-77.8-59-118.2-59-118.2l-1.3,239.5l1,16
		C2067.1,893.7,2091,890.9,2114.9,892.9z"/>
	<path class="st134" d="M1875.2,651c0,31.4,5.4,188.3,14.8,238.5c9.4,50.1-65.8,137.3-65.8,179.6c0,42.3,55,103.6,55,103.6h183.9
		c0,0,56.6-103,36.2-151.3c-20.4-48.3-48.7-12.2-34.6-81.4c14.1-69.2,15.5-164,7.7-230c-7.9-66-43.6-86.1-104.9-86.1
		C1906.3,623.9,1875.2,619.5,1875.2,651z"/>
	<path class="st135" d="M2043.6,1039.9c0,0-86.7-26.5-128.1,14.9c-41.5,41.5-36.2,117.9-36.2,117.9h183.9
		C2063.2,1172.7,2123,1088.6,2043.6,1039.9z"/>
	<path class="st111" d="M2005.4,1095.2c-13-31.5-27.1-37.5-38.9-37.5c-21.5,0-55.4,11.8-70,49c-15.4,39.5-75.2,280.2-85.6,324.7
		c-7.4,31.7-22.1,53.7-37.6,71.7c-32.7,49.2-23.2,80.9-1,104.3c0,3,23.8,9.1,50.3-64.7c5.9-16.5,8.7-26.6,15.7-62.3
		C1845.4,1444.8,2018.3,1126.7,2005.4,1095.2z"/>
	<path class="st136" d="M1819.6,1550.9c-8.7,5.5-29.6,18.1-38,18.1c-8.1,0-19.3-23.9-24.1-35.3c-12,33.4-2.5,58.3,14.8,76.6
		C1775.5,1614.1,1794.3,1616.3,1819.6,1550.9z"/>
	<path class="st137" d="M2093,1113.8c0.7-34.4-20.5-41.6-37.3-44.7c-21.1-3.8-48.8,20.5-71.6,56.2c-22.8,35.7-75.2,280.2-85.6,324.7
		c-7.4,31.7-22.1,53.7-37.6,71.7c-32.7,49.2-23.2,81.4-1,104.8c0,3,23.8,8.6,50.3-65.2c5.9-16.5,8.6-26.6,15.7-62.3
		C1933,1463.3,2092.3,1147.8,2093,1113.8z"/>
	<path class="st138" d="M1902.9,1579.8c-10.4,3.5-21.2,5.9-29.8,4.5c-16.8-2.8-19.9-30.8-20-49.9c-23.2,42.5-13.6,73.1,6.7,94.4
		C1863.6,1630.9,1879.5,1634.5,1902.9,1579.8z"/>
	<path class="st139" d="M1990.1,903.9l41.6,76.9c0.3,0.6,0.1,1.4-0.5,1.7c-0.6,0.3-1.3,0.1-1.7-0.5l-44.1-75.6
		c-0.7-1.3-0.3-2.9,1-3.6C1987.7,902.1,1989.3,902.6,1990.1,903.9C1990.1,903.8,1990.1,903.9,1990.1,903.9z"/>
	<path class="st112" d="M2011.3,929c-9-9-22.8,3.2-35.3,7.1c-12.6,3.9-130.5,3.1-147-0.8c-6.1-1.5-3.3-20.3,2.9-45.7
		c-19.2-6.3-40-8.1-59.5-5.9c-6.5,61.9-8.5,116.8,0,122.4c18.9,12.5,175.8-38.6,191.7-38.6c15.9,0,8,7.4,31.6,7.4
		c13.9,0,23.6-2.6,29.2-4.7c3.4-1.3,5-5.1,3.7-8.4C2025.1,952.7,2017.9,935.5,2011.3,929z"/>
	<path class="st111" d="M1829.7,898.9c0.7-3,1.4-6.1,2.2-9.3c-19.2-6.3-40-8.1-59.5-5.9c-0.8,7.8-1.5,15.4-2.2,22.9
		C1781.9,904.4,1810.8,899.2,1829.7,898.9z"/>
	<path class="st140" d="M1831.9,889.6c19.6-42.8,51.4-114.4,53.9-143.1c3.9-45.6-6-115-6-115s-53.7,33.3-70.9,71.8
		c-9.5,21.1-38.7,111.4-46.5,186.3C1781.8,887.4,1812.7,883.3,1831.9,889.6z"/>
	<path class="st141" d="M1951.5,992.6h113.2C2064.7,992.6,1987,967.5,1951.5,992.6z"/>
	<path class="st142" d="M2173.2,992.6h-108.5c0,0,41.8-8.8,70-8.8C2162.9,983.9,2173.2,992.6,2173.2,992.6z"/>
	<path class="st142" d="M2154,957.6c0,0-52.8-1.5-89.3,35c0,0,17.3-12.4,45.6-19.7c28.4-7.3,47.6-7,47.6-7L2154,957.6z"/>
	<polygon class="st143" points="1944.1,992.6 2064.7,992.6 1950.6,989.9 	"/>
	<path class="st111" d="M2159.2,866.6c-8.4-54.9-1.5-119.1-1.5-119.1s14.7-12.8,34.3-7.5c19.6,5.2,30.1,8.5,28.1,2.9
		c-1.9-5.6-27.4-14.5-27.4-14.5s24.6-0.3,37.1,6.2c12.5,6.4,15.4-6-19.5-12.2c-35-6.2-23.5-9.6-17.7-11.6c5.9-2,40.7,7.1,50,0.5
		c8.5-6.1-47.2-12.2-63.7-10.3c71.5-20.3,49.2-29.1-18.5-5.9c-19.4,6.7-36.9,35.7-37.3,36.4c-1.8,2.3-20.9,90.9-21.9,158.5
		C2119.7,881.7,2142.2,877.4,2159.2,866.6z"/>
	<path class="st144" d="M2111.8,755.3c-5.2,5.2-65.8,231.5-31.2,240.6c34.5,9.1,76.6-34.1,76.6-34.1l8.2-186.7L2111.8,755.3z"/>
	<path class="st112" d="M2591.3,744.2c7.1-16.1,36.8-20.2,46.3-23.3c9.5-3.1,18.3-22.1,24.6-24.1c6.3-2,4.4,19.3-5.2,24.8
		c-9.6,5.5,2.7,13.9,10.2,14c7.5,0.1,34.6-2,40.8-16c6.2-14.1,17.8-22.4,19.3-17.5c1.6,4.9-14.3,26.3-14.3,26.3s25.7-23.5,27.6-17.7
		c1.9,5.8-21.6,22.7-21.6,22.7s15.8-7.3,20.4-4.6c4.6,2.7-37.6,28.8-45.9,31.4c-8.3,2.7-41.3,0.9-57.6-0.8
		c-6.8-0.7-10.2,32.9-21.9,76.7c-6-10.7-34.9-20-43.3-28.8C2584.6,777.4,2588.5,750.6,2591.3,744.2z"/>
	<path class="st144" d="M2571.4,776.4l-53.3,223.9c0,0,50,7.3,71,0c21-7.3,47.2-155.8,47.2-220.7L2571.4,776.4z"/>
	<polygon class="st145" points="2984.1,1189.5 2873.1,1211 2802.5,1183 2873.1,1109.8 	"/>
	<path class="st146" d="M3037.2,691.7c0,0-18,10.9-39.7,63.6c-21.7,52.7-21.6,161.9-42.8,171.9c-18.6,8.7-167.3,26.9-204,31.3
		c-5.2,0.6-9.8,3.6-12.6,8l-19.2,30.6l99.8,3.3c0,0,113.4,56.6,142.5,37.3c29-19.3,113.2-178.9,124.1-226.1
		C3096.1,764.4,3037.2,691.7,3037.2,691.7z"/>
	<path class="st147" d="M2818.7,911.8c-4.7,0-51.9-11-51.9-11l-11,48.7l48.7,20.4L2818.7,911.8z"/>
	<path class="st146" d="M2724.3,1568.9c0,0-16.6,50.4-63,62.8c-17.5,4.7-97.2,44.1-82.3,44.1c5.7,0,171,0.6,171,0.6
		s12.3-21.8,7.6-41.4c-4.7-19.7,18-66,18-66H2724.3z"/>
	<path class="st148" d="M887.5,411.2c0,0,13.9,83.2,57.5,139.2c32.6,41.9,100.8,88.5,100.8,88.5l-38.6,42.4l-106.6-88L887.5,411.2z"
		/>
	<polygon class="st149" points="829.2,333.4 743.7,333.4 746.5,614.5 859.9,622.1 	"/>
	<path class="st149" d="M924.9,1680c48.1,0,47,19.8,47,19.8H831c0,0,7-60.8,8.1-75.2h33.1C875.8,1642.2,888,1680,924.9,1680z"/>
	<path class="st149" d="M689.4,1687.3c43.8,0,52.8-53.1,54-62.7h31.7c0,2.6,0,4.2,0,4.6c0,6.6,8.2,77.8,8.2,77.8s-35.2,0-58.7,0
		c-23.5,0-82.2,0-82.2,0S641.3,1687.3,689.4,1687.3z"/>
	<path class="st150" d="M702,1304.7l-45-380.4l12.7-112.6h247.6l1.8,99.2l26,386.5c0,0-64.6,321.8-63.5,327.1h-46.7
		c0.1-1.2,13.2-352.9,13.2-352.9l-53.4-313.3l-20.9,328.8c0,0,9.5,296.4,9.6,337.3h-44C739.5,1623.7,702,1304.7,702,1304.7z"/>
	<path class="st151" d="M668,826.5l1.7-14.8h247.6l0.2,13l-52,17.7c-42.4,14.4-87.4,15.6-130.4,3.3L668,826.5z"/>
	<path class="st152" d="M652.5,408.2c26.9-30.2,89.2-78.5,157.9-66.9l71.8,31.9l21.1,154.9l18.9,295l-255.9,2.9L642,538.9
		C642,538.9,625.6,438.4,652.5,408.2z"/>
	<path class="st112" d="M819.2,271.8c0,0,0.7,60.5,6.5,91.4c2.2,11.9-3.2,24.1-13.4,28.5c-7.5,3.2-17.4,5.1-29.7,2.8
		c-32.2-6.1-33.3-42.3-33.3-42.3l10.9-110.4L819.2,271.8z"/>
	<path class="st111" d="M760.2,241.8l59,30c0,0,0.3,22.3,1.8,46.8c-15.4,0.8-34.7-8-55.3-34.3c-3.1-3.9-5.9-7.8-8.6-11.6
		L760.2,241.8z"/>
	<path class="st112" d="M815.4,116.6c0,0,20.2,17.2,28.9,46c8.7,28.8,16.4,49.7,16.4,49.7l-9.3,6.1c0,0,7.4,40.2,1.6,54
		c-8.7,20.9-45.6,37.7-87.3-9.2c-41.8-46.9-45.3-88.3-38.2-108.6C734.6,134.4,799,106.2,815.4,116.6z"/>
	<path class="st153" d="M752.6,161.5c0,0,18.6-17.2,45.3-9.8c26.7,7.4,35.8-4,30.6-9.8c0,0,23.5,0.6,32.2-20.9
		c8.7-21.5,6.6-86.5-34.9-74.2c-41.5,12.3-33.1,41.7-33.1,41.7s-13.3-14.1-25.8-6.7c-12.6,7.4-10.9,17.8-10.9,17.8
		s-11.5,23.9-27.3,27c-15.8,3.1-14.2,38.6-14.2,38.6s-9.3,7.4-2.7,33.1c6.6,25.8,45.1,65.7,45.1,78c0,0,9.5-16,1.8-41.2
		c-7.6-25.1-7.6-39.9,0.5-39.9C767.3,195.2,752.6,161.5,752.6,161.5z"/>
	<path class="st112" d="M764.4,211.9c0,0-2.7-21.2-8.6-21.2c-5.9,0-11.5,2.3-10,14.3c1.4,12,7.6,25.3,15.4,19.8
		C768.9,219.2,764.4,211.9,764.4,211.9z"/>
	<path class="st153" d="M694.2,163.2c0.5-1.8,1.9-3.7,3.6-4.5c5.6-2.7,13,3.1,17.9,7l0.8-1.1c-3.3-3.8-6.8-7.6-11.7-10.1
		c-7.2-3.4-13.6,0.1-16.3,6.5L694.2,163.2z"/>
	<path class="st153" d="M693.8,190.5c-0.5-3.1-0.5-6.6,0.2-9.8c3.5-15.9,20.8-14.5,21.6-15v-1c-0.5,0.2-25-5.1-28.5,20.6
		c-0.3,2.2-0.5,4.1-0.3,6.8L693.8,190.5z"/>
	<path class="st154" d="M837.7,344.1l19.1,572.7h118.7l-35-260.1l-23-158.2c0,0-11.1-106.3-35.3-125.4
		C858.1,354.2,837.7,344.1,837.7,344.1z"/>
	<path class="st111" d="M760.5,203.3c0,0-3.5-7.2-6.6-6.1c-3.1,1-3.8,15.4,1.7,21.5C761.1,224.8,765.8,214.8,760.5,203.3z"/>
	<path class="st154" d="M742.4,341l12.5,575.8H627.8c0,0-4.8-456.4,9.3-504.1C651.1,365,742.4,341,742.4,341z"/>
	<polygon class="st155" points="883.9,365.4 829.2,333.4 846.8,618.1 876.8,456.6 866.2,449.4 	"/>
	<polygon class="st155" points="748.4,615.4 743.7,333.4 695,355.6 721.5,449.2 714.8,454.4 	"/>
	<polygon class="st156" points="971.9,699.2 1148.2,564.4 961.5,547.1 820.4,699.2 	"/>
	<path class="st112" d="M873.7,641.9c0,0-19.1,4.4-26.2,12.1c-9,9.9-30.5,25.9-39.5,25.9c-9,0-47.4,3.8-47.4,3.8l-6.4,43.1
		c0,0,143.2-33.5,149.9-40.9c6.7-7.4-33.6,5.5-33.6,2.2c0-3.3,48.6-7,46.1-15.3c-2.5-8.3-44.8,11.2-48.6,7.1
		c-3.8-4.1,51.1-11,51.1-19.7c0-8.8-54.6,12.7-54.6,12.7s-1-4.5,13.8-11.6c14.8-7.1,29.1-12.9,25.8-16.4c-3.3-3.6-41,19.1-46,13.7
		L873.7,641.9z"/>
	<path class="st155" d="M672.1,401.6c0,0,20.8,38.9,16.7,94.9c-4.2,56-11.2,141.9,0.4,169.9c11.7,28,97,0,97,0v66.3
		c0,0-123.8,51.3-159.6,34.5c-35.8-16.8-32.4-161.5-32.4-232.4C594.1,463.8,649.2,350.7,672.1,401.6z"/>
	<path class="st157" d="M672.1,401.6c10.3,22.5,17,55.9,14.9,90.5c-3.9,52.1-16,165.3,6.2,182.5c21.4,13.5,69.9,0,93-8.2
		c-22.7,6.1-86.8,21.2-95.1-1c-7.1-17.8-6-60.8-5.3-80c2.6-82.7,12.5-111.9-4.6-162.4C678.7,415.6,675.8,408.4,672.1,401.6z"/>
	<path class="st112" d="M1023.8,640.2c0,0,2.5,3.1,6.4,12.6c3.8,9.2-6.8,18.7-8.9,20.7c-4,3.8-11.1,9-15.6,11.6
		c-4.4,2.6-7.3,3.9-11.6,4.9c-6.3,1.4-20.4-21.5-18.5-23.7c1.3-1.5,2.9-2.6,4.4-2.2c1.5,0.5,17.2,13,17.2,13s-14.1-18-12.5-23.4
		c1.6-5.4,4.6-4.7,5.9-3.3c1.2,1.4,19.2,18.3,19.2,18.3s-12.1-21.5-11.1-25c1-3.5,5.9-6,11.5,2.7c3.1,4.9,11.3,12.8,11.3,12.8
		s-6.8-16.3-5.2-21.5C1017.9,632.3,1023.8,640.2,1023.8,640.2z"/>
	<path class="st158" d="M2370.6,1634c0,0,0.4,2.2,1.5,5.6c3.3,10.1,12.6,31,33.9,36.2c28.3,6.9,50.7-0.6,55.8,4.5
		c5.1,5.1,7,20.9,7,20.9l-170.4,8l10-69.6L2370.6,1634z"/>
	<polygon class="st158" points="2232,1214.9 2297.4,1656.3 2384.9,1642.4 2370.7,1211.9 	"/>
	<path class="st159" d="M2288.7,1618.5c0,0-21.6,18.5-21.6,37.8l-74.8,55.2h-26.5c0,0,55.2-69,66.3-86.3
		c11.1-17.3,11.6-34.3,11.6-34.3L2288.7,1618.5z"/>
	<path class="st160" d="M2525.2,1205c-24.3-73.1-91-39.3-91-39.3c-41.7,7.9-103.7,151.7-112.4,196.6
		c-6.2,32.4-67.7,179.6-101.5,259.1c23.4-12.7,54.4-5.3,67.9,16.8C2359.8,1519.8,2533.2,1229,2525.2,1205z"/>
	<path class="st161" d="M2239.6,1630c0,0,20.5,5.9,27,19.5c6.5,13.6-27,39.8-27,51.8c0,11.9,8.8,22.1,0,26.5
		c-8.9,4.4-81.4,5.1-77.4-9.4c4-14.5,32.5-30.9,44.1-49C2217.9,1651.3,2228.2,1625.2,2239.6,1630z"/>
	<path class="st158" d="M2444.1,1189.5c0,0,109.7-31.6,74.1,43.2c-6.9,14.5-322.9,36.2-322.9,9.7c0-26.5,20-52.9,20-52.9H2444.1z"/>
	<path class="st162" d="M2202.4,715.7c0,0,37.2-15.1,82.3-19c24.7-2.1,49.4,5.9,77.3,5.9c78.6,0,154.5,20.8,162.8,59
		c8.4,38.4-95.2,411.2-71.6,434.8c23.6,23.6-208.2,38.4-237.3,9.3C2186.6,1176.7,2117.5,748.7,2202.4,715.7z"/>
	<path class="st163" d="M2308.2,625.6l-23.5,79.3c0,0,61.6,24.3,102.8,0l-13-88L2308.2,625.6z"/>
	<path class="st162" d="M2202.4,715.7c0,0-66.1,88.7-80.2,131.2c-14.1,42.4-52.8,114.5-49.5,133.2c3.3,18.8,26.3,37.3,64.8,28
		c38.5-9.2,35.7-46.4,35.7-46.4L2202.4,715.7z"/>
	<path class="st162" d="M2522.6,755.3c0,0,82.9,228.7,66.5,245.1c-16.4,16.4-71,0-71,0l-59.9-116.9L2522.6,755.3z"/>
	<path class="st112" d="M3022.3,430.9c0,0-30.9,40.6-35.5,68.1c-4.8,28.3-10.5,73.6-10.5,73.6h12.6c0,0,10.5,25.1,10.5,41.9
		c0,16.7,26.5,6.3,41.9,6.3c15.4,0,49.5-13.3,62.8-61.4C3117.2,511.1,3141.6,425.3,3022.3,430.9z"/>
	<polygon class="st164" points="3058.5,659.9 3039.8,673.9 3033.1,699.4 3059.9,687.2 	"/>
	<path class="st112" d="M3090,558.6l46.8,107.5c0,0-89.7,29.7-85.1,25.1c4.5-4.5-5.8-83.7-5.8-83.7L3090,558.6z"/>
	<path class="st165" d="M2980.4,401.6c-1.4,2.4-25.7,51.7,16.1,70.5c41.8,18.8,52.2-8.3,63.3,8.5c11.2,16.7-9.7,43.9-0.6,59.2
		l13.9,2.7c0,0,2.8-8.3,8.4-8.3s7.2,42.3,16.1,42.3c9,0,26.4-36,34.8-52.7c8.4-16.7,25.8-73.3-6.3-87.9c-32.1-14.7-46-3.5-46-17.4
		c0-14-14,0.7-14,0.7s-7.7-10.5-2.8-22.3c4.9-11.9-34.2-16.1-43.3,7.7C3011.1,428.1,2995.8,375.8,2980.4,401.6z"/>
	<g>
		<g>
			<rect x="3116.3" y="1362.2" class="st105" width="40.3" height="298.3"/>
		</g>
		<g>
			<polygon class="st106" points="3162.9,1663.2 3110.6,1663.2 3110.6,1618.1 3110.6,1581.8 3162.9,1581.8 			"/>
			<polygon class="st106" points="2917.6,1717.1 3110.6,1618.1 3110.6,1663.2 2972.2,1717.1 2972.2,1727 2917.6,1727 			"/>
			<polygon class="st106" points="3355.9,1717.1 3162.9,1618.1 3162.9,1663.2 3301.3,1717.1 3301.3,1727 3355.9,1727 			"/>
			<polygon class="st106" points="3119.1,1618.1 3119.1,1727 3106.2,1727 3106.2,1734.7 3162.9,1734.7 3162.9,1727 3150.9,1727 
				3154.7,1618.1 			"/>
		</g>
	</g>
	<rect x="3110.6" y="1299.1" class="st104" width="51.7" height="104.3"/>
	<path class="st145" d="M2582.6,1379.2c0,0-37.6,37.7-50.2,50.3c-12.6,12.6-82.7,19.1-68.8,33c13.9,14,50,32,66.5,32
		c16.5,0,79.4-14.1,79.4-14.1s7.2-63,15.7-71.6L2582.6,1379.2z"/>
	<path class="st146" d="M2804.5,1055.3c-53.5,0-240.6,306.6-240.6,306.6l18.8,17.3l50.3,37.4c8.5-8.5,204.3-251,204.3-251
		s76,31,134.1,31c58.2,0,127.8-120.2,127.8-120.2C3092.4,1069.7,2857.9,1055.3,2804.5,1055.3z"/>
	<path class="st147" d="M3191.7,1052.6c0.1-1.1,0.2-2.2,0.3-3.3c3.9-45.6,16.3-407.2-47.4-407.2c0,0-73.5,13.2-120.3,72.7
		c-7.9,10-9.3,19.1-12.8,32.7c-23.3,91.2-38.7,260.3-36.6,324.4C3046.9,1100.4,3127.4,1098.6,3191.7,1052.6z"/>
	<path class="st166" d="M3120.2,611.1c-6.3,0-70.6,62-70.6,62l-5.5,35.6l100.5-47L3120.2,611.1z"/>
	<polygon class="st167" points="3049,677.2 3033.3,683.8 3016.8,717.8 3026.2,714.8 3045.2,700.6 	"/>
	<path class="st103" d="M3026.2,714.8c0,0-38.1,193-46.9,362.8l-24.6,22c0,0,3.1-26.7,3.1-65.2c0-38.5,39.9-288.9,59-316.6
		L3026.2,714.8z"/>
	<path class="st168" d="M3144.6,642.1c0,0-19.2,3.5-44.2,14.8c-7,28.4-46.4,94.2-64,164.4c-13.1,52.4-43.7,120.8-48.7,164.4
		c-4.3,37.5-11.4,69.7-13.9,91.7c-5.9,53.1-30.1,143.4-30.1,143.4l228.8-31.3c0,0,15.7-94.6,19.7-140.2
		C3196,1003.7,3208.4,642.1,3144.6,642.1z"/>
	<path class="st132" d="M3115.2,1141.9l-44.5-5.1c-17.2-2-29.6-17.5-27.6-34.7l9.8-86.1l106.8,12.1l-9.8,86.1
		C3147.9,1131.5,3132.4,1143.8,3115.2,1141.9z"/>
	<path class="st169" d="M3112.4,632.6l-61,51.9l-61.3,296.4c0,0,70.2-123,68.5-135.7c-1.8-12.7-12.7-23.9-12.7-23.9
		S3112.4,654.5,3112.4,632.6z"/>
	<polygon class="st169" points="3133,618.1 3112.4,632.6 3104.7,662.9 3153.3,644.6 	"/>
	<path class="st104" d="M3165.6,1302.5h-66c-8.6,0-15.6-7-15.6-15.6V1231h97.2v55.8C3181.2,1295.5,3174.2,1302.5,3165.6,1302.5z"/>
	<g>
		<path class="st108" d="M3214.1,1007.7c0,0-224.4-1.5-231.5,14.1c-7.1,15.7,3.5,199,3.5,199l26.7-4.8c0,0-11.1-155.5,5.5-172.1
			c16.6-16.6,198.1,8.5,200.4,6.2C3221.1,1047.7,3214.1,1007.7,3214.1,1007.7z"/>
		<path class="st169" d="M2979.7,1017c-12,12.6,2.3,148.7,4.4,165.8c1.7-77-0.7-141.5,3.1-158.4c12.4-7.6,106-10.8,182-16.7
			C3143.4,1006.1,2997.5,1000.8,2979.7,1017z M2987.3,1024.1C2987.3,1024.1,2987.3,1024.1,2987.3,1024.1
			C2987.4,1024,2987.3,1024,2987.3,1024.1z"/>
		<path class="st170" d="M3317.8,1232.5h-399.3l0,0c0-23.7,19.2-43,43-43h356.4V1232.5z"/>
		<path class="st170" d="M3280.1,729.4c0,0-94.3,45.3-94.3,195.6c0,150.3,55,264.6,55,264.6h77c0,0-99.1-211.8-53.5-302.2
			C3310,797,3387,746.7,3280.1,729.4z"/>
		<path class="st171" d="M3264.4,887.3c43.5-86.3,115.7-136,29.1-155.4c64.1,21.7-2.2,70.5-43.1,151.6
			c-45.6,90.3,53.4,302.2,53.4,302.2v43h-385.2c-0.1,1.3-0.2,2.5-0.2,3.8h399.3v-43C3317.8,1189.5,3218.8,977.7,3264.4,887.3z"/>
	</g>
	<path class="st132" d="M3123.2,671c-28.5,6.7-62.5,27.6-81.3,84.2c-18.8,56.6-37.6,135.4-62.8,146.9
		c-25.1,11.5-188.7-1.5-188.7-1.5l-4.2,73.5c0,0,178.5,52.4,226.4,47.2c47.8-5.2,131.9-175.2,157.4-236.7
		C3219.3,666.4,3153.1,663.9,3123.2,671z"/>
	<path class="st172" d="M3123.2,671c-80.4,24.6-77.1,108.5-112.5,194.8c-5.6,13.2-16.5,36-30,41.2c-3,0-20.2,15.4-190.3-6.3
		c57,1.3,173.6,5.3,188.7-4.4c22.8-15.6,42.5-98.9,60.3-146.3c7.1-18.8,17.2-36.9,31.5-51.3C3085.2,684.5,3103.6,674.4,3123.2,671z"
		/>
	<path class="st168" d="M2869.4,1250.3c-21.6,103.9-89,346.9-89,346.9l-82-23.8c0,0,51.3-389.3,92.8-430.8
		C2832.6,1101.2,2891,1146.3,2869.4,1250.3z"/>
	<path class="st173" d="M2751.8,966c0,0,22.7-3.5,34.4,8.3c11.7,11.7,16.3,25.4,16.3,25.4l-83.7-2.5
		C2718.8,997.1,2731.9,965.1,2751.8,966z"/>
	<path class="st147" d="M2718.8,997.1c0,0,13-32,33-31.1c0,0,22.7-3.5,34.4,8.3c2.1,2.1,3.9,4.2,5.5,6.3c-2.1-3.5-4.6-7.2-7.5-10.8
		c-11.7-14.1-26.5-10.7-34.4-10c-19.9,1.8-33,37.5-33,37.5L2718.8,997.1z"/>
	<path class="st112" d="M2750.8,966c0,0-11.4-1.1-15.5,3c-4.1,4-6.7,7-8.1,8.3c-1.3,1.3-0.2,17.7,18.7,21.8
		c18.9,4.1,15.5-4.8,20.9-2.6c5.4,2.3,11.6,5.8,14.3,3.1c2.7-2.7,6.3,3.8,10.3,0c3.9-3.8-6.9-28-13.1-34.1c-6.2-6-10.7-3.8-15.7-3.8
		C2757.7,961.7,2750.8,966,2750.8,966z"/>
	<rect x="2789.5" y="1037.2" class="st103" width="22.1" height="649.8"/>
	<rect x="1052.9" y="1033.3" class="st103" width="22.1" height="649.8"/>
	<rect x="1258.3" y="1017" class="st103" width="22.1" height="649.8"/>
	<linearGradient id="SVGID_4_" gradientUnits="userSpaceOnUse" x1="1929.4199" y1="1219.9597" x2="1939.5244" y2="1011.1307">
		<stop  offset="0" style="stop-color:#6A0352"/>
		<stop  offset="1" style="stop-color:#B8004C"/>
	</linearGradient>
	<rect x="990" y="992.6" class="st84" width="1898.6" height="45"/>
	<path class="st109" d="M2417.6,1256.1h-249.2l-68.5-373c-12.3-67,46.5-127.8,123.6-127.8h138.9c77.1,0,83,90,79.1,162.2
		l-10.4,147.6L2417.6,1256.1z"/>
	<path class="st175" d="M2125.8,915c-12.3-67,46.5-127.8,123.6-127.8h138.9c16.2,0,29.2,4,39.7,10.9c-11.6-25.5-31.7-42.9-65.6-42.9
		h-138.9c-77.1,0-135.9,60.8-123.6,127.8l68.5,373h20L2125.8,915z"/>
	<g>
		<g>
			<g>
				<rect x="2308.4" y="1317.4" class="st176" width="40.3" height="390.7"/>
			</g>
			<g>
				<polygon class="st177" points="2355.1,1711.1 2302.8,1711.1 2302.8,1659.6 2302.8,1618.2 2355.1,1618.2 				"/>
				<polygon class="st177" points="2109.8,1772.5 2302.8,1659.6 2302.8,1711.1 2164.4,1772.5 2164.4,1783.8 2109.8,1783.8 				"/>
				<polygon class="st177" points="2548.1,1772.5 2355.1,1659.6 2355.1,1711.1 2493.5,1772.5 2493.5,1783.8 2548.1,1783.8 				"/>
				<polygon class="st177" points="2311.3,1659.6 2311.3,1783.8 2298.4,1783.8 2298.4,1792.6 2355.1,1792.6 2355.1,1783.8 
					2343.1,1783.8 2346.9,1659.6 				"/>
			</g>
		</g>
		<rect x="2302.6" y="1282.8" class="st104" width="52" height="39.7"/>
	</g>
	<path class="st107" d="M2553.7,1282.8h-449.6l0,0c0-27.8,22.6-50.4,50.4-50.4h348.9C2531.2,1232.5,2553.7,1255,2553.7,1282.8
		L2553.7,1282.8z"/>
	<path class="st144" d="M2281.6,678.6c0,0,72.3,28.8,105.9,2.2l10.1,23.3c0,0-11.5,20.1-58,23.7c-46.5,3.5-69.2-29.4-69.2-29.4
		L2281.6,678.6z"/>
	<path class="st178" d="M2291.4,566c0,0-16.6-12.6-16.6-3.3c0,9.3-1.9,42.2,13.7,33C2304,586.6,2291.4,566,2291.4,566z"/>
	<path class="st179" d="M2310.4,474.2c0,0-31.4-10.3-40,21.6c-8.7,31.9,14.3,64.7,14.3,80.6c0,15.9,8.6,34.2,23.5,49.2
		c15,15,50,30.6,50,30.6s38.9-24.1,52.2-50.6c13.3-26.5,5.3-44.2,10.6-84.1c5.3-39.8-21.9-53.1-33.5-53.1
		C2375.9,468.4,2336.1,425.1,2310.4,474.2z"/>
	<polygon class="st108" points="2563.9,1099.6 2431.5,1059.8 2429,1094.2 2518.2,1114.2 2496.4,1234.1 2521.7,1236 	"/>
	<path class="st138" d="M2013.9,635c0-9.7-7.6-12.7-17.1-14.8c-32.2-7.2-73.7-8.5-70.7,2.7c3.9,14.6,34.9,34.7,55.9,34.7
		c21,0,31-17.2,31-17.2L2013.9,635z"/>
	<path class="st112" d="M1990.1,589.6l6.8,77.6c0,0-28.2,14-63.4-2.4l14-127.3L1990.1,589.6z"/>
	<path class="st111" d="M1990.1,589.6l2.9,33.4c-3.2-0.1-6.4-1-9.7-2.8c-27-14.5-31-54.6-31.5-77.4L1990.1,589.6z"/>
	<path class="st112" d="M2038.8,455.9c0,0,12.4,9.7,15.2,27.3c2.8,17.6-9,37.3-9,52.1c0,14.8-27.5,85.3-61.7,68.7
		c-34.2-16.7-31.5-70.3-31.5-82.4c0-12,16.7-53.7,37-63.4C2009.1,448.5,2038.8,455.9,2038.8,455.9z"/>
	<path class="st5" d="M1988.7,571.7c10.4,4.4,15.1,8.8,28.7,8.2C2006.9,583.5,1994.6,579.3,1988.7,571.7z"/>
	<path class="st180" d="M2038.8,455.9c0,0,12.4,9.7,15.2,27.3c2.8,17.6,5.6,49.4-9,52.1c-8.4,1.6-37.7-46.9-29.4-82.1
		C2028.3,453.3,2038.8,455.9,2038.8,455.9z"/>
	<path class="st140" d="M1926.1,622.9l-8.6,38c9.8,15.4,60,94.3,73.3,115.5c8.2,13.2,17.7-75.8,23-141.4
		C1977.1,646.6,1956.6,652.5,1926.1,622.9z"/>
	<path class="st112" d="M3069.7,518.9c0,0-0.7,27.5,6,27.5c6.6,0,21.2-15.6,18.7-32.2C3091.9,497.6,3072.7,499.6,3069.7,518.9z"/>
	<path class="st111" d="M3074.3,515.9c0,0-3.3,10.9,1.7,15.9c5,5,14.6-7,9.3-15.9C3079.9,506.9,3075.3,509.6,3074.3,515.9z"/>
	<path class="st165" d="M2998.1,603c0,0-2.2,10.8-2.2,17c0,6.2,15.5,13.1,29.4,9.1c13.9-4,33.3-13.2,38.1-17.9
		c4.7-4.8,8.6-69,8.6-69l-12.6-2.4c0,0-6.2,41.9-11.4,47.1C3042.6,592,2998.1,603,2998.1,603z"/>
	<path class="st165" d="M2962,451.8c-0.3,2.3,2.1,6.3,3.4,8.2c7.3,9.5,21.6,10.9,31.1,12.1c-1.3,0.1-14,2.5-24.7-0.5
		c-11.5-3-18.4-10.6-20.4-18.3L2962,451.8z"/>
	<path class="st181" d="M1330.7,1640.7c-5.8,0-10-21.7-11.8-33.4c-2.4,3.1-4.8,5.7-7.9,8.8c-11.4,11.4-6.2,39.5,0,45.8
		c6.2,6.2,54.2-6.4,59.7-25.3c0.8-2.7,1.7-5.9,2.7-9.5C1361,1631.8,1336.5,1640.7,1330.7,1640.7z"/>
	<path class="st181" d="M1432.2,1498.3c0,0-17.4,28.9-17.4,42.5c0,13.6,8.7,90.2,8.7,90.2l11.7,0.4c0,0-8.6-52.4-1.2-54.3
		c7.4-1.9,19.3,69.7,19.3,69.7l60.2,4.1c0,0,1-19.9-17.4-34.1c-18.4-14.2-19.3-9.5-28.2-39.7
		C1459,1546.9,1432.2,1498.3,1432.2,1498.3z"/>
	<path class="st182" d="M1419.2,1157c0,0-1.4,20.3,4.6,26.3c6,6,35.1,2.2,35.1-13.1C1458.9,1154.8,1428.2,1148,1419.2,1157z"/>
	<path class="st182" d="M2023.2,1112.3c-23.6,9.1,5.3,35.4,23.9,32.3C2065.7,1141.5,2052.4,1101,2023.2,1112.3z"/>
	<path class="st182" d="M1955.1,1102.1c0,0-10.3-9.9-31.5-7.1c-21.2,2.9,15.1,39,31.9,35C1972.3,1126,1955.1,1102.1,1955.1,1102.1z"
		/>
	<path class="st182" d="M1791.5,974c8.7-0.9,18.6-0.7,18.6,4.9c0,9.9-31.2,17.3-31.2,9.3C1779.1,987.7,1779.3,975.3,1791.5,974z"/>
	<path class="st112" d="M1389.2,880.8c0,0-3.2-29.8-6.8-33.8c-3.7-4-35.7-43.8-39.7-39.4c-4,4.4,23.7,35.7,23.7,35.7
		s-32.7-30.7-34.5-23.7c-1.8,7,30.1,36.4,30.1,36.4s-33.5-25.5-33.5-20c0,0,31.4,32.9,32.5,34.1c1.1,1.2,4,17.7,4,17.7L1389.2,880.8
		z"/>
	<path class="st112" d="M1364.4,811.6c0,0,15.5,7.3,15.5,13.1c0,5.8,4.7,33.3,4.7,33.3l-13.3-5.7l2.6-24.6
		C1373.9,827.7,1359.1,811.6,1364.4,811.6z"/>
	<path class="st183" d="M1477.4,420.2c-19.2,2.2-49.6-2.5-63.8,28.9c-8.4,17.8-25.5,52.1-25.5,113.1c0,90.9-87.7,131.1-87.7,131.1
		l38.4,18.6l22.9-18.6l-15.7,33.4l63,6.3l2.7-43.5l13,49.5l29.4-6c0,0-11.6-148.7-12.9-204.9c0.2,0.2,0.3,0.4,0.3,0.4
		s-0.3-7.2-0.3-16.5c0,0,0,0,0-0.1c0.2-2.7,0.2-5.5,0.1-8.4c0.2-8.9,0.6-18.3,1.8-24.6c2.8-15.4,8.5-23.2,22.3-29.8
		c13.8-6.6,63.2,12.2,63.2,12.2C1527.1,432.7,1496.6,418,1477.4,420.2z"/>
	<path class="st184" d="M1503.1,425.4c24.2,5.3,31.5,42.5,51.2,62.3c19.8,19.8,14.7,48.3,5.3,67.1c-9.4,18.8-24.5,6.6-24.5,6.6
		s7.9,4.4,12.9-11.3c5-15.7-3.8-27.9-30.4-36.7c-26.7-8.8-52.1-64.3-52.1-64.3C1464.9,438.3,1478.9,420.1,1503.1,425.4z"/>
	<path class="st185" d="M1535.1,561.4c9.2,5.3,22.1-17.1,12.7-31.7c-6.9-11.3-21.9-16.1-33.9-21.1c-19-10.9-37.3-41.1-48.4-59.5
		c8,22,25.1,52.5,45.6,64.6l4.9,2.1c5.1,2,20.5,6.2,28,16.3c6,7.9,3.1,20.2-0.8,26C1541.5,560.6,1538.4,562.6,1535.1,561.4z"/>
	<path class="st112" d="M1446.7,531.3c0,0-6.7-29.1-17.9-22.1c-11.2,7,0.8,39.3,11.2,39.3C1450.5,548.5,1446.7,531.3,1446.7,531.3z"
		/>
	<path class="st111" d="M1435.9,515.3c0,0,16.5,26.5,5.2,23.6C1429.7,536,1425.2,510.4,1435.9,515.3z"/>
	<path class="st186" d="M2041.1,457.6c27.4,6.9,38.2,33.7,24.5,54.4c-2.3,3.5-5.5,6.8-9.6,7.1v-5.9c1.5,0.3,4.5-3,5.4-4.2
		C2075,491.6,2066.6,466.2,2041.1,457.6z"/>
	<path class="st187" d="M2020.9,438.9c0,0,19.3,0.1,33.5,14.3c14.2,14.2,9.9,70.2,0,78.5c-9.9,8.3,25.3,16.2,4.2,16.2
		C2037.5,547.8,2002,440.9,2020.9,438.9z"/>
	<path class="st187" d="M2045.4,464.7c0.3-1-10.8-31-38.1-35.4c-32.7-5.3-71.3,19-83.1,51.9c-11.8,33-22.4,70.6-54.7,79.9
		c-32.3,9.4-38.2,56.9-28.1,86.8c10.1,29.8,40.9,22.2,40.9,22.2s-18.9-16.5-13.9-21.5c0,0,14.4,27.9,30.7,22.4
		c16.3-5.6,22.9-14.6,22.9-14.6s-28.1-4.3-9.6-19.9c12.9-10.9,19.4-20.8,34.7-39.2c14.6-17.6,7-64.7,19.7-98.5c1.6,1.3,4.1,2.6,8,3
		c17.3,1.8,9.4-10.8,25.9-29.6C2028.9,456.2,2043.5,464.8,2045.4,464.7z"/>
	<path class="st186" d="M1932,502.1c4.5,12.7,7.6,29.4,7,42.5c-2.1,41.6-46.3,19.9-58.5,20.8c-7.5,0.3-14,7.3-11.2,16.6
		c2.2,7.7,7.2,10.1,9.8,13.2c3.9,4.8,1.9,10.4-2.7,12.6c-9.1,4.6-20.3-5.8-24,6.6c-2.8,8.6-0.1,18.8,6.7,25.5
		c-7.7-5.7-11.6-16.4-9.5-26.3c2.2-10.1,9.3-9.7,19-9c6,0.4,8.2-2.5,7.7-4.3c-0.4-3.6-8.7-5-12.3-16.7c-2.9-8.4,0.4-17.4,8.2-21.8
		c20.2-11.7,65.4,30.4,63.5-31.5C1935.3,520.8,1933.9,511.4,1932,502.1z"/>
	<path class="st112" d="M1969.8,510.8c0,0,0.7-16-7.7-14.7c-8.3,1.4-14.2,12.3-10.1,23C1956,529.8,1970.9,525,1969.8,510.8z"/>
	<path class="st111" d="M1966.5,513.3c0,0,1.1-9.8-2.5-10.7c-3.7-0.9-7.5,6.8-6.7,11.8C1958,519.5,1965.9,519.2,1966.5,513.3z"/>
</g>
<g id="Layer_4">
</g>
<g id="Layer_5">
</g>
<g id="Layer_6">
</g>
</svg>
