<?xml version="1.0" encoding="utf-8"?>
<!-- Generator: Adobe Illustrator 25.1.0, SVG Export Plug-In . SVG Version: 6.00 Build 0)  -->
<svg version="1.1" xmlns="http://www.w3.org/2000/svg" xmlns:xlink="http://www.w3.org/1999/xlink" x="0px" y="0px"
	 viewBox="0 0 2760 1840" style="enable-background:new 0 0 2760 1840;" xml:space="preserve">
<style type="text/css">
	.st0{fill:#EBF3FA;}
	.st1{fill:#B0D4FF;}
	.st2{fill:#95C0F4;}
	.st3{fill:#CAE5FF;}
	.st4{fill:#DFEDFB;}
	.st5{fill:#FFFFFF;}
	.st6{fill:#FFA412;}
	.st7{fill:#EEF6FF;}
	.st8{fill:#78ACEA;}
	.st9{fill:#BAE8E3;}
	.st10{fill:#A1D6CE;}
	.st11{fill:#F99746;}
	.st12{fill:#C0D8FB;}
	.st13{fill:#DFEBFD;}
	.st14{fill:#B7D3F3;}
	.st15{fill:#FFB27D;}
	.st16{fill:#233862;}
	.st17{fill:#A9453D;}
	.st18{fill:#ED975D;}
	.st19{fill:#2A4E96;}
	.st20{fill:#5F9AA8;}
	.st21{fill:#1E3D70;}
	.st22{fill:#ED7D2B;}
	.st23{fill:#163560;}
	.st24{fill:#B0D0FF;}
	.st25{fill:#98BAF4;}
	.st26{fill:#E8945B;}
	.st27{fill:#F2CCAA;}
	.st28{fill:#B5453C;}
	.st29{fill:#2B478B;}
	.st30{fill:#EBF3FF;}
	.st31{fill:#213F7A;}
	.st32{fill:#E2915A;}
	.st33{fill:#2E3552;}
	.st34{fill:#B4A3C6;}
	.st35{fill:#ADBCC9;}
	.st36{fill:#BAC6D3;}
	.st37{fill:#D0DAE2;}
	.st38{opacity:0.6;fill:#FFFFFF;}
	.st39{opacity:0.75;fill:#FFFFFF;}
	.st40{opacity:0.85;fill:#FFFFFF;}
	.st41{opacity:0.63;fill:#FFFFFF;}
	.st42{fill-rule:evenodd;clip-rule:evenodd;fill:#FFFFFF;}
	.st43{fill:#282626;}
	.st44{fill:#151823;}
	.st45{fill:#282A35;}
	.st46{fill:#102B8C;}
	.st47{fill:#2A4FC6;}
	.st48{fill:#DBB2A5;}
	.st49{fill:#BA784A;}
	.st50{fill:#A0593A;}
	.st51{fill:#CC9987;}
	.st52{opacity:0.8;fill:#FFFFFF;}
	.st53{opacity:0.8;}
	.st54{opacity:0.84;}
	.st55{opacity:0.55;}
	.st56{opacity:0.54;}
	.st57{opacity:0.64;fill:#FFFFFF;}
	.st58{fill:#C3CED8;}
	.st59{fill:#DDE8F2;}
	.st60{fill:#E64A00;}
	.st61{opacity:0.74;fill:#FF781D;}
	.st62{fill:#DBA697;}
	.st63{fill:#992C75;}
	.st64{fill:#E5BFB5;}
	.st65{fill:url(#SVGID_1_);}
	.st66{fill:#7F1C5C;}
	.st67{fill:url(#SVGID_2_);}
	.st68{fill:#3D0C04;}
	.st69{fill:#59140A;}
	.st70{opacity:0.38;fill:#FFFFFF;}
	.st71{opacity:0.5;}
	.st72{opacity:0.68;fill:#FFFFFF;}
	.st73{opacity:0.37;}
	.st74{opacity:0.94;fill:#FFFFFF;}
	.st75{opacity:0.25;fill:#FFFFFF;}
	.st76{opacity:0.88;}
	.st77{opacity:0.62;}
	.st78{opacity:0.59;fill:#FFFFFF;}
	.st79{fill:#CFD9E2;}
	.st80{fill:#C7D3E0;}
	.st81{fill:#96A6BC;}
	.st82{fill:url(#SVGID_3_);}
	.st83{fill:#66BCF7;}
	.st84{fill:url(#SVGID_4_);}
	.st85{opacity:0.7;fill:url(#SVGID_5_);}
	.st86{fill:#A3CCE2;}
	.st87{fill:#8ACDFF;}
	.st88{fill:#D1203D;}
	.st89{fill:#AA0031;}
	.st90{fill:url(#SVGID_6_);}
	.st91{fill:#DCE1E5;}
	.st92{fill:#D19D90;}
	.st93{fill:#FF781D;}
	.st94{opacity:0.42;fill:#C7D3E0;}
	.st95{fill:url(#SVGID_7_);}
	.st96{fill:#AF664B;}
	.st97{fill:#BF845C;}
	.st98{opacity:0.36;fill:#FFFFFF;}
	.st99{opacity:0.37;fill:#FFFFFF;}
	.st100{fill:url(#SVGID_8_);}
	.st101{fill:#97D3FF;}
	.st102{fill:#468BB7;}
	.st103{fill:#743064;}
	.st104{fill:#303030;}
	.st105{fill:#56585E;}
	.st106{fill:#0A2126;}
	.st107{fill:#004555;}
	.st108{fill:#1E0C00;}
	.st109{fill:#0089A9;}
	.st110{fill:#3C1047;}
	.st111{fill:#FD5E5A;}
	.st112{fill:#FC7575;}
	.st113{fill:#AF9BE2;}
	.st114{fill:#CFC3EE;}
	.st115{fill:#8475AA;}
	.st116{fill:url(#SVGID_9_);}
	.st117{fill:#F8F0A1;}
	.st118{fill:#6B9FC5;}
	.st119{fill:url(#SVGID_10_);}
	.st120{fill:#290096;}
	.st121{fill:#F1ECFF;}
	.st122{fill:#D7CEEE;}
	.st123{fill:#FFE5A0;}
	.st124{fill:#FFFCED;}
	.st125{fill:#ECB2CD;}
	.st126{fill:#002B32;}
	.st127{fill:#746C87;}
	.st128{fill:#2E0A29;}
	.st129{fill:#001542;}
	.st130{fill:#FF4747;}
	.st131{fill:#4D475B;}
	.st132{fill:#998DB6;}
	.st133{fill:#703C6A;}
	.st134{fill:#47003F;}
	.st135{fill:#060032;}
	.st136{fill:#482044;}
	.st137{fill:#FF7B7B;}
	.st138{fill:#4B2847;}
	.st139{fill:#99CEDC;}
	.st140{fill:#95508D;}
	.st141{fill:#CEF2FA;}
	.st142{fill:#5DB9F4;}
	.st143{fill:#00485C;}
	.st144{fill:#333A6A;}
	.st145{fill:#47405C;}
	.st146{fill:#5F557B;}
	.st147{fill:#C3EDF4;}
	.st148{fill:#363A68;}
	.st149{fill:#260E0D;}
	.st150{fill:#2F1954;}
	.st151{fill:#0E0E0E;}
	.st152{fill:#F1A97E;}
	.st153{fill:#121841;}
	.st154{fill:#555DA2;}
	.st155{fill:#777EB5;}
	.st156{fill:#1E3340;}
	.st157{fill:#EEF1F9;}
	.st158{fill:#403003;}
	.st159{fill:#4C3D65;}
	.st160{fill:#554004;}
	.st161{fill:#322844;}
	.st162{fill:#000945;}
	.st163{fill:#F66D75;}
	.st164{fill:#98B0BF;}
	.st165{fill:#2D1175;}
	.st166{fill:#CAEBFF;}
	.st167{fill:#C33EA4;}
	.st168{fill:#7F71A4;}
	.st169{fill:#B2AAC8;}
	.st170{fill:#0A6980;}
	.st171{fill:#084F60;}
	.st172{fill:#D4C5F6;}
	.st173{fill:#313B3D;}
	.st174{fill:url(#SVGID_11_);}
	.st175{fill:#339CB4;}
	.st176{fill:#666E9E;}
	.st177{fill:#371C45;}
	.st178{fill:#170053;}
	.st179{opacity:0.53;fill:#FD5E5A;}
	.st180{fill:#322554;}
	.st181{fill:#1B2B80;}
	.st182{fill:#2F499F;}
	.st183{fill:#023135;}
	.st184{fill:#560D68;}
	.st185{fill:#510B5E;}
	.st186{fill:#CEF794;}
	.st187{fill:#7BD3E0;}
	.st188{fill:#B3EEFF;}
	.st189{opacity:0.7;fill:#7BD3E0;}
	.st190{fill:#99DFED;}
	.st191{fill:#D5F8FF;}
	.st192{fill:#1A5C60;}
	.st193{fill:#F77967;}
	.st194{fill:#25767F;}
	.st195{fill:#1F4E54;}
	.st196{fill:#DD5444;}
	.st197{fill:#275962;}
	.st198{fill:#318796;}
	.st199{fill:#70BCE2;}
	.st200{fill:#FF9E85;}
	.st201{fill:#E87558;}
	.st202{fill:#D7F4FC;}
	.st203{fill:#92CEF4;}
	.st204{fill:#C4F5FF;}
	.st205{fill:#ECFAF9;}
	.st206{fill:#F97B51;}
	.st207{fill:#184449;}
	.st208{fill:#ED7D60;}
	.st209{fill:#77B4E5;}
	.st210{fill:#FC8F74;}
	.st211{fill:#317A8B;}
	.st212{fill:#EF6B45;}
	.st213{fill:#A5E0FF;}
	.st214{fill:#1B484C;}
	.st215{fill:#304752;}
	.st216{fill:#C6E4FF;}
	.st217{fill:#13B789;}
	.st218{opacity:0.6;}
	.st219{fill:#008E5D;}
	.st220{fill:#009B00;}
	.st221{opacity:0.4;fill:#FFFFFF;}
	.st222{fill:#B1EDB7;}
	.st223{fill:#EB4A78;}
	.st224{fill:#68396B;}
	.st225{fill:#F69EA7;}
	.st226{opacity:0.32;fill:#F69EA7;}
	.st227{fill:none;}
	.st228{fill:#3B89C4;}
	.st229{fill:url(#SVGID_12_);}
	.st230{fill:#DB857D;}
	.st231{fill:none;stroke:#FFFFFF;stroke-width:0.7412;stroke-miterlimit:10;}
	.st232{fill:url(#SVGID_13_);}
	.st233{fill:url(#SVGID_14_);}
	.st234{fill:url(#SVGID_15_);}
	.st235{fill:url(#SVGID_16_);}
	.st236{fill:url(#SVGID_17_);}
	.st237{fill:url(#SVGID_18_);}
	.st238{fill:url(#SVGID_19_);}
	.st239{fill:url(#SVGID_20_);}
	.st240{fill:url(#SVGID_21_);}
	.st241{fill:url(#SVGID_22_);}
	.st242{fill:url(#SVGID_23_);}
	.st243{fill:url(#SVGID_24_);}
	.st244{fill:url(#SVGID_25_);}
	.st245{fill:url(#SVGID_26_);}
	.st246{opacity:0.49;fill:#E6E6E6;}
</style>
<g id="Слой_1">
</g>
<g id="Layer_3">
</g>
<g id="Layer_2">
</g>
<g id="Layer_4">
	<path class="st186" d="M355.4,1667.7c0,0-304.5-285.9-110.8-622.2c193.7-336.3,453.8-167.2,441.3-558.6
		c-12.6-391.4,598.3-425.1,792.7-311.6c194.4,113.5,193.3,250.2,594.7,205c401.4-45.2,478.1,331.8,373.7,524
		c-148.2,272.6,411.2,227.7,58.7,763.4H355.4z"/>
	<g class="st71">
		<path class="st187" d="M1514.5,931.6l-58,690c0,0-6.1,41.8,25,41.9c51.2,0.1,254.6,0,254.6,0s-38.5-8.7-38-28.3
			c0.5-23.1,67.8-710.1,67.8-710.1L1514.5,931.6z"/>
		<path class="st188" d="M1752.6,1651c-10.1,0-204.4,0.6-254.2,0c-21.7-0.3-25.5-19.3-25.7-31.6c-0.1-5.9,0.7-10.3,0.7-10.3
			l1.5-17.9l3.8-45.7l3.4-40.4l4.4-51.9l3.7-43.8l41.2-490.3l251.4-6.5c0,0-28.3,287.5-48.4,496.8c-2.2,23.3-4.4,45.7-6.3,66.5
			c-0.6,6.7-1.2,13.2-1.8,19.5c-1.9,19.8-3.6,38-5,54c-0.8,8.5-1.5,16.3-2.1,23.5c-2.6,28.2-4.1,46.2-4.1,49.7c0,2,0.2,3.9,0.5,5.6
			C1719.6,1650.3,1748.9,1651,1752.6,1651z"/>
		<polygon class="st188" points="904,556.2 1045.3,1124 1064.7,1201.7 1130.5,1466.2 2353.6,1466.2 2111,556.2 		"/>
		<polygon class="st187" points="904,556.2 884.4,562.7 1104.5,1485.9 1130.5,1466.2 		"/>
		<polygon class="st187" points="1104.5,1485.9 2320,1485.9 2353.6,1466.2 1130.5,1466.2 		"/>
		
			<rect x="1531.3" y="1651.3" transform="matrix(-1 -1.224647e-16 1.224647e-16 -1 3325.8711 3315.1143)" class="st188" width="263.2" height="12.5"/>
		<polygon class="st189" points="1727.6,1485.9 1726.3,1495.5 1478.7,1545.5 1482.1,1505.1 1483.8,1485.9 		"/>
		<path class="st190" d="M1752.6,1651c-10.1,0-204.4,0.6-254.2,0c-21.7-0.3-25.5-19.3-25.7-31.6l246.3-46.3
			c-2.6,28.2-4.1,46.2-4.1,49.7c0,2,0.2,3.9,0.5,5.6C1719.6,1650.3,1748.9,1651,1752.6,1651z"/>
		<polygon class="st190" points="1667.8,1282 1130.5,1466.2 1064.7,1201.7 		"/>
		<polygon class="st191" points="904,556.2 2111,556.2 2305.3,1287.5 1086.1,1287.5 		"/>
		<polygon class="st190" points="2306,1287.5 2295.9,1287.5 2213.1,971.8 2106.8,566 919,566 1098.9,1287.5 1086.1,1287.7 
			904,556.2 2115.1,555.1 2116.2,559.2 2222.5,967.2 		"/>
		<polygon class="st188" points="2307.8,1294.6 2298.1,1295.9 2213.1,971.8 2222.5,967.2 		"/>
	</g>
	<g>
		<path class="st192" d="M605.7,1000.9c-2-6.1,27.4,7.9,62.5-3.9c30.2-10.1,3-29.9,10.7-54.9c5.5-17.8,3.8-65.8-43-67.7
			c0,0-11.2-6.8-27.5-1.4C571.5,885.3,494.7,1009.7,605.7,1000.9z"/>
		<path class="st193" d="M656.9,1106.1c0,0,4.4,8.8,12.5,18.9c9.7,12.2,60.7-16.7,56.3-18.9c-4.4-2.2-30-76-36.1-85.3
			c-6.1-9.3-26.9-14.1-26.9-14.1L656.9,1106.1z"/>
		<path class="st194" d="M484.9,1603.8c0,0-14.1,12.8-11.3,22c2.7,9.1,15.4,15.2,17.2,26.4s8.6,17.2,14.8,17.2c6.2,0,29.4,0,29.4,0
			s4.5-7.8-6.4-10.2c-11-2.4-15.1-15.5-14.4-27.6c0.7-12.2-1-28.4-1-28.4l-23.3-5.4L484.9,1603.8z"/>
		<path class="st195" d="M604,1609.3c0,0-5.1,54.4,1.1,57.4l79-0.2c0,0,0-9.1-12.7-11.1c-12.7-2-35-9.5-38.8-26
			C628.9,1612.8,604,1609.3,604,1609.3z"/>
		<path class="st193" d="M543.1,1069.4c0,0-1.2,16.6,0,36.5c0.8,13.2,14.1,30.9,16,35.3c4.8,11,10.1,12.8,10.1,12.8l41.5,10.2
			l14.6,3.6l46-13.7c0,0,21-58.5,12.5-91.4c-8.4-32.9-21.3-55.8-21.3-55.8s-31.3-7-86.4-3.1L543.1,1069.4z"/>
		<path class="st196" d="M539.2,1106.4c0.8,13.2,18.1,30.4,20,34.8c4.8,11,10.1,12.8,10.1,12.8l41.5,10.2l7.5-21.5
			c0,0-60.6-15.9-50.9-72.1L539.2,1106.4z"/>
		<path class="st197" d="M668.5,1162.9c0,0,22.8,70.9,24.3,95.1c1.5,24.2-43.6,343.1-45.4,354.2c-1.7,10.5-14.7,17.2-14.7,17.2
			s-6,3.5-14.5,1.1c-11.9-3.4-15.6-7.4-15.6-7.4s-17.7-227.5-6.8-308.7c11-81.3,11.1-151.5,11.1-151.5H668.5z"/>
		<path class="st198" d="M571.9,1160.8c0,0-34.8,46.6-38,78.2c-3.2,31.5-5.1,142.3-12,173c-6.9,30.7-32.3,89.9-32.3,185.8
			c0,0,2.6,5.5,10.8,8.4c2.6,0.9,6.1,1.8,9.5,2.6c6.7,1.5,13.6-1.7,16.7-7.9c17.1-34.5,71.8-145.9,74.6-169
			c2-16.4,19.2-124.6,56.9-188.2c9-15.3-5.5-75.9-5.5-75.9L571.9,1160.8z"/>
		<path class="st197" d="M672.1,1151.9c0,0-9.1,7.2-27.3,7.6c-21.7,0.4-75.5-5.5-75.5-5.5s-2.4,6.7-2.3,13.7
			c0,0,65.7,16.6,103.8,2.4C670.8,1170.1,675.7,1160.9,672.1,1151.9z"/>
		<g>
			<path class="st5" d="M640.1,1167c0-6.2,4.4-11.2,9.9-11.2c5.5,0,9.9,5,9.9,11.2c0,6.2-4.4,11.2-9.9,11.2
				C644.6,1178.2,640.1,1173.2,640.1,1167z M643.4,1167c0,4.4,3,7.9,6.6,7.9c3.7,0,6.6-3.6,6.6-7.9c0-4.4-3-7.9-6.6-7.9
				C646.4,1159.1,643.4,1162.7,643.4,1167z"/>
		</g>
		<polygon class="st199" points="602.6,1198.6 701.3,1199.6 749.9,1085.4 651.2,1084.4 		"/>
		<path class="st200" d="M615.5,1147l7.2-8.9c0,0,4.9-4.4,8.5-5.1c3.6-0.7,11.1-5.1,11.8-3.9c0.7,1.2-5.8,9.9-5.8,9.9l-0.3,0
			c7.5,5.6,26.3,0.7,28.6,2.9c2.8,2.8-3.9,8.8-7.5,12.1c-3.6,3.4-13.9,9-21.9,6.5c-5.9-1.8-15.1-3.7-15.1-3.7L615.5,1147z"/>
		<path class="st200" d="M742.5,1105.5c0,0-6.2-7.1-10.2-3.7c-3.9,3.4,1,20,4.8,18.3C740.9,1118.4,744.6,1107.5,742.5,1105.5z"/>
		<path class="st193" d="M576.2,1003.6c0,0-28.3,3.1-48.6,40c-16,29.1-43.3,82.6-33,97.8c4.5,6.6,48,30.3,131.7,16.8
			c0,0-1.3-10.6-8.1-15.5c0,0-70.5-22.6-70.4-27.1c0.2-8.5,9.5-15.9,48.9-55.3C607.5,1049.6,576.2,1003.6,576.2,1003.6z"/>
		<path class="st200" d="M598,1005.1c-1-1.3,0.3-5.5,1.8-13.2c1.4-7,3.8-17.8,3.7-30l2.1,0.3l35,5.9c0,0-0.8,9.4-0.8,18.2
			c0,0.1,0,0.1,0,0.2c0,7.7,2.1,19.2-0.5,20.8C626.1,1015.1,601.7,1010.2,598,1005.1z"/>
		<path class="st201" d="M640.7,968.2c0,0-0.7,13.2-0.7,22c-19.6-0.5-30.1-19.5-34.3-27.9L640.7,968.2z"/>
		<path class="st200" d="M642.8,983.9c0,0-45.9-6.5-41.4-35.1c4.5-28.5,1.6-48.6,31.1-45.6c29.5,3,33.5,14.8,34.3,24.7
			C667.6,937.7,654.9,984.9,642.8,983.9z"/>
		<path class="st192" d="M653.5,905.8c0,0-17.9,31.5-37.9,33.4c-20,1.9-27.6-4.6-27.6-4.6s16.6-9.4,23-29.4
			C611,905.2,646.6,888.4,653.5,905.8z"/>
		<path class="st192" d="M650,908c0,0,8.7,5,11.5,12.4c2.7,7.2,4.5,16.5,2,27.2c0,0,13.1-21.2,4.5-35.8C658.9,896.3,650,908,650,908
			z"/>
	</g>
	<path class="st202" d="M248,1319.5l24.9-2.8c2.1-0.2,4.1,0.8,5.2,2.5c1.4,2.2,3,4.4,4.6,6.6c3.1,4,6.4,7.7,9.9,11
		c1.6,1.6,2.2,3.9,1.4,6l-9.6,24.4c-1,2.6,0.1,5.6,2.7,6.8l21.5,10.6c2.4,1.2,5.4,0.4,6.8-1.9l13-20.4c1.2-2,3.7-2.9,6-2.3
		c9.9,2.6,20.2,3.6,30.4,3c2.5-0.1,4.8,1.5,5.5,3.8l4.4,14c0.9,2.7,3.6,4.3,6.3,3.8l23.3-4.7c0.5-0.1,0.9-0.2,1.3-0.4
		c2-1,3.3-3.2,3-5.5l-2.1-18.6l-0.5-4.5c3.9-2.2,7.7-4.7,11.3-7.5c4.9-3.8,9.3-7.9,13.3-12.3c1.5-1.7,3.9-2.3,6-1.4l19.7,7.7
		c2.7,1,5.7-0.1,7-2.7l8.1-16.4l2.3-4.7c1.3-2.6,0.4-5.7-2-7.2l-17-10.9c-2-1.2-3-3.6-2.4-5.8c1.6-6.7,2.5-13.6,2.6-20.4
		c0.1-0.6,0.1-1.1,0.1-1.7c0-0.2,0-0.4,0-0.6c0.2-2.2,1.7-4,3.9-4.7l22.8-7.2c0.3-0.1,0.5-0.2,0.7-0.3c2.2-1.1,3.5-3.6,3-6
		l-4.7-23.3c-0.6-2.8-3.2-4.7-6-4.4l-26,2.9c-2.2,0.3-4.3-0.9-5.4-2.8c-2.3-4.3-5.1-8.4-8.1-12.5c-1.6-2.1-3.3-4.2-5.1-6.1
		c-1.4-1.6-1.9-3.9-1.1-5.8l9.2-23.5c1-2.6-0.1-5.5-2.6-6.8l-21.3-10.5c-2.6-1.3-5.7-0.4-7.3,2l-10.3,16.1c-1.4,2.2-4,3.1-6.4,2.3
		c-9.5-3.3-19.4-5-29.4-5.3c-2.4,0-4.5-1.6-5.2-3.9l-6.5-20.5c-0.9-2.8-3.7-4.4-6.5-3.8l-23.2,4.6c-2.8,0.6-4.7,3.2-4.3,6l0.1,1.1
		l2.4,21.7c0.3,2.3-0.9,4.5-3,5.6l0,0c-5,2.6-9.8,5.6-14.4,9.1c-2.5,1.9-4.8,3.9-7,5.9c-1.5,1.5-3.8,1.9-5.7,1.1l-20-7.8
		c-2.7-1.1-5.8,0.1-7.1,2.7l-10.5,21.2c-0.3,0.6-0.5,1.2-0.5,1.9c-0.2,2,0.7,4.1,2.5,5.3l13.6,8.7c1.7,1.1,2.6,3,2.5,4.9
		c0,0.5-0.1,1-0.3,1.5c-4.1,12.2-5.8,25-4.9,37.8c0.2,2.2-1,4.2-2.9,5.2c-0.3,0.1-0.6,0.3-0.9,0.4l-18.4,5.8
		c-2.7,0.8-4.3,3.6-3.7,6.3l0.1,0.5l4.5,22.7C242.5,1317.9,245.1,1319.8,248,1319.5z M407.6,1248.6c1.4,3.6,2.6,7.4,3.4,11.5
		c1.5,7.8-0.1,20.2-3.6,27.4c-0.4,0.8-0.8,1.5-1.2,2.3c-24.4,45.3-88.4,36.3-98.9-14.8c-1.4-6.7-0.5-16.4,1.9-23.9
		c0.6-1.7,1.2-3.3,1.9-4.7c3.3-6.5,7.3-12,11.9-16.4C349.3,1204.8,393.2,1213,407.6,1248.6z"/>
	<path class="st202" d="M813.1,428.4l21-2.4c1.8-0.2,3.5,0.6,4.4,2.1c1.2,1.9,2.5,3.7,3.9,5.5c2.6,3.4,5.3,6.5,8.3,9.3
		c1.4,1.3,1.8,3.3,1.1,5.1l-8.1,20.6c-0.9,2.2,0.1,4.7,2.2,5.8l18.1,9c2.1,1,4.5,0.3,5.8-1.6l10.9-17.1c1-1.7,3.1-2.5,5-2
		c8.3,2.2,17,3.1,25.6,2.6c2.1-0.1,4,1.2,4.7,3.2l3.7,11.8c0.7,2.2,3,3.6,5.3,3.2l19.6-4c0.4-0.1,0.8-0.2,1.1-0.4
		c1.7-0.8,2.8-2.7,2.5-4.6l-1.7-15.7l-0.4-3.8c3.3-1.8,6.5-4,9.5-6.3c4.1-3.2,7.9-6.6,11.2-10.4c1.3-1.4,3.3-1.9,5-1.2l16.6,6.5
		c2.3,0.9,4.8-0.1,5.9-2.3l6.9-13.8l2-4c1.1-2.2,0.4-4.8-1.7-6.1l-14.3-9.2c-1.7-1-2.5-3-2-4.9c1.3-5.6,2.1-11.4,2.2-17.2
		c0-0.5,0-1,0-1.5c0-0.2,0-0.3,0-0.5c0.2-1.9,1.5-3.4,3.2-3.9l19.2-6.1c0.2-0.1,0.4-0.2,0.6-0.2c1.9-0.9,2.9-3,2.5-5.1l-3.9-19.6
		c-0.5-2.4-2.7-4-5.1-3.7l-21.9,2.5c-1.9,0.2-3.6-0.7-4.5-2.4c-2-3.6-4.3-7.1-6.9-10.5c-1.4-1.8-2.8-3.5-4.3-5.2
		c-1.2-1.3-1.6-3.2-0.9-4.9l7.7-19.8c0.9-2.2-0.1-4.7-2.2-5.7l-17.9-8.8c-2.2-1.1-4.8-0.4-6.1,1.7l-8.7,13.6
		c-1.2,1.8-3.4,2.6-5.4,1.9c-8-2.8-16.3-4.2-24.7-4.4c-2,0-3.8-1.3-4.4-3.3l-5.5-17.3c-0.7-2.3-3.1-3.7-5.5-3.2l-19.5,3.9
		c-2.3,0.5-3.9,2.7-3.7,5l0.1,0.9l2,18.2c0.2,2-0.8,3.8-2.5,4.7l0,0c-4.2,2.2-8.2,4.7-12.1,7.7c-2.1,1.6-4,3.3-5.9,5
		c-1.3,1.2-3.2,1.6-4.8,0.9l-16.8-6.6c-2.3-0.9-4.9,0.1-6,2.3l-8.8,17.8c-0.2,0.5-0.4,1.1-0.5,1.6c-0.2,1.7,0.6,3.5,2.1,4.4
		l11.5,7.3c1.4,0.9,2.2,2.5,2.1,4.1c0,0.4-0.1,0.9-0.2,1.3c-3.5,10.2-4.9,21-4.1,31.8c0.2,1.8-0.9,3.5-2.5,4.4
		c-0.2,0.1-0.5,0.2-0.7,0.3l-15.5,4.9c-2.2,0.7-3.6,3-3.2,5.3l0.1,0.5l3.8,19.1C808.5,427.1,810.7,428.7,813.1,428.4z M947.5,368.8
		c1.2,3,2.2,6.2,2.9,9.7c1.3,6.6-0.1,17-3,23.1c-0.3,0.6-0.6,1.3-1,1.9c-20.5,38.1-74.4,30.6-83.3-12.5c-1.1-5.6-0.4-13.8,1.6-20.1
		c0.5-1.4,1-2.8,1.6-4c2.7-5.5,6.1-10.1,10-13.8C898.4,331.9,935.3,338.8,947.5,368.8z"/>
	<g>
		<path class="st203" d="M2099.3,660.8v675.6c0,24.7-18.9,44.7-42.3,44.7H861.8c-23.3,0-42.3-20-42.3-44.7V660.8
			c0-24.7,18.9-44.7,42.3-44.7H2057C2080.4,616.1,2099.3,636.1,2099.3,660.8z"/>
		<path class="st199" d="M2099.3,658.4v31H819.5v-31c0-23.3,18.9-42.3,42.3-42.3H2057C2080.4,616.1,2099.3,635,2099.3,658.4z"/>
		<g>
			<path class="st204" d="M1322.2,1026.3c20,25.6-3.9,65,9.8,94.2c2.6,5.6,6.6,10.6,8.8,16.3c3.6,9.6,2.1,20.2,4.4,30.2
				c2.2,10,11.3,20.2,21.3,17.5c8.7-2.3,12.1-12.7,11.9-21.5c-0.2-8.8-2.7-17.9-0.1-26.3c3.1-10.3,13.7-17.4,24.5-18.4
				c10.9-1,21.7,3.5,30.1,10.4c9.2,7.5,19.2,18.9,30.5,14.9c10.8-3.8,11.7-19.1,6.4-29.2s-14.5-17.9-18.4-28.5
				c-4.9-13.3-0.4-28.5,7.6-40.3c8-11.8,19.1-21.1,29.2-31.3c3.4-3.5,6.9-7.4,7.5-12.2c0.6-4.8-3.3-10.4-8.1-9.7
				c-3.3,0.4-5.6,3.3-8.1,5.4c-11,9.1-29.2,3.8-37.6-7.7c-8.4-11.5-9.1-26.8-7.6-40.8c17.2,4,32.8-19.7,49.4-13.7
				c10.4,3.7,13.3,16.5,16,27c4.9,18.8,14.3,36.4,16.7,55.7c4.7,36.7-15.9,76.9,2.4,109.2c6.9,12.1,18.4,21,30.7,27.9
				c29.2,16.4,66.3,22.8,96.5,8.2c34.8-16.8,67.8-56.3,68-58.7c3.4-29.5-1-47.4,4.3-56.5c20-34.4,79.7-9,108.4-7.3
				c79.4,4.7,74.8-46.5,74.6-70.2c-0.6-57.3-11.8-67.8-69.5-75c-30.3-3.7-61.4,2.4-91.2-4.1c-26.1-5.7-49-20.6-73.9-30
				c-45.8-17.4-98.8-15.4-143.1,5.3c-9.6,4.5-19,9.8-29.4,11.5c-10.4,1.7-22.6-1.2-28.2-10c-6.6-10.5-1.5-24.4,5.6-34.6
				c7.1-10.2,16.5-19.7,18.8-31.8c3.3-16.9-8.9-34.1-25-40.9c-16.1-6.8-34.7-4.8-51.3,0.8c-30.2,10.2-55.1,31.6-77.5,54
				c-26.5,26.6-52,57.8-55.7,94.9c-1.5,14.6,0.6,29.7-4.5,43.7c-3.8,10.5-13.2,18.4-9.5,30.1
				C1273.8,1007.1,1308.8,1009,1322.2,1026.3z"/>
			<path class="st204" d="M1787.8,845.8c5.2,4.1,10.5,8.2,15.7,12.3c3.6,2.8,7.3,5.7,11.3,6.4c8.3,1.5,16-8.5,15.5-20.4
				c-0.4-11.9-8.8-23.1-17.1-22.7c-5.1,0.2-10.3,4.1-15.1,0.7c-10-7-16.8-41.2-25.6-18.1C1766.1,821,1777.2,837.8,1787.8,845.8z"/>
			<path class="st204" d="M1168.6,894c11,7,22,14,33,21c6.1,3.9,13.1,10.1,10.5,16.8c-3.2,8.3-15.5,5.8-24.5,7
				c-12.3,1.6-21.6,15-18.6,26.8c2.2,8.8,9.4,19.1,2.8,25.5c-6,5.7-16.5,0.3-24.1,3.6c-4.5,1.9-7.4,6.6-11.9,8.5
				c-3.9,1.6-8.5,1-12.2,3c-4.6,2.5-6.2,8.3-10,11.8c-11.6,10.7-32.4-4.8-46,3.4c-10.3,6.3-8.6,22.5-0.5,31.4
				c8.1,8.9,20.1,13.2,30.3,19.6c10.3,6.4,19.7,17.2,17.5,29c-2.3,12.2-16.5,22.7-11.5,34c1.6,3.5,4.7,6,7.2,8.9
				c6.4,7.5,8.2,18.4,5.2,27.8c-3,9.4-10.3,17.2-19.2,21.6c-5.7,2.8-11.9,4.3-17.6,7.1c-15.4,7.6-24.7,23.3-32.8,38.2
				c-10.2,18.5-20.2,37.7-23.5,58.5c-1.1,6.9-2.2,15-8.4,18.4c-7.3,4-16.6-1.9-20.1-9.3c-3.5-7.4-3.4-16-5.4-23.9
				c-3.7-15-14.8-27.3-18.7-42.3c-9.3-35.7,24.8-71.2,18.3-107.5c-1.4-7.6-4.5-14.8-5.6-22.4c-2.4-15.1,3.5-31.2,15.1-41.3
				c12.5-11,31.7-16.5,36.7-32.2c5.5-17.3-10.5-35.1-7.7-53.1c0.9-5.7,3.7-11.1,4.5-16.8c0.9-6.6-0.8-13.3-2.7-19.7
				c-5.4-18-11.8-38.2-2.9-54.8c5.4-10,15.6-16.6,26-21.6c24.1-11.6,51.1-16,77.7-13.9c11.2,0.9,21.5-2.2,23,10.2
				C1154,880.7,1156,886,1168.6,894z"/>
			<path class="st204" d="M1246.4,801.1c5.9-4.1,13-6.3,19.3-9.8c6.3-3.5,12.2-9.1,12.8-16.2c0.4-5.5-2.6-10.9-6.8-14.7
				c-4.2-3.7-9.4-6.1-14.7-8.2c-10.3-4.2-20.8-7.6-31.5-10.4c-5.9-1.5-12.3-2.9-18.1-0.9c-5.2,1.7-9.1,5.8-12.7,9.8
				c-5,5.6-9.8,11.7-11.8,18.8c-2.9,10.3,0.2,21.2,4.4,31.1c3.5,8.1,25.2,51.1,36.3,46.3c4.4-1.9,6-20.5,7.7-25
				C1234.6,813.8,1239.1,806.2,1246.4,801.1z"/>
			<path class="st204" d="M1879.6,1196.7c9.2-6.4,20.2-9.7,30-15.2c9.8-5.4,19-14.2,19.9-25.2c0.7-8.6-4-17-10.5-22.8
				c-6.5-5.8-14.7-9.5-22.8-12.8c-16-6.5-32.4-11.9-49.1-16.3c-9.2-2.4-19.1-4.5-28.2-1.5c-8,2.7-14.2,9-19.8,15.2
				c-7.8,8.7-15.2,18.1-18.4,29.3c-4.6,16,0.3,33.1,6.9,48.3c5.4,12.6,39.2,79.5,56.5,72c6.8-2.9,9.3-31.9,12-38.9
				C1861.2,1216.4,1868.2,1204.7,1879.6,1196.7z"/>
		</g>
		<g>
			<path class="st205" d="M869.6,656.7c0-4.6,3.8-8.4,8.4-8.4c4.6,0,8.4,3.8,8.4,8.4c0,4.6-3.8,8.4-8.4,8.4
				C873.4,665.1,869.6,661.4,869.6,656.7z"/>
			<circle class="st205" cx="923.2" cy="656.7" r="8.4"/>
			<circle class="st205" cx="968.3" cy="656.7" r="8.4"/>
		</g>
		<g>
			<g>
				<path class="st193" d="M1251.5,867.2c0,28.9,48.7,75.2,48.7,75.2s48.7-46.3,48.7-75.2s-21.8-52.4-48.7-52.4
					C1273.3,814.8,1251.5,838.2,1251.5,867.2z M1271.5,864.1c0-15.8,12.9-28.7,28.7-28.7c15.9,0,28.7,12.9,28.7,28.7
					c0,15.9-12.8,28.7-28.7,28.7C1284.4,892.8,1271.5,880,1271.5,864.1z"/>
			</g>
			<path class="st205" d="M1271.5,864.1c0-15.9,12.9-28.7,28.7-28.7s28.7,12.9,28.7,28.7c0,15.9-12.9,28.7-28.7,28.7
				S1271.5,880,1271.5,864.1z"/>
		</g>
		<g>
			<g>
				<path class="st193" d="M1006.6,1138.2c0,20.6,34.7,53.6,34.7,53.6s34.7-33,34.7-53.6c0-20.6-15.5-37.3-34.7-37.3
					C1022.2,1100.9,1006.6,1117.6,1006.6,1138.2z M1020.9,1136c0-11.3,9.2-20.5,20.5-20.5c11.3,0,20.5,9.2,20.5,20.5
					c0,11.3-9.1,20.5-20.5,20.5C1030.1,1156.5,1020.9,1147.3,1020.9,1136z"/>
			</g>
			<path class="st205" d="M1020.9,1136c0-11.3,9.2-20.5,20.5-20.5c11.3,0,20.5,9.2,20.5,20.5c0,11.3-9.2,20.5-20.5,20.5
				C1030.1,1156.5,1020.9,1147.3,1020.9,1136z"/>
		</g>
	</g>
	<g>
		<path class="st202" d="M967.5,1043.7H750.1c-17.2,0-31.2-14-31.2-31.2V788.1c0-17.2,14-31.2,31.2-31.2h217.4
			c17.2,0,31.2,14,31.2,31.2v224.4C998.7,1029.7,984.6,1043.7,967.5,1043.7z"/>
		<g>
			<path class="st198" d="M943.3,891c0,46.7-37.8,84.5-84.5,84.5c-46.7,0-84.5-37.8-84.5-84.5c0-46.7,37.8-84.5,84.5-84.5
				c5.3,0,10.5,0.5,15.5,1.4c-10.5,38.4-24.5,89.3-25.5,92.5c1.7-2.7,53.1-25.8,88.2-41.3C941.1,869,943.3,879.7,943.3,891z"/>
			<path class="st193" d="M941.7,849.9c-31,13.7-82.3,36.5-84,39.1c0.9-3,15.1-54.6,24.6-89.2C908.7,807,930.4,825.6,941.7,849.9z"
				/>
		</g>
	</g>
	<g>
		<path class="st202" d="M1395.3,656.7H1109c-21.1,0-38.4-17.3-38.4-38.4V360c0-21.1,17.3-38.4,38.4-38.4h286.3
			c21.1,0,38.4,17.3,38.4,38.4v258.2C1433.8,639.4,1416.5,656.7,1395.3,656.7z"/>
		<g>
			<g>
				<path class="st203" d="M1392.2,601.3h-281v-89.4h281V601.3z M1114.6,597.9h274.1v-82.5h-274.1V597.9z"/>
			</g>
			<g>
				<rect x="1131.5" y="535.9" class="st203" width="108.7" height="7.1"/>
				<rect x="1251.7" y="535.9" class="st203" width="77.1" height="7.1"/>
				<rect x="1131.5" y="556.2" class="st203" width="60" height="7.1"/>
				<rect x="1201.7" y="556.2" class="st203" width="77.1" height="7.1"/>
				<rect x="1286.8" y="556.2" class="st203" width="77.1" height="7.1"/>
			</g>
		</g>
		<g>
			<rect x="1112.9" y="443.9" class="st198" width="29.3" height="40.7"/>
			<rect x="1163.1" y="416.8" class="st198" width="29.3" height="67.8"/>
			<rect x="1213.3" y="394.7" class="st193" width="29.3" height="89.9"/>
			<rect x="1263.5" y="412.7" class="st198" width="29.3" height="71.9"/>
			<rect x="1313.7" y="374.4" class="st198" width="29.3" height="110.2"/>
			<rect x="1363.9" y="354.7" class="st193" width="29.3" height="129.9"/>
		</g>
	</g>
	<g>
		<path class="st198" d="M2339.6,1068.4h-370.5c-20.8,0-37.8-17-37.8-37.8V842.9c0-20.8,17-37.8,37.8-37.8h370.5
			c20.8,0,37.8,17,37.8,37.8v187.8C2377.3,1051.4,2360.3,1068.4,2339.6,1068.4z"/>
		<g>
			<g>
				<path class="st204" d="M2133.4,1021.9h-164.9v-52.5h164.9V1021.9z M1970.5,1019.8h160.9v-48.4h-160.9V1019.8z"/>
			</g>
			<g>
				<rect x="1980.4" y="983.5" class="st204" width="63.8" height="4.2"/>
				<rect x="2050.9" y="983.5" class="st204" width="45.3" height="4.2"/>
				<rect x="1980.4" y="995.4" class="st204" width="35.2" height="4.2"/>
				<rect x="2021.6" y="995.4" class="st204" width="45.3" height="4.2"/>
				<rect x="2071.5" y="995.4" class="st204" width="45.3" height="4.2"/>
			</g>
		</g>
		<g>
			<g>
				<path class="st204" d="M2330,1021.9h-164.9v-52.5H2330V1021.9z M2167.1,1019.8H2328v-48.4h-160.9V1019.8z"/>
			</g>
			<g>
				<rect x="2177" y="983.5" class="st204" width="63.8" height="4.2"/>
				<rect x="2247.5" y="983.5" class="st204" width="45.3" height="4.2"/>
				<rect x="2177" y="995.4" class="st204" width="35.2" height="4.2"/>
				<rect x="2218.2" y="995.4" class="st204" width="45.3" height="4.2"/>
				<rect x="2268.1" y="995.4" class="st204" width="45.3" height="4.2"/>
			</g>
		</g>
		<g>
			<g>
				<g>
					<path class="st204" d="M2340.2,948.6h-371.8v-30.1h371.8V948.6z M1972,945.1h364.7V922H1972V945.1z"/>
				</g>
				<rect x="1970.2" y="920.2" class="st204" width="288.6" height="26.6"/>
			</g>
		</g>
		<g>
			<g>
				<g>
					<path class="st204" d="M2340.2,888.6h-371.8v-30.1h371.8V888.6z M1972,885.1h364.7V862H1972V885.1z"/>
				</g>
				<rect x="1968.4" y="858.5" class="st206" width="193.3" height="30.1"/>
			</g>
		</g>
	</g>
	<g>
		<g>
			<path class="st200" d="M1798,753.1c-1.7,1.9-1.9,4.1-1.1,6.4c0,0,0,0,0,0c1.5,4.3,6.6,9,12.6,13.8c0.8,0.6,1.4,1.2,2,1.7
				c0.2,0.1,0.3,0.3,0.5,0.4c0.1,0.1,0.2,0.2,0.3,0.3c5.5,5.1,3.4,6.3,13.4,16.6c11.3,11.8,19.1,12,21.3,10.9
				c1.9-0.9-1.9-7.2-6.2-14.2c-0.2-0.3-0.4-0.7-0.6-1c-0.6-0.9-1.1-1.9-1.7-2.8c-5-8.5-3.7-12.4-2.5-25c1-10.2,15.9-57.1,15.9-57.1
				l-21.7-3.7c0,0-6.5,37.3-13.7,43.1c-3.8,3.1-8.2,3.1-11.9,5.4c-0.3,0.2-0.5,0.3-0.8,0.5C1801.8,749.8,1799.6,751.2,1798,753.1z"
				/>
			<path class="st197" d="M1798,753.1c-1.7,1.9-1.9,4.1-1.1,6.4c0,0,0,0,0,0c1.9,4.3,6.9,9,12.6,13.8c0.7,0.6,1.4,1.2,2,1.7
				c0.2,0.1,0.3,0.3,0.5,0.4c0.1,0.1,0.2,0.2,0.3,0.3c5.5,5.1,3.4,6.3,13.4,16.6c11.3,11.8,19.1,12,21.3,10.9
				c1.9-0.9-1.9-7.2-6.2-14.2c-2.2-0.8-12.4-5-20.2-14.9c-6.6-8.4-11-19.1-15.5-25.6c-0.5-0.1-0.8-0.1-1.3-0.2
				C1801.8,749.8,1799.6,751.2,1798,753.1z"/>
			<path class="st200" d="M1972.9,739.6c1.3,6.7,10.9,5.6,21.6,3c10.7-2.6,8.1,0.5,23.3-1.2c15.2-1.7,19.8-7.3,20.2-9.6
				c0.4-2-7.1-2.7-15.1-3.6c-1-0.1-2-0.2-3-0.4c-9.1-1.1-15.7-7-24-11.8c-7.8-4.6-19.5-23.1-19.5-23.1l-20.8,1.6
				c0,0,10.9,16.6,15.2,23.8c2.5,4.2,2.4,9.9,2,14.2C1972.6,734.8,1972.4,737.2,1972.9,739.6z"/>
			<path class="st197" d="M1994.5,742.6c10.7-2.6,8.1,0.5,23.3-1.2c15.2-1.7,19.8-7.3,20.2-9.6c0.4-2-7.1-2.7-15.1-3.6l-0.1,0.2
				c0,0-9.1,6.5-21.7,6.8c-10.3,0.3-21.2-2.7-28.3-2.6c-0.2,2.4-0.3,4.8,0.2,7.1C1974.3,746.3,1983.8,745.2,1994.5,742.6z"/>
			<path class="st196" d="M1893.1,606.5l-19.5,52.4l-25.4,68.4c0,0-6.9,0.7-13.5-1.2c-6.1-1.8-13.1-6.4-13.1-6.4
				s7.1-73.4,20.2-115.6c3.4-10.8,7.2-19.6,11.3-24.5C1873.7,555.5,1893.1,606.5,1893.1,606.5z"/>
			<path class="st193" d="M1873.3,523.3c-11.1-3.6-40-0.1-71.3,5.6c-8.7,1.6-17.4-2.4-22-9.9l0,0l-78.9-6.2c0,0-26,57.7-11.8,94.5
				c2.1,5.4,6.7,8.8,13.8,8.9c0,0,0,0,0,0c0,0,47.7,0.1,62.9,0.1c39.2,0,83-27,88.7-28.1c9.3-1.9,13,16.7,22.3,36.2
				c9.3,19.5,87.2,86.3,87.2,86.3s12,0.1,16.9-1.7c5.3-2,7.3-4.6,7.3-4.6S1902.1,532.6,1873.3,523.3z"/>
			<path class="st207" d="M1771.7,287.3c-5.9-3.5-11.6-4-15.1-3.9c-2.4,0.1-4.9-0.1-7.3-0.4c-30.1-4.4-48.3,39.3-49.3,52.5
				c-2,24.3-14.8,28-32.9,43.2c-36.2,30.5-25.6,65.9-5.8,79c11.9,7.9,32.8,0,32.8,0c0.3,0.2,57.3-31.9,85.4-47.3
				C1821.7,404.3,1788.6,297.4,1771.7,287.3z"/>
			<path class="st200" d="M1756,397.2c0.1,0.1-13.8,4.8-23.2,0.7c-8.8-3.9-15.4-18.3-15.3-18.3c4-0.2,8.4-3.7,11.7-26.6l1.7,0.6
				l28.6,10.3c0,0-2.1,9.2-3.4,17.9C1755.1,389.1,1754.5,396.1,1756,397.2z"/>
			<path class="st208" d="M1759.6,363.9c0,0-1.1,4.9-2.8,14.2c-16.4-3-23.5-15.6-25.8-24.5L1759.6,363.9z"/>
			<path class="st200" d="M1763.9,373c0,0-39.1-5.2-35.5-29.5c3.6-24.3,1-41.3,26.2-39c25.1,2.3,28.6,12.3,29.3,20.7
				C1784.7,333.5,1774.1,373.7,1763.9,373z"/>
			<path class="st207" d="M1782.5,311.8c0,0-25,21.6-42.1,23.3c-17,1.7-23.5-3.7-23.5-3.7s10-8.3,16.1-21.8c1.8-4,5.5-6.7,9.9-7.1
				C1755.1,301.5,1778.1,301,1782.5,311.8z"/>
			<path class="st207" d="M1766.8,309.9c0,0,8.4,8.1,11,14.1c2.5,5.8,3.3,19.7,1.3,25.2c0,0,13-25.4,5.7-37.7
				C1777,298.4,1766.8,309.9,1766.8,309.9z"/>
			<path class="st203" d="M1789,454.8c-1.2,79.1-0.3,62.6-9,70.1c-2.1,1.8-8,2.9-15.7,3.4c-24.3,1.6-66.9-2.4-68.6-6.9
				c-5.6-15.5-1.6-20.3-6.3-44.1c-0.5-2.5-1.1-5.3-1.8-8.2c-3.9-16.3-7.7-21.9,6.1-48.1c12.5-23.7,25.5-43,26.7-42.3
				c33.1,19.6,35.7,3.1,35.7,3.1S1789.5,416.2,1789,454.8z"/>
			<path class="st193" d="M1873.7,658.8l-25.4,68.4c0,0-6.9,0.7-13.5-1.2c-6.1-1.8-13.1-6.4-13.1-6.4s7.1-73.4,20.2-115.6
				L1873.7,658.8z"/>
			<path class="st203" d="M1756.2,381.8c0,0,34,5.8,38,20.4c4,14.6,17.1,103.5,17.1,103.5s-9.6,9.4-17.6,1.4
				c-8-8-25.1-83.2-25.1-83.2L1756.2,381.8z"/>
			<path class="st209" d="M1764.3,528.3c-24.3,1.6-66.9-2.4-68.6-6.9c-5.6-15.5-1.6-20.3-6.3-44.1l11.7-33c0,0-1.9,36.7,8.9,46.4
				c10.8,9.7,44.3,18.6,49.6,26.7C1762.2,521.3,1763.8,525.2,1764.3,528.3z"/>
			<path class="st200" d="M1736.5,512.8c0,0,23.9-5.3,27.8-3.2s13.3,9.9,14.5,12.6c1.2,2.7-8.6-2-11.8-2.9
				c-2.1-0.6-7.5,1.3-10.2,2.2c-11.3,3.8-18.2,1.8-18.2,1.8L1736.5,512.8z"/>
			<path class="st203" d="M1720.5,378.6c0,0-32.1,2-43.3,17.5c-15.7,21.9-46.7,115-28.9,127.4c20.1,14,91.3,3.7,91.3,3.7
				s2.4-11.1-0.9-16.4c-3.3-5.4-56.9-14-59.4-16.5c-2.5-2.5,30.9-48.2,30.9-55.7C1710.2,431.2,1720.5,378.6,1720.5,378.6z"/>
			<path class="st200" d="M1765.5,516.3c0,0,5,6.5,6.7,7.2c1.6,0.8,2.7,0.6,2.7,0.6l-3.4-6.1L1765.5,516.3z"/>
			<path class="st200" d="M1764.3,509.6l14.6,7.1c0,0-0.6,1-2.4,0.9c-1.8-0.1-6.3-1.7-6.3-1.7L1764.3,509.6z"/>
		</g>
		<g>
			<polygon class="st207" points="1888.9,526.3 1736.5,526.3 1736.5,529.6 1887.5,529.6 			"/>
			<polygon class="st207" points="1772.1,529.6 1887.5,529.6 1922.2,443.3 1807,443.3 			"/>
			<path class="st205" d="M1858.4,486.5c0.9-3-0.9-5.5-3.9-5.5c-3,0-6.2,2.5-7.1,5.5c-0.9,3,0.9,5.5,3.9,5.5
				S1857.5,489.5,1858.4,486.5z"/>
		</g>
	</g>
	<g>
		<g>
			<path class="st193" d="M1466.4,813.4c0,42.9,72.2,111.4,72.2,111.4s72.2-68.5,72.2-111.4c0-42.9-32.3-77.6-72.2-77.6
				S1466.4,770.5,1466.4,813.4z M1496,808.9c0-23.4,19.1-42.5,42.5-42.5c23.5,0,42.5,19.1,42.5,42.5c0,23.5-19,42.5-42.5,42.5
				C1515.1,851.4,1496,832.4,1496,808.9z"/>
		</g>
		<path class="st205" d="M1496,808.9c0-23.5,19-42.5,42.5-42.5s42.5,19,42.5,42.5c0,23.5-19,42.5-42.5,42.5S1496,832.4,1496,808.9z"
			/>
	</g>
	<g>
		<path class="st200" d="M1565.3,935.9c0,0-2.2-19.3-6.9-26.7c-4.7-7.4-22.4-12.1-23.5-11c-3.5,3.4,10.2,15.2,10.8,19.6
			c0.5,4.4-7,1.3-3.4,9.9c3,7.2,13,16.5,13,16.5L1565.3,935.9z"/>
		<path class="st196" d="M1556.7,933.8c6.5-5.1,7.8-5,7.8-5s59.7,51.7,65.5,56.3c5.8,4.6,95.4,30.6,95.4,30.6l14.2,72.8
			c0,0-121.2-58.6-135.7-70.5c-23.9-19.7-54.1-75-54.1-75S1551.7,937.8,1556.7,933.8z"/>
		<path class="st192" d="M1727.3,1633.8c0,0-1,24.9-5.8,30.9l-66.5,0.4c0.5-2.6,0.7-8.5,9.9-10.1c11.6-2,25.3-10.1,32.3-25.5
			C1704.7,1613.4,1727.3,1633.8,1727.3,1633.8z"/>
		<path class="st192" d="M1857.8,1630.2c0,0,4.6,33.1-1.7,33.6c-0.8,0.1-26.8,0.5-38,0.7c-13.2,0.2-34.9-0.2-34.9-0.2
			c-2.7,0.1-4.5-2.8-3.1-5.2c1.5-2.6,4.4-5.3,10-6.4c11.6-2.2,30.9-10.7,37.6-26.2C1834.8,1610.2,1857.8,1630.2,1857.8,1630.2z"/>
		<path class="st197" d="M1692.8,1291.3c0,0,18.5,64.7,71.5,177.1c53,112.4,55.3,166.5,55.3,166.5s8,2.8,18.7,1.7
			c11.5-1.2,19.6-6.4,19.6-6.4s-3.4-133.7-28.5-190.4c-25-56.7-30.1-211.9-30.1-211.9L1692.8,1291.3z"/>
		<path class="st198" d="M1663.1,1235.6c0,0-1.5,100.2,15.9,223.2c17.3,123,9.2,180.2,9.2,180.2s4.6,3.3,18.7,3.3
			c16.5-0.1,25-6.9,25-6.9s24.8-123.1,17.7-184.6c-7.1-61.6,34-211.3,34-211.3L1663.1,1235.6z"/>
		<path class="st200" d="M1745,1001.2l-19.6,14.5l-28.3-6c0.4-2.6,2.3-13.3,4-23c0.1-0.6,0.2-1.1,0.3-1.7c1.5-8.2,2.7-15.3,2.7-15.3
			l26.4-13.2l9.9-4.9c0,0.2-0.8,9.1-0.9,10.5C1737.7,985.4,1745,1001.2,1745,1001.2z"/>
		<path class="st193" d="M1801.1,1248c-6.4,29.3-143.4,16.4-141.6-1.4c0.1-0.6,0.4-8.9,0.9-20c1-24.1,2.6-61.8,2.8-64.8
			c0-0.1,0-0.1,0-0.2c2.5-24.9,4.8-49.2,5-65.1c0.1-13.8,2-27.9,4.6-40.7c2.3-11.8,5.2-22.5,7.7-30.9c1.8-5.9,5-11.1,9.3-15.1
			c3.1-2.9,6.7-5.2,10.7-6.8c1.1-0.5,2.2-0.8,3.3-1.2c16.1-4.7,38.4-10.5,44.5-8.7c16.4,4.8,28.5,33.7,37.2,70.4
			C1801.6,1132.3,1805.3,1228.9,1801.1,1248z"/>
		<path class="st210" d="M1737.5,962.5c-5.8,11.1-27.4,20.7-36.5,24.2c0.1-0.6,0.2-1.1,0.3-1.7c1.5-8.2,2.7-15.3,2.7-15.3l26.4-13.2
			C1736.4,956.5,1739.9,957.9,1737.5,962.5z"/>
		<path class="st200" d="M1691.3,968.2c0,0,47.7,14.9,56.5-15c8.8-29.8,20.9-48-9.2-58.8c-30.1-10.8-39.4-1.1-44.7,8.1
			C1688.5,911.8,1679.1,963.5,1691.3,968.2z"/>
		<path class="st192" d="M1695.7,899.7c0,0,3,34.7,10.2,33.2c7.2-1.5,13.7-2.6,12.6,7.8c-1.1,10.5-11,22.6,11.1,24.4
			c22.1,1.9,53.9-55.2,47.9-66C1760,868,1670.3,861.7,1695.7,899.7z"/>
		<path class="st196" d="M1660.4,1226.5c1-24.1,2.6-61.8,2.8-64.8c0-0.1,0-0.1,0-0.2l81-48.4
			C1744.2,1113.2,1747.3,1226.2,1660.4,1226.5z"/>
		<path class="st200" d="M1596,1125.3c0,0-16.5-11.1-19.6-12.1c-3.1-1-13.4-2-13.8-1.2c-0.5,0.8-1.9,3.3-0.1,4.1s4,0.5,3.3,1.1
			s-7.4-2.6-8.9,0.8c-1.6,3.4-2.9,15.2,5,18.7c7.9,3.6,27.4,0.3,28.8,0.8C1602.6,1140.9,1596,1125.3,1596,1125.3z"/>
		<path class="st193" d="M1595.9,1122.2c0,0,80.3,13.7,87.4,10.2c11.4-5.5-4.4-87-4.4-87s-0.7-18.5,20.9-22.8
			c18.7-3.8,36.8,10.3,36.8,10.3s16.4,14.7,14.3,31c-4.7,36.2-11.9,109.8-36.1,121c-31.2,14.5-121.5-40.3-121.5-40.3
			s-3-3.7-2.6-10.5C1591.1,1128.1,1595.9,1122.2,1595.9,1122.2z"/>
		<path class="st200" d="M1541.9,926.7c0,0-5.1-10.2-6-12.1c-0.8-1.9,1.2-1.5,3.2-0.4c2,1.1,4.7,7,7.7,6.3
			C1549.3,919.8,1541.9,926.7,1541.9,926.7z"/>
	</g>
	<g>
		<path class="st211" d="M862.9,1628.2c0,1.5,0.1,2.9,0.3,4.3c0.5,4.5,1.9,8.8,4,12.6c1.6,3,3.7,5.7,6.1,8.1
			c6.4,6.4,15.2,10.4,25,10.4h497.6c19.5,0,35.4-15.8,35.4-35.4c0-9.8-4-18.6-10.4-25c-6.4-6.4-15.2-10.4-25-10.4H898.3
			C878.7,1592.8,862.9,1608.6,862.9,1628.2z"/>
		<path class="st211" d="M900.9,1586.4h170.6c3,0,5.4-2.4,5.4-5.4l0,0c0-3-2.4-5.4-5.4-5.4H900.9c-3,0-5.4,2.4-5.4,5.4l0,0
			C895.4,1583.9,897.9,1586.4,900.9,1586.4z"/>
		
			<rect x="910.3" y="1586.4" transform="matrix(-1 -1.224647e-16 1.224647e-16 -1 1839.0664 3179.1719)" class="st197" width="18.5" height="6.4"/>
		<path class="st197" d="M867.2,1645.1c1.6,3,3.7,5.7,6.1,8.1c6.4,6.4,15.2,10.4,25,10.4h105.4v-18.5H867.2z"/>
		<path class="st206" d="M1497.2,1617.8v20.7c0,2.3-0.3,4.5-0.9,6.6c-2.9,10.6-12.6,18.5-24.1,18.5H953.8
			c-11.5,0-21.3-7.8-24.1-18.5c-0.6-2.1-0.9-4.3-0.9-6.6v-20.7c0-13.8,11.2-25,25-25h518.4C1486,1592.8,1497.2,1604,1497.2,1617.8z"
			/>
		<path class="st212" d="M1496.3,1645.1c-2.9,10.6-12.6,18.5-24.1,18.5H953.8c-11.5,0-21.3-7.8-24.1-18.5H1496.3z"/>
		<g>
			<path class="st203" d="M1445.7,1628.3c0,11,4,20.8,10.3,27.3c0.1,0.1,0.3,0.3,0.4,0.4c4.9,4.8,11,7.8,17.8,7.8
				c10.5,0,36.5-15.8,52.6-26.3c8-5.2,13.6-9.2,13.6-9.2s-5.6-3.9-13.6-9.2c-16.1-10.5-42.1-26.4-52.6-26.4c-3,0-6,0.6-8.7,1.7
				c-4.6,1.9-8.8,5.2-12,9.5c-3.6,4.7-6.1,10.7-7.2,17.3c0,0.1,0,0.2,0,0.2C1445.9,1623.7,1445.7,1626,1445.7,1628.3z"/>
			<path class="st199" d="M1445.7,1628.3c0,11,4,20.8,10.3,27.3l79.8-27.4l-89.6-6.7C1445.9,1623.7,1445.7,1626,1445.7,1628.3z"/>
			<path class="st213" d="M1453.5,1603.9l79.6,21.7l-67.6-31.2C1460.8,1596.3,1456.7,1599.6,1453.5,1603.9z"/>
			<path class="st214" d="M1521.6,1628.3c0,4.2,2.2,7.8,5.2,9.2c8-5.2,13.6-9.2,13.6-9.2s-5.6-3.9-13.6-9.2
				C1523.8,1620.5,1521.6,1624.1,1521.6,1628.3z"/>
		</g>
	</g>
	<path class="st215" d="M2573,1670.5H265.5c-1.5,0-2.7-1.2-2.7-2.7v-1.2c0-1.5,1.2-2.7,2.7-2.7H2573c1.5,0,2.7,1.2,2.7,2.7v1.2
		C2575.7,1669.2,2574.5,1670.5,2573,1670.5z"/>
</g>
<g id="Layer_5">
</g>
</svg>
