<?xml version="1.0" encoding="utf-8"?>
<!-- Generator: Adobe Illustrator 25.1.0, SVG Export Plug-In . SVG Version: 6.00 Build 0)  -->
<svg version="1.1" xmlns="http://www.w3.org/2000/svg" xmlns:xlink="http://www.w3.org/1999/xlink" x="0px" y="0px"
	 viewBox="0 0 5240.2 911.7" style="enable-background:new 0 0 5240.2 911.7;" xml:space="preserve">
<style type="text/css">
	.st0{display:none;}
	.st1{display:inline;fill:#82CCB4;}
	.st2{display:inline;}
	.st3{fill:url(#SVGID_1_);}
	.st4{display:inline;fill:#4DAAA7;}
	.st5{display:inline;fill:#3E908A;}
	.st6{display:inline;fill:#333333;}
	.st7{display:inline;fill:#F15637;}
	.st8{display:inline;fill:#FBAE38;}
	.st9{display:inline;fill:#4CB85B;}
	.st10{display:inline;fill:none;stroke:#000000;stroke-linecap:square;stroke-miterlimit:10;}
	.st11{display:inline;fill:#FFFFFF;}
	.st12{font-family:'Montserrat-Regular';}
	.st13{font-size:195.6077px;}
	.st14{display:inline;fill:url(#SVGID_2_);}
	.st15{fill:url(#SVGID_3_);}
	.st16{fill:#71C05C;}
	.st17{display:inline;fill:url(#SVGID_4_);}
	.st18{display:inline;fill:url(#SVGID_5_);}
	.st19{display:inline;fill:url(#SVGID_6_);}
	.st20{display:inline;fill:url(#SVGID_7_);}
	.st21{display:inline;fill:url(#SVGID_8_);}
	.st22{display:inline;fill:url(#SVGID_9_);}
	.st23{display:inline;fill:url(#SVGID_10_);}
	.st24{fill:url(#SVGID_11_);}
	.st25{fill:url(#SVGID_12_);}
	.st26{fill:none;stroke:#67BD45;stroke-width:12;stroke-linecap:round;stroke-miterlimit:10;}
	.st27{fill:#67BD45;}
	.st28{display:inline;fill:none;stroke:url(#SVGID_13_);stroke-width:18;stroke-linecap:square;stroke-miterlimit:10;}
	.st29{display:inline;fill:none;stroke:#7257A5;stroke-width:14;stroke-miterlimit:10;}
	.st30{display:inline;fill:none;stroke:#4BA4DB;stroke-width:14;stroke-miterlimit:10;}
	.st31{display:inline;fill:none;stroke:#5EC9E3;stroke-width:14;stroke-miterlimit:10;}
	.st32{display:inline;fill:none;stroke:url(#SVGID_14_);stroke-width:18;stroke-linecap:square;stroke-miterlimit:10;}
	.st33{display:inline;fill:none;stroke:#000000;stroke-width:16;stroke-miterlimit:10;}
	.st34{fill:none;stroke:#6ABD45;stroke-width:12;stroke-linecap:round;stroke-miterlimit:10;}
	.st35{fill:#6ABD45;}
	.st36{display:inline;fill:none;stroke:#6ABD45;stroke-width:12;stroke-linecap:round;stroke-miterlimit:10;}
	.st37{fill:url(#SVGID_15_);}
	.st38{display:inline;fill:none;stroke:url(#SVGID_16_);stroke-width:12;stroke-linecap:round;stroke-miterlimit:10;}
	.st39{display:inline;fill:none;stroke:#000000;stroke-width:12;stroke-linecap:round;stroke-miterlimit:10;}
	.st40{display:inline;fill:none;stroke:#000000;stroke-width:6;stroke-miterlimit:10;}
	.st41{fill:url(#SVGID_17_);}
	.st42{fill:url(#SVGID_18_);}
	.st43{fill:url(#SVGID_19_);}
	.st44{fill:url(#SVGID_20_);}
	.st45{fill:url(#SVGID_21_);}
	.st46{fill:url(#SVGID_22_);}
	.st47{fill:url(#SVGID_23_);}
	.st48{fill:url(#SVGID_24_);}
	.st49{fill:url(#SVGID_25_);}
	.st50{stroke:#000000;stroke-width:8;stroke-miterlimit:10;}
	.st51{font-size:387.49px;}
</style>
<g id="Layer_3" class="st0">
	<rect x="1983.1" y="60.2" class="st1" width="841.9" height="597.3"/>
</g>
<g id="Layer_6" class="st0">
</g>
<g id="Layer_5" class="st0">
	<path class="st10" d="M2233.5,230.6c-64.3,0-116.5,52.2-116.5,116.5s52.2,116.5,116.5,116.5h-0.5c64.3,0,116.5-52.2,116.5-116.5
		s-52.2-116.5-116.5-116.5"/>
	<path class="st10" d="M2595.5,230.4c-64.3,0-116.5,52.2-116.5,116.5s52.2,116.5,116.5,116.5h-0.5c64.3,0,116.5-52.2,116.5-116.5
		s-52.2-116.5-116.5-116.5"/>
	<path class="st10" d="M2415.5,230.4c-64.3,0-116.5,52.2-116.5,116.5s52.2,116.5,116.5,116.5h-0.5c64.3,0,116.5-52.2,116.5-116.5
		s-52.2-116.5-116.5-116.5"/>
	<line class="st10" x1="2117.4" y1="346.9" x2="2711.4" y2="346.9"/>
</g>
<g id="Layer_8" class="st0">
	<rect x="-0.6" y="-1342.1" class="st2" width="5318" height="3541"/>
	<text transform="matrix(1 0 0 1 1173.5875 212.6654)" class="st11 st12 st13">DM GROUP OF INVESTMENTS</text>
</g>
<g id="_x31_" class="st0">
	<g class="st2">
		<linearGradient id="SVGID_1_" gradientUnits="userSpaceOnUse" x1="731.229" y1="559.7889" x2="2198.0305" y2="562.088">
			<stop  offset="1.156130e-06" style="stop-color:#F15637"/>
			<stop  offset="0.4832" style="stop-color:#FBAE38"/>
			<stop  offset="1" style="stop-color:#49B85B"/>
		</linearGradient>
		<path class="st3" d="M769.7,909.6l1373.4-693.3c19.3-9.7,42.7-1.8,52.3,17.8c9.6,19.6,1.7,43.4-17.6,53.1
			c-0.6,0.3-1.2,0.6-1.8,0.9L769.7,909.6z"/>
		<g>
			<path class="st16" d="M2662.1,509.1L2148.4,298c-22.6-9.3-33.4-35.2-24.1-57.8c9.3-22.6,35.2-33.4,57.8-24.1l477.7,196.4
				l1390.1-649.2c22.2-10.4,48.5-0.8,58.9,21.4c10.4,22.2,0.8,48.5-21.4,58.9L2662.1,509.1z"/>
		</g>
	</g>
	<linearGradient id="SVGID_2_" gradientUnits="userSpaceOnUse" x1="4055.054" y1="909.3351" x2="4055.4968" y2="909.3351">
		<stop  offset="9.376909e-07" style="stop-color:#3E908A"/>
		<stop  offset="3.267383e-02" style="stop-color:#3F928C"/>
		<stop  offset="0.3073" style="stop-color:#479F9A"/>
		<stop  offset="0.6114" style="stop-color:#4CA8A4"/>
		<stop  offset="1" style="stop-color:#4DAAA7"/>
	</linearGradient>
	<polygon class="st14" points="4055.5,868 4055.5,950.7 4055.1,868 	"/>
	<linearGradient id="SVGID_3_" gradientUnits="userSpaceOnUse" x1="1299.4103" y1="77.9169" x2="1299.4103" y2="-753.1844">
		<stop  offset="0" style="stop-color:#F15637"/>
		<stop  offset="8.109058e-02" style="stop-color:#EA5539"/>
		<stop  offset="0.1776" style="stop-color:#DC533E"/>
		<stop  offset="0.2821" style="stop-color:#C85045"/>
		<stop  offset="0.3922" style="stop-color:#AE4C4E"/>
		<stop  offset="0.5068" style="stop-color:#8D4757"/>
		<stop  offset="0.625" style="stop-color:#674260"/>
		<stop  offset="0.7442" style="stop-color:#343D68"/>
		<stop  offset="0.781" style="stop-color:#1D3B6B"/>
		<stop  offset="0.8157" style="stop-color:#1A4579"/>
		<stop  offset="0.8694" style="stop-color:#135289"/>
		<stop  offset="0.928" style="stop-color:#0C5994"/>
		<stop  offset="1" style="stop-color:#085B98"/>
	</linearGradient>
	<path style="display:inline;fill:url(#SVGID_3_);" d="M1351.3,77.9H1248c-0.2-277-0.3-554.1-0.5-831.1c34.6,0,69.2,0,103.8,0V77.9z
		"/>
	<linearGradient id="SVGID_4_" gradientUnits="userSpaceOnUse" x1="1247.1556" y1="74.6788" x2="2239.7908" y2="74.6788">
		<stop  offset="3.409785e-07" style="stop-color:#005B97"/>
		<stop  offset="0.2935" style="stop-color:#08558E"/>
		<stop  offset="0.7493" style="stop-color:#184578"/>
		<stop  offset="1" style="stop-color:#1D3B6B"/>
	</linearGradient>
	<path class="st17" d="M1313.6,1000.9h-66.4V868h66.4c437.5,0,793.4-355.9,793.4-793.4c0-437.5-355.9-793.4-793.4-793.4h-66.4
		v-132.9h66.4c510.7,0,926.2,415.5,926.2,926.2S1824.3,1000.9,1313.6,1000.9z"/>
	<linearGradient id="SVGID_5_" gradientUnits="userSpaceOnUse" x1="3051.1475" y1="74.6802" x2="4043.7881" y2="74.6802">
		<stop  offset="8.631019e-07" style="stop-color:#1D3B6B"/>
		<stop  offset="0.2507" style="stop-color:#184578"/>
		<stop  offset="0.7065" style="stop-color:#08558E"/>
		<stop  offset="1" style="stop-color:#005B97"/>
	</linearGradient>
	<path class="st18" d="M3184,74.6c0,294.1,160.9,551.4,399.3,688.4l-3-529.4l103.3-0.6l3.3,579.9c24.4,9.7,49.4,18.1,74.8,25.3
		l-3.9-691.3l103.3-0.6l4.1,713.6c24.5,3.5,49.5,5.9,74.7,7.1l-4.6-804.8l103.3-0.6l4.6,806.3l0.4,82.7v50.2h-66.4
		c-138.8,0-270.4-30.6-388.7-85.5c-1.6-0.7-3-1.4-4.5-2.1c-314.7-148.1-533-468.3-533-838.5c0-510.7,415.5-926.1,926.2-926.1h66.4
		v132.9h-66.4C3539.9-718.6,3184-362.7,3184,74.6z"/>
</g>
<g id="_x33_" class="st0">
	<g class="st2">
		<linearGradient id="SVGID_6_" gradientUnits="userSpaceOnUse" x1="2354.5894" y1="406.6814" x2="2128.751" y2="406.6814">
			<stop  offset="8.151518e-07" style="stop-color:#7257A5"/>
			<stop  offset="0.4832" style="stop-color:#46A4DB"/>
			<stop  offset="1" style="stop-color:#5EC9E3"/>
		</linearGradient>
		<path style="fill:url(#SVGID_6_);" d="M2134.6,459.5l211.3-105c3-1.5,6.6-0.3,8,2.7c1.5,3,0.3,6.6-2.7,8c-0.1,0-0.2,0.1-0.3,0.1
			L2134.6,459.5z"/>
	</g>
	<g class="st2">
		<linearGradient id="SVGID_7_" gradientUnits="userSpaceOnUse" x1="1493.6925" y1="406.5044" x2="1719.3743" y2="406.8582">
			<stop  offset="3.409785e-07" style="stop-color:#3954A5"/>
			<stop  offset="0.4832" style="stop-color:#B9529F"/>
			<stop  offset="1" style="stop-color:#ED2024"/>
		</linearGradient>
		<path style="fill:url(#SVGID_7_);" d="M1499.6,459.5l211.3-105c3-1.5,6.6-0.3,8,2.7c1.5,3,0.3,6.6-2.7,8c-0.1,0-0.2,0.1-0.3,0.1
			L1499.6,459.5z"/>
	</g>
	<g class="st2">
		<g>
			<path class="st26" d="M2348.4,359.9c21.2,8.7,43.6,17.9,67.2,27.6c63.6-29.7,127.1-59.4,190.7-89.1"/>
			<g>
				<path class="st27" d="M2601.5,300.7l-10.5-7l0.2-0.4l18.9-1.1c6.1-1.4,12.3-2.7,18.4-4.1c-5,3.8-10,7.6-15,11.5l-13,13.8l-0.4,0
					L2601.5,300.7z"/>
			</g>
		</g>
	</g>
	<linearGradient id="SVGID_8_" gradientUnits="userSpaceOnUse" x1="2470.0537" y1="347.247" x2="2606.4321" y2="347.247">
		<stop  offset="7.512183e-07" style="stop-color:#7257A5"/>
		<stop  offset="0.1042" style="stop-color:#705DA6"/>
		<stop  offset="0.2778" style="stop-color:#6C6BAA"/>
		<stop  offset="0.4996" style="stop-color:#6381B1"/>
		<stop  offset="0.7579" style="stop-color:#519FBB"/>
		<stop  offset="1" style="stop-color:#2CBEC3"/>
	</linearGradient>
	<path style="display:inline;fill:none;stroke:url(#SVGID_8_);stroke-width:18;stroke-linecap:square;stroke-miterlimit:10;" d="
		M2595.5,230.6c-64.3,0-116.5,52.2-116.5,116.5s68.2,109.1,68.2,109.1v-84.9l25.1-12.4v102.2l25.1,2V346.9"/>
	<line class="st29" x1="2231.5" y1="347.5" x2="2231.5" y2="231.3"/>
	<line class="st30" x1="2256.6" y1="335.4" x2="2256.6" y2="233.2"/>
	<line class="st31" x1="2281.7" y1="323.1" x2="2281.7" y2="238.2"/>
	
		<image style="display:inline;overflow:visible;" width="800" height="480" xlink:href="B8AC93A9.jpg"  transform="matrix(0.475 0 0 0.475 2746.4478 698.9134)">
	</image>
	
		<linearGradient id="SVGID_9_" gradientUnits="userSpaceOnUse" x1="2461.0537" y1="347.2471" x2="2597.4319" y2="347.2471" gradientTransform="matrix(-1 0 0 -1 4820.4858 693.7335)">
		<stop  offset="7.512183e-07" style="stop-color:#7257A5"/>
		<stop  offset="0.1042" style="stop-color:#705DA6"/>
		<stop  offset="0.2778" style="stop-color:#6C6BAA"/>
		<stop  offset="0.4996" style="stop-color:#6381B1"/>
		<stop  offset="0.7579" style="stop-color:#519FBB"/>
		<stop  offset="1" style="stop-color:#2CBEC3"/>
	</linearGradient>
	<path style="display:inline;fill:none;stroke:url(#SVGID_9_);stroke-width:18;stroke-linecap:square;stroke-miterlimit:10;" d="
		M2233.9,463.1c64.3,0,116.5-52.2,116.5-116.5s-68.2-109.1-68.2-109.1v84.9l-25.1,12.4V232.6l-25.1-2l0,116.2"/>
</g>
<g id="Layer_2_copy" class="st0">
	<line class="st33" x1="2593.8" y1="300.4" x2="2593.8" y2="463.6"/>
	<g class="st2">
		<g>
			<path class="st34" d="M2412.5,367.1c63.9-29.8,127.7-59.7,191.6-89.5"/>
			<g>
				<path class="st35" d="M2599.4,279.8l-10.1-6.7l0.2-0.4l18.2-1.1c5.9-1.3,11.8-2.6,17.7-4c-4.8,3.7-9.6,7.3-14.4,11l-12.5,13.2
					l-0.4,0L2599.4,279.8z"/>
			</g>
		</g>
	</g>
	<path class="st36" d="M2349.4,341.6c19.9,8.1,41,16.6,63.1,25.5"/>
	<g class="st2">
		<linearGradient id="SVGID_10_" gradientUnits="userSpaceOnUse" x1="2349.2856" y1="401.8033" x2="2228.8596" y2="392.6106">
			<stop  offset="3.409785e-07" style="stop-color:#3954A5"/>
			<stop  offset="0.4832" style="stop-color:#B9529F"/>
			<stop  offset="1" style="stop-color:#ED2024"/>
		</linearGradient>
		<polygon style="fill:url(#SVGID_10_);" points="2353.6,345.9 2228.4,456.8 2345.3,337.2 		"/>
	</g>
	<line class="st33" x1="2566.9" y1="323.1" x2="2566.9" y2="457.9"/>
	<line class="st33" x1="2540.1" y1="346.3" x2="2540.1" y2="445.6"/>
	<linearGradient id="SVGID_11_" gradientUnits="userSpaceOnUse" x1="2227.0537" y1="347.078" x2="2355.5432" y2="347.078">
		<stop  offset="3.409785e-07" style="stop-color:#3954A5"/>
		<stop  offset="0.4832" style="stop-color:#B9529F"/>
		<stop  offset="1" style="stop-color:#ED2024"/>
	</linearGradient>
	<path style="display:inline;fill:none;stroke:url(#SVGID_11_);stroke-width:12;stroke-linecap:round;stroke-miterlimit:10;" d="
		M2233.1,463.6c64.3,0,116.5-52.2,116.5-116.5s-52.2-116.5-116.5-116.5v163.2"/>
	<path class="st39" d="M2595.8,230.6c-11.8,0.1-38.4,2-64.6,19.6c-32.9,22-52.7,60.3-51.9,96.9c1.2,55.2,49.3,107.2,116.5,116.5"/>
</g>
<g id="Layer_1" class="st0">
	<path class="st40" d="M2238.4,215.2c64.3,0,116.5,52.2,116.5,116.5s-52.2,116.5-116.5,116.5"/>
	<line class="st40" x1="2238.4" y1="215.2" x2="2238.4" y2="433.4"/>
	<path class="st40" d="M2601.2,215.2c-11.8,0.1-38.4,2-64.6,19.6c-32.9,22-52.7,60.3-51.9,96.9c1.2,55.2,49.3,107.2,116.5,116.5"/>
	<line class="st40" x1="2600.4" y1="245.7" x2="2600.4" y2="448.9"/>
	<path class="st40" d="M2238.4,448.1c38.8-40.7,77.6-81.3,116.4-122c21,8.5,42,17,63.1,25.5c65.7-42,131.3-84,197-126.1"/>
	<line class="st40" x1="2570.3" y1="274" x2="2570.3" y2="441.8"/>
	<line class="st40" x1="2540.6" y1="303" x2="2540.6" y2="426.5"/>
</g>
<g id="Layer_9">
	<linearGradient id="SVGID_12_" gradientUnits="userSpaceOnUse" x1="4113.7251" y1="66.4215" x2="4113.9863" y2="66.4215">
		<stop  offset="9.376909e-07" style="stop-color:#3E908A"/>
		<stop  offset="3.267383e-02" style="stop-color:#3F928C"/>
		<stop  offset="0.3073" style="stop-color:#479F9A"/>
		<stop  offset="0.6114" style="stop-color:#4CA8A4"/>
		<stop  offset="1" style="stop-color:#4DAAA7"/>
	</linearGradient>
	<polygon class="st25" points="4114,89.2 4113.7,89.2 4113.7,43.6 	"/>
	<linearGradient id="SVGID_13_" gradientUnits="userSpaceOnUse" x1="3571.3948" y1="0.6225" x2="3576.7075" y2="0.6225">
		<stop  offset="9.376909e-07" style="stop-color:#3E908A"/>
		<stop  offset="3.267383e-02" style="stop-color:#3F928C"/>
		<stop  offset="0.3073" style="stop-color:#479F9A"/>
		<stop  offset="0.6114" style="stop-color:#4CA8A4"/>
		<stop  offset="1" style="stop-color:#4DAAA7"/>
	</linearGradient>
	<path style="fill:url(#SVGID_13_);" d="M3576.7,1.9h-5.3v-2.5C3573.1,0.2,3574.9,1.1,3576.7,1.9z"/>
	<g>
		<g>
			<linearGradient id="SVGID_14_" gradientUnits="userSpaceOnUse" x1="-18.2599" y1="697.8789" x2="695.4415" y2="698.9976">
				<stop  offset="1.156130e-06" style="stop-color:#F15637"/>
				<stop  offset="0.4832" style="stop-color:#FBAE38"/>
				<stop  offset="1" style="stop-color:#49B85B"/>
			</linearGradient>
			<path style="fill:url(#SVGID_14_);" d="M0.4,868.1l668.2-337.3c9.4-4.7,20.8-0.9,25.4,8.7c4.7,9.5,0.8,21.1-8.5,25.8
				c-0.3,0.1-0.6,0.3-0.9,0.4L0.4,868.1z"/>
			<g>
				<path class="st16" d="M921.3,673.2L671.3,570.5c-11-4.5-16.3-17.1-11.7-28.1c4.5-11,17.1-16.3,28.1-11.7l232.4,95.5l676.4-315.9
					c10.8-5,23.6-0.4,28.6,10.4c5,10.8,0.4,23.6-10.4,28.6L921.3,673.2z"/>
				<g>
					<path class="st16" d="M1588.1,338l-37.8-25.2l0.8-1.4l68-4c22-4.9,44.1-9.9,66.1-14.8c-17.9,13.7-35.9,27.5-53.8,41.2
						l-46.7,49.6l-1.5,0L1588.1,338z"/>
				</g>
			</g>
		</g>
		<linearGradient id="SVGID_15_" gradientUnits="userSpaceOnUse" x1="1599.0132" y1="867.9576" x2="1599.2286" y2="867.9576">
			<stop  offset="9.376909e-07" style="stop-color:#3E908A"/>
			<stop  offset="3.267383e-02" style="stop-color:#3F928C"/>
			<stop  offset="0.3073" style="stop-color:#479F9A"/>
			<stop  offset="0.6114" style="stop-color:#4CA8A4"/>
			<stop  offset="1" style="stop-color:#4DAAA7"/>
		</linearGradient>
		<polygon class="st37" points="1599.2,847.8 1599.2,888.1 1599,847.8 		"/>
		<linearGradient id="SVGID_16_" gradientUnits="userSpaceOnUse" x1="258.2" y1="463.4146" x2="258.2" y2="59.0257">
			<stop  offset="0" style="stop-color:#F15637"/>
			<stop  offset="8.109058e-02" style="stop-color:#EA5539"/>
			<stop  offset="0.1776" style="stop-color:#DC533E"/>
			<stop  offset="0.2821" style="stop-color:#C85045"/>
			<stop  offset="0.3922" style="stop-color:#AE4C4E"/>
			<stop  offset="0.5068" style="stop-color:#8D4757"/>
			<stop  offset="0.625" style="stop-color:#674260"/>
			<stop  offset="0.7442" style="stop-color:#343D68"/>
			<stop  offset="0.781" style="stop-color:#1D3B6B"/>
			<stop  offset="0.8157" style="stop-color:#1A4579"/>
			<stop  offset="0.8694" style="stop-color:#135289"/>
			<stop  offset="0.928" style="stop-color:#0C5994"/>
			<stop  offset="1" style="stop-color:#085B98"/>
		</linearGradient>
		<path style="fill:url(#SVGID_16_);" d="M283.5,463.4h-50.3c-0.1-134.8-0.2-269.6-0.2-404.4c16.8,0,33.7,0,50.5,0V463.4z"/>
		<linearGradient id="SVGID_17_" gradientUnits="userSpaceOnUse" x1="348.4857" y1="420.0318" x2="348.4857" y2="69.7995">
			<stop  offset="4.795011e-07" style="stop-color:#FBAE38"/>
			<stop  offset="8.109100e-02" style="stop-color:#F3A93C"/>
			<stop  offset="0.1776" style="stop-color:#E49F43"/>
			<stop  offset="0.2821" style="stop-color:#CD914E"/>
			<stop  offset="0.3922" style="stop-color:#AF7F59"/>
			<stop  offset="0.5068" style="stop-color:#8B6B61"/>
			<stop  offset="0.625" style="stop-color:#635666"/>
			<stop  offset="0.7442" style="stop-color:#31416A"/>
			<stop  offset="0.781" style="stop-color:#1D3B6B"/>
			<stop  offset="0.8012" style="stop-color:#1B4072"/>
			<stop  offset="0.8592" style="stop-color:#154D82"/>
			<stop  offset="0.9223" style="stop-color:#0E558D"/>
			<stop  offset="1" style="stop-color:#0B5790"/>
		</linearGradient>
		<rect x="323.3" y="69.8" class="st41" width="50.3" height="350.2"/>
		<linearGradient id="SVGID_18_" gradientUnits="userSpaceOnUse" x1="438.6601" y1="375.6478" x2="438.6601" y2="87.7558">
			<stop  offset="4.795011e-07" style="stop-color:#4CB85B"/>
			<stop  offset="0.2896" style="stop-color:#4CB65C"/>
			<stop  offset="0.3987" style="stop-color:#4AB05D"/>
			<stop  offset="0.4773" style="stop-color:#46A760"/>
			<stop  offset="0.5413" style="stop-color:#409C65"/>
			<stop  offset="0.5964" style="stop-color:#398F69"/>
			<stop  offset="0.6454" style="stop-color:#327F6C"/>
			<stop  offset="0.6898" style="stop-color:#2A6D6D"/>
			<stop  offset="0.7306" style="stop-color:#22596D"/>
			<stop  offset="0.7672" style="stop-color:#1C446C"/>
			<stop  offset="0.781" style="stop-color:#1D3B6B"/>
			<stop  offset="0.798" style="stop-color:#1A4274"/>
			<stop  offset="0.83" style="stop-color:#134B7F"/>
			<stop  offset="0.875" style="stop-color:#0D5086"/>
			<stop  offset="1" style="stop-color:#0B5188"/>
		</linearGradient>
		<rect x="413.5" y="87.8" class="st42" width="50.3" height="287.9"/>
		<linearGradient id="SVGID_19_" gradientUnits="userSpaceOnUse" x1="232.7745" y1="461.839" x2="715.7608" y2="461.839">
			<stop  offset="3.409785e-07" style="stop-color:#005B97"/>
			<stop  offset="0.2935" style="stop-color:#08558E"/>
			<stop  offset="0.7493" style="stop-color:#184578"/>
			<stop  offset="1" style="stop-color:#1D3B6B"/>
		</linearGradient>
		<path class="st43" d="M265.1,912.5h-32.3v-64.6h32.3c212.9,0,386-173.2,386-386c0-212.9-173.2-386-386-386h-32.3V11.2h32.3
			c248.5,0,450.7,202.2,450.7,450.7S513.6,912.5,265.1,912.5z"/>
		<linearGradient id="SVGID_20_" gradientUnits="userSpaceOnUse" x1="1110.5426" y1="461.8397" x2="1593.5316" y2="461.8397">
			<stop  offset="8.631019e-07" style="stop-color:#1D3B6B"/>
			<stop  offset="0.2507" style="stop-color:#184578"/>
			<stop  offset="0.7065" style="stop-color:#08558E"/>
			<stop  offset="1" style="stop-color:#005B97"/>
		</linearGradient>
		<path class="st44" d="M1175.2,461.8c0,143.1,78.3,268.3,194.3,335l-1.5-257.6l50.3-0.3l1.6,282.2c11.9,4.7,24,8.8,36.4,12.3
			l-1.9-336.4l50.3-0.3l2,347.2c11.9,1.7,24.1,2.9,36.3,3.4l-2.2-391.6l50.3-0.3l2.3,392.3l0.2,40.2v24.4h-32.3
			c-67.5,0-131.6-14.9-189.1-41.6c-0.8-0.3-1.5-0.7-2.2-1c-153.1-72.1-259.4-227.9-259.4-408c0-248.5,202.2-450.6,450.7-450.6h32.3
			v64.6h-32.3C1348.4,75.8,1175.2,249,1175.2,461.8z"/>
	</g>
	<text transform="matrix(1 0 0 1 1777.1178 376.6107)"><tspan x="0" y="0" class="st50 st12 st51">DM GROUP </tspan><tspan x="0" y="465" class="st50 st12 st51">OF INVESTMENTS</tspan></text>
</g>
</svg>
